<svg width="131" height="30" viewBox="0 0 131 30" fill="none" xmlns="http://www.w3.org/2000/svg">
<path opacity="0.3" d="M43.2456 23.8861V22.5735H45.0843V12.1461H43.2456V10.8384H48.4765V12.1461H46.6525V22.5932H48.4765V23.8861H43.2456ZM51.3574 10.8188H56.7308C58.8841 10.8188 60.2115 12.1461 60.2115 14.1864C60.2115 16.1529 58.9578 16.8264 58.0975 16.9592V17.0722C59.6298 17.2228 60.7646 18.5646 60.6588 20.1006C60.6588 22.254 59.2184 23.8861 57.2912 23.8861H51.3574V10.8188ZM52.9256 16.5118H56.544C57.7779 16.5118 58.5105 15.8579 58.5105 14.6977V14.0536C58.5105 12.8934 57.7632 12.2395 56.544 12.2395H52.9256V16.5118ZM52.9256 22.5391H56.8045C58.1516 22.5391 58.9726 21.8312 58.9726 20.5185V19.8794C58.9726 18.5717 58.1516 17.8588 56.8045 17.8588H52.9256V22.5391ZM73.7458 12.8983H73.6524L72.5659 15.0861L69.4392 20.7791L66.3125 15.0861L65.1916 12.918H65.0982V23.8861H63.5791V10.8384H65.639L69.3851 17.8785H69.4589L73.2247 10.8384H75.2846V23.8861H73.7458V12.8983ZM81.6117 17.4655C81.6117 13.0409 83.8781 10.6123 87.3981 10.6123C89.7923 10.6123 91.3311 11.5955 92.2848 13.6849L89.8267 14.9533C89.5771 13.8185 88.5266 13.0432 87.3686 13.1392C85.707 13.1392 84.6008 14.265 84.6008 16.32V18.4193C84.6008 20.4792 85.707 21.6001 87.3686 21.6001C88.5823 21.6104 89.6514 20.8036 89.9742 19.6336L92.2947 20.9856C91.3114 22.9521 89.7677 24.1124 87.3785 24.1124C83.8978 24.132 81.6314 21.8852 81.6314 17.4655H81.6117ZM96.9258 23.8861C95.0379 23.8861 94.1776 22.9324 94.1776 21.1871V10.0518H96.9454V21.7525H98.1843V23.8861H96.9258ZM99.2315 18.9699C99.2315 15.8087 100.952 13.8422 103.838 13.8422C106.724 13.8422 108.444 15.8087 108.444 18.9699C108.444 22.131 106.724 24.1221 103.838 24.1221C100.952 24.1221 99.2315 22.1458 99.2315 18.9699ZM105.559 17.9866C105.559 16.7478 104.924 16.0201 103.838 16.0201C102.751 16.0201 102.117 16.7281 102.117 17.9866V19.9876C102.117 21.2265 102.751 21.9541 103.838 21.9541C104.924 21.9541 105.559 21.2265 105.559 19.9925V17.9866ZM116.212 22.249H116.119C115.752 23.4405 114.608 24.2186 113.366 24.1221C111.365 24.1221 110.298 22.7161 110.298 20.2432V14.0782H113.066V20.0121C113.066 21.2117 113.459 21.8852 114.472 21.8852C115.332 21.8852 116.212 21.3936 116.212 20.4595V14.0684H118.985V23.9009H116.212V22.249ZM127.598 22.249H127.505C127.142 23.3935 126.064 24.1583 124.865 24.1221C122.372 24.1221 121.084 22.3031 121.084 18.9699C121.084 15.6367 122.377 13.8422 124.865 13.8422C126.067 13.7976 127.15 14.5657 127.505 15.7153H127.598V10.0518H130.371V23.8861H127.598V22.249ZM127.598 17.5294C127.598 16.6298 126.831 16.089 125.784 16.089C124.737 16.089 123.965 16.8903 123.965 18.1292V19.8302C123.965 21.0691 124.732 21.8754 125.784 21.8754C126.836 21.8754 127.598 21.3395 127.598 20.4448V17.5294Z" fill="#000008"/>
<path d="M5.20303 11.9797C5.09331 11.9787 4.98568 11.9496 4.89034 11.8953L1.8604 10.1443C1.5804 9.98926 1.44935 9.6577 1.54771 9.35315C1.66828 9.01949 2.03596 8.84613 2.37008 8.96542C2.40673 8.97697 2.4415 8.99383 2.47327 9.01545L5.50634 10.7665C5.80397 10.9396 5.92056 11.3111 5.77525 11.6233C5.66633 11.8399 5.44548 11.9775 5.20303 11.9797ZM10.4405 6.72658C10.2128 6.72807 10.0012 6.60918 9.88396 6.41388L8.13604 3.38392C7.96926 3.11067 8.02048 2.75742 8.25799 2.54279C8.38594 2.42871 8.5551 2.37215 8.72593 2.38634C8.89676 2.40052 9.05428 2.48421 9.16166 2.61783C9.18706 2.64721 9.21007 2.67858 9.23045 2.71164L10.9784 5.72596C11.158 6.01839 11.0848 6.39961 10.8095 6.60462C10.7017 6.68174 10.5731 6.72427 10.4405 6.72658ZM16.9538 4.12499V0.685415C16.9479 0.327493 17.2222 0.0270934 17.5792 0.000626475C17.7514 -0.00698584 17.9193 0.0550309 18.0452 0.172689C18.1711 0.290347 18.2443 0.453736 18.2484 0.626004C18.2484 0.626004 18.2484 0.644766 18.2484 0.654146V4.16252C18.2484 4.51826 17.96 4.80665 17.6042 4.80665H17.5761C17.2215 4.77869 16.9494 4.4806 16.9538 4.12499ZM24.7523 6.72657C24.6212 6.72729 24.4932 6.68682 24.3864 6.61087C24.1111 6.40262 24.0405 6.01849 24.2238 5.72596L25.9717 2.69913C26.1501 2.39258 26.5419 2.28661 26.8504 2.46149C26.8831 2.48236 26.9145 2.50534 26.9442 2.53028C27.1806 2.74553 27.2316 3.0979 27.0661 3.37141L25.3151 6.40137C25.1999 6.60343 24.9848 6.72772 24.7523 6.72657ZM29.9898 11.9797C29.7519 11.9794 29.5333 11.8485 29.4207 11.6389C29.2671 11.3203 29.3893 10.9373 29.699 10.7665L32.707 9.03108C32.9771 8.86436 33.3279 8.9158 33.5388 9.15303C33.6536 9.28016 33.7112 9.44882 33.6982 9.61962C33.6852 9.79042 33.6027 9.94841 33.47 10.0567C33.4414 10.0831 33.4099 10.1062 33.3762 10.1255L30.3118 11.8953C30.2137 11.9512 30.1027 11.9803 29.9898 11.9797ZM9.44933 26.6261C6.40765 23.6036 5.29657 19.1417 6.56562 15.0457C7.83468 10.9497 11.2738 7.89764 15.4915 7.12431C19.7093 6.35099 24.0075 7.98442 26.6471 11.3637C26.8441 11.6139 27.0317 11.8765 27.2037 12.1392L26.1343 12.8459C25.9811 12.6114 25.8217 12.38 25.6372 12.158C23.2982 9.13582 19.4707 7.66801 15.7108 8.35131C11.9508 9.03461 8.88448 11.7552 7.75839 15.4071C6.63229 19.059 7.63395 23.034 10.3561 25.7162L9.44933 26.6261ZM25.8091 30H8.07976C6.10437 29.986 4.21562 29.1871 2.82967 27.7794C1.44372 26.3718 0.674301 24.4708 0.690686 22.4955H1.97297C1.95631 24.1311 2.59118 25.7061 3.73747 26.8729C4.88376 28.0397 6.44725 28.7025 8.08288 28.7148H25.8029C28.7747 28.7303 31.4756 26.9906 32.6906 24.2784C33.9055 21.5663 33.4056 18.3927 31.4156 16.1854L32.3537 15.3286C34.6662 17.9175 35.242 21.6234 33.8239 24.7918C32.4058 27.9603 29.2586 30 25.7873 30H25.8091ZM1.97297 22.5111H0.690951C0.708112 18.8955 3.32569 15.8172 6.89155 15.2192L7.10417 16.4699C4.15129 16.9662 1.98484 19.5168 1.97297 22.5111ZM18.2828 21.1415H16.9976C17.0235 17.5053 19.2826 14.2593 22.6834 12.972C26.0842 11.6847 29.9265 12.621 32.3537 15.3286L31.4156 16.1854C29.3522 13.8456 26.0564 13.0265 23.1376 14.128C20.2188 15.2295 18.2859 18.0218 18.2828 21.1415Z" fill="black" fill-opacity="0.2"/>
</svg>
