<svg width="146" height="19" viewBox="0 0 146 19" fill="none" xmlns="http://www.w3.org/2000/svg">
<path d="M62.8983 12.0577H72.4283L67.4725 4.38482L58.3236 18.6347H54.1305L65.5665 1.46161C65.9477 0.730848 66.71 0.365736 67.8536 0.365736C68.616 0.365736 69.3783 0.730848 70.1408 1.46161L81.5768 18.6347H77.3837L75.4777 15.3462H65.9476L62.8983 12.0577ZM107.118 15.3462V0.731027H103.687V16.8078C103.687 17.1732 104.068 17.5383 104.068 17.9037C104.449 18.2691 104.83 18.269 105.212 18.269H121.603L123.891 14.9809H107.118V15.3462ZM47.6502 12.7883C51.081 13.1537 54.1304 10.596 54.5116 7.30759C54.8928 4.01917 52.2244 1.09641 48.7936 0.731027C48.4123 0.731027 48.0313 0.731027 48.0313 0.731027H32.4022V18.6347H35.8326V4.01953H47.6502C49.175 4.38491 50.6996 5.84607 50.3184 7.30759C50.3184 8.76911 49.175 9.86551 47.6502 9.86551H37.3575L48.0313 19H53.3683L46.1253 13.154L47.6502 12.7883ZM9.53004 18.6347C4.19322 18.6347 0 14.6155 0 9.50022C0 4.38491 4.19322 0.365736 9.53004 0.365736H20.5845C25.9213 0.365736 30.1146 4.38491 30.1146 9.50022C30.1146 14.6155 25.9213 18.6347 20.5845 18.6347H9.53004ZM20.2034 15.3462C23.6342 15.3462 26.3026 12.7885 26.3026 9.86551C26.3026 6.5771 23.6341 4.01953 20.5845 4.01953H9.53004C6.09923 4.01953 3.43044 6.57719 3.43044 9.50022C3.43044 12.7886 6.09886 15.3462 9.14847 15.3462H20.2034ZM88.8197 18.6347C83.4829 18.6347 79.2897 14.6155 79.2897 9.50022C79.2897 4.38491 83.4829 0.365736 88.8197 0.365736H101.781L99.4936 3.6538H88.8197C85.3889 3.6538 82.7205 6.57719 83.1017 9.50022C83.1017 12.4233 85.7701 14.9809 88.8197 14.9809H101.781L99.4936 18.269L88.8197 18.6347ZM132.658 15.3462C129.99 15.3462 127.702 13.519 126.94 10.9614H142.188L144.475 7.67333H126.94C127.702 5.11567 129.99 3.2885 132.658 3.2885H143.332L145.619 0H132.658C127.321 0 123.128 4.01917 123.128 9.13449C123.128 14.2498 127.321 18.269 132.658 18.269H143.713L146 14.9809L132.658 15.3462Z" fill="black" fill-opacity="0.2"/>
</svg>
