<svg width="117" height="24" viewBox="0 0 117 24" fill="none" xmlns="http://www.w3.org/2000/svg">
<g opacity="0.6">
<path d="M19.0163 17.868C17.8266 17.868 16.7344 17.665 15.7398 17.2386C14.7451 16.8122 13.8869 16.2234 13.1653 15.4721C12.4437 14.7208 11.8781 13.8274 11.4685 12.7919C11.059 11.7564 10.8639 10.6193 10.8639 9.38072C10.8639 8.12184 11.098 6.94417 11.5465 5.84772C11.9951 4.75128 12.6387 3.79696 13.4384 2.98477C14.238 2.17259 15.1937 1.54315 16.2663 1.07614C17.339 0.609137 18.5092 0.385781 19.7575 0.385781C20.6936 0.385781 21.5713 0.527914 22.3709 0.791873C23.19 1.07614 23.8922 1.46193 24.4968 1.94924C25.1014 2.43655 25.5694 3.02538 25.9205 3.69544C26.2716 4.36549 26.4471 5.09645 26.4471 5.84772C26.4471 6.70052 26.1936 7.39087 25.6865 7.9594C25.1794 8.52793 24.5553 8.81219 23.8141 8.81219C23.0535 8.81219 22.4099 8.52793 21.9028 7.97971C21.3957 7.43148 21.1422 6.72082 21.1422 5.88833C21.1422 5.64468 21.1617 5.42133 21.2202 5.19798C21.2787 4.97462 21.3567 4.64975 21.4542 4.22336C21.5518 3.83757 21.6298 3.57361 21.6688 3.37056C21.7078 3.18782 21.7078 2.98477 21.7078 2.76142C21.7078 2.19289 21.5323 1.70558 21.1617 1.3401C20.8106 0.974617 20.3621 0.791873 19.816 0.791873C19.3284 0.791873 18.8993 0.954315 18.4897 1.27919C18.0802 1.60406 17.7291 2.05076 17.417 2.59899C17.105 3.14721 16.871 3.81726 16.6954 4.58884C16.5199 5.36041 16.4224 6.1726 16.4224 7.0457C16.4224 9.07616 16.91 10.6802 17.8851 11.8579C18.8603 13.0559 20.167 13.6447 21.8248 13.6447C22.761 13.6447 23.5996 13.4619 24.3602 13.0965C25.1209 12.731 25.862 12.1625 26.5836 11.3909L26.9737 11.5939C25.1989 15.7564 22.5269 17.868 19.0163 17.868Z" fill="#3C3F40"/>
<path d="M39.1231 5.38068C39.0256 4.28423 38.8891 3.41113 38.7135 2.74108C38.538 2.11164 38.265 1.62433 37.9139 1.27915C37.5433 0.933972 37.1143 0.771535 36.5877 0.771535C36.0416 0.771535 35.593 0.933972 35.2224 1.27915C34.8519 1.62433 34.5788 2.11164 34.4423 2.74108C34.2668 3.45174 34.1498 4.34514 34.0522 5.42129C33.9742 6.49743 33.9157 7.73601 33.9157 9.11672C33.9157 10.4974 33.9547 11.736 34.0522 12.8325C34.1303 13.9289 34.2668 14.8223 34.4423 15.5127C34.5983 16.1421 34.8519 16.6294 35.2224 16.9746C35.593 17.3198 36.0611 17.4822 36.5877 17.4822C37.0948 17.4822 37.5433 17.2995 37.9139 16.9746C38.2845 16.6294 38.5575 16.1421 38.694 15.5127C39.0646 14.071 39.2401 11.9391 39.2401 9.13703C39.2596 7.71571 39.2206 6.47713 39.1231 5.38068ZM44.6816 12.5685C44.233 13.6243 43.6089 14.5584 42.8288 15.3502C42.0486 16.1421 41.1125 16.7513 40.0593 17.198C38.9866 17.6447 37.8359 17.868 36.6267 17.868C35.3785 17.868 34.2278 17.6447 33.1551 17.198C32.0824 16.7513 31.1657 16.1421 30.3856 15.3502C29.6055 14.5584 28.9814 13.6447 28.5328 12.5685C28.0842 11.5127 27.8502 10.3553 27.8502 9.11672C27.8502 7.87814 28.0842 6.72078 28.5328 5.66494C28.9814 4.6091 29.6055 3.67509 30.3856 2.88321C31.1657 2.09133 32.1019 1.48219 33.1551 1.03549C34.2278 0.588791 35.3785 0.365443 36.6267 0.365443C37.8554 0.365443 39.0061 0.588791 40.0593 1.03549C41.132 1.48219 42.0486 2.09133 42.8288 2.88321C43.6089 3.67509 44.233 4.5888 44.6816 5.66494C45.1301 6.72078 45.3642 7.87814 45.3642 9.11672C45.3642 10.3553 45.1497 11.5127 44.6816 12.5685Z" fill="#3C3F40"/>
<path d="M111.422 2.92386C111.422 4.54823 112.67 5.84773 114.211 5.84773C115.752 5.84773 117 4.52793 117 2.92386C117 1.3198 115.752 0 114.211 0C112.67 0 111.422 1.29949 111.422 2.92386Z" fill="#3C3F40"/>
<path d="M0 4.71067C0 6.33504 1.24821 7.63453 2.78898 7.63453C4.32974 7.63453 5.57796 6.31473 5.57796 4.71067C5.57796 3.0863 4.32974 1.78681 2.78898 1.78681C1.24821 1.78681 0 3.0863 0 4.71067Z" fill="black" fill-opacity="0.12"/>
<path d="M0 13.6244C0 15.2488 1.24821 16.5483 2.78898 16.5483C4.32974 16.5483 5.57796 15.2285 5.57796 13.6244C5.57796 12 4.32974 10.7005 2.78898 10.7005C1.24821 10.7005 0 12 0 13.6244Z" fill="black" fill-opacity="0.12"/>
<path d="M57.4563 14.9035C56.9102 16.203 56.13 16.8731 55.1159 16.8731C54.5308 16.8731 54.0237 16.6294 53.5556 16.1421V3.02534C54.0237 2.72077 54.3942 2.49743 54.6478 2.3959C54.9013 2.29438 55.1549 2.23346 55.4084 2.23346C56.3056 2.23346 57.0077 2.8629 57.5148 4.14209C58.0219 5.42128 58.2754 7.16748 58.2754 9.42129C58.2754 11.7766 58.0024 13.604 57.4563 14.9035ZM63.7949 5.07611C63.5023 4.10149 63.1122 3.2893 62.5857 2.57864C62.0591 1.88829 61.4349 1.34006 60.7133 0.954275C59.9917 0.568488 59.1921 0.365443 58.3144 0.365443C57.5148 0.365443 56.7346 0.52788 55.974 0.873058C55.2134 1.19793 54.4137 1.76646 53.5361 2.53803V0.385742L45.6957 2.82229V3.32991C46.0273 3.39082 46.3199 3.45174 46.5344 3.55326C46.8464 3.69539 47.1195 3.91875 47.3535 4.22332C47.4901 4.40606 47.5876 4.5888 47.6461 4.79184C47.7241 4.99489 47.7826 5.21824 47.8216 5.4822C47.8606 5.74616 47.8996 6.07104 47.9191 6.43652C47.9386 6.802 47.9581 7.2284 47.9581 7.71571V19.5939C47.9581 19.9797 47.9581 20.2843 47.9386 20.5279C47.9191 20.7716 47.9191 20.9746 47.8996 21.1574C47.8801 21.3401 47.8411 21.5025 47.8021 21.6853C47.7436 22.1117 47.6071 22.4365 47.3925 22.6802C47.1585 22.9848 46.8854 23.2081 46.5734 23.3299C46.4174 23.3909 46.2418 23.4315 46.0078 23.4721V24H55.5449V23.533C55.2524 23.4924 55.0183 23.4518 54.8428 23.3909C54.5308 23.2893 54.2772 23.1269 54.0822 22.8832C53.9847 22.7614 53.8872 22.6193 53.8286 22.4569C53.7701 22.2944 53.7116 22.1117 53.6726 21.868C53.6336 21.6244 53.5946 21.3401 53.5946 20.9949C53.5751 20.6497 53.5751 20.2233 53.5751 19.736V16.6903C54.1212 17.137 54.6283 17.4416 55.0964 17.6244C55.5449 17.8071 56.091 17.8883 56.7151 17.8883C57.7683 17.8883 58.763 17.6447 59.6796 17.1573C60.5963 16.67 61.3959 16 62.0786 15.1269C62.7612 14.2538 63.2878 13.2386 63.6778 12.0812C64.0679 10.9238 64.2629 9.66495 64.2629 8.30454C64.2239 7.10657 64.0679 6.03042 63.7949 5.07611Z" fill="#3C3F40"/>
<path d="M77.1547 14.9035C76.6086 16.203 75.8284 16.8731 74.8143 16.8731C74.2292 16.8731 73.7221 16.6294 73.254 16.1421V3.02534C73.7221 2.72077 74.0926 2.49743 74.3462 2.3959C74.5997 2.29438 74.8533 2.23346 75.1068 2.23346C76.004 2.23346 76.7061 2.8629 77.2132 4.14209C77.7203 5.42128 77.9738 7.16748 77.9738 9.42129C77.9933 11.7766 77.7203 13.604 77.1547 14.9035ZM83.4932 5.07611C83.2007 4.10149 82.8106 3.2893 82.284 2.57864C81.7574 1.88829 81.1333 1.34006 80.4117 0.954275C79.6901 0.568488 78.8904 0.365443 78.0128 0.365443C77.2132 0.365443 76.433 0.52788 75.6724 0.873058C74.9118 1.19793 74.1121 1.76646 73.2345 2.53803V0.385742L65.3941 2.82229V3.32991C65.7257 3.39082 66.0182 3.45174 66.2328 3.55326C66.5448 3.69539 66.8179 3.91875 67.0519 4.22332C67.1884 4.40606 67.2859 4.5888 67.3445 4.79184C67.4225 4.99489 67.481 5.21824 67.52 5.4822C67.559 5.74616 67.598 6.07104 67.6175 6.43652C67.637 6.802 67.6565 7.2284 67.6565 7.71571V19.5939C67.6565 19.9797 67.6565 20.2843 67.637 20.5279C67.6175 20.7716 67.6175 20.9746 67.598 21.1574C67.5785 21.3401 67.5395 21.5025 67.5005 21.6853C67.442 22.1117 67.3055 22.4365 67.0909 22.6802C66.8569 22.9848 66.5838 23.2081 66.2718 23.3299C66.1158 23.3909 65.9402 23.4315 65.7062 23.4721V24H75.2433V23.533C74.9508 23.4924 74.7167 23.4518 74.5412 23.3909C74.2291 23.2893 73.9756 23.1269 73.7806 22.8832C73.6831 22.7614 73.5855 22.6193 73.527 22.4569C73.4685 22.2944 73.41 22.1117 73.371 21.868C73.332 21.6244 73.293 21.3401 73.293 20.9949C73.2735 20.6497 73.2735 20.2233 73.2735 19.736V16.6903C73.8196 17.137 74.3267 17.4416 74.7947 17.6244C75.2433 17.8071 75.7894 17.8883 76.4135 17.8883C77.4667 17.8883 78.4614 17.6447 79.378 17.1573C80.2947 16.67 81.0943 16 81.7769 15.1269C82.4596 14.2538 82.9862 13.2386 83.3762 12.0812C83.7663 10.9238 83.9613 9.66495 83.9613 8.30454C83.9223 7.10657 83.7858 6.03042 83.4932 5.07611Z" fill="#3C3F40"/>
<path d="M111.443 16.8121C111.15 16.7106 110.916 16.5482 110.741 16.3045C110.643 16.1827 110.546 16.0203 110.507 15.8781C110.448 15.7157 110.409 15.5329 110.37 15.2893C110.331 15.0659 110.292 14.7614 110.292 14.4162C110.273 14.071 110.273 13.6243 110.273 13.1167V0.324794L102.335 2.80196V3.30957C102.705 3.37049 103.017 3.4517 103.271 3.55323C103.583 3.69536 103.856 3.91871 104.09 4.22328C104.227 4.40602 104.324 4.58876 104.383 4.79181C104.461 4.99485 104.519 5.2182 104.558 5.48216C104.597 5.74612 104.636 6.071 104.656 6.43648C104.675 6.80196 104.695 7.22836 104.695 7.71567V13.1167C104.695 14.1522 104.656 14.8832 104.597 15.3299C104.539 15.7563 104.422 16.0812 104.246 16.3045C104.051 16.5482 103.817 16.7106 103.524 16.8121C103.31 16.8934 103.017 16.934 102.627 16.9746V17.4213H112.223V16.9746C111.891 16.934 111.638 16.8934 111.443 16.8121Z" fill="#3C3F40"/>
<path d="M93.6947 0.771579C94.3383 0.771579 94.8259 1.05584 95.1575 1.60406C95.489 2.15229 95.7036 3.02539 95.8011 4.24366C95.8206 4.46701 95.8401 4.67006 95.8401 4.8528C95.8596 5.03554 95.8596 5.21829 95.8791 5.44164C95.8986 5.64468 95.8986 5.88833 95.8986 6.1726V6.80204H91.0033C91.0228 4.91371 91.2568 3.45178 91.6859 2.41625C92.1345 1.3198 92.8171 0.771579 93.6947 0.771579ZM101.36 10.8224C101.047 11.33 100.774 11.7158 100.56 11.9797C100.345 12.2437 100.053 12.4873 99.7018 12.731C98.7656 13.4213 97.6344 13.7665 96.3082 13.7665C92.7976 13.7665 91.0228 11.6955 91.0033 7.55332H101.516C101.379 6.45687 101.106 5.48224 100.677 4.58884C100.248 3.69544 99.6823 2.94417 98.9996 2.33503C98.317 1.70559 97.5369 1.23858 96.6397 0.913707C95.7426 0.588834 94.7674 0.406092 93.7142 0.406092C92.505 0.406092 91.3738 0.629442 90.3206 1.09645C89.2675 1.56345 88.3508 2.1929 87.5707 3.00509C86.7905 3.81727 86.1664 4.77159 85.7374 5.84773C85.2888 6.94418 85.0742 8.10154 85.0742 9.34012C85.0742 10.5584 85.2888 11.6955 85.7179 12.731C86.1469 13.7665 86.732 14.6802 87.4732 15.4518C88.2338 16.2234 89.1114 16.8122 90.1451 17.2386C91.1788 17.665 92.271 17.8884 93.4607 17.8884C94.7089 17.8884 95.8596 17.6447 96.8933 17.1371C97.927 16.6295 98.8241 15.9188 99.5652 14.9848C99.7993 14.6802 100.014 14.396 100.189 14.1117C100.365 13.8477 100.54 13.5635 100.677 13.2792C100.833 12.9949 100.969 12.6701 101.125 12.3046C101.282 11.9391 101.438 11.4924 101.633 10.9645L101.36 10.8224Z" fill="#3C3F40"/>
</g>
</svg>
