<svg width="30" height="30" viewBox="0 0 30 30" fill="none" xmlns="http://www.w3.org/2000/svg">
<path d="M24.5077 3.63623C21.9419 3.63623 19.7814 5.40482 19.1812 7.78695H2.19469C1.62064 7.78695 1.07824 8.00697 0.666211 8.40676L0.664922 8.40799L0.660762 8.41197C0.234668 8.82846 0 9.38592 0 9.98164V24.1749C0 24.7794 0.253008 25.3629 0.693984 25.7758L0.696621 25.7783C1.10455 26.1596 1.63652 26.3696 2.19469 26.3696H22.899C23.4554 26.3696 23.9858 26.161 24.393 25.7821C24.396 25.7795 24.3988 25.7768 24.4017 25.774C24.8415 25.3609 25.0936 24.7784 25.0936 24.1749V14.5898C27.8477 14.2964 30 11.9591 30 9.12852C30 6.1001 27.5362 3.63623 24.5077 3.63623ZM2.19469 8.95883H19.0181C19.0164 9.0152 19.0155 9.07174 19.0155 9.12852C19.0155 10.1779 19.3113 11.1594 19.8239 11.9942L12.9298 18.5111H12.1639L2.06695 8.96668C2.10902 8.96146 2.15168 8.95883 2.19469 8.95883ZM1.17188 9.98164C1.17188 9.90494 1.18025 9.82959 1.19654 9.75658L9.40494 17.5158L1.21734 24.4777C1.18764 24.3811 1.17188 24.2795 1.17188 24.1749V9.98164ZM22.899 25.1977H2.19469C2.18988 25.1977 2.1852 25.1971 2.18045 25.197L10.2616 18.3256L11.5283 19.5229C11.6371 19.6258 11.7812 19.683 11.9309 19.683H13.1629C13.3126 19.683 13.4566 19.6257 13.5654 19.5229L14.8321 18.3256L22.9139 25.1976C22.9089 25.1976 22.9039 25.1977 22.899 25.1977ZM23.9218 24.1749C23.9218 24.2795 23.9064 24.3813 23.8766 24.4779L15.6887 17.5157L20.5437 12.9264C21.4169 13.8374 22.6 14.449 23.9218 14.5898V24.1749ZM24.5077 13.449C22.1254 13.449 20.1873 11.5108 20.1873 9.12852C20.1873 6.74621 22.1254 4.80811 24.5077 4.80811C26.89 4.80811 28.8281 6.74621 28.8281 9.12852C28.8281 11.5108 26.89 13.449 24.5077 13.449Z" fill="black"/>
<path d="M24.7045 7.25195H24.0781C23.7545 7.25195 23.4922 7.51434 23.4922 7.83789C23.4922 8.16144 23.7545 8.42383 24.0781 8.42383H24.1186V10.7671C24.1186 11.0906 24.3809 11.353 24.7045 11.353C25.0281 11.353 25.2904 11.0906 25.2904 10.7671V7.83789C25.2904 7.51428 25.0281 7.25195 24.7045 7.25195Z" fill="black"/>
</svg>
