<svg width="30" height="30" viewBox="0 0 30 30" fill="none" xmlns="http://www.w3.org/2000/svg">
<mask id="mask0_631_38291" style="mask-type:luminance" maskUnits="userSpaceOnUse" x="0" y="0" width="30" height="30">
<path d="M29.5166 0.486816H0.484375V29.5191H29.5166V0.486816Z" fill="white"/>
</mask>
<g mask="url(#mask0_631_38291)">
<path d="M15.0006 0.713867C8.87239 0.713867 3.88672 5.69953 3.88672 11.8278C3.88672 14.8048 5.6903 18.6276 9.24731 23.19C10.877 25.2748 12.6418 27.2503 14.5303 29.1038C14.657 29.2249 14.8254 29.2924 15.0006 29.2924C15.1759 29.2924 15.3443 29.2249 15.471 29.1038C17.3595 27.2503 19.1243 25.2748 20.754 23.19C24.311 18.6276 26.1146 14.8048 26.1146 11.8278C26.1146 5.69953 21.1289 0.713867 15.0006 0.713867ZM15.0006 27.6543C12.9923 25.6299 5.24762 17.4567 5.24762 11.8278C5.24762 6.44995 9.62281 2.07475 15.0006 2.07475C20.3785 2.07475 24.7536 6.44995 24.7536 11.8278C24.7536 17.4567 17.009 25.6299 15.0006 27.6543Z" fill="white"/>
<path d="M20.45 10.8705L15.46 6.33419C15.3348 6.22032 15.1717 6.15723 15.0024 6.15723C14.8331 6.15723 14.6699 6.22032 14.5447 6.33419L9.55474 10.8705C9.45313 10.9628 9.38185 11.0838 9.35027 11.2175C9.31868 11.3511 9.32829 11.4912 9.37781 11.6194C9.42733 11.7474 9.51446 11.8575 9.62773 11.9351C9.741 12.0128 9.87512 12.0544 10.0125 12.0544H10.6929V15.4566C10.6929 15.637 10.7646 15.8102 10.8922 15.9377C11.0198 16.0654 11.1929 16.1371 11.3734 16.1371H13.8683C14.0488 16.1371 14.2218 16.0654 14.3495 15.9377C14.477 15.8102 14.5487 15.637 14.5487 15.4566V13.4153H15.456V15.4566C15.456 15.637 15.5277 15.8102 15.6553 15.9377C15.7829 16.0654 15.956 16.1371 16.1365 16.1371H18.6314C18.8119 16.1371 18.9849 16.0654 19.1126 15.9377C19.2401 15.8102 19.3118 15.637 19.3118 15.4566V12.0544H19.9923C20.1296 12.0544 20.2637 12.0128 20.377 11.9351C20.4903 11.8575 20.5775 11.7474 20.6269 11.6194C20.6765 11.4912 20.686 11.3511 20.6545 11.2175C20.6229 11.0838 20.5516 10.9628 20.45 10.8705ZM17.951 11.3739V14.7761H16.8169V12.7349C16.8169 12.5544 16.7452 12.3813 16.6176 12.2537C16.49 12.1261 16.3169 12.0544 16.1365 12.0544H13.8683C13.6878 12.0544 13.5148 12.1261 13.3871 12.2537C13.2596 12.3813 13.1879 12.5544 13.1879 12.7349V14.7761H12.0538V11.3739C12.0538 11.2495 12.0197 11.1275 11.9552 11.021C11.8907 10.9146 11.7982 10.8279 11.6879 10.7704L15.0024 7.75721L18.3169 10.7704C18.2065 10.8279 18.1141 10.9146 18.0495 11.021C17.9851 11.1275 17.9509 11.2495 17.951 11.3739Z" fill="white"/>
</g>
</svg>
