<svg width="43" height="42" viewBox="0 0 43 42" fill="none" xmlns="http://www.w3.org/2000/svg">
<path d="M29.4592 40.1951L22.1148 25.7362C21.8861 25.2793 21.2339 25.2793 21.0051 25.7362L13.5422 40.1951C13.3304 40.6096 13.6269 41.1088 14.1013 41.1088H21.7845H28.9086C29.3745 41.1088 29.6795 40.6181 29.4677 40.2035L29.4592 40.1951Z" fill="#E9B100"/>
<path d="M21.0219 0.372259L0.081596 40.0009C-0.164063 40.4662 0.174777 41.0331 0.69998 41.0331L8.42554 41.0923C8.68815 41.0923 8.9338 40.9485 9.0524 40.72L20.9965 18.3337C21.2591 17.8346 21.9792 17.8346 22.2418 18.3337L34.1266 40.6354C34.2452 40.8638 34.4909 41.0077 34.745 41.0077H42.2927C42.8179 41.0077 43.1652 40.4493 42.9195 39.9755L22.2757 0.380719C22.013 -0.126906 21.293 -0.126906 21.0304 0.380719L21.0219 0.372259Z" fill="#1E63AD"/>
</svg>
