<svg width="16" height="23" viewBox="0 0 16 23" fill="none" xmlns="http://www.w3.org/2000/svg">
<path d="M11.5996 15.304C11.7649 15.7024 11.985 16.1237 12.2803 16.5393V16.5383C12.8695 17.3693 13.5596 17.9018 14.1611 18.2424C13.7421 18.4419 13.2812 18.7313 12.8359 19.1536L12.6182 19.3723C12.1034 19.9201 11.7623 20.5122 11.5342 21.051C11.321 20.5924 11.0295 20.0959 10.627 19.6174L10.4092 19.3723L10.2158 19.175C9.7873 18.7584 9.34919 18.4584 8.95117 18.2405C9.44247 17.981 9.99715 17.596 10.5156 17.0178L10.5146 17.0168C11.02 16.4559 11.3633 15.8566 11.5996 15.304Z" stroke="black" stroke-miterlimit="10"/>
<path d="M2.48853 10.2227C3.03866 10.092 4.34585 9.69438 5.49658 8.4416C6.89462 6.92736 7.16717 5.14077 7.23278 4.56885C7.29839 5.18979 7.52551 6.5951 8.50464 7.94048C9.76641 9.67804 11.4521 10.1792 11.977 10.3153C11.4976 10.3861 10.0844 10.6585 8.85289 11.9385C7.50532 13.3384 7.25297 15.0215 7.1924 15.5171C7.07632 14.9071 6.69779 13.3111 5.3805 11.9385C4.27014 10.7838 3.05885 10.3752 2.48853 10.2227Z" stroke="black" stroke-miterlimit="10"/>
</svg>
