<svg width="26" height="26" viewBox="0 0 26 26" fill="none" xmlns="http://www.w3.org/2000/svg">
<g clip-path="url(#clip0_2006_8701)">
<path d="M12.5975 25.9944C12.0233 25.9164 11.3563 25.3868 11.1686 24.835C10.3269 24.848 9.03555 24.9465 8.81258 23.8651C8.68623 23.2556 8.79214 22.1724 8.89433 21.5555L8.89062 14.0377C9.01325 13.3893 9.53723 12.8653 10.1857 12.7426H20.6448C21.3248 12.817 21.99 13.5565 21.99 14.2403V16.1448H23.0305C23.2368 16.1448 23.6753 16.4105 23.8444 16.5498C24.2513 16.8861 25.4014 18.0047 25.6969 18.4042C25.8548 18.6179 25.8976 18.8557 26.0016 19.0898V23.8112C25.7545 24.56 25.1692 24.8907 24.3851 24.835C24.1547 25.4537 23.5805 25.8439 22.9562 25.9944H22.5493C21.9157 25.8439 21.3546 25.4611 21.1204 24.835L14.4611 24.8238C14.1843 25.4389 13.6603 25.8421 13.0062 25.9944C12.8762 25.9833 12.7257 26.0111 12.5993 25.9944H12.5975ZM21.0759 21.5778V16.6762C21.1929 15.9292 21.2468 14.95 21.1799 14.1882C21.1372 13.6977 20.9142 13.5435 20.4441 13.5026H10.3381C10.0723 13.484 9.65243 13.8426 9.65243 14.0879V21.5759H21.0759V21.5778ZM22.8782 16.9066C22.6088 16.8694 22.2687 16.9345 21.99 16.9066V21.9587C21.99 22.1148 21.7726 22.3898 21.6091 22.3898H9.6004V23.5325C9.6004 23.6978 9.56881 23.9412 9.78806 24.0044C10.0909 24.0917 10.6818 23.9635 11.02 24.0137C11.3823 21.9661 14.1267 21.9178 14.5503 23.9673L14.6098 24.01L20.8956 24.0193C21.2171 22.4418 23.2479 21.8138 24.216 23.237C24.3219 23.3931 24.4928 23.9691 24.5263 23.9933C24.6415 24.075 25.0911 24.0193 25.1636 23.8632L25.1785 19.075C25.1655 18.9951 25.1079 18.9467 25.0633 18.8854C24.8645 18.6179 23.4913 17.2336 23.2349 17.0589C23.155 17.0032 22.9674 16.9196 22.8782 16.9066ZM13.7718 24.2292C13.7718 23.6848 13.3295 23.2426 12.7851 23.2426C12.2407 23.2426 11.7985 23.6848 11.7985 24.2292C11.7985 24.7737 12.2407 25.2159 12.7851 25.2159C13.3295 25.2159 13.7718 24.7737 13.7718 24.2292ZM23.7032 24.233C23.7032 23.6923 23.2647 23.2538 22.724 23.2538C22.1833 23.2538 21.7448 23.6923 21.7448 24.233C21.7448 24.7737 22.1833 25.2122 22.724 25.2122C23.2647 25.2122 23.7032 24.7737 23.7032 24.233Z" fill="black"/>
<path d="M11.3783 0L13.0041 0.226685C17.5861 1.1613 21.1703 5.04467 21.633 9.72329C21.6776 10.1692 21.7779 11.5646 21.5605 11.8842C21.4063 12.1109 20.979 12.0923 20.8935 11.8341C20.782 11.4866 20.8991 10.4721 20.873 10.0262C20.4884 3.43929 13.3943 -0.91603 7.26639 1.44744C-1.02619 4.64704 -1.43496 16.3027 6.72383 20.0133C6.9821 20.1304 7.8108 20.383 7.95202 20.5113C8.21029 20.7454 8.04678 21.1709 7.69746 21.1783C7.24038 21.1857 5.81152 20.4592 5.37115 20.1991C2.75127 18.6476 0.850465 15.9869 0.231727 13.0009L0.00504257 11.3733C0.0180491 11.0537 -0.0135382 10.7266 0.00504257 10.4089C0.307908 4.98335 4.69667 0.239691 10.2393 0.052026L10.3619 0H11.3764H11.3783Z" fill="black"/>
<path d="M8.94131 3.0974C9.21444 3.01193 9.4467 2.84656 9.74028 2.80568C10.6191 2.68491 11.6801 3.15128 11.734 4.13606C11.7489 4.40734 11.6021 4.82912 11.6411 4.98892C11.6894 5.18773 12.1242 5.49246 12.2487 5.75444C12.5645 6.42149 12.3044 6.94361 11.5909 7.09411C11.42 7.13127 10.8031 7.12198 10.7789 7.28549C10.8458 7.47502 11.0948 7.53448 11.2472 7.66826C11.8603 8.20152 12.1112 8.78496 11.4014 9.39441C10.0431 10.5631 8.52696 8.18294 6.82125 9.07853C5.84576 9.59136 6.12819 11.1447 5.91637 12.083C5.62279 13.3818 4.52839 14.3908 3.25375 13.4246C2.04786 12.5085 2.50309 11.0722 2.05715 9.8998C1.96053 9.64525 1.55175 9.16586 1.91036 8.93918C2.54954 8.53598 2.90815 9.92767 2.98247 10.3439C3.12183 11.1261 3.06794 13.0827 4.29427 12.9972C5.34408 12.9247 5.19543 11.0945 5.28276 10.381C5.52803 8.38919 7.04422 7.71657 8.87627 8.30929C9.39653 8.47838 10.4166 9.19745 10.9164 8.85557C11.3549 8.55456 10.5615 8.19223 10.385 8.01758C9.79602 7.43786 9.90379 6.62402 10.7548 6.40848C10.9294 6.36389 11.6151 6.35274 11.6262 6.2171C11.3178 5.78975 10.8291 5.48502 10.8142 4.89416C10.8031 4.44822 11.2119 3.93911 10.5987 3.64182C10.1936 3.44486 9.71984 3.58607 9.34265 3.77931C9.02678 3.94096 8.36159 4.64889 8.07173 4.13792C7.93981 3.9038 8.10517 3.62138 8.12375 3.37239C8.13862 3.17916 8.15163 2.79268 8.1219 2.6143C8.07544 2.33559 7.70197 2.11262 7.71498 1.80047C7.7317 1.39541 8.22409 1.28392 8.4805 1.59608C8.79638 1.9807 8.98218 2.59944 8.93759 3.09368L8.94131 3.0974Z" fill="black"/>
<path d="M16.9014 8.6456C18.2838 8.48766 19.0028 9.69169 19.6848 10.6579C19.8836 10.9385 20.3462 11.2209 20.0378 11.5795C19.6773 12.0013 19.3373 11.481 19.1255 11.2153C18.6145 10.5724 17.9159 9.19373 16.8976 9.40555C16.5632 9.4743 16.1934 10.0261 16.5372 10.251C16.8493 10.4554 17.3213 10.2956 17.6743 10.7396C17.9122 11.0388 18.1017 11.8173 17.587 11.9232C17.0091 12.0422 17.1838 11.3268 17.0444 11.2172C16.3848 11.0927 15.8162 10.931 15.7085 10.1674C15.5914 9.34052 16.0857 8.7385 16.9014 8.6456Z" fill="black"/>
<path d="M18.9804 6.41222C19.2239 6.65562 19.0566 7.05697 18.7129 7.10528C17.9864 7.20747 17.8117 6.90832 17.3714 6.47167C16.9626 6.06476 16.7006 6.36205 16.1822 6.29144C15.4092 6.18367 15.2699 5.28251 15.2383 4.64519C15.2178 4.2327 15.255 2.97107 15.9109 3.10671C16.4144 3.2089 16.0911 3.71801 16.054 3.99115C16.0243 4.2104 16.041 5.35683 16.2008 5.46088C16.853 5.46274 17.3714 5.35126 17.9028 5.83993C18.0421 5.96814 18.1703 6.23384 18.3487 6.31002C18.5419 6.39178 18.7779 6.21154 18.9804 6.41222Z" fill="black"/>
<path d="M9.85501 11.626C9.97393 12.0961 9.29759 12.3265 9.11922 11.9307C9.0932 11.8712 9.0579 11.2023 9.07648 11.128C9.26229 10.3495 11.5106 11.115 10.8416 11.8266C10.4793 12.2113 10.0055 11.4717 9.85501 11.626Z" fill="black"/>
</g>
<defs>
<clipPath id="clip0_2006_8701">
<rect width="26" height="26" fill="white"/>
</clipPath>
</defs>
</svg>
