<svg width="21" height="20" viewBox="0 0 21 20" fill="none" xmlns="http://www.w3.org/2000/svg">
<g clip-path="url(#clip0_2006_8725)">
<path d="M20.9998 4.31504V5.39178C20.6953 5.70791 20.7322 6.46311 20.1873 6.46851C20.1382 5.99026 19.7913 5.45257 19.5291 5.03241C19.4513 4.90812 19.1741 4.25019 18.9665 4.44879L18.27 6.24965L17.4739 7.41015C17.5217 7.08997 16.97 6.16049 16.7242 6.06592C16.4046 5.94163 16.2927 7.08051 15.8393 6.81031C14.4013 5.30396 15.487 3.65711 16.2531 2.16022L17.4712 3.6409C17.254 2.45203 17.6228 0.997019 18.3561 0.00539524C18.5609 -0.0445913 19.667 1.50364 19.835 1.76708C20.373 2.6101 20.6953 3.36395 20.9998 4.31369V4.31504Z" fill="black"/>
<path d="M11.6373 0.814645C11.8967 0.817347 13.0657 0.74034 13.1353 1.03756L13.1107 2.68036L12.3132 2.90327L16.3923 19.2556L18.0637 19.2813C18.3314 19.3677 18.3246 19.6839 18.2727 19.923L2.95487 20.0014C2.72136 19.8703 2.53427 19.5109 2.81422 19.3259L4.58812 19.1772L8.65347 2.83437C7.71941 3.09241 7.64567 1.61578 7.90513 1.08214C8.11952 0.64442 8.92112 0.86328 9.32397 0.806539L9.55612 0L11.4147 0.0243178C11.7301 0.128344 11.6291 0.551202 11.6373 0.814645ZM9.55203 2.85058C8.5251 4.28128 9.53018 5.00135 10.4847 6.06187L11.8899 4.48663C11.9322 4.33126 11.6905 3.21129 11.6127 3.06133C11.3833 2.61821 10.0436 2.90057 9.55339 2.85058H9.55203ZM9.05632 5.39314L8.7791 5.47014L7.83821 9.16239C8.65074 8.47474 9.26662 7.55877 9.95487 6.74547L9.05495 5.39314H9.05632ZM13.1285 9.16239L12.1125 5.39314L10.9627 6.67117L13.1271 9.16239H13.1285ZM10.4834 7.27911L7.45039 11.0038C7.66342 11.4347 10.2731 13.88 10.4834 13.88L13.6665 10.9808L10.4834 7.28046V7.27911ZM9.87294 14.2813C8.93478 13.8003 8.25608 12.7168 7.36436 12.1237C7.22507 12.0319 7.26194 11.9103 7.08987 12.1224L5.5331 18.4531C6.57778 17.502 7.70029 16.6009 8.72448 15.6296C8.92659 15.4364 9.99994 14.461 9.87294 14.2826V14.2813ZM13.9438 11.99L13.6037 12.1224L11.0979 14.4799L15.4363 18.4518L13.9451 11.9887L13.9438 11.99ZM15.1646 19.261L10.4834 14.9541L5.93732 19.261H15.1632H15.1646Z" fill="black"/>
<path d="M2.47838 0.00811768C4.11435 1.17942 6.8701 4.20428 5.39664 6.26724C4.32465 7.76818 1.44053 7.82763 0.39722 6.24427C-0.736217 4.52311 0.830111 3.25994 1.61942 1.84546C1.95262 1.25103 2.18068 0.618764 2.47838 0.00811768ZM1.29851 5.15402C0.912047 4.93111 0.860154 5.20671 0.977595 5.535C1.19063 6.13619 2.77744 6.99542 3.35781 6.40234C2.90854 6.03081 2.32816 6.10107 1.82289 5.77413C1.52656 5.58229 1.33401 5.17429 1.29851 5.15402Z" fill="black"/>
</g>
<defs>
<clipPath id="clip0_2006_8725">
<rect width="21" height="20" fill="white"/>
</clipPath>
</defs>
</svg>
