<svg width="24" height="24" viewBox="0 0 24 24" fill="none" xmlns="http://www.w3.org/2000/svg">
<path d="M6 6.75C5.58579 6.75 5.25 7.08579 5.25 7.5C5.25 7.91421 5.58579 8.25 6 8.25V6.75ZM16 8.25C16.4142 8.25 16.75 7.91421 16.75 7.5C16.75 7.08579 16.4142 6.75 16 6.75V8.25ZM5 6.75C4.58579 6.75 4.25 7.08579 4.25 7.5C4.25 7.91421 4.58579 8.25 5 8.25V6.75ZM6 8.25C6.41421 8.25 6.75 7.91421 6.75 7.5C6.75 7.08579 6.41421 6.75 6 6.75V8.25ZM5 11.75C4.58579 11.75 4.25 12.0858 4.25 12.5C4.25 12.9142 4.58579 13.25 5 13.25V11.75ZM6 13.25C6.41421 13.25 6.75 12.9142 6.75 12.5C6.75 12.0858 6.41421 11.75 6 11.75V13.25ZM5 16.75C4.58579 16.75 4.25 17.0858 4.25 17.5C4.25 17.9142 4.58579 18.25 5 18.25V16.75ZM6 18.25C6.41421 18.25 6.75 17.9142 6.75 17.5C6.75 17.0858 6.41421 16.75 6 16.75V18.25ZM6 11.75C5.58579 11.75 5.25 12.0858 5.25 12.5C5.25 12.9142 5.58579 13.25 6 13.25V11.75ZM16 13.25C16.4142 13.25 16.75 12.9142 16.75 12.5C16.75 12.0858 16.4142 11.75 16 11.75V13.25ZM6 16.75C5.58579 16.75 5.25 17.0858 5.25 17.5C5.25 17.9142 5.58579 18.25 6 18.25V16.75ZM16 18.25C16.4142 18.25 16.75 17.9142 16.75 17.5C16.75 17.0858 16.4142 16.75 16 16.75V18.25ZM6 7.5V8.25H16V7.5V6.75H6V7.5ZM5 7.5V8.25H6V7.5V6.75H5V7.5ZM5 12.5V13.25H6V12.5V11.75H5V12.5ZM5 17.5V18.25H6V17.5V16.75H5V17.5ZM6 12.5V13.25H16V12.5V11.75H6V12.5ZM6 17.5V18.25H16V17.5V16.75H6V17.5Z" fill="white"/>
</svg>
