<svg width="20" height="28" viewBox="0 0 20 28" fill="none" xmlns="http://www.w3.org/2000/svg">
<g clip-path="url(#clip0_2006_8693)">
<path d="M6.43836 24.1847L3.3933 17.809C-1.05887 16.7073 -0.419083 10.9168 4.03414 10.342L7.9572 5.60936C7.99304 4.93045 7.83072 4.34004 7.95404 3.63718C8.18803 2.30018 9.5435 1.22349 10.8916 1.14956C11.3121 1.12666 11.8065 1.29743 12.1269 1.23807C12.48 1.17351 13.3643 0.52792 13.8565 0.347779C15.4861 -0.247833 17.1999 -0.0728983 18.6755 0.821561C19.1604 1.1152 20.0289 1.70769 19.8402 2.32517C19.5609 3.24149 18.0842 1.75975 17.6247 1.54941C16.1174 0.858005 14.6544 1.10479 13.2547 1.88054C14.6059 3.17589 14.7778 5.50419 13.2547 6.70271C14.6154 7.81167 16.5938 7.81167 18.0684 6.90159C18.4647 6.65689 19.4175 5.55105 19.8075 6.3393C20.1027 6.93595 19.3427 7.4316 18.9063 7.73149C17.2568 8.86648 15.251 9.02059 13.4254 8.19278C12.5106 7.77835 12.1353 7.06195 10.9928 7.68255L7.74218 12.9775C7.79277 13.9344 7.88026 14.7622 7.53876 15.6869L12.7741 24.0879C14.9327 24.6127 18.7756 23.1331 19.8054 25.8456C19.9835 26.3152 20.1954 27.8022 19.6547 27.976L0.43151 28C-0.2399 27.8553 0.0172808 26.2944 0.231247 25.7737C0.491589 25.1386 1.48974 24.1847 2.19067 24.1847H6.43731H6.43836ZM13.1851 4.3515C13.1851 3.21754 12.2555 2.29705 11.1087 2.29705C9.96194 2.29705 9.0323 3.2165 9.0323 4.3515C9.0323 5.48649 9.96194 6.40594 11.1087 6.40594C12.2555 6.40594 13.1851 5.48649 13.1851 4.3515ZM5.28526 10.6971C5.94719 10.8949 6.54482 11.3551 7.01491 11.8373C7.34587 11.3249 9.89554 7.49408 9.74903 7.27229C9.68157 7.17024 9.40015 7.10985 9.27472 7.00884C9.08605 6.85786 8.86471 6.48091 8.6402 6.59337L5.28421 10.6971H5.28526ZM6.65022 14.1781C6.65022 12.7744 5.50028 11.6363 4.08158 11.6363C2.66287 11.6363 1.51293 12.7744 1.51293 14.1781C1.51293 15.5817 2.66287 16.7198 4.08158 16.7198C5.50028 16.7198 6.65022 15.5817 6.65022 14.1781ZM11.367 24.1847L6.85681 16.7146C6.22967 17.2894 5.52874 17.5664 4.76353 17.9069L7.85391 24.1847H11.367ZM18.8115 26.8827C18.8832 26.0913 18.198 25.3583 17.4012 25.3208L2.40885 25.3322C1.70266 25.5051 1.12822 26.1392 1.19673 26.8817H18.8125L18.8115 26.8827Z" fill="#E5E4E4"/>
</g>
<defs>
<clipPath id="clip0_2006_8693">
<rect width="20" height="28" fill="white"/>
</clipPath>
</defs>
</svg>
