<svg width="23" height="21" viewBox="0 0 23 21" fill="none" xmlns="http://www.w3.org/2000/svg">
<path fill-rule="evenodd" clip-rule="evenodd" d="M14.1328 8.44474C14.1328 9.69452 13.1196 10.7077 11.8699 10.7077C10.6201 10.7077 9.60693 9.69452 9.60693 8.44474C9.60693 7.19497 10.6201 6.18182 11.8699 6.18182C12.47 6.18182 13.0456 6.42024 13.47 6.84462C13.8944 7.269 14.1328 7.84458 14.1328 8.44474Z" stroke="white" stroke-linecap="round" stroke-linejoin="round"/>
<path d="M7.91016 14.1019C10.3359 12.5976 13.4046 12.5976 15.8304 14.1019" stroke="white" stroke-linecap="round"/>
<path d="M8.48485 1H1V6.18182" stroke="white"/>
<path d="M8.48485 1H1V6.18182" stroke="white"/>
<path d="M14.8184 0.999999L22.3032 1L22.3032 6.18182" stroke="white"/>
<path d="M14.8184 0.999999L22.3032 1L22.3032 6.18182" stroke="white"/>
<path d="M14.8184 20L22.3032 20L22.3032 14.8182" stroke="white"/>
<path d="M14.8184 20L22.3032 20L22.3032 14.8182" stroke="white"/>
<path d="M8.48485 20L1 20L1 14.8182" stroke="white"/>
<path d="M8.48485 20L1 20L1 14.8182" stroke="white"/>
</svg>
