<svg width="22" height="22" viewBox="0 0 22 22" fill="none" xmlns="http://www.w3.org/2000/svg">
<g clip-path="url(#clip0_2006_8682)">
<path d="M10.9113 0H11.0915L21.7771 4.47229C21.8371 4.51128 21.8866 4.56089 21.9149 4.62468C22.0067 4.82313 22.0102 7.09117 21.9714 7.43492C21.9466 7.64401 21.8937 7.79994 21.6817 7.8779L0.575417 7.91334C0.356406 7.92043 0.133863 7.84246 0.0632144 7.6192C-0.0250965 7.34987 -0.0144992 5.23421 0.02789 4.86211C0.0455522 4.72036 0.0632144 4.59633 0.176252 4.4971L10.9113 0ZM21.0953 5.04994C20.9434 5.04994 20.7951 4.99678 20.6573 4.94008C17.4499 3.56508 14.2212 2.18299 10.9678 0.939111L0.910999 5.04994V7.03093H21.0953V5.04994Z" fill="black"/>
<path d="M21.9753 18.4739V22.0035H0.0283203V18.4739H21.9753ZM21.0958 19.3563H0.911429V21.1176H21.0958V19.3563Z" fill="black"/>
<path d="M3.00948 8.80637C4.12927 8.8737 5.48572 8.66107 6.57724 8.78865C6.76093 8.80991 6.90929 8.8489 6.9976 9.02609V17.354C6.89163 17.5667 6.71501 17.5773 6.50659 17.595C5.72593 17.6659 3.89966 17.6836 3.13665 17.595C2.75868 17.549 2.69157 17.4037 2.65977 17.0457C2.4337 14.5792 2.83639 11.769 2.65977 9.26352C2.66684 9.03672 2.77988 8.85598 3.00595 8.80283L3.00948 8.80637ZM3.54288 9.67106V16.7126H6.17455V9.67106H3.54288Z" fill="black"/>
<path d="M15.2955 8.80637C16.4153 8.8737 17.7717 8.66107 18.8633 8.78865C19.047 8.80991 19.1953 8.8489 19.2836 9.02609V17.354C19.1882 17.5596 18.9198 17.5773 18.7184 17.595C17.8918 17.6659 16.3164 17.6694 15.4933 17.595C15.0306 17.5525 14.9847 17.4214 14.9458 16.9713C14.7409 14.5084 15.1083 11.7584 14.9458 9.26352C14.9529 9.03672 15.0659 8.85598 15.292 8.80283L15.2955 8.80637ZM18.4641 9.67106H15.8324V16.7126H18.4641V9.67106Z" fill="black"/>
<path d="M8.97942 17.4994C8.88052 17.4285 8.79574 17.1769 8.80634 17.0493C8.98649 14.5686 8.58379 11.7832 8.80634 9.33795C8.83813 8.98003 8.90524 8.83473 9.28321 8.78866C10.0427 8.70007 11.8725 8.71424 12.6532 8.78866C12.8616 8.80638 13.0382 8.81701 13.1442 9.02964V17.3576C13.0488 17.5631 12.7803 17.5809 12.579 17.5986C11.7418 17.6695 10.2688 17.6624 9.42804 17.5986C9.30088 17.588 9.0748 17.5702 8.97589 17.4994H8.97942ZM12.3211 9.67107H9.68944V16.7126H12.3211V9.67107Z" fill="black"/>
</g>
<defs>
<clipPath id="clip0_2006_8682">
<rect width="22" height="22" fill="white"/>
</clipPath>
</defs>
</svg>
