<svg width="30" height="30" viewBox="0 0 30 30" fill="none" xmlns="http://www.w3.org/2000/svg">
<path d="M19.6306 28.7931C19.51 28.7931 19.3885 28.7825 19.2679 28.7608C15.1166 28.0136 10.9784 25.7507 7.61585 22.3882C4.25337 19.0256 1.99043 14.8874 1.24315 10.7361C1.10236 9.95258 1.43068 9.13772 2.07964 8.66005C2.91071 8.04844 3.8062 7.47985 4.74073 6.97112C5.36032 6.63396 6.0908 6.61514 6.69615 6.9201C8.76557 7.96322 10.1373 9.70058 10.7731 12.0838C10.9456 12.7287 10.792 13.4281 10.3625 13.9543L8.99128 15.6322C8.77155 15.9012 8.74476 16.2722 8.92488 16.5556C10.0914 18.391 11.613 19.9126 13.4485 21.0788C13.7315 21.2593 14.1025 21.2322 14.3719 21.0127L16.0494 19.6418C16.5759 19.212 17.2744 19.0587 17.9205 19.2309C20.3034 19.867 22.0408 21.2388 23.0839 23.3082C23.3892 23.9129 23.3704 24.6437 23.0332 25.2633C22.5242 26.1978 21.9556 27.0933 21.3436 27.9244C20.9398 28.4733 20.2943 28.7931 19.6306 28.7931ZM5.77843 8.01708C5.64134 8.01708 5.49998 8.05299 5.36888 8.12453C4.48622 8.60504 3.64175 9.14114 2.85827 9.71771C2.60946 9.901 2.48292 10.2093 2.53593 10.5034C3.2359 14.3937 5.36973 18.2846 8.5444 21.4596C11.7194 24.6343 15.6103 26.7681 19.5006 27.468C19.7953 27.5208 20.103 27.3943 20.286 27.1458C20.8629 26.3623 21.399 25.5178 21.8798 24.6352C22.0106 24.3946 22.0225 24.1196 21.9114 23.8996C21.0315 22.1545 19.6155 21.0423 17.5816 20.4997C17.3434 20.4364 17.0806 20.4955 16.8802 20.659L15.2029 22.0296C14.4942 22.6087 13.5055 22.672 12.7439 22.1873C10.7449 20.917 9.08705 19.2591 7.81649 17.2601C7.33199 16.498 7.39526 15.5096 7.97439 14.8011L9.34526 13.1235C9.50857 12.9235 9.56813 12.6615 9.50429 12.4226C8.96165 10.3886 7.84956 8.97242 6.10476 8.0926C6.00443 8.04217 5.893 8.01708 5.77843 8.01708Z" fill="white"/>
<path d="M28.1253 15.6925C28.1159 15.6925 28.1065 15.6922 28.0973 15.6919C27.7348 15.6768 27.4536 15.3707 27.4687 15.0085C27.6089 11.6622 26.3357 8.38957 23.9759 6.02916C21.6158 3.66932 18.3499 2.38964 14.9965 2.53642C14.6477 2.54555 14.3282 2.27051 14.3131 1.9077C14.298 1.54546 14.5793 1.23937 14.9415 1.22426C18.6543 1.06693 22.285 2.48141 24.9044 5.10061C27.5236 7.7198 28.9364 11.3513 28.7808 15.0635C28.7659 15.4163 28.4753 15.6925 28.1253 15.6925Z" fill="white"/>
<path d="M24.6314 15.6927C24.6186 15.6927 24.6055 15.6924 24.5923 15.6916C24.2301 15.6702 23.9539 15.3596 23.9753 14.9976C24.1179 12.5765 23.2189 10.207 21.5086 8.49665C19.7983 6.78634 17.4274 5.88972 15.0076 6.02994C14.6437 6.05417 14.335 5.77515 14.3137 5.4129C14.2923 5.05095 14.5685 4.7403 14.9307 4.71892C17.7226 4.55276 20.4621 5.59274 22.4372 7.56811C24.4125 9.54348 25.4511 12.2796 25.2863 15.0746C25.2658 15.4237 24.9765 15.6927 24.6314 15.6927Z" fill="white"/>
<path d="M21.1415 15.6926C21.121 15.6926 21.1005 15.6919 21.0797 15.6898C20.7185 15.6561 20.4532 15.3361 20.4869 14.975C20.6259 13.4839 20.0993 12.0218 19.0413 10.9639C17.9834 9.90621 16.5224 9.37895 15.0302 9.51832C14.6694 9.5511 14.3487 9.28661 14.3154 8.92551C14.2817 8.56442 14.5471 8.24435 14.9081 8.21073C16.7914 8.03545 18.6349 8.70036 19.9699 10.0353C21.3051 11.3703 21.97 13.2154 21.7945 15.097C21.7628 15.4373 21.4767 15.6926 21.1415 15.6926Z" fill="white"/>
</svg>
