<svg width="477" height="137" viewBox="0 0 477 137" fill="none" xmlns="http://www.w3.org/2000/svg">
<path d="M2.68 30V2.8H8.08V30H2.68ZM10.9422 12.52V8.56H13.7022V7.88C13.7022 3.04 15.8622 0.599999 19.9422 0.599999C21.2622 0.599999 22.2222 0.879998 22.7422 1.12V4.44H22.3422C19.5022 4.44 18.8222 5.6 18.8222 7.88V8.56H22.7422V12.52H18.8222V30H13.7022V12.52H10.9422ZM35.0278 39.4C33.9878 39.4 32.9078 39.12 32.3878 38.92V35H33.5878C35.9078 35 36.9878 34.52 38.6278 30.44L39.1478 29.12L30.7078 8.56H36.1878L40.9478 21L41.8278 24.12L42.7078 21L47.2678 8.56H52.5078L43.0678 32.12C40.8678 37.68 38.9478 39.4 35.0278 39.4ZM63.7884 30.6C57.4284 30.6 53.5084 26.32 53.5084 19.32C53.5084 12.04 57.5484 7.96 63.7884 7.96C70.1084 7.96 74.0284 12.28 74.0284 19.32C74.0284 26.52 69.9884 30.6 63.7884 30.6ZM63.7884 26.36C67.0284 26.36 68.7484 23.88 68.7484 19.32C68.7484 14.76 66.9884 12.2 63.7884 12.2C60.5084 12.2 58.7884 14.72 58.7884 19.32C58.7884 23.84 60.5484 26.36 63.7884 26.36ZM91.0706 21V8.56H96.1906V30H91.0706V27.12C89.6706 29.48 87.4706 30.6 84.8306 30.6C80.5906 30.6 77.7506 28.04 77.7506 22.88V8.56H82.8706V21.84C82.8706 24.76 84.0706 26.36 86.5906 26.36C89.3506 26.36 91.0706 23.88 91.0706 21ZM101.595 13.44L100.675 2.8H105.995L105.035 13.44H101.595ZM110.485 30V8.56H115.605V11.68C117.005 9.12 119.165 7.96 121.485 7.96C122.365 7.96 123.165 8.2 123.565 8.56V13C122.885 12.8 122.125 12.72 121.205 12.72C117.325 12.72 115.605 15.04 115.605 18.6V30H110.485ZM145.436 23C144.276 27.96 140.436 30.6 135.316 30.6C128.836 30.6 124.876 26.32 124.876 19.32C124.876 12.04 128.876 7.96 135.116 7.96C141.396 7.96 145.276 12.2 145.276 19.12V20.32H130.156C130.396 24.24 132.196 26.4 135.316 26.4C137.716 26.4 139.356 25.28 140.036 23H145.436ZM135.116 12.16C132.396 12.16 130.756 13.88 130.276 17.12H139.916C139.436 13.92 137.796 12.16 135.116 12.16ZM161.773 15.6H156.613C157.293 10.84 160.773 7.96 166.173 7.96C172.133 7.96 175.173 11.48 175.173 16.44V24.76C175.173 27.4 175.413 28.88 175.813 30H170.493C170.213 29.28 170.093 28.24 170.053 27.08C168.293 29.56 165.653 30.6 163.093 30.6C158.893 30.6 155.893 28.52 155.893 24.4C155.893 21.48 157.533 19.28 160.813 18.2C163.653 17.24 166.413 17 170.013 16.96V16.44C170.013 13.68 168.693 12.2 165.853 12.2C163.413 12.2 162.093 13.56 161.773 15.6ZM161.053 24.12C161.053 25.76 162.333 26.8 164.413 26.8C167.573 26.8 170.013 24.24 170.013 21.04V20.12C162.733 20.24 161.053 21.96 161.053 24.12ZM184.335 14.32C184.335 19.24 197.855 15.08 197.855 23.68C197.855 27.8 194.055 30.6 188.695 30.6C183.415 30.6 179.615 28.16 178.855 23H183.975C184.335 25.32 186.175 26.64 188.855 26.64C191.375 26.64 192.695 25.56 192.695 24C192.695 19.2 179.455 23.32 179.455 14.64C179.455 11.16 182.175 7.96 187.775 7.96C192.695 7.96 196.415 10.28 197.055 15.6H191.935C191.535 13 190.015 11.96 187.575 11.96C185.535 11.96 184.335 12.96 184.335 14.32ZM214.16 38.8H209.04V8.56H214.16V11C215.52 9.04 217.44 7.96 219.8 7.96C225.4 7.96 228.84 12.24 228.84 19.24C228.84 26.52 225.32 30.6 219.8 30.6C217.44 30.6 215.48 29.6 214.16 27.68V38.8ZM218.88 12.2C215.8 12.2 214.16 14.68 214.16 19.24C214.16 23.8 215.88 26.36 218.88 26.36C221.92 26.36 223.56 23.84 223.56 19.24C223.56 14.72 221.88 12.2 218.88 12.2ZM237.515 15.6H232.355C233.035 10.84 236.515 7.96 241.915 7.96C247.875 7.96 250.915 11.48 250.915 16.44V24.76C250.915 27.4 251.155 28.88 251.555 30H246.235C245.955 29.28 245.835 28.24 245.795 27.08C244.035 29.56 241.395 30.6 238.835 30.6C234.635 30.6 231.635 28.52 231.635 24.4C231.635 21.48 233.275 19.28 236.555 18.2C239.395 17.24 242.155 17 245.755 16.96V16.44C245.755 13.68 244.435 12.2 241.595 12.2C239.155 12.2 237.835 13.56 237.515 15.6ZM236.795 24.12C236.795 25.76 238.075 26.8 240.155 26.8C243.315 26.8 245.755 24.24 245.755 21.04V20.12C238.475 20.24 236.795 21.96 236.795 24.12ZM260.078 14.32C260.078 19.24 273.598 15.08 273.598 23.68C273.598 27.8 269.798 30.6 264.438 30.6C259.158 30.6 255.358 28.16 254.598 23H259.718C260.078 25.32 261.918 26.64 264.598 26.64C267.118 26.64 268.438 25.56 268.438 24C268.438 19.2 255.198 23.32 255.198 14.64C255.198 11.16 257.918 7.96 263.518 7.96C268.438 7.96 272.158 10.28 272.798 15.6H267.678C267.278 13 265.758 11.96 263.318 11.96C261.278 11.96 260.078 12.96 260.078 14.32ZM281.367 14.32C281.367 19.24 294.887 15.08 294.887 23.68C294.887 27.8 291.087 30.6 285.727 30.6C280.447 30.6 276.647 28.16 275.887 23H281.007C281.367 25.32 283.207 26.64 285.887 26.64C288.407 26.64 289.727 25.56 289.727 24C289.727 19.2 276.487 23.32 276.487 14.64C276.487 11.16 279.207 7.96 284.807 7.96C289.727 7.96 293.447 10.28 294.087 15.6H288.967C288.567 13 287.047 11.96 284.607 11.96C282.567 11.96 281.367 12.96 281.367 14.32ZM298.376 6.16V1.2H303.496V6.16H298.376ZM298.376 30V8.56H303.496V30H298.376ZM317.46 30.6C311.1 30.6 307.18 26.32 307.18 19.32C307.18 12.04 311.22 7.96 317.46 7.96C323.78 7.96 327.7 12.28 327.7 19.32C327.7 26.52 323.66 30.6 317.46 30.6ZM317.46 26.36C320.7 26.36 322.42 23.88 322.42 19.32C322.42 14.76 320.66 12.2 317.46 12.2C314.18 12.2 312.46 14.72 312.46 19.32C312.46 23.84 314.22 26.36 317.46 26.36ZM331.423 30V8.56H336.543V11.44C337.943 9.12 340.183 7.96 342.903 7.96C347.183 7.96 350.103 10.52 350.103 15.72V30H344.983V16.76C344.983 13.84 343.743 12.2 341.143 12.2C338.303 12.2 336.543 14.68 336.543 17.56V30H331.423ZM359.781 15.6H354.621C355.301 10.84 358.781 7.96 364.181 7.96C370.141 7.96 373.181 11.48 373.181 16.44V24.76C373.181 27.4 373.421 28.88 373.821 30H368.501C368.221 29.28 368.101 28.24 368.061 27.08C366.301 29.56 363.661 30.6 361.101 30.6C356.901 30.6 353.901 28.52 353.901 24.4C353.901 21.48 355.541 19.28 358.821 18.2C361.661 17.24 364.421 17 368.021 16.96V16.44C368.021 13.68 366.701 12.2 363.861 12.2C361.421 12.2 360.101 13.56 359.781 15.6ZM359.061 24.12C359.061 25.76 360.341 26.8 362.421 26.8C365.581 26.8 368.021 24.24 368.021 21.04V20.12C360.741 20.24 359.061 21.96 359.061 24.12ZM378.743 23.32V12.52H375.983V8.56H378.743V3.64H383.863V8.56H388.383V12.52H383.863V22.88C383.863 25.12 384.503 26.32 387.343 26.32H388.303V30.08C387.743 30.36 386.583 30.6 385.183 30.6C380.823 30.6 378.743 28.12 378.743 23.32ZM410.943 23C409.783 27.96 405.943 30.6 400.823 30.6C394.343 30.6 390.383 26.32 390.383 19.32C390.383 12.04 394.383 7.96 400.623 7.96C406.903 7.96 410.783 12.2 410.783 19.12V20.32H395.663C395.903 24.24 397.703 26.4 400.823 26.4C403.223 26.4 404.863 25.28 405.543 23H410.943ZM400.623 12.16C397.903 12.16 396.263 13.88 395.783 17.12H405.423C404.943 13.92 403.303 12.16 400.623 12.16ZM7.32 64.6H2.16C2.84 59.84 6.32 56.96 11.72 56.96C17.68 56.96 20.72 60.48 20.72 65.44V73.76C20.72 76.4 20.96 77.88 21.36 79H16.04C15.76 78.28 15.64 77.24 15.6 76.08C13.84 78.56 11.2 79.6 8.64 79.6C4.44 79.6 1.44 77.52 1.44 73.4C1.44 70.48 3.08 68.28 6.36 67.2C9.2 66.24 11.96 66 15.56 65.96V65.44C15.56 62.68 14.24 61.2 11.4 61.2C8.96 61.2 7.64 62.56 7.32 64.6ZM6.6 73.12C6.6 74.76 7.88 75.8 9.96 75.8C13.12 75.8 15.56 73.24 15.56 70.04V69.12C8.28 69.24 6.6 70.96 6.6 73.12ZM30.7222 79H25.6022V50.2H30.7222V59.96C32.0822 58.04 34.0022 56.96 36.3622 56.96C41.9222 56.96 45.3622 61.24 45.3622 68.24C45.3622 75.52 41.8422 79.6 36.3622 79.6C34.0022 79.6 32.0422 78.6 30.7222 76.72V79ZM35.4422 61.2C32.3622 61.2 30.7222 63.68 30.7222 68.24C30.7222 72.8 32.4022 75.36 35.4422 75.36C38.4822 75.36 40.1222 72.84 40.1222 68.24C40.1222 63.72 38.4422 61.2 35.4422 61.2ZM58.3588 79.6C51.9987 79.6 48.0788 75.32 48.0788 68.32C48.0788 61.04 52.1188 56.96 58.3588 56.96C64.6788 56.96 68.5988 61.28 68.5988 68.32C68.5988 75.52 64.5588 79.6 58.3588 79.6ZM58.3588 75.36C61.5988 75.36 63.3188 72.88 63.3188 68.32C63.3188 63.76 61.5588 61.2 58.3588 61.2C55.0788 61.2 53.3588 63.72 53.3588 68.32C53.3588 72.84 55.1188 75.36 58.3588 75.36ZM85.6409 70V57.56H90.7609V79H85.6409V76.12C84.2409 78.48 82.0409 79.6 79.4009 79.6C75.1609 79.6 72.3209 77.04 72.3209 71.88V57.56H77.4409V70.84C77.4409 73.76 78.6409 75.36 81.1609 75.36C83.9209 75.36 85.6409 72.88 85.6409 70ZM96.165 72.32V61.52H93.405V57.56H96.165V52.64H101.285V57.56H105.805V61.52H101.285V71.88C101.285 74.12 101.925 75.32 104.765 75.32H105.725V79.08C105.165 79.36 104.005 79.6 102.605 79.6C98.245 79.6 96.165 77.12 96.165 72.32ZM117.181 72.32V61.52H114.421V57.56H117.181V52.64H122.301V57.56H126.821V61.52H122.301V71.88C122.301 74.12 122.941 75.32 125.781 75.32H126.741V79.08C126.181 79.36 125.021 79.6 123.621 79.6C119.261 79.6 117.181 77.12 117.181 72.32ZM129.821 79V50.2H134.941V60.44C136.341 58.12 138.581 56.96 141.301 56.96C145.581 56.96 148.501 59.52 148.501 64.72V79H143.381V65.76C143.381 62.84 142.141 61.2 139.541 61.2C136.701 61.2 134.941 63.68 134.941 66.56V79H129.821ZM172.779 72C171.619 76.96 167.779 79.6 162.659 79.6C156.179 79.6 152.219 75.32 152.219 68.32C152.219 61.04 156.219 56.96 162.459 56.96C168.739 56.96 172.619 61.2 172.619 68.12V69.32H157.499C157.739 73.24 159.539 75.4 162.659 75.4C165.059 75.4 166.699 74.28 167.379 72H172.779ZM162.459 61.16C159.739 61.16 158.099 62.88 157.619 66.12H167.259C166.779 62.92 165.139 61.16 162.459 61.16ZM189.277 87.8H184.157V57.56H189.277V60C190.637 58.04 192.557 56.96 194.917 56.96C200.517 56.96 203.957 61.24 203.957 68.24C203.957 75.52 200.437 79.6 194.917 79.6C192.557 79.6 190.597 78.6 189.277 76.68V87.8ZM193.997 61.2C190.917 61.2 189.277 63.68 189.277 68.24C189.277 72.8 190.997 75.36 193.997 75.36C197.037 75.36 198.677 72.84 198.677 68.24C198.677 63.72 196.997 61.2 193.997 61.2ZM216.953 79.6C210.592 79.6 206.673 75.32 206.673 68.32C206.673 61.04 210.713 56.96 216.953 56.96C223.273 56.96 227.193 61.28 227.193 68.32C227.193 75.52 223.153 79.6 216.953 79.6ZM216.953 75.36C220.193 75.36 221.913 72.88 221.913 68.32C221.913 63.76 220.153 61.2 216.953 61.2C213.673 61.2 211.953 63.72 211.953 68.32C211.953 72.84 213.713 75.36 216.953 75.36ZM235.195 63.32C235.195 68.24 248.715 64.08 248.715 72.68C248.715 76.8 244.915 79.6 239.555 79.6C234.275 79.6 230.475 77.16 229.715 72H234.835C235.195 74.32 237.035 75.64 239.715 75.64C242.235 75.64 243.555 74.56 243.555 73C243.555 68.2 230.315 72.32 230.315 63.64C230.315 60.16 233.035 56.96 238.635 56.96C243.555 56.96 247.275 59.28 247.915 64.6H242.795C242.395 62 240.875 60.96 238.435 60.96C236.395 60.96 235.195 61.96 235.195 63.32ZM256.484 63.32C256.484 68.24 270.004 64.08 270.004 72.68C270.004 76.8 266.204 79.6 260.844 79.6C255.564 79.6 251.764 77.16 251.004 72H256.124C256.484 74.32 258.324 75.64 261.004 75.64C263.524 75.64 264.844 74.56 264.844 73C264.844 68.2 251.604 72.32 251.604 63.64C251.604 60.16 254.324 56.96 259.924 56.96C264.844 56.96 268.564 59.28 269.204 64.6H264.084C263.684 62 262.164 60.96 259.724 60.96C257.684 60.96 256.484 61.96 256.484 63.32ZM273.493 55.16V50.2H278.613V55.16H273.493ZM273.493 79V57.56H278.613V79H273.493ZM288.418 79H283.298V50.2H288.418V59.96C289.778 58.04 291.698 56.96 294.058 56.96C299.618 56.96 303.058 61.24 303.058 68.24C303.058 75.52 299.538 79.6 294.058 79.6C291.698 79.6 289.738 78.6 288.418 76.72V79ZM293.138 61.2C290.058 61.2 288.418 63.68 288.418 68.24C288.418 72.8 290.098 75.36 293.138 75.36C296.178 75.36 297.818 72.84 297.818 68.24C297.818 63.72 296.138 61.2 293.138 61.2ZM306.774 55.16V50.2H311.894V55.16H306.774ZM306.774 79V57.56H311.894V79H306.774ZM316.579 79V50.2H321.699V79H316.579ZM326.383 55.16V50.2H331.503V55.16H326.383ZM326.383 79V57.56H331.503V79H326.383ZM336.868 72.32V61.52H334.108V57.56H336.868V52.64H341.988V57.56H346.508V61.52H341.988V71.88C341.988 74.12 342.628 75.32 345.468 75.32H346.428V79.08C345.868 79.36 344.708 79.6 343.308 79.6C338.948 79.6 336.868 77.12 336.868 72.32ZM349.508 55.16V50.2H354.628V55.16H349.508ZM349.508 79V57.56H354.628V79H349.508ZM378.873 72C377.713 76.96 373.873 79.6 368.753 79.6C362.273 79.6 358.313 75.32 358.313 68.32C358.313 61.04 362.313 56.96 368.553 56.96C374.833 56.96 378.713 61.2 378.713 68.12V69.32H363.593C363.833 73.24 365.633 75.4 368.753 75.4C371.153 75.4 372.793 74.28 373.473 72H378.873ZM368.553 61.16C365.833 61.16 364.193 62.88 363.713 66.12H373.353C372.873 62.92 371.233 61.16 368.553 61.16ZM386.835 63.32C386.835 68.24 400.355 64.08 400.355 72.68C400.355 76.8 396.555 79.6 391.195 79.6C385.915 79.6 382.115 77.16 381.355 72H386.475C386.835 74.32 388.675 75.64 391.355 75.64C393.875 75.64 395.195 74.56 395.195 73C395.195 68.2 381.955 72.32 381.955 63.64C381.955 60.16 384.675 56.96 390.275 56.96C395.195 56.96 398.915 59.28 399.555 64.6H394.435C394.035 62 392.515 60.96 390.075 60.96C388.035 60.96 386.835 61.96 386.835 63.32ZM416.5 64.6H411.34C412.02 59.84 415.5 56.96 420.9 56.96C426.86 56.96 429.9 60.48 429.9 65.44V73.76C429.9 76.4 430.14 77.88 430.54 79H425.22C424.94 78.28 424.82 77.24 424.78 76.08C423.02 78.56 420.38 79.6 417.82 79.6C413.62 79.6 410.62 77.52 410.62 73.4C410.62 70.48 412.26 68.28 415.54 67.2C418.38 66.24 421.14 66 424.74 65.96V65.44C424.74 62.68 423.42 61.2 420.58 61.2C418.14 61.2 416.82 62.56 416.5 64.6ZM415.78 73.12C415.78 74.76 417.06 75.8 419.14 75.8C422.3 75.8 424.74 73.24 424.74 70.04V69.12C417.46 69.24 415.78 70.96 415.78 73.12ZM439.062 63.32C439.062 68.24 452.582 64.08 452.582 72.68C452.582 76.8 448.782 79.6 443.422 79.6C438.142 79.6 434.342 77.16 433.582 72H438.702C439.062 74.32 440.902 75.64 443.582 75.64C446.102 75.64 447.422 74.56 447.422 73C447.422 68.2 434.182 72.32 434.182 63.64C434.182 60.16 436.902 56.96 442.502 56.96C447.422 56.96 451.142 59.28 451.782 64.6H446.662C446.262 62 444.742 60.96 442.302 60.96C440.262 60.96 439.062 61.96 439.062 63.32ZM21.32 128L17.44 113.64L17.04 111.12L16.56 113.64L12.72 128H6.36L0.4 106.56H5.88L9.32 121.68L9.84 124.28L10.44 121.68L14.56 106.56H19.88L24 121.68L24.52 124.2L25 121.68L28.48 106.56H33.72L27.72 128H21.32ZM55.9044 121C54.7444 125.96 50.9044 128.6 45.7844 128.6C39.3044 128.6 35.3444 124.32 35.3444 117.32C35.3444 110.04 39.3444 105.96 45.5844 105.96C51.8644 105.96 55.7444 110.2 55.7444 117.12V118.32H40.6244C40.8644 122.24 42.6644 124.4 45.7844 124.4C48.1844 124.4 49.8244 123.28 50.5044 121H55.9044ZM45.5844 110.16C42.8644 110.16 41.2244 111.88 40.7444 115.12H50.3844C49.9044 111.92 48.2644 110.16 45.5844 110.16ZM72.2419 113.6H67.0819C67.7619 108.84 71.2419 105.96 76.6419 105.96C82.6019 105.96 85.6419 109.48 85.6419 114.44V122.76C85.6419 125.4 85.8819 126.88 86.2819 128H80.9619C80.6819 127.28 80.5619 126.24 80.5219 125.08C78.7619 127.56 76.1219 128.6 73.5619 128.6C69.3619 128.6 66.3619 126.52 66.3619 122.4C66.3619 119.48 68.0019 117.28 71.2819 116.2C74.1219 115.24 76.8819 115 80.4819 114.96V114.44C80.4819 111.68 79.1619 110.2 76.3219 110.2C73.8819 110.2 72.5619 111.56 72.2419 113.6ZM71.5219 122.12C71.5219 123.76 72.8019 124.8 74.8819 124.8C78.0419 124.8 80.4819 122.24 80.4819 119.04V118.12C73.2019 118.24 71.5219 119.96 71.5219 122.12ZM90.5241 128V106.56H95.6441V109.68C97.0441 107.12 99.2041 105.96 101.524 105.96C102.404 105.96 103.204 106.2 103.604 106.56V111C102.924 110.8 102.164 110.72 101.244 110.72C97.3641 110.72 95.6441 113.04 95.6441 116.6V128H90.5241ZM125.475 121C124.315 125.96 120.475 128.6 115.355 128.6C108.875 128.6 104.915 124.32 104.915 117.32C104.915 110.04 108.915 105.96 115.155 105.96C121.435 105.96 125.315 110.2 125.315 117.12V118.32H110.195C110.435 122.24 112.235 124.4 115.355 124.4C117.755 124.4 119.395 123.28 120.075 121H125.475ZM115.155 110.16C112.435 110.16 110.795 111.88 110.315 115.12H119.955C119.475 111.92 117.835 110.16 115.155 110.16ZM128.252 128V122.36H133.892V125.4C133.892 129.4 133.172 131.88 131.452 134.84H128.692C129.732 132.44 130.452 130.48 130.452 128H128.252ZM151.152 136.8H146.032V106.56H151.152V109C152.512 107.04 154.432 105.96 156.792 105.96C162.392 105.96 165.832 110.24 165.832 117.24C165.832 124.52 162.312 128.6 156.792 128.6C154.432 128.6 152.472 127.6 151.152 125.68V136.8ZM155.872 110.2C152.792 110.2 151.152 112.68 151.152 117.24C151.152 121.8 152.872 124.36 155.872 124.36C158.912 124.36 160.552 121.84 160.552 117.24C160.552 112.72 158.872 110.2 155.872 110.2ZM169.548 128V99.2H174.668V128H169.548ZM198.912 121C197.752 125.96 193.912 128.6 188.792 128.6C182.312 128.6 178.352 124.32 178.352 117.32C178.352 110.04 182.352 105.96 188.592 105.96C194.872 105.96 198.752 110.2 198.752 117.12V118.32H183.632C183.872 122.24 185.672 124.4 188.792 124.4C191.192 124.4 192.832 123.28 193.512 121H198.912ZM188.592 110.16C185.872 110.16 184.232 111.88 183.752 115.12H193.392C192.912 111.92 191.272 110.16 188.592 110.16ZM207.554 113.6H202.394C203.074 108.84 206.554 105.96 211.954 105.96C217.914 105.96 220.954 109.48 220.954 114.44V122.76C220.954 125.4 221.194 126.88 221.594 128H216.274C215.994 127.28 215.874 126.24 215.834 125.08C214.074 127.56 211.434 128.6 208.874 128.6C204.674 128.6 201.674 126.52 201.674 122.4C201.674 119.48 203.314 117.28 206.594 116.2C209.434 115.24 212.194 115 215.794 114.96V114.44C215.794 111.68 214.474 110.2 211.634 110.2C209.194 110.2 207.874 111.56 207.554 113.6ZM206.834 122.12C206.834 123.76 208.114 124.8 210.194 124.8C213.354 124.8 215.794 122.24 215.794 119.04V118.12C208.514 118.24 206.834 119.96 206.834 122.12ZM230.117 112.32C230.117 117.24 243.637 113.08 243.637 121.68C243.637 125.8 239.837 128.6 234.477 128.6C229.197 128.6 225.397 126.16 224.637 121H229.757C230.117 123.32 231.957 124.64 234.637 124.64C237.157 124.64 238.477 123.56 238.477 122C238.477 117.2 225.237 121.32 225.237 112.64C225.237 109.16 227.957 105.96 233.557 105.96C238.477 105.96 242.197 108.28 242.837 113.6H237.717C237.317 111 235.797 109.96 233.357 109.96C231.317 109.96 230.117 110.96 230.117 112.32ZM266.686 121C265.526 125.96 261.686 128.6 256.566 128.6C250.086 128.6 246.126 124.32 246.126 117.32C246.126 110.04 250.126 105.96 256.366 105.96C262.646 105.96 266.526 110.2 266.526 117.12V118.32H251.406C251.646 122.24 253.446 124.4 256.566 124.4C258.966 124.4 260.606 123.28 261.286 121H266.686ZM256.366 110.16C253.646 110.16 252.006 111.88 251.526 115.12H261.166C260.686 111.92 259.046 110.16 256.366 110.16ZM296.623 114.16H291.503C291.023 111.36 289.343 110.2 287.183 110.2C284.023 110.2 282.343 112.72 282.343 117.32C282.343 121.84 284.103 124.36 287.343 124.36C289.543 124.36 291.103 123.16 291.623 120.72H296.783C295.823 126.08 292.063 128.6 287.223 128.6C280.903 128.6 277.063 124.28 277.063 117.32C277.063 110.04 281.023 105.96 287.183 105.96C292.063 105.96 295.903 108.68 296.623 114.16ZM309.609 128.6C303.249 128.6 299.329 124.32 299.329 117.32C299.329 110.04 303.369 105.96 309.609 105.96C315.929 105.96 319.849 110.28 319.849 117.32C319.849 124.52 315.809 128.6 309.609 128.6ZM309.609 124.36C312.849 124.36 314.569 121.88 314.569 117.32C314.569 112.76 312.809 110.2 309.609 110.2C306.329 110.2 304.609 112.72 304.609 117.32C304.609 121.84 306.369 124.36 309.609 124.36ZM323.571 128V106.56H328.691V109.44C330.091 107.12 332.331 105.96 335.051 105.96C339.331 105.96 342.251 108.52 342.251 113.72V128H337.131V114.76C337.131 111.84 335.891 110.2 333.291 110.2C330.451 110.2 328.691 112.68 328.691 115.56V128H323.571ZM347.649 121.32V110.52H344.889V106.56H347.649V101.64H352.769V106.56H357.289V110.52H352.769V120.88C352.769 123.12 353.409 124.32 356.249 124.32H357.209V128.08C356.649 128.36 355.489 128.6 354.089 128.6C349.729 128.6 347.649 126.12 347.649 121.32ZM365.25 113.6H360.09C360.77 108.84 364.25 105.96 369.65 105.96C375.61 105.96 378.65 109.48 378.65 114.44V122.76C378.65 125.4 378.89 126.88 379.29 128H373.97C373.69 127.28 373.57 126.24 373.53 125.08C371.77 127.56 369.13 128.6 366.57 128.6C362.37 128.6 359.37 126.52 359.37 122.4C359.37 119.48 361.01 117.28 364.29 116.2C367.13 115.24 369.89 115 373.49 114.96V114.44C373.49 111.68 372.17 110.2 369.33 110.2C366.89 110.2 365.57 111.56 365.25 113.6ZM364.53 122.12C364.53 123.76 365.81 124.8 367.89 124.8C371.05 124.8 373.49 122.24 373.49 119.04V118.12C366.21 118.24 364.53 119.96 364.53 122.12ZM402.092 114.16H396.972C396.492 111.36 394.812 110.2 392.652 110.2C389.492 110.2 387.812 112.72 387.812 117.32C387.812 121.84 389.572 124.36 392.812 124.36C395.012 124.36 396.572 123.16 397.092 120.72H402.252C401.292 126.08 397.532 128.6 392.692 128.6C386.372 128.6 382.532 124.28 382.532 117.32C382.532 110.04 386.492 105.96 392.652 105.96C397.532 105.96 401.372 108.68 402.092 114.16ZM406.478 121.32V110.52H403.718V106.56H406.478V101.64H411.598V106.56H416.118V110.52H411.598V120.88C411.598 123.12 412.238 124.32 415.078 124.32H416.038V128.08C415.478 128.36 414.318 128.6 412.918 128.6C408.558 128.6 406.478 126.12 406.478 121.32ZM440.133 119V106.56H445.253V128H440.133V125.12C438.733 127.48 436.533 128.6 433.893 128.6C429.653 128.6 426.813 126.04 426.813 120.88V106.56H431.933V119.84C431.933 122.76 433.133 124.36 435.653 124.36C438.413 124.36 440.133 121.88 440.133 119ZM454.257 112.32C454.257 117.24 467.777 113.08 467.777 121.68C467.777 125.8 463.977 128.6 458.617 128.6C453.337 128.6 449.537 126.16 448.777 121H453.897C454.257 123.32 456.097 124.64 458.777 124.64C461.297 124.64 462.617 123.56 462.617 122C462.617 117.2 449.377 121.32 449.377 112.64C449.377 109.16 452.097 105.96 457.697 105.96C462.617 105.96 466.337 108.28 466.977 113.6H461.857C461.457 111 459.937 109.96 457.497 109.96C455.457 109.96 454.257 110.96 454.257 112.32ZM470.986 128V122.36H476.626V128H470.986Z" fill="url(#paint0_linear_631_35704)"/>
<defs>
<linearGradient id="paint0_linear_631_35704" x1="-29.2214" y1="12.8936" x2="340.757" y2="91.3467" gradientUnits="userSpaceOnUse">
<stop stop-color="#FCD30B"/>
<stop offset="1" stop-color="#549CE9"/>
</linearGradient>
</defs>
</svg>
