<svg width="51" height="38" viewBox="0 0 51 38" fill="none" xmlns="http://www.w3.org/2000/svg">
<path d="M49.7678 20.7678C50.7441 19.7915 50.7441 18.2085 49.7678 17.2322L33.8579 1.32233C32.8816 0.346023 31.2986 0.346022 30.3223 1.32233C29.346 2.29864 29.346 3.88156 30.3223 4.85787L44.4645 19L30.3223 33.1421C29.346 34.1184 29.346 35.7014 30.3223 36.6777C31.2986 37.654 32.8816 37.654 33.8579 36.6777L49.7678 20.7678ZM0 19L-2.18557e-07 21.5L48 21.5L48 19L48 16.5L2.18557e-07 16.5L0 19Z" fill="url(#paint0_linear_627_20737)"/>
<defs>
<linearGradient id="paint0_linear_627_20737" x1="-4.37114e-08" y1="19.5" x2="48" y2="19.5" gradientUnits="userSpaceOnUse">
<stop stop-color="#FCD30B"/>
<stop offset="1" stop-color="#4997EA"/>
</linearGradient>
</defs>
</svg>
