<svg width="80" height="75" viewBox="0 0 80 75" fill="none" xmlns="http://www.w3.org/2000/svg">
<path d="M55.3537 32.2737C57.079 31.8243 63.2587 31.7901 64.7013 32.7317C67.1497 34.3369 65.2627 38.1077 68.9738 39.135C71.3322 39.7853 73.1818 35.7666 76.5676 40.4407C77.1204 41.204 79.8705 46.1963 79.9611 46.8479C80.2479 48.9111 78.0778 50.4954 76.631 51.5227V55.1731L77.1701 55.5667C78.4765 56.5345 80.0402 57.8601 79.9953 59.5266C79.9653 60.6866 76.1904 67.1197 75.1545 67.8176C71.8201 70.0648 70.1077 65.6134 67.1115 68.7122C65.7889 70.0818 66.6921 73.8361 63.4523 74.6282H55.3664C54.78 73.9091 53.8684 73.9001 53.2863 73.0911C52.302 71.7215 52.6521 69.2912 52.3185 68.7385C52.2287 68.5931 49.4997 67.4249 49.1984 67.4241C47.3535 67.4241 46.1802 69.9198 43.4279 67.634C42.7815 67.0989 39.8153 62.1891 39.5285 61.3245C38.4413 58.0543 39.6357 56.9029 42.1867 55.178V51.5227C39.4943 49.7378 38.3517 48.4189 39.6701 45.093C40.0556 44.1254 42.7213 39.6539 43.4279 39.0667C46.1759 36.7852 47.3578 39.2756 49.1984 39.2756C49.474 39.2748 51.9122 38.2443 52.1261 38.0774C52.8448 37.5159 51.7157 33.2153 55.3537 32.2737ZM5.44548 43.6594C7.85075 43.9293 7.78256 46.801 8.80974 48.6458C11.1297 52.8148 15.5724 54.035 20.0539 54.2063C20.0924 52.8965 19.6007 50.448 21.2101 50.0071C21.7109 49.8274 22.1432 49.9817 22.6183 50.1272L22.6222 50.1311C25.5672 51.03 31.235 57.2371 34.5138 58.6838C35.2327 59.4501 35.1554 60.8627 34.5519 61.6887C30.8537 64.1243 27.6302 67.8483 24.0861 70.3694C22.9606 71.1698 22.1515 72.1841 20.7306 71.1956C19.4636 70.7162 20.3449 67.6808 20.0539 67.4026C10.3032 66.9444 1.18659 60.8789 2.17107 50.1438C2.32103 48.487 3.5066 43.8392 5.44548 43.6594ZM56.6076 36.0784C55.7472 36.6819 56.6756 39.4341 55.674 40.47C55.4599 40.6926 50.649 43.3982 50.3537 43.471C48.3719 43.9674 47.49 42.2124 45.6066 42.3108L43.1203 47.1819L46.3429 50.2463C45.7823 52.4077 46.9849 55.6395 45.8127 57.2063C45.2391 57.9725 43.158 58.9661 43.0509 59.5696L45.6066 64.385C46.2829 64.8729 48.8123 62.836 50.3576 63.2122C50.6529 63.2849 55.464 66.0022 55.6789 66.221C56.6803 67.2567 55.7518 70.0084 56.6115 70.6126L62.4113 70.4036C62.7794 68.8755 62.2961 67.6123 63.4347 66.3196C63.6199 66.1092 67.8438 63.4729 68.1476 63.3616C70.3945 62.5401 72.1665 64.9453 73.1681 64.3596L75.7414 59.5823C75.048 58.1998 72.5654 57.6391 72.3683 56.094C72.257 55.1866 72.8349 54.3512 72.8263 53.5422L72.8215 53.5344C72.8086 52.4044 72.1459 51.3079 72.4455 50.2463L75.7365 47.1096L73.1642 42.3323C72.1626 41.7459 70.39 44.1555 68.1427 43.3294C67.8349 43.2154 63.6202 40.5851 63.4308 40.3723C62.2922 39.0796 62.7755 37.8165 62.4074 36.2883L56.6076 36.0784ZM6.01872 51.6467C5.7834 57.6306 10.8212 61.6246 16.2101 62.9387C19.0565 63.6321 22.8064 62.7073 24.0949 65.2581L24.0998 65.263L29.8351 60.3743L23.8937 55.9016C23.8937 56.4023 23.8125 57.0356 23.5002 57.4251C21.9635 59.3256 11.2452 57.2026 9.28044 54.9768L6.01872 51.6467ZM59.4113 43.6467C64.7745 43.6467 69.1239 47.9951 69.1242 53.3626C69.1242 58.7302 64.7747 63.0794 59.4113 63.0794C54.0481 63.0792 49.6994 58.7301 49.6994 53.3626C49.6996 47.9953 54.0483 43.6469 59.4113 43.6467ZM59.425 47.512C56.2061 47.512 53.5949 50.1228 53.5949 53.346C53.5949 56.5691 56.2061 59.1799 59.425 59.1799C62.6436 59.1797 65.2541 56.5689 65.2541 53.346C65.2541 50.123 62.6436 47.5122 59.425 47.512ZM0.0577857 18.4475C2.30513 -6.48136 39.2365 -5.87791 40.4953 18.6399C41.8693 45.4053 2.40787 47.4433 0.0577857 21.427C-0.0192619 20.5667 -0.0192619 19.3079 0.0577857 18.4475ZM20.3898 3.66725C11.4096 3.66732 4.13298 10.9487 4.13298 19.929C4.13312 28.9091 11.4139 36.1896 20.3898 36.1897C29.3701 36.1897 36.6465 28.9092 36.6467 19.929C36.6467 10.9486 29.3701 3.66725 20.3898 3.66725ZM20.6125 6.19655C22.7054 6.36356 21.8025 8.61945 22.59 9.30006C22.9195 9.58249 23.8821 9.65965 24.4386 10.0061C26.3691 11.2089 28.6465 13.3927 27.174 15.7854C24.4477 17.3517 24.4863 15.0958 23.4377 13.9915C21.2847 11.7315 15.7284 13.2212 16.9523 16.1917C17.8726 18.4132 20.5524 17.7328 22.2902 18.1223H22.2863C26.9174 19.1626 29.7636 24.4785 26.3654 28.3821C25.2996 29.6063 22.573 30.4717 22.3761 30.7756C21.9098 31.4993 22.4693 34.2337 20.0383 33.596C18.1127 33.0907 18.6772 31.3277 17.9113 30.5872C16.5973 29.3117 12.0221 28.481 13.5197 24.9329C14.8038 21.8895 17.5564 26.2636 18.4552 26.636C20.8265 27.6117 24.5973 26.6616 23.6945 23.5159C23.1423 21.6025 19.8585 22.0301 18.3176 21.6663C13.1557 20.4375 10.6689 14.3209 15.1545 10.7854C15.9378 10.1648 17.5177 9.74132 17.9201 9.29616C18.6092 8.53423 18.4337 6.02105 20.6125 6.19655ZM56.259 2.51979C61.5702 -1.13091 59.9195 4.82994 60.8732 5.49049C70.5769 5.82008 79.6599 12.7161 78.2345 23.2288C78.0548 24.5428 76.8311 28.6388 75.4914 29.0286C72.9188 29.7819 72.4004 25.2145 71.2961 23.5794C68.7706 19.8516 64.6789 18.9398 60.4758 18.4475C60.6983 20.8788 60.6169 23.5408 57.4709 22.5178C56.8331 22.3124 47.5101 15.4473 46.6496 14.6126L46.6545 14.6077C45.3704 13.3621 44.6036 12.5576 46.0461 11.0296C47.9508 9.01778 53.9089 4.13785 56.259 2.51979ZM50.6867 12.2835L56.6359 16.7483C56.6102 13.4224 62.5989 14.7195 64.8205 15.1604C69.1991 16.0294 71.4295 17.9941 74.507 21.0032C74.3786 14.6125 68.9333 10.7603 63.1291 9.61744C60.8905 9.1767 57.4754 10.0492 56.4308 7.38307L50.6867 12.2835Z" fill="url(#paint0_linear_607_9459)"/>
<defs>
<linearGradient id="paint0_linear_607_9459" x1="39.9982" y1="4.28905" x2="54.3108" y2="50.4815" gradientUnits="userSpaceOnUse">
<stop stop-color="#FCD30B"/>
<stop offset="1" stop-color="#4997EA"/>
</linearGradient>
</defs>
</svg>
