<svg width="83" height="62" viewBox="0 0 83 62" fill="none" xmlns="http://www.w3.org/2000/svg">
<g clip-path="url(#clip0_607_9454)">
<mask id="path-1-inside-1_607_9454" fill="white">
<path d="M68.2256 16.377L68.2256 12.9658L67.7861 12.71C57.6418 13.0492 48.2458 17.9647 42.3291 26.1807C39.6896 29.846 38.1873 34.0205 35.9189 37.8828C28.4899 50.5342 14.7627 58.6014 -0.00195568 58.4902L-0.00195527 49.1318C10.395 49.2956 20.3178 44.0748 26.2812 35.625C29.4669 31.1116 31.1951 25.861 34.3594 21.3066C41.3782 11.2053 52.8895 4.47096 65.2148 3.51172C66.1867 3.43572 67.4656 3.78413 68.2256 3.2168L68.2256 -6.4581e-07L83 8.09277L68.2256 16.377ZM27.7969 29.4395C22.5449 19.383 11.3719 12.6898 -0.000977125 12.8672L-0.000976716 3.50879C12.8511 3.41715 25.575 9.8905 33.0156 20.3408L27.7969 29.4395ZM68.2256 62L68.2256 58.7832C67.5822 58.2316 66.4568 58.5555 65.6035 58.4893C53.7447 57.5807 42.1385 51.807 35.2148 42.0469L40.4277 33.1455C45.7264 42.9971 57.02 49.3629 68.2256 49.1328L68.2256 45.623L83 53.9072L68.2256 62Z"/>
</mask>
<path d="M68.2256 16.377L68.2256 12.9658L67.7861 12.71C57.6418 13.0492 48.2458 17.9647 42.3291 26.1807C39.6896 29.846 38.1873 34.0205 35.9189 37.8828C28.4899 50.5342 14.7627 58.6014 -0.00195568 58.4902L-0.00195527 49.1318C10.395 49.2956 20.3178 44.0748 26.2812 35.625C29.4669 31.1116 31.1951 25.861 34.3594 21.3066C41.3782 11.2053 52.8895 4.47096 65.2148 3.51172C66.1867 3.43572 67.4656 3.78413 68.2256 3.2168L68.2256 -6.4581e-07L83 8.09277L68.2256 16.377ZM27.7969 29.4395C22.5449 19.383 11.3719 12.6898 -0.000977125 12.8672L-0.000976716 3.50879C12.8511 3.41715 25.575 9.8905 33.0156 20.3408L27.7969 29.4395ZM68.2256 62L68.2256 58.7832C67.5822 58.2316 66.4568 58.5555 65.6035 58.4893C53.7447 57.5807 42.1385 51.807 35.2148 42.0469L40.4277 33.1455C45.7264 42.9971 57.02 49.3629 68.2256 49.1328L68.2256 45.623L83 53.9072L68.2256 62Z" fill="url(#paint0_linear_607_9454)"/>
<path d="M68.2256 16.377L67.2256 16.377L67.2256 18.0841L68.7147 17.2492L68.2256 16.377ZM68.2256 12.9658L69.2256 12.9658L69.2256 12.3909L68.7287 12.1016L68.2256 12.9658ZM67.7861 12.71L68.2893 11.8458L68.0405 11.7009L67.7527 11.7105L67.7861 12.71ZM42.3291 26.1807L41.5176 25.5963L41.5176 25.5963L42.3291 26.1807ZM35.9189 37.8828L35.0567 37.3764L35.0566 37.3764L35.9189 37.8828ZM-0.00195568 58.4902L-1.00196 58.4902L-1.00196 59.4827L-0.00948594 59.4902L-0.00195568 58.4902ZM-0.00195527 49.1318L0.0137918 48.132L-1.00196 48.116L-1.00196 49.1318L-0.00195527 49.1318ZM26.2812 35.625L25.4643 35.0483L25.4642 35.0484L26.2812 35.625ZM34.3594 21.3066L33.5382 20.736L33.5381 20.7361L34.3594 21.3066ZM65.2148 3.51172L65.2924 4.5087L65.2928 4.50867L65.2148 3.51172ZM68.2256 3.2168L68.8238 4.01813L69.2256 3.71819L69.2256 3.2168L68.2256 3.2168ZM68.2256 -6.4581e-07L68.706 -0.877046L67.2256 -1.68795L67.2256 -6.89522e-07L68.2256 -6.4581e-07ZM83 8.09277L83.4891 8.96501L85.0629 8.08255L83.4804 7.21573L83 8.09277ZM27.7969 29.4395L26.9105 29.9024L27.7558 31.521L28.6643 29.937L27.7969 29.4395ZM-0.000977125 12.8672L-1.00098 12.8672L-1.00098 13.8829L0.0146249 13.8671L-0.000977125 12.8672ZM-0.000976716 3.50879L-0.00811016 2.50881L-1.00098 2.51589L-1.00098 3.50879L-0.000976716 3.50879ZM33.0156 20.3408L33.8831 20.8384L34.2018 20.2827L33.8302 19.7608L33.0156 20.3408ZM68.2256 62L67.2256 62L67.2256 63.6879L68.706 62.877L68.2256 62ZM68.2256 58.7832L69.2256 58.7832L69.2256 58.3233L68.8765 58.024L68.2256 58.7832ZM65.6035 58.4893L65.6809 57.4923L65.6799 57.4922L65.6035 58.4893ZM35.2148 42.0469L34.3519 41.5415L34.0256 42.0988L34.3992 42.6255L35.2148 42.0469ZM40.4277 33.1455L41.3084 32.6718L40.4648 31.1033L39.5648 32.6402L40.4277 33.1455ZM68.2256 49.1328L68.2461 50.1326L69.2256 50.1125L69.2256 49.1328L68.2256 49.1328ZM68.2256 45.623L68.7147 44.7508L67.2256 43.9159L67.2256 45.623L68.2256 45.623ZM83 53.9072L83.4804 54.7843L85.0629 53.9175L83.4891 53.035L83 53.9072ZM68.2256 16.377L69.2256 16.377L69.2256 12.9658L68.2256 12.9658L67.2256 12.9658L67.2256 16.377L68.2256 16.377ZM68.2256 12.9658L68.7287 12.1016L68.2893 11.8458L67.7861 12.71L67.283 13.5742L67.7224 13.83L68.2256 12.9658ZM67.7861 12.71L67.7527 11.7105C57.3056 12.0599 47.6194 17.1234 41.5176 25.5963L42.3291 26.1807L43.1406 26.765C48.8723 18.8061 57.9779 14.0386 67.8196 13.7094L67.7861 12.71ZM42.3291 26.1807L41.5176 25.5963C40.1481 27.498 39.0832 29.5185 38.0898 31.5119C37.0866 33.5249 36.1679 35.4842 35.0567 37.3764L35.9189 37.8828L36.7812 38.3892C37.9383 36.4191 38.9049 34.3601 39.8798 32.4039C40.8645 30.4281 41.8705 28.5287 43.1406 26.765L42.3291 26.1807ZM35.9189 37.8828L35.0566 37.3764C27.8026 49.7299 14.4013 57.5986 0.00557457 57.4903L-0.00195568 58.4902L-0.00948594 59.4902C15.1241 59.6041 29.1773 51.3386 36.7813 38.3892L35.9189 37.8828ZM-0.00195568 58.4902L0.998044 58.4902L0.998045 49.1318L-0.00195527 49.1318L-1.00196 49.1318L-1.00196 58.4902L-0.00195568 58.4902ZM-0.00195527 49.1318L-0.0177024 50.1317C10.7204 50.3009 20.9505 44.9126 27.0983 36.2016L26.2812 35.625L25.4642 35.0484C19.6851 43.2369 10.0696 48.2904 0.0137918 48.132L-0.00195527 49.1318ZM26.2812 35.625L27.0982 36.2017C28.7412 33.8739 30.0013 31.366 31.2224 28.9292C32.4541 26.4713 33.6463 24.0856 35.1806 21.8772L34.3594 21.3066L33.5381 20.7361C31.9082 23.082 30.6542 25.5988 29.4343 28.0332C28.2039 30.4886 27.007 32.8627 25.4643 35.0483L26.2812 35.625ZM34.3594 21.3066L35.1806 21.8773C42.0317 12.0173 53.2726 5.44417 65.2924 4.5087L65.2148 3.51172L65.1373 2.51473C52.5065 3.49775 40.7248 10.3933 33.5382 20.736L34.3594 21.3066ZM65.2148 3.51172L65.2928 4.50867C65.4681 4.49496 65.6763 4.4993 65.9396 4.51216C66.1819 4.524 66.4949 4.54478 66.7872 4.54843C67.3499 4.55545 68.1584 4.51485 68.8238 4.01813L68.2256 3.2168L67.6274 2.41546C67.5328 2.48608 67.3219 2.55494 66.8121 2.54859C66.5682 2.54554 66.3318 2.52894 66.0372 2.51455C65.7636 2.50118 65.4475 2.49047 65.1369 2.51476L65.2148 3.51172ZM68.2256 3.2168L69.2256 3.2168L69.2256 -6.02099e-07L68.2256 -6.4581e-07L67.2256 -6.89522e-07L67.2256 3.2168L68.2256 3.2168ZM68.2256 -6.4581e-07L67.7452 0.877045L82.5196 8.96982L83 8.09277L83.4804 7.21573L68.706 -0.877046L68.2256 -6.4581e-07ZM83 8.09277L82.5109 7.22053L67.7365 15.5047L68.2256 16.377L68.7147 17.2492L83.4891 8.96501L83 8.09277ZM27.7969 29.4395L28.6833 28.9765C23.2572 18.5867 11.7362 11.684 -0.0165792 11.8673L-0.000977125 12.8672L0.0146249 13.8671C11.0075 13.6956 21.8326 20.1793 26.9105 29.9024L27.7969 29.4395ZM-0.000977125 12.8672L0.999023 12.8672L0.999023 3.50879L-0.000976716 3.50879L-1.00098 3.50879L-1.00098 12.8672L-0.000977125 12.8672ZM-0.000976716 3.50879L0.00615672 4.50876C12.5341 4.41944 24.9505 10.7376 32.201 20.9208L33.0156 20.3408L33.8302 19.7608C26.1994 9.04342 13.1681 2.41487 -0.00811016 2.50881L-0.000976716 3.50879ZM33.0156 20.3408L32.1482 19.8433L26.9294 28.9419L27.7969 29.4395L28.6643 29.937L33.8831 20.8384L33.0156 20.3408ZM68.2256 62L69.2256 62L69.2256 58.7832L68.2256 58.7832L67.2256 58.7832L67.2256 62L68.2256 62ZM68.2256 58.7832L68.8765 58.024C68.26 57.4955 67.4901 57.4502 66.9852 57.4543C66.7213 57.4564 66.4407 57.4758 66.23 57.487C65.998 57.4992 65.824 57.5034 65.6809 57.4923L65.6035 58.4893L65.5261 59.4863C65.8096 59.5083 66.0963 59.4968 66.3354 59.4842C66.5958 59.4704 66.7967 59.4558 67.0012 59.4542C67.4332 59.4507 67.5478 59.5193 67.5747 59.5424L68.2256 58.7832ZM65.6035 58.4893L65.6799 57.4922C54.0743 56.603 42.7585 50.9527 36.0305 41.4683L35.2148 42.0469L34.3992 42.6255C41.5184 52.6612 53.4151 58.5584 65.5271 59.4863L65.6035 58.4893ZM35.2148 42.0469L36.0778 42.5522L41.2906 33.6509L40.4277 33.1455L39.5648 32.6402L34.3519 41.5415L35.2148 42.0469ZM40.4277 33.1455L39.547 33.6192C45.0302 43.8137 56.6792 50.3701 68.2461 50.1326L68.2256 49.1328L68.2051 48.133C57.3607 48.3557 46.4227 42.1806 41.3084 32.6718L40.4277 33.1455ZM68.2256 49.1328L69.2256 49.1328L69.2256 45.623L68.2256 45.623L67.2256 45.623L67.2256 49.1328L68.2256 49.1328ZM68.2256 45.623L67.7365 46.4953L82.5109 54.7795L83 53.9072L83.4891 53.035L68.7147 44.7508L68.2256 45.623ZM83 53.9072L82.5196 53.0302L67.7452 61.123L68.2256 62L68.706 62.877L83.4804 54.7843L83 53.9072Z" fill="white" mask="url(#path-1-inside-1_607_9454)"/>
</g>
<defs>
<linearGradient id="paint0_linear_607_9454" x1="78.2297" y1="31.0001" x2="31.2167" y2="51.904" gradientUnits="userSpaceOnUse">
<stop stop-color="#FCD30B"/>
<stop offset="1" stop-color="#4997EA"/>
</linearGradient>
<clipPath id="clip0_607_9454">
<rect width="62" height="83" fill="white" transform="translate(83) rotate(90)"/>
</clipPath>
</defs>
</svg>
