<svg width="84" height="89" viewBox="0 0 84 89" fill="none" xmlns="http://www.w3.org/2000/svg">
<path d="M51.2674 8.08887C51.6971 8.90946 51.3944 9.63189 50.8074 10.2656C49.4451 11.7354 45.532 14.966 43.8465 16.1895C43.5924 16.3732 42.8429 16.9062 42.5926 16.9062C42.2493 16.9059 41.8303 16.3123 41.8299 16.0352V12.2129C34.8764 12.3811 28.2016 14.4138 22.4851 18.3594C7.27888 28.8554 3.00752 49.7946 13.0574 65.4697C21.9248 79.2995 39.3655 85.0095 54.7361 78.9316C56.2761 78.3233 57.8589 77.2538 59.3142 76.7305C63.2672 75.3086 65.7426 80.3301 62.0857 82.7412C59.2985 84.5797 53.946 86.381 50.6648 87.0742L44.5369 87.9727C43.0226 87.9115 41.4795 88.0542 39.9685 87.9727C22.7059 87.033 7.47369 75.1387 2.65409 58.415C-4.56339 33.3635 12.6587 8.1758 38.364 5.75781C39.5011 5.65081 40.6904 5.84407 41.8308 5.58594V2.44434C41.8308 1.91079 41.7145 1.46218 42.1697 1H42.6775L51.2674 8.08887ZM70.0476 68.3076C72.8989 67.905 74.8484 71.13 73.2107 73.5225C72.9112 73.9592 71.4247 75.6198 71.0203 75.9121C68.5023 77.7332 65.2229 75.6767 65.7322 72.6387C65.9729 71.2078 68.5605 68.5183 70.0496 68.3076H70.0476ZM63.1424 31.333L63.4617 31.6963C63.5988 32.1466 62.6713 35.2054 62.3836 35.6455C61.7253 36.6493 60.6917 35.605 60.448 35.8242H60.4451C58.956 39.751 58.9892 44.5233 54.3885 45.9678C51.6403 46.831 48.5514 47.1844 45.7508 47.915C45.7169 48.4246 45.3588 48.9619 45.2791 49.4121C45.1877 49.9304 45.3807 50.023 45.6531 50.4189C47.0022 52.3715 51.7795 56.9243 52.1101 58.8818C52.518 61.2981 50.3741 65.0995 49.8055 67.5107C49.841 67.8624 51.2271 67.6775 51.1326 68.8428C51.0971 69.2931 49.9116 72.4559 49.6121 72.6055L21.0965 62.998C20.9679 62.8332 20.9053 62.6933 20.9256 62.4775C20.9533 62.1769 21.9595 59.22 22.1287 58.9414C22.8409 57.763 23.6138 59.0717 23.9744 58.5869C25.3062 55.4264 25.4678 51.1969 29.0232 49.7236C31.7867 48.5801 35.4977 48.362 38.4099 47.5107C38.5844 46.8922 39.1556 45.9694 38.868 45.3408C37.0928 43.1558 34.9236 40.9755 33.3025 38.6953C31.8101 36.5952 31.7725 36.1463 32.4392 33.6162C33.0129 31.438 33.969 29.2088 34.7 27.0713C34.6678 26.745 33.3785 26.857 33.3582 25.8936C33.3516 25.5415 34.5281 22.0957 34.7185 21.9785C34.9081 21.8647 35.1102 21.8799 35.3133 21.8799L63.1424 31.333ZM34.7986 35.1357C34.4636 36.0533 35.0867 36.5949 35.574 37.2627C37.3729 39.7232 39.765 41.999 41.5994 44.4629C42.2221 45.2343 41.7927 46.0038 41.5389 46.8262C41.285 47.6486 40.716 49.5449 40.0154 49.8848C37.0524 50.826 33.5344 51.0505 30.6238 52.0088C29.5154 52.3741 28.8637 52.9521 28.3797 54.0039C28.107 54.5959 26.4099 59.5419 26.6062 59.7695L47.243 66.7412C47.7523 64.8398 48.6546 62.9961 49.1521 61.0947C49.5261 59.6623 49.6531 59.5705 48.7664 58.3369C46.9049 55.7473 44.3257 53.372 42.4676 50.7314C42.119 49.8886 42.992 47.3512 43.3914 46.4795C43.6469 45.9222 43.7979 45.6757 44.4002 45.4531C47.1163 44.4506 50.8871 44.3354 53.6844 43.3906C54.3375 43.1697 55.0532 42.6661 55.4441 42.0986C55.9976 41.2958 57.5777 36.6081 57.8318 35.4912C57.8826 35.2703 57.964 35.0487 57.8963 34.8193L57.8924 34.8184L37.2537 27.9092L34.7986 35.1357ZM76.8181 57.2676C78.8505 57.0263 80.5855 58.8313 80.4129 60.8789C80.3433 61.6913 79.3857 63.9509 78.8865 64.6152C76.8101 67.3867 72.6337 65.6942 72.9637 62.2363C73.0331 61.5022 74.1941 58.9128 74.6814 58.3555C75.145 57.8271 76.1277 57.3483 76.8181 57.2666V57.2676ZM79.1853 44.7002C81.0399 44.4335 82.7898 45.7284 82.9558 47.6211C83.0574 48.7748 82.9993 50.7223 82.5086 51.7725C81.2242 54.5235 76.7176 53.9376 76.3435 50.8604C76.0626 48.5443 76.3354 45.1098 79.1834 44.7002H79.1853ZM74.6492 35.0557C74.7187 32.4271 77.8506 30.988 79.9676 32.6191C81.4821 33.7865 82.4603 38.1195 81.032 39.6709H81.034C79.7377 41.0778 77.2788 41.1015 76.0418 39.6182C75.3953 38.845 74.6221 36.0837 74.6492 35.0557ZM68.7322 24.3613C68.3295 21.0275 72.1308 19.2022 74.4881 21.6406C76.0465 23.2515 77.6385 26.2212 75.615 28.1191H75.617C74.6 29.0741 72.8736 29.2411 71.6619 28.5547C70.7533 28.0399 68.8578 25.3998 68.7322 24.3613ZM62.4334 11.7471C63.809 11.6927 66.758 13.6316 67.3592 14.8652C68.8043 17.8355 65.8719 20.6671 62.9139 19.3281C62.0628 18.9425 60.0087 17.3758 59.614 16.5244C58.619 14.3733 60.0743 11.839 62.4314 11.7471H62.4334Z" fill="url(#paint0_linear_607_9445)"/>
<path d="M51.2674 8.08887L51.7103 7.85689L51.6635 7.76748L51.5856 7.70323L51.2674 8.08887ZM50.8074 10.2656L51.1741 10.6055L51.1742 10.6054L50.8074 10.2656ZM43.8465 16.1895L44.1394 16.5947L44.1402 16.5941L43.8465 16.1895ZM42.5926 16.9062L42.5921 17.4062H42.5926V16.9062ZM41.8299 16.0352H41.3299V16.036L41.8299 16.0352ZM41.8299 12.2129H42.3299V11.7006L41.8178 11.713L41.8299 12.2129ZM22.4851 18.3594L22.2011 17.9479L22.2011 17.9479L22.4851 18.3594ZM13.0574 65.4697L12.6365 65.7396L12.6365 65.7396L13.0574 65.4697ZM54.7361 78.9316L54.5524 78.4666L54.5523 78.4667L54.7361 78.9316ZM59.3142 76.7305L59.4834 77.201L59.4835 77.201L59.3142 76.7305ZM62.0857 82.7412L61.8105 82.3238L61.8104 82.3238L62.0857 82.7412ZM50.6648 87.0742L50.7374 87.5689L50.7529 87.5667L50.7682 87.5634L50.6648 87.0742ZM44.5369 87.9727L44.5167 88.4723L44.5633 88.4741L44.6094 88.4674L44.5369 87.9727ZM39.9685 87.9727L39.9414 88.4719L39.9416 88.4719L39.9685 87.9727ZM2.65409 58.415L2.17363 58.5535L2.17364 58.5535L2.65409 58.415ZM38.364 5.75781L38.4109 6.25561L38.4109 6.25561L38.364 5.75781ZM41.8308 5.58594L41.9412 6.0736L42.3308 5.98541V5.58594H41.8308ZM42.1697 1V0.5H41.9604L41.8135 0.649151L42.1697 1ZM42.6775 1L42.9958 0.614363L42.8572 0.5H42.6775V1ZM70.0476 68.3076L69.9777 67.8125L70.0476 68.8076V68.3076ZM73.2107 73.5225L73.6231 73.8053L73.6233 73.8049L73.2107 73.5225ZM71.0203 75.9121L70.7274 75.5069L70.7273 75.507L71.0203 75.9121ZM65.7322 72.6387L65.2391 72.5557L65.2391 72.556L65.7322 72.6387ZM70.0496 68.3076L70.1196 68.8027L70.0496 67.8076V68.3076ZM63.1424 31.333L63.5179 31.0029L63.4297 30.9025L63.3032 30.8596L63.1424 31.333ZM63.4617 31.6963L63.94 31.5507L63.9086 31.4473L63.8372 31.3662L63.4617 31.6963ZM62.3836 35.6455L62.8017 35.9197L62.8021 35.9191L62.3836 35.6455ZM60.448 35.8242V36.3242H60.6398L60.7824 36.196L60.448 35.8242ZM60.4451 35.8242V35.3242H60.1L59.9776 35.6469L60.4451 35.8242ZM54.3885 45.9678L54.2387 45.4907L54.2386 45.4907L54.3885 45.9678ZM45.7508 47.915L45.6245 47.4312L45.2757 47.5222L45.2519 47.8819L45.7508 47.915ZM45.2791 49.4121L44.7867 49.3249L44.7867 49.3253L45.2791 49.4121ZM45.6531 50.4189L45.2412 50.7024L45.2418 50.7032L45.6531 50.4189ZM52.1101 58.8818L52.6032 58.7986L52.6032 58.7986L52.1101 58.8818ZM49.8055 67.5107L49.3188 67.396L49.2996 67.4776L49.308 67.561L49.8055 67.5107ZM51.1326 68.8428L50.6342 68.8024L50.6342 68.8034L51.1326 68.8428ZM49.6121 72.6055L49.4525 73.0793L49.6494 73.1457L49.8354 73.0528L49.6121 72.6055ZM21.0965 62.998L20.7023 63.3056L20.7946 63.424L20.9368 63.4719L21.0965 62.998ZM20.9256 62.4775L21.4234 62.5244L21.4235 62.5234L20.9256 62.4775ZM22.1287 58.9414L22.5561 59.2009L22.5566 59.2L22.1287 58.9414ZM23.9744 58.5869L24.3756 58.8853L24.4117 58.8368L24.4352 58.7811L23.9744 58.5869ZM29.0232 49.7236L28.8321 49.2616L28.8318 49.2617L29.0232 49.7236ZM38.4099 47.5107L38.5502 47.9907L38.816 47.913L38.8912 47.6465L38.4099 47.5107ZM38.868 45.3408L39.3226 45.1328L39.2961 45.0749L39.256 45.0256L38.868 45.3408ZM33.3025 38.6953L32.895 38.985L32.895 38.985L33.3025 38.6953ZM32.4392 33.6162L32.9227 33.7436L32.9228 33.7435L32.4392 33.6162ZM34.7 27.0713L35.1731 27.2331L35.2082 27.1303L35.1976 27.0223L34.7 27.0713ZM33.3582 25.8936L32.8583 25.9029L32.8583 25.9041L33.3582 25.8936ZM34.7185 21.9785L34.4611 21.5499L34.4565 21.5527L34.7185 21.9785ZM35.3133 21.8799L35.4741 21.4065L35.3959 21.3799H35.3133V21.8799ZM34.7986 35.1357L35.2684 35.3073L35.272 35.2966L34.7986 35.1357ZM35.574 37.2627L35.1701 37.5575L35.1704 37.5578L35.574 37.2627ZM41.5994 44.4629L41.1983 44.7615L41.2042 44.7693L41.2103 44.777L41.5994 44.4629ZM41.5389 46.8262L41.0611 46.6787L41.0611 46.6787L41.5389 46.8262ZM40.0154 49.8848L40.1668 50.3613L40.2012 50.3504L40.2336 50.3346L40.0154 49.8848ZM30.6238 52.0088L30.4674 51.5339L30.4673 51.5339L30.6238 52.0088ZM28.3797 54.0039L28.8338 54.2131L28.8339 54.2129L28.3797 54.0039ZM26.6062 59.7695L26.2275 60.096L26.3168 60.1995L26.4462 60.2432L26.6062 59.7695ZM47.243 66.7412L47.0829 67.2149L47.588 67.3855L47.7259 66.8706L47.243 66.7412ZM49.1521 61.0947L49.6358 61.2213L49.6359 61.221L49.1521 61.0947ZM48.7664 58.3369L49.1724 58.0451L49.1724 58.0451L48.7664 58.3369ZM42.4676 50.7314L42.0055 50.9226L42.0267 50.9738L42.0587 51.0192L42.4676 50.7314ZM43.3914 46.4795L42.9369 46.2711L42.9368 46.2712L43.3914 46.4795ZM44.4002 45.4531L44.227 44.9841L44.2269 44.9841L44.4002 45.4531ZM53.6844 43.3906L53.8444 43.8643L53.8446 43.8643L53.6844 43.3906ZM55.4441 42.0986L55.0325 41.8148L55.0324 41.815L55.4441 42.0986ZM57.8318 35.4912L57.3445 35.3792L57.3443 35.3803L57.8318 35.4912ZM57.8963 34.8193L58.3758 34.6778L58.2949 34.4036L58.0175 34.3343L57.8963 34.8193ZM57.8924 34.8184L57.7336 35.2925L57.7522 35.2987L57.7711 35.3034L57.8924 34.8184ZM37.2537 27.9092L37.4124 27.435L36.9404 27.277L36.7803 27.7483L37.2537 27.9092ZM76.8181 57.2676H76.3181V57.8305L76.8771 57.7641L76.8181 57.2676ZM80.4129 60.8789L80.9111 60.9216L80.9111 60.9209L80.4129 60.8789ZM78.8865 64.6152L78.4868 64.3149L78.4864 64.3154L78.8865 64.6152ZM72.9637 62.2363L73.4614 62.2838L73.4614 62.2834L72.9637 62.2363ZM74.6814 58.3555L74.3056 58.0257L74.305 58.0263L74.6814 58.3555ZM76.8181 57.2666H77.3181V56.7039L76.7594 56.7701L76.8181 57.2666ZM79.1853 44.7002V45.2002H79.2211L79.2565 45.1951L79.1853 44.7002ZM82.9558 47.6211L82.4578 47.6648L82.4578 47.6649L82.9558 47.6211ZM82.5086 51.7725L82.0556 51.5608L82.0555 51.5609L82.5086 51.7725ZM76.3435 50.8604L75.8472 50.9206L75.8472 50.9207L76.3435 50.8604ZM79.1834 44.7002V44.2002H79.1476L79.1122 44.2053L79.1834 44.7002ZM74.6492 35.0557L74.1494 35.0424V35.0425L74.6492 35.0557ZM79.9676 32.6191L80.2728 32.2231L80.2727 32.2231L79.9676 32.6191ZM81.032 39.6709L80.6642 39.3322L79.8921 40.1709H81.032V39.6709ZM81.034 39.6709L81.4017 40.0097L82.1745 39.1709H81.034V39.6709ZM76.0418 39.6182L76.4258 39.2979L76.4254 39.2974L76.0418 39.6182ZM68.7322 24.3613L68.2358 24.4213L68.2358 24.4214L68.7322 24.3613ZM74.4881 21.6406L74.1286 21.9882L74.1287 21.9883L74.4881 21.6406ZM75.615 28.1191L75.273 27.7545L74.3511 28.6191H75.615V28.1191ZM75.617 28.1191L75.9592 28.4836L76.8799 27.6191H75.617V28.1191ZM71.6619 28.5547L71.4154 28.9897L71.4154 28.9897L71.6619 28.5547ZM62.4334 11.7471V12.2471H62.4433L62.4531 12.2467L62.4334 11.7471ZM67.3592 14.8652L67.8088 14.6465L67.8086 14.6462L67.3592 14.8652ZM62.9139 19.3281L62.7075 19.7835L62.7077 19.7836L62.9139 19.3281ZM59.614 16.5244L59.1602 16.7343L59.1604 16.7347L59.614 16.5244ZM62.4314 11.7471V11.2471H62.4217L62.4119 11.2474L62.4314 11.7471ZM51.2674 8.08887L50.8244 8.32084C50.9833 8.62412 50.9978 8.88203 50.9351 9.12012C50.8684 9.37399 50.7032 9.6423 50.4406 9.92585L50.8074 10.2656L51.1742 10.6054C51.4986 10.2552 51.7784 9.84544 51.9022 9.37452C52.0303 8.88781 51.9812 8.37421 51.7103 7.85689L51.2674 8.08887ZM50.8074 10.2656L50.4407 9.92574C49.1108 11.3606 45.2277 14.569 43.5528 15.7848L43.8465 16.1895L44.1402 16.5941C45.8362 15.363 49.7795 12.1103 51.1741 10.6055L50.8074 10.2656ZM43.8465 16.1895L43.5535 15.7843C43.4281 15.8749 43.1887 16.0458 42.9534 16.1925C42.8351 16.2664 42.7272 16.3282 42.6409 16.3698C42.5978 16.3907 42.5679 16.4026 42.5502 16.4085C42.5262 16.4165 42.5459 16.4062 42.5926 16.4062V16.9062V17.4062C42.7018 17.4062 42.7997 17.3794 42.8656 17.3575C42.9378 17.3335 43.0095 17.3023 43.0758 17.2703C43.2084 17.2063 43.3507 17.1233 43.4828 17.0409C43.7484 16.8752 44.0107 16.6877 44.1394 16.5947L43.8465 16.1895ZM42.5926 16.9062L42.593 16.4062C42.6466 16.4063 42.6547 16.4263 42.6114 16.3966C42.5736 16.3707 42.5235 16.3247 42.4718 16.2606C42.4209 16.1975 42.3796 16.1307 42.3531 16.0745C42.3215 16.0077 42.3298 15.9967 42.3299 16.0343L41.8299 16.0352L41.3299 16.036C41.3302 16.2122 41.3911 16.3793 41.4489 16.5017C41.5118 16.6348 41.5967 16.7684 41.6935 16.8884C41.7895 17.0074 41.9086 17.1272 42.0459 17.2214C42.1777 17.3117 42.3669 17.406 42.5921 17.4062L42.5926 16.9062ZM41.8299 16.0352H42.3299V12.2129H41.8299H41.3299V16.0352H41.8299ZM41.8299 12.2129L41.8178 11.713C34.7738 11.8834 28.0031 13.9433 22.2011 17.9479L22.4851 18.3594L22.7692 18.7709C28.4001 14.8843 34.979 12.8788 41.842 12.7127L41.8299 12.2129ZM22.4851 18.3594L22.2011 17.9479C6.77334 28.5968 2.44094 49.8372 12.6365 65.7396L13.0574 65.4697L13.4783 65.1999C3.5741 49.7519 7.78443 29.114 22.7692 18.7709L22.4851 18.3594ZM13.0574 65.4697L12.6365 65.7396C21.6322 79.7695 39.3258 85.5628 54.92 79.3966L54.7361 78.9316L54.5523 78.4667C39.4051 84.4561 22.2174 78.8295 13.4783 65.1999L13.0574 65.4697ZM54.7361 78.9316L54.9198 79.3967C55.7213 79.0801 56.5289 78.6456 57.2914 78.2408C58.067 77.8291 58.7951 77.4485 59.4834 77.201L59.3142 76.7305L59.145 76.26C58.378 76.5358 57.5871 76.9517 56.8225 77.3576C56.0447 77.7705 55.2909 78.1749 54.5524 78.4666L54.7361 78.9316ZM59.3142 76.7305L59.4835 77.201C61.2108 76.5796 62.5533 77.3593 63.1021 78.5132C63.6505 79.6663 63.4314 81.2551 61.8105 82.3238L62.0857 82.7412L62.361 83.1586C64.3969 81.8162 64.7685 79.6887 64.0052 78.0837C63.2423 76.4796 61.3707 75.4594 59.145 76.26L59.3142 76.7305ZM62.0857 82.7412L61.8104 82.3238C59.098 84.113 53.8148 85.8976 50.5615 86.585L50.6648 87.0742L50.7682 87.5634C54.0772 86.8643 59.499 85.0464 62.361 83.1586L62.0857 82.7412ZM50.6648 87.0742L50.5923 86.5795L44.4644 87.4779L44.5369 87.9727L44.6094 88.4674L50.7374 87.5689L50.6648 87.0742ZM44.5369 87.9727L44.5571 87.4731C43.7808 87.4417 42.9993 87.4627 42.2398 87.4804C41.4741 87.4983 40.729 87.513 39.9955 87.4734L39.9685 87.9727L39.9416 88.4719C40.7191 88.5139 41.5009 88.498 42.2631 88.4802C43.0315 88.4622 43.7787 88.4425 44.5167 88.4723L44.5369 87.9727ZM39.9685 87.9727L39.9957 87.4734C22.9419 86.5451 7.89422 74.7923 3.13453 58.2766L2.65409 58.415L2.17364 58.5535C7.05316 75.485 22.4698 87.5209 39.9414 88.4719L39.9685 87.9727ZM2.65409 58.415L3.13454 58.2766C-3.9965 33.525 13.0186 8.64415 38.4109 6.25561L38.364 5.75781L38.3172 5.26001C12.2987 7.70745 -5.13028 33.2019 2.17363 58.5535L2.65409 58.415ZM38.364 5.75781L38.4109 6.25561C38.9471 6.20515 39.4892 6.22577 40.0939 6.22854C40.6818 6.23124 41.3122 6.21598 41.9412 6.0736L41.8308 5.58594L41.7205 5.09827C41.209 5.21403 40.6746 5.2312 40.0985 5.22855C39.5391 5.22599 38.918 5.20347 38.3172 5.26001L38.364 5.75781ZM41.8308 5.58594H42.3308V2.44434H41.8308H41.3308V5.58594H41.8308ZM41.8308 2.44434H42.3308C42.3308 1.78404 42.2533 1.62766 42.5259 1.35085L42.1697 1L41.8135 0.649151C41.1757 1.2967 41.3308 2.03754 41.3308 2.44434H41.8308ZM42.1697 1V1.5H42.6775V1V0.5H42.1697V1ZM42.6775 1L42.3593 1.38564L50.9491 8.4745L51.2674 8.08887L51.5856 7.70323L42.9958 0.614363L42.6775 1ZM70.0476 68.3076L70.1175 68.8027C72.5208 68.4634 74.2004 71.1916 72.7981 73.24L73.2107 73.5225L73.6233 73.8049C75.4965 71.0684 73.277 67.3467 69.9777 67.8125L70.0476 68.3076ZM73.2107 73.5225L72.7984 73.2396C72.671 73.4253 72.2479 73.925 71.7847 74.4354C71.5579 74.6852 71.3297 74.9285 71.1352 75.1257C70.9308 75.3328 70.7897 75.4618 70.7274 75.5069L71.0203 75.9121L71.3131 76.3174C71.4531 76.2163 71.6495 76.0281 71.847 75.828C72.0542 75.618 72.2922 75.364 72.5251 75.1075C72.981 74.6053 73.4509 74.0563 73.6231 73.8053L73.2107 73.5225ZM71.0203 75.9121L70.7273 75.507C68.5732 77.0649 65.7896 75.3204 66.2253 72.7213L65.7322 72.6387L65.2391 72.556C64.6562 76.033 68.4314 78.4015 71.3133 76.3173L71.0203 75.9121ZM65.7322 72.6387L66.2253 72.7216C66.2685 72.4649 66.4315 72.0973 66.717 71.6623C66.9959 71.2372 67.3668 70.7855 67.7792 70.3662C68.1919 69.9467 68.6364 69.5694 69.0582 69.2879C69.4899 68.9998 69.8566 68.8399 70.1196 68.8027L70.0496 68.3076L69.9795 67.8125C69.498 67.8807 68.9829 68.1359 68.5031 68.4561C68.0135 68.7829 67.5168 69.2069 67.0663 69.665C66.6156 70.1232 66.2014 70.6253 65.8809 71.1136C65.567 71.5919 65.3163 72.097 65.2391 72.5557L65.7322 72.6387ZM70.0496 68.3076V67.8076H70.0476V68.3076V68.8076H70.0496V68.3076ZM63.1424 31.333L62.7668 31.6631L63.0862 32.0264L63.4617 31.6963L63.8372 31.3662L63.5179 31.0029L63.1424 31.333ZM63.4617 31.6963L62.9834 31.8419C62.9682 31.7919 62.9821 31.7972 62.969 31.9273C62.9585 32.0317 62.9359 32.1719 62.9014 32.3423C62.8328 32.6817 62.7246 33.1062 62.6012 33.5371C62.4782 33.9671 62.3425 34.3952 62.2211 34.74C62.1603 34.9127 62.1043 35.0608 62.0564 35.1761C62.0325 35.2337 62.0117 35.2803 61.9944 35.316C61.9858 35.3338 61.9788 35.3475 61.9733 35.3576C61.9675 35.3681 61.9648 35.3723 61.9651 35.3719L62.3836 35.6455L62.8021 35.9191C62.8656 35.8219 62.9265 35.6882 62.9798 35.5598C63.0372 35.4218 63.0998 35.2552 63.1643 35.0722C63.2934 34.7057 63.435 34.2583 63.5626 33.8123C63.69 33.3672 63.8059 32.9151 63.8816 32.5405C63.9193 32.354 63.9489 32.1779 63.964 32.0271C63.9766 31.9021 63.9895 31.7132 63.94 31.5507L63.4617 31.6963ZM62.3836 35.6455L61.9655 35.3713C61.8609 35.5307 61.774 35.5671 61.7203 35.5801C61.6487 35.5974 61.5481 35.5922 61.4003 35.5491C61.2297 35.4994 61.1289 35.4468 60.9314 35.375C60.8546 35.3471 60.7438 35.31 60.627 35.2976C60.5112 35.2853 60.2965 35.288 60.1136 35.4525L60.448 35.8242L60.7824 36.196C60.6605 36.3056 60.5314 36.293 60.5213 36.292C60.5103 36.2908 60.5253 36.2915 60.5899 36.3149C60.6753 36.346 60.9198 36.4506 61.1204 36.5091C61.3437 36.5742 61.6401 36.6282 61.9551 36.5521C62.288 36.4717 62.5771 36.2622 62.8017 35.9197L62.3836 35.6455ZM60.448 35.8242V35.3242H60.4451V35.8242V36.3242H60.448V35.8242ZM60.4451 35.8242L59.9776 35.6469C59.595 36.6557 59.3116 37.7153 59.0351 38.7313C58.7559 39.7573 58.4837 40.739 58.12 41.6396C57.4017 43.4185 56.3495 44.828 54.2387 45.4907L54.3885 45.9678L54.5382 46.4448C57.0282 45.663 58.2598 43.9641 59.0473 42.0141C59.4365 41.0502 59.7228 40.0123 60 38.9939C60.2798 37.9656 60.5506 36.9561 60.9126 36.0015L60.4451 35.8242ZM54.3885 45.9678L54.2386 45.4907C52.8935 45.9132 51.4585 46.213 49.993 46.5005C48.5363 46.7863 47.0438 47.061 45.6245 47.4312L45.7508 47.915L45.877 48.3988C47.2584 48.0385 48.7106 47.7711 50.1856 47.4818C51.6518 47.1941 53.1352 46.8855 54.5383 46.4448L54.3885 45.9678ZM45.7508 47.915L45.2519 47.8819C45.241 48.046 45.1746 48.2385 45.0692 48.497C44.9779 48.7208 44.8384 49.0329 44.7867 49.3249L45.2791 49.4121L45.7714 49.4993C45.7994 49.3411 45.8789 49.1595 45.9951 48.8747C46.0971 48.6246 46.2267 48.2937 46.2497 47.9482L45.7508 47.915ZM45.2791 49.4121L44.7867 49.3253C44.7276 49.6605 44.7513 49.9307 44.8853 50.1906C44.9423 50.3012 45.0126 50.3959 45.0685 50.4697C45.1297 50.5503 45.1817 50.6159 45.2412 50.7024L45.6531 50.4189L46.065 50.1355C45.9883 50.024 45.914 49.9296 45.8652 49.8653C45.8112 49.7941 45.7879 49.7591 45.7741 49.7322C45.7663 49.7172 45.7392 49.682 45.7715 49.4989L45.2791 49.4121ZM45.6531 50.4189L45.2418 50.7032C45.5981 51.2189 46.1687 51.8905 46.809 52.6196C47.4591 53.36 48.1836 54.1625 48.8851 54.9752C49.5845 55.7855 50.2417 56.5841 50.7425 57.2959C51.2581 58.0287 51.5552 58.5983 51.6171 58.9651L52.1101 58.8818L52.6032 58.7986C52.4998 58.1866 52.0757 57.453 51.5604 56.7205C51.0303 55.9671 50.347 55.1385 49.6421 54.3218C48.9393 53.5076 48.1958 52.6834 47.5604 51.9598C46.9152 51.225 46.3827 50.5953 46.0645 50.1347L45.6531 50.4189ZM52.1101 58.8818L51.6171 58.965C51.7964 60.0273 51.4135 61.4641 50.8532 63.0297C50.5762 63.8038 50.2745 64.5621 49.9946 65.3097C49.7194 66.0445 49.4688 66.7598 49.3188 67.396L49.8055 67.5107L50.2921 67.6255C50.4264 67.0561 50.6571 66.392 50.9311 65.6604C51.2003 64.9415 51.5157 64.1464 51.7947 63.3667C52.3466 61.8247 52.8317 60.1526 52.6032 58.7986L52.1101 58.8818ZM49.8055 67.5107L49.308 67.561C49.3312 67.7912 49.4682 67.9398 49.5763 68.021C49.6763 68.0961 49.7879 68.1423 49.8647 68.1712C49.9444 68.2013 50.0383 68.2309 50.1092 68.2543C50.1877 68.2802 50.2577 68.3046 50.3231 68.3322C50.4575 68.389 50.5326 68.4439 50.5741 68.4978C50.6051 68.538 50.6493 68.6172 50.6342 68.8024L51.1326 68.8428L51.631 68.8832C51.6632 68.4857 51.5695 68.151 51.3661 67.8872C51.1732 67.637 50.9173 67.4977 50.7125 67.4111C50.6083 67.3671 50.5067 67.3324 50.4226 67.3047C50.3309 67.2744 50.2712 67.2558 50.2175 67.2355C50.1608 67.2141 50.159 67.208 50.1768 67.2213C50.2027 67.2408 50.2886 67.3182 50.3029 67.4605L49.8055 67.5107ZM51.1326 68.8428L50.6342 68.8034C50.6347 68.7964 50.634 68.8081 50.625 68.8486C50.6169 68.885 50.6046 68.933 50.5879 68.9927C50.5545 69.1119 50.5068 69.2646 50.4478 69.4414C50.3301 69.7944 50.1722 70.2286 50.0056 70.6549C49.8386 71.0823 49.666 71.4938 49.5192 71.8037C49.4452 71.9598 49.3823 72.0805 49.3335 72.1616C49.3087 72.2028 49.2934 72.224 49.2874 72.2315C49.2701 72.2533 49.3044 72.2002 49.3888 72.1581L49.6121 72.6055L49.8354 73.0528C49.9572 72.992 50.0359 72.8968 50.0689 72.8555C50.1132 72.8 50.154 72.7376 50.1904 72.677C50.2639 72.5548 50.3431 72.4003 50.4229 72.2319C50.5837 71.8926 50.7658 71.4572 50.9371 71.0189C51.1087 70.5795 51.2726 70.1293 51.3965 69.7579C51.4583 69.5725 51.5114 69.4031 51.5508 69.2625C51.5863 69.136 51.6223 68.9934 51.6311 68.8821L51.1326 68.8428ZM49.6121 72.6055L49.7717 72.1316L21.2561 62.5242L21.0965 62.998L20.9368 63.4719L49.4525 73.0793L49.6121 72.6055ZM21.0965 62.998L21.4907 62.6905C21.4428 62.6291 21.4306 62.6015 21.4266 62.5902C21.4247 62.585 21.4191 62.5701 21.4234 62.5244L20.9256 62.4775L20.4278 62.4307C20.4118 62.6008 20.4272 62.7637 20.4838 62.9236C20.5382 63.0774 20.6215 63.2021 20.7023 63.3056L21.0965 62.998ZM20.9256 62.4775L21.4235 62.5234C21.422 62.539 21.4266 62.5054 21.4602 62.3841C21.4886 62.2812 21.5291 62.1456 21.5788 61.9861C21.678 61.6676 21.8102 61.2654 21.9474 60.8623C22.0846 60.4591 22.2256 60.0582 22.3423 59.7424C22.4007 59.5841 22.452 59.45 22.493 59.3486C22.5401 59.2324 22.5597 59.195 22.5561 59.2009L22.1287 58.9414L21.7013 58.6819C21.6554 58.7575 21.6066 58.8734 21.5661 58.9734C21.5196 59.0883 21.4643 59.2332 21.4042 59.396C21.2837 59.7223 21.1397 60.1317 21.0007 60.5401C20.8617 60.9486 20.7266 61.3594 20.6241 61.6887C20.5729 61.8529 20.5289 61.9998 20.4964 62.1173C20.469 62.2163 20.436 62.341 20.4277 62.4317L20.9256 62.4775ZM22.1287 58.9414L22.5566 59.2C22.6939 58.9729 22.7862 58.9429 22.8034 58.938C22.8303 58.9304 22.8834 58.9269 23.0122 58.9738C23.0773 58.9975 23.1383 59.0248 23.2229 59.061C23.2972 59.0928 23.3987 59.1356 23.5042 59.1639C23.6096 59.1923 23.7623 59.2189 23.9312 59.1807C24.1164 59.1387 24.2668 59.0315 24.3756 58.8853L23.9744 58.5869L23.5732 58.2885C23.5918 58.2635 23.6392 58.2214 23.7104 58.2053C23.7652 58.1929 23.7928 58.206 23.7639 58.1982C23.7351 58.1905 23.6931 58.1745 23.6166 58.1418C23.5504 58.1134 23.4532 58.0702 23.3546 58.0342C23.156 57.9619 22.8599 57.8825 22.5303 57.976C22.191 58.0724 21.9196 58.3207 21.7008 58.6828L22.1287 58.9414ZM23.9744 58.5869L24.4352 58.7811C24.7803 57.9621 25.0472 57.0797 25.3042 56.2189C25.564 55.3489 25.8137 54.5009 26.1295 53.7074C26.7579 52.1284 27.6159 50.848 29.2146 50.1856L29.0232 49.7236L28.8318 49.2617C26.8751 50.0725 25.8746 51.6434 25.2004 53.3377C24.8649 54.1807 24.6022 55.0749 24.3461 55.9328C24.0871 56.8 23.8344 57.6315 23.5136 58.3928L23.9744 58.5869ZM29.0232 49.7236L29.2144 50.1856C30.5424 49.6361 32.1139 49.3033 33.752 48.9992C35.3702 48.6989 37.0626 48.4255 38.5502 47.9907L38.4099 47.5107L38.2697 47.0308C36.845 47.4473 35.2258 47.7086 33.5695 48.016C31.9332 48.3197 30.2675 48.6676 28.8321 49.2616L29.0232 49.7236ZM38.4099 47.5107L38.8912 47.6465C38.9263 47.5218 38.9843 47.3728 39.0596 47.1854C39.131 47.0073 39.2165 46.7983 39.2866 46.5874C39.4182 46.1921 39.5532 45.6367 39.3226 45.1328L38.868 45.3408L38.4133 45.5489C38.4703 45.6736 38.4635 45.8939 38.3378 46.2717C38.2793 46.4474 38.2072 46.6243 38.1315 46.8129C38.0596 46.9921 37.9808 47.1904 37.9287 47.375L38.4099 47.5107ZM38.868 45.3408L39.256 45.0256C38.3606 43.9234 37.3633 42.8194 36.4035 41.7242C35.4382 40.6227 34.5049 39.5236 33.71 38.4056L33.3025 38.6953L32.895 38.985C33.7212 40.1472 34.6831 41.2784 35.6514 42.3833C36.6253 43.4945 37.6002 44.5732 38.4799 45.6561L38.868 45.3408ZM33.3025 38.6953L33.7101 38.4057C32.9576 37.3468 32.6461 36.7977 32.5547 36.2366C32.4621 35.6682 32.5843 35.028 32.9227 33.7436L32.4392 33.6162L31.9557 33.4888C31.6275 34.7344 31.4351 35.5838 31.5677 36.3974C31.7015 37.2183 32.155 37.9438 32.895 38.985L33.3025 38.6953ZM32.4392 33.6162L32.9228 33.7435C33.4914 31.5842 34.4234 29.4251 35.1731 27.2331L34.7 27.0713L34.2269 26.9095C33.5145 28.9924 32.5344 31.2917 31.9557 33.4889L32.4392 33.6162ZM34.7 27.0713L35.1976 27.0223C35.1755 26.7981 35.0437 26.6523 34.9422 26.5728C34.8468 26.4981 34.7404 26.451 34.6658 26.4211C34.5872 26.3896 34.499 26.3602 34.4274 26.3359C34.35 26.3096 34.2799 26.2853 34.2124 26.2579C34.0731 26.2015 33.9856 26.1474 33.9335 26.0928C33.8947 26.0523 33.8605 25.9977 33.8581 25.883L33.3582 25.8936L32.8583 25.9041C32.866 26.2711 33.0006 26.5639 33.2103 26.7835C33.4066 26.989 33.6473 27.108 33.8369 27.1848C33.9339 27.2241 34.0284 27.2565 34.1059 27.2828C34.1893 27.3111 34.2463 27.3302 34.2934 27.3492C34.3446 27.3697 34.3444 27.3748 34.3257 27.3602C34.3009 27.3408 34.2164 27.2629 34.2024 27.1203L34.7 27.0713ZM33.3582 25.8936L33.8581 25.8842C33.8587 25.9166 33.8542 25.9252 33.8618 25.8844C33.8676 25.8533 33.8775 25.8088 33.8921 25.7499C33.9213 25.6327 33.965 25.4772 34.0201 25.2935C34.13 24.9273 34.2802 24.4665 34.4372 24.0109C34.5944 23.5549 34.7563 23.11 34.8894 22.7747C34.9564 22.6059 35.0133 22.472 35.0568 22.3804C35.079 22.3336 35.0935 22.307 35.1004 22.2954C35.1041 22.2893 35.101 22.2953 35.0914 22.3075C35.0887 22.311 35.0515 22.3607 34.9806 22.4044L34.7185 21.9785L34.4565 21.5527C34.3736 21.6037 34.3227 21.6672 34.3043 21.6906C34.2791 21.7228 34.2586 21.7548 34.2432 21.7805C34.212 21.8324 34.1816 21.8922 34.1535 21.9515C34.0962 22.0721 34.03 22.2294 33.96 22.4057C33.8192 22.7604 33.6517 23.2209 33.4918 23.685C33.3317 24.1495 33.1771 24.6236 33.0623 25.0061C33.0051 25.1968 32.9564 25.3692 32.9218 25.5082C32.9045 25.5775 32.8896 25.6432 32.8787 25.7014C32.8697 25.7497 32.8568 25.8265 32.8583 25.9029L33.3582 25.8936ZM34.7185 21.9785L34.976 22.4071C34.9907 22.3983 35.0126 22.3891 35.0629 22.3838C35.0898 22.381 35.122 22.3796 35.1648 22.3793C35.2185 22.3789 35.2444 22.3799 35.3133 22.3799V21.8799V21.3799C35.1683 21.3799 34.797 21.3481 34.4611 21.5499L34.7185 21.9785ZM35.3133 21.8799L35.1525 22.3533L62.9816 31.8064L63.1424 31.333L63.3032 30.8596L35.4741 21.4065L35.3133 21.8799ZM34.7986 35.1357L34.3289 34.9642C34.1052 35.5769 34.2064 36.0886 34.435 36.525C34.5426 36.7303 34.6766 36.9163 34.8031 37.0816C34.9404 37.2609 35.0507 37.3939 35.1701 37.5575L35.574 37.2627L35.9779 36.9679C35.8536 36.7977 35.7033 36.6125 35.5972 36.4738C35.4803 36.321 35.388 36.1891 35.3208 36.0608C35.1999 35.83 35.157 35.6121 35.2683 35.3072L34.7986 35.1357ZM35.574 37.2627L35.1704 37.5578C36.0861 38.8103 37.1498 40.0118 38.1996 41.1936C39.2552 42.3819 40.2965 43.5501 41.1983 44.7615L41.5994 44.4629L42.0005 44.1643C41.0679 42.9118 39.996 41.7101 38.9472 40.5295C37.8926 39.3422 36.8608 38.1755 35.9776 36.9676L35.574 37.2627ZM41.5994 44.4629L41.2103 44.777C41.4149 45.0304 41.4482 45.2646 41.4038 45.5482C41.3797 45.7025 41.3321 45.8687 41.2684 46.0612C41.2103 46.2364 41.1254 46.4704 41.0611 46.6787L41.5389 46.8262L42.0166 46.9736C42.0792 46.7707 42.1432 46.6002 42.2176 46.3757C42.2863 46.1685 42.3547 45.9399 42.3918 45.7027C42.47 45.203 42.4066 44.6668 41.9885 44.1488L41.5994 44.4629ZM41.5389 46.8262L41.0611 46.6787C40.9325 47.0953 40.734 47.7499 40.4841 48.3419C40.359 48.638 40.2276 48.9023 40.0948 49.1056C39.9536 49.3216 39.848 49.4103 39.7972 49.4349L40.0154 49.8848L40.2336 50.3346C40.5331 50.1894 40.7614 49.9135 40.9319 49.6527C41.1107 49.3791 41.2688 49.0542 41.4053 48.7309C41.6784 48.0842 41.8914 47.3794 42.0166 46.9736L41.5389 46.8262ZM40.0154 49.8848L39.864 49.4082C38.4188 49.8674 36.8318 50.1535 35.2104 50.4485C33.6031 50.7409 31.9613 51.042 30.4674 51.5339L30.6238 52.0088L30.7802 52.4837C32.1969 52.0172 33.7693 51.727 35.3894 51.4323C36.9955 51.1401 38.649 50.8435 40.1668 50.3613L40.0154 49.8848ZM30.6238 52.0088L30.4673 51.5339C29.8652 51.7324 29.3603 51.9977 28.9355 52.3751C28.5104 52.7528 28.1892 53.2218 27.9255 53.7949L28.3797 54.0039L28.8339 54.2129C29.0542 53.7342 29.3008 53.3883 29.5997 53.1227C29.8988 52.8569 30.274 52.6505 30.7803 52.4837L30.6238 52.0088ZM28.3797 54.0039L27.9255 53.7947C27.7743 54.1231 27.2726 55.5383 26.8414 56.8692C26.6236 57.5415 26.4183 58.209 26.2793 58.726C26.2103 58.9828 26.1546 59.2135 26.1226 59.3931C26.107 59.481 26.094 59.5728 26.0911 59.6562C26.0897 59.6973 26.0899 59.7528 26.0994 59.8127C26.1066 59.8584 26.1296 59.9824 26.2275 60.096L26.6062 59.7695L26.9849 59.4431C27.0706 59.5424 27.085 59.643 27.0871 59.6566C27.0915 59.6844 27.0902 59.6991 27.0905 59.6913C27.091 59.677 27.0947 59.6386 27.1072 59.5683C27.1315 59.4316 27.1783 59.2338 27.245 58.9857C27.3775 58.4928 27.5768 57.844 27.7928 57.1774C28.2292 55.8304 28.7124 54.4767 28.8338 54.2131L28.3797 54.0039ZM26.6062 59.7695L26.4462 60.2432L47.0829 67.2149L47.243 66.7412L47.403 66.2675L26.7663 59.2958L26.6062 59.7695ZM47.243 66.7412L47.7259 66.8706C47.9732 65.9477 48.3169 65.0347 48.6701 64.0937C49.0201 63.1611 49.3795 62.201 49.6358 61.2213L49.1521 61.0947L48.6684 60.9682C48.4272 61.8898 48.0867 62.8023 47.7339 63.7423C47.3842 64.6738 47.0221 65.6334 46.76 66.6118L47.243 66.7412ZM49.1521 61.0947L49.6359 61.221C49.7252 60.8792 49.8092 60.5824 49.8626 60.3408C49.9176 60.0914 49.9529 59.849 49.93 59.596C49.8835 59.0848 49.606 58.6484 49.1724 58.0451L48.7664 58.3369L48.3604 58.6287C48.8135 59.2591 48.9158 59.4853 48.9341 59.6865C48.9434 59.7897 48.9323 59.9159 48.8861 60.1252C48.8382 60.3423 48.7661 60.594 48.6684 60.9684L49.1521 61.0947ZM48.7664 58.3369L49.1724 58.0451C48.2236 56.7251 47.0947 55.4636 45.9893 54.221C44.8768 52.9703 43.7865 51.737 42.8765 50.4437L42.4676 50.7314L42.0587 51.0192C43.0067 52.3665 44.1351 53.6411 45.2421 54.8856C46.3563 56.1382 47.4478 57.3591 48.3604 58.6288L48.7664 58.3369ZM42.4676 50.7314L42.9296 50.5403C42.8931 50.452 42.8683 50.2426 42.9059 49.8866C42.9413 49.5516 43.0236 49.1553 43.1323 48.7442C43.3502 47.921 43.659 47.0958 43.846 46.6878L43.3914 46.4795L42.9368 46.2712C42.7244 46.7349 42.397 47.6143 42.1656 48.4884C42.0498 48.926 41.9542 49.3766 41.9114 49.7816C41.8709 50.1656 41.8677 50.5894 42.0055 50.9226L42.4676 50.7314ZM43.3914 46.4795L43.8459 46.6879C43.9757 46.4047 44.0494 46.2718 44.1353 46.1775C44.2085 46.0973 44.3177 46.0167 44.5735 45.9221L44.4002 45.4531L44.2269 44.9841C43.8804 45.1122 43.6129 45.2661 43.3961 45.504C43.1921 45.728 43.0626 45.997 42.9369 46.2711L43.3914 46.4795ZM44.4002 45.4531L44.5733 45.9222C45.8791 45.4402 47.4526 45.1672 49.0941 44.8934C50.713 44.6233 52.3995 44.3523 53.8444 43.8643L53.6844 43.3906L53.5244 42.9169C52.172 43.3737 50.5744 43.6326 48.9295 43.907C47.3073 44.1776 45.6373 44.4635 44.227 44.9841L44.4002 45.4531ZM53.6844 43.3906L53.8446 43.8643C54.5866 43.6133 55.3964 43.0494 55.8559 42.3823L55.4441 42.0986L55.0324 41.815C54.7101 42.2828 54.0884 42.7261 53.5242 42.917L53.6844 43.3906ZM55.4441 42.0986L55.8558 42.3824C56.0311 42.1281 56.253 41.631 56.4787 41.0717C56.7125 40.4923 56.9726 39.7884 57.222 39.0784C57.7174 37.6681 58.1852 36.192 58.3194 35.6021L57.8318 35.4912L57.3443 35.3803C57.2244 35.9073 56.7751 37.3335 56.2785 38.747C56.032 39.4488 55.7774 40.1372 55.5513 40.6975C55.3171 41.2778 55.1339 41.6677 55.0325 41.8148L55.4441 42.0986ZM57.8318 35.4912L58.3191 35.6032C58.3341 35.538 58.3807 35.3689 58.4019 35.239C58.4271 35.0851 58.4385 34.8902 58.3758 34.6778L57.8963 34.8193L57.4167 34.9608C57.4217 34.9779 57.4263 35.0085 57.415 35.0779C57.4092 35.1136 57.4002 35.1536 57.3875 35.2052C57.3764 35.2498 57.3583 35.3192 57.3445 35.3792L57.8318 35.4912ZM57.8963 34.8193L58.0175 34.3343L58.0136 34.3333L57.8924 34.8184L57.7711 35.3034L57.775 35.3044L57.8963 34.8193ZM57.8924 34.8184L58.0511 34.3442L37.4124 27.435L37.2537 27.9092L37.095 28.3833L57.7336 35.2925L57.8924 34.8184ZM37.2537 27.9092L36.7803 27.7483L34.3252 34.9749L34.7986 35.1357L35.272 35.2966L37.7271 28.07L37.2537 27.9092ZM76.8181 57.2676L76.8771 57.7641C78.5692 57.5632 80.0629 59.0781 79.9146 60.8369L80.4129 60.8789L80.9111 60.9209C81.1081 58.5846 79.1319 56.4894 76.7592 56.7711L76.8181 57.2676ZM80.4129 60.8789L79.9147 60.8363C79.9023 60.9809 79.8441 61.2303 79.7389 61.56C79.6367 61.8802 79.5001 62.2461 79.3489 62.6112C79.0392 63.3588 78.695 64.0377 78.4868 64.3149L78.8865 64.6152L79.2862 64.9156C79.5772 64.5284 79.9614 63.7454 80.2727 62.994C80.432 62.6096 80.579 62.2168 80.6916 61.864C80.8011 61.5209 80.8887 61.1831 80.9111 60.9216L80.4129 60.8789ZM78.8865 64.6152L78.4864 64.3154C76.7337 66.6548 73.1761 65.2736 73.4614 62.2838L72.9637 62.2363L72.4659 62.1888C72.0913 66.1149 76.8865 68.1186 79.2867 64.915L78.8865 64.6152ZM72.9637 62.2363L73.4614 62.2834C73.4723 62.1685 73.5374 61.9217 73.6639 61.5663C73.7848 61.2264 73.9465 60.8287 74.1226 60.4329C74.2987 60.0372 74.4863 59.6497 74.6578 59.3302C74.8362 58.9975 74.9772 58.7768 75.0578 58.6846L74.6814 58.3555L74.305 58.0263C74.142 58.2128 73.955 58.5248 73.7766 58.8573C73.5911 59.203 73.3928 59.6133 73.209 60.0264C73.0252 60.4394 72.8532 60.8614 72.7217 61.231C72.5958 61.5849 72.4897 61.9371 72.4659 62.1893L72.9637 62.2363ZM74.6814 58.3555L75.0573 58.6852C75.2318 58.4863 75.5327 58.2695 75.8893 58.0903C76.2442 57.9119 76.6057 57.7952 76.8769 57.7631L76.8181 57.2666L76.7594 56.7701C76.3402 56.8197 75.8651 56.9832 75.4402 57.1968C75.0169 57.4095 74.5946 57.6963 74.3056 58.0257L74.6814 58.3555ZM76.8181 57.2666H76.3181V57.2676H76.8181H77.3181V57.2666H76.8181ZM79.1853 44.7002L79.2565 45.1951C80.8444 44.9668 82.3183 46.0753 82.4578 47.6648L82.9558 47.6211L83.4539 47.5774C83.2613 45.3816 81.2353 43.9003 79.1142 44.2053L79.1853 44.7002ZM82.9558 47.6211L82.4578 47.6649C82.5061 48.2139 82.5168 48.9607 82.456 49.6943C82.3943 50.4393 82.2628 51.1174 82.0556 51.5608L82.5086 51.7725L82.9616 51.9841C83.2451 51.3774 83.388 50.5567 83.4526 49.7769C83.5181 48.9858 83.5071 48.182 83.4539 47.5773L82.9558 47.6211ZM82.5086 51.7725L82.0555 51.5609C81.5268 52.6934 80.3227 53.1709 79.1542 53.0069C77.9901 52.8435 76.9935 52.0634 76.8399 50.8L76.3435 50.8604L75.8472 50.9207C76.0677 52.7345 77.5113 53.7861 79.0152 53.9971C80.5145 54.2076 82.2059 53.6025 82.9616 51.984L82.5086 51.7725ZM76.3435 50.8604L76.8399 50.8001C76.7036 49.6768 76.7084 48.3212 77.0657 47.2197C77.4161 46.1395 78.0763 45.3645 79.2546 45.1951L79.1834 44.7002L79.1122 44.2053C77.4425 44.4454 76.5423 45.5925 76.1145 46.9111C75.6937 48.2082 75.7025 49.7279 75.8472 50.9206L76.3435 50.8604ZM79.1834 44.7002V45.2002H79.1853V44.7002V44.2002H79.1834V44.7002ZM74.6492 35.0557L75.149 35.0689C75.2072 32.8695 77.8531 31.6211 79.6624 33.0152L79.9676 32.6191L80.2727 32.2231C77.8481 30.3549 74.2302 31.9847 74.1494 35.0424L74.6492 35.0557ZM79.9676 32.6191L79.6623 33.0152C79.9534 33.2395 80.2565 33.6507 80.522 34.2098C80.7836 34.7606 80.9906 35.4172 81.1112 36.0893C81.232 36.7625 81.2628 37.4327 81.1856 38.0128C81.1076 38.599 80.9259 39.0479 80.6642 39.3322L81.032 39.6709L81.3999 40.0096C81.8522 39.5182 82.0839 38.8437 82.1769 38.1447C82.2707 37.4395 82.23 36.6626 82.0955 35.9127C81.9608 35.1617 81.7285 34.4192 81.4254 33.7808C81.1261 33.1506 80.739 32.5825 80.2728 32.2231L79.9676 32.6191ZM81.032 39.6709V40.1709H81.034V39.6709V39.1709H81.032V39.6709ZM81.034 39.6709L80.6662 39.3321C79.5603 40.5324 77.456 40.5333 76.4258 39.2979L76.0418 39.6182L75.6578 39.9384C77.1017 41.6698 79.9151 41.6232 81.4017 40.0097L81.034 39.6709ZM76.0418 39.6182L76.4254 39.2974C76.3127 39.1627 76.1663 38.9012 76.0079 38.5282C75.854 38.1661 75.7038 37.735 75.5724 37.2907C75.3037 36.3822 75.1377 35.499 75.149 35.0688L74.6492 35.0557L74.1494 35.0425C74.1336 35.6403 74.3407 36.6519 74.6134 37.5743C74.7528 38.0455 74.9153 38.5139 75.0875 38.9192C75.255 39.3135 75.4476 39.687 75.6582 39.9389L76.0418 39.6182ZM68.7322 24.3613L69.2286 24.3014C68.8834 21.4441 72.1039 19.8938 74.1286 21.9882L74.4881 21.6406L74.8475 21.2931C72.1576 18.5107 67.7755 20.6108 68.2358 24.4213L68.7322 24.3613ZM74.4881 21.6406L74.1287 21.9883C74.8704 22.7549 75.6036 23.8311 75.9143 24.9105C76.2198 25.9722 76.107 26.9722 75.273 27.7545L75.615 28.1191L75.9571 28.4838C77.1465 27.3681 77.2495 25.9343 76.8753 24.6339C76.5061 23.3513 75.6642 22.1372 74.8474 21.293L74.4881 21.6406ZM75.615 28.1191V28.6191H75.617V28.1191V27.6191H75.615V28.1191ZM75.617 28.1191L75.2747 27.7546C74.4255 28.5521 72.9394 28.7037 71.9084 28.1196L71.6619 28.5547L71.4154 28.9897C72.8077 29.7785 74.7745 29.5961 75.9592 28.4836L75.617 28.1191ZM71.6619 28.5547L71.9084 28.1197C71.753 28.0316 71.5079 27.8194 71.2074 27.4909C70.9166 27.1729 70.6036 26.7791 70.3119 26.366C70.02 25.9526 69.7554 25.5284 69.5585 25.1509C69.3538 24.7587 69.2485 24.4662 69.2286 24.3013L68.7322 24.3613L68.2358 24.4214C68.2787 24.7757 68.4575 25.2027 68.6719 25.6136C68.8941 26.0393 69.1837 26.502 69.495 26.9428C69.8064 27.3838 70.1455 27.8115 70.4695 28.1658C70.7839 28.5095 71.1165 28.8203 71.4154 28.9897L71.6619 28.5547ZM62.4334 11.7471L62.4531 12.2467C62.6916 12.2373 63.0556 12.3175 63.5118 12.5015C63.9564 12.6809 64.4449 12.941 64.9165 13.2439C65.3879 13.5466 65.8318 13.8852 66.1895 14.2167C66.5552 14.5555 66.7995 14.8581 66.9097 15.0843L67.3592 14.8652L67.8086 14.6462C67.6182 14.2555 67.2684 13.8531 66.8692 13.4832C66.4619 13.1058 65.9699 12.7319 65.4569 12.4024C64.9442 12.0732 64.4 11.7816 63.8859 11.5742C63.3835 11.3714 62.8629 11.2297 62.4136 11.2475L62.4334 11.7471ZM67.3592 14.8652L66.9096 15.084C67.5359 16.3712 67.2102 17.5918 66.4362 18.3571C65.658 19.1264 64.4063 19.4549 63.12 18.8726L62.9139 19.3281L62.7077 19.7836C64.3794 20.5403 66.073 20.1224 67.1393 19.0682C68.2097 18.0098 68.6276 16.3295 67.8088 14.6465L67.3592 14.8652ZM62.9139 19.3281L63.1202 18.8727C62.7538 18.7066 62.0671 18.2508 61.409 17.7136C61.0851 17.4492 60.7808 17.1753 60.5374 16.9214C60.2852 16.6584 60.1304 16.4494 60.0677 16.3141L59.614 16.5244L59.1604 16.7347C59.295 17.0251 59.545 17.3312 59.8155 17.6135C60.0949 17.9048 60.4313 18.2064 60.7766 18.4882C61.457 19.0436 62.2228 19.5639 62.7075 19.7835L62.9139 19.3281ZM59.614 16.5244L60.0679 16.3145C59.2122 14.4647 60.4745 12.3238 62.4509 12.2467L62.4314 11.7471L62.4119 11.2474C59.674 11.3542 58.0259 14.2819 59.1602 16.7343L59.614 16.5244ZM62.4314 11.7471V12.2471H62.4334V11.7471V11.2471H62.4314V11.7471Z" fill="#E8E8E8"/>
<defs>
<linearGradient id="paint0_linear_607_9445" x1="41.999" y1="6" x2="60.4994" y2="58.4997" gradientUnits="userSpaceOnUse">
<stop stop-color="#FCD30B"/>
<stop offset="1" stop-color="#4997EA"/>
</linearGradient>
</defs>
</svg>
