<svg width="72" height="96" viewBox="0 0 72 96" fill="none" xmlns="http://www.w3.org/2000/svg">
<path d="M10.8271 34.1953C13.3107 5.08111 56.1867 3.3006 60.8691 32.2295C62.6587 43.2873 58.9539 45.5746 54.0889 53.8438C50.7972 59.4385 50.1203 65.2228 49.8496 71.627C54.4746 71.1413 58.9607 73.7143 56.8867 78.8135C56.7137 79.2386 55.9736 80.0851 55.9736 80.1963C55.9777 80.4016 57.5601 81.8613 57.4756 83.8418C57.2349 89.4899 51.0061 88.2559 47.1426 88.583C45.9651 92.1542 43.1608 95.1492 39.2568 95.5C33.2043 96.0429 26.5792 95.4998 25.2324 88.4619C21.176 88.4789 14.3261 89.4324 14.6436 83.373C14.7348 81.6556 16.104 80.378 16.1113 80.1963C16.1113 80.0851 15.3713 79.2353 15.1982 78.8135C13.1785 73.846 17.2075 71.2156 21.8525 71.583C22.6306 71.1143 21.1865 62.0202 20.7871 60.4639C18.0704 49.8475 9.67368 47.7185 10.8271 34.1953ZM28.2979 88.4277C28.7818 91.4458 31.3369 92.6 34.1787 92.8125C38.1877 93.1126 42.8736 93.0137 44.1289 88.4277H28.2979ZM50.7061 81.3564C42.6606 80.7629 29.0691 80.7292 21.0439 81.3564C19.1495 81.5048 17.3496 81.559 17.4883 83.8926C17.5665 85.1667 18.5511 85.6156 19.7012 85.7471C29.7935 86.9038 42.058 84.8601 52.3838 85.7471C54.3053 85.956 55.3534 83.289 54.1494 82.1221L54.1533 82.1182C53.7846 81.7574 51.3834 81.4072 50.7061 81.3564ZM52.3906 74.6348C41.7198 73.7377 29.8204 75.3496 19.0176 74.6279C16.9236 74.871 16.6598 78.3377 19.7012 78.6885C29.7935 79.8486 42.058 77.8015 52.3838 78.6885C54.3053 78.8772 55.3534 76.2709 54.1494 75.0635C53.7807 74.6926 52.9151 74.6786 52.3906 74.6348ZM58.2197 32.8496C53.6655 5.25319 11.683 9.0405 13.8008 38.873C14.349 46.6124 19.8938 49.8338 22.4922 56.4131C24.3698 61.1682 24.8509 66.5414 24.9287 71.627H34.6963V62.3857C33.6949 61.2932 29.8453 60.0994 30.8154 58.1875L31.8506 57.499C32.9231 57.4147 35.0751 59.6951 35.877 59.749C37.1085 59.8327 39.3482 56.5617 40.9551 57.8193C43.0589 59.5022 38.3196 61.469 37.3926 62.3896V71.6299H47.1602L47.1562 71.623C47.322 66.632 47.7727 61.4245 49.5928 56.7471C53.2636 47.3247 60.2664 45.2463 58.2197 32.8496ZM16.1582 34.3135C16.6154 28.0036 23.5613 24.0862 29.3945 27.1514C31.2963 28.1503 32.6574 29.9391 34.2266 31.3428L31.8809 33.6182C30.2646 32.2569 28.9001 30.1319 26.7529 29.541C20.8625 27.922 16.8707 35.091 21.5078 38.9561C23.5944 40.6924 26.7596 40.6306 28.8193 38.8975C32.5121 35.594 35.8825 31.6699 39.6055 28.4316C46.41 22.51 56.7565 28.7513 54.29 37.1963C53.2551 40.7382 49.945 43.2161 46.1748 43.4805H45.2246C44.798 43.3662 44.3474 43.3628 43.9141 43.2812C40.6514 42.661 38.8366 40.3301 36.6055 38.2051L38.9502 35.9297C40.0154 36.8437 40.9701 38.0421 42.042 38.9268C45.3754 41.6687 50.5941 39.8402 51.2695 35.6553C52.0791 30.6152 46.0002 27.3313 42.0117 30.6543C38.3188 33.9644 34.9487 37.8753 31.2256 41.1201C30.0294 42.1646 28.5106 42.9776 26.918 43.2812C26.4846 43.3628 26.0341 43.3663 25.6074 43.4805H24.6562C24.3639 43.3629 23.9938 43.3986 23.6914 43.3496C20.1163 42.7717 17.1195 40.062 16.377 36.6084L16.1582 35.2344C16.1708 35.0068 16.151 34.7737 16.1504 34.542L16.1582 34.3135ZM1.25879 34.3916C1.96954 34.1859 7.43661 34.1686 8.25195 34.3271C9.0672 34.4858 9.65252 35.2176 9.62207 36.0303C9.44957 36.3507 9.23914 36.8329 8.95508 37.0352C8.34999 37.4631 2.52757 37.5243 1.5293 37.3389C0.829101 37.204 0.15243 36.5391 0 35.8311C0.000107749 35.3353 0.802057 34.5232 1.25879 34.3916ZM63.5557 34.3848C64.2162 34.1825 69.7471 34.1754 70.5557 34.3271C72.4735 34.6882 72.4904 36.9706 70.5557 37.335C69.5609 37.5238 63.7327 37.4603 63.1289 37.0322C62.097 36.3004 62.4021 34.735 63.5557 34.3809V34.3848ZM5.14551 17.6025C5.55152 17.2049 6.20491 17.1811 6.74609 17.3193C7.4888 17.5095 12.9162 20.8947 13.0889 21.4443C13.4135 22.4963 13.133 23.2583 11.9727 23.2549C10.8118 23.2512 3.30253 19.4068 5.14551 17.6025ZM65.3438 17.3232C65.8851 17.185 66.535 17.2085 66.9443 17.6064L67.043 17.7236C67.2588 18.0327 67.3289 18.5231 67.2256 18.874C66.9196 19.9063 60.826 23.4095 59.7959 23.249C58.6592 23.0703 58.3546 21.6737 59.1934 20.8643C59.4511 20.6144 64.9949 17.4132 65.3438 17.3232ZM18.4346 4.79492C18.8675 4.67354 19.1385 4.72671 19.5342 4.91211C20.1943 5.2166 23.6245 11.2157 23.5264 11.8936C23.3467 13.1273 21.9772 13.6397 21.0537 12.8174C20.8136 12.605 18.1111 7.77495 17.8965 7.23633C17.5379 6.34603 17.1733 5.14863 18.4385 4.79785L18.4346 4.79492ZM54.2578 5.21973C54.7004 5.76906 54.5855 6.15358 54.4131 6.76367C54.2762 7.25515 51.2923 12.578 51.0234 12.8037C49.9544 13.6903 48.2524 13.0293 48.6377 11.4648C48.8478 10.6214 52.1143 4.98348 52.7754 4.78809H52.7793L54.2578 5.21973ZM35.8936 0.0253906C36.3235 -0.152657 37.3916 0.636703 37.3916 0.882812V8.6123C37.3891 8.78226 36.5457 9.48887 36.1943 9.46875C35.765 9.64701 34.6975 8.8593 34.6953 8.6123C34.6953 6.94 34.3608 2.06816 34.6953 0.882812C34.7731 0.606279 35.518 0.0523999 35.8936 0.0253906Z" fill="url(#paint0_linear_607_9471)"/>
<defs>
<linearGradient id="paint0_linear_607_9471" x1="35.9999" y1="5.49756" x2="59.9675" y2="59.8138" gradientUnits="userSpaceOnUse">
<stop stop-color="#FCD30B"/>
<stop offset="1" stop-color="#4997EA"/>
</linearGradient>
</defs>
</svg>
