<svg width="85" height="81" viewBox="0 0 85 81" fill="none" xmlns="http://www.w3.org/2000/svg">
<mask id="path-1-outside-1_607_9467" maskUnits="userSpaceOnUse" x="-1" y="-1.00049" width="86" height="83" fill="black">
<rect fill="white" x="-1" y="-1.00049" width="86" height="83"/>
<path d="M67.8078 42.4862C70.1521 42.2605 72.8607 42.6614 75.2414 42.494C75.6491 42.5377 76.3778 43.1341 76.3782 43.5273V59.7128L76.385 59.7353H82.1438C82.4058 59.7353 83.0465 60.2806 83.1633 60.5282C83.3526 60.9214 83.3238 61.6062 83.1272 61.9921L72.6135 79.5028C71.8126 80.2526 70.6839 80.1722 70.1233 79.1894L59.7698 61.9696C59.4497 61.409 59.6171 60.5067 60.1047 60.0917C60.1702 60.0335 60.7021 59.7274 60.7385 59.7274H66.4973V43.7167C66.4977 43.6795 66.7306 43.1776 66.7815 43.0976C67.029 42.7265 67.3639 42.53 67.8078 42.4862ZM69.4905 45.5439V61.5985C69.4905 61.9553 68.6887 62.7343 68.3537 62.7343H63.7746L71.4416 75.5194L79.1076 62.7343H74.6155C74.1495 62.7339 73.393 61.8901 73.3928 61.4169V45.4062H69.6282L69.4905 45.5439ZM34.4407 1.14542C52.8685 -0.59469 69.7968 13.4502 72.549 31.5067C72.7675 32.9338 73.1823 36.1303 72.9201 37.4482C72.6945 38.5547 71.0346 38.9335 70.3137 38.0165C69.724 37.2667 70.0149 36.1088 69.9494 35.206C68.5442 14.8342 49.7235 0.271968 29.592 4.82217C2.74003 10.8872 -5.46583 45.7195 16.4934 62.8515C26.2351 70.4525 39.4862 72.462 50.8078 67.1181C52.3003 66.4119 53.6619 65.487 55.1252 64.7226C56.4284 64.4168 57.5284 66.0838 56.677 67.1396C56.2547 67.6638 53.5745 69.0621 52.8391 69.4189C32.1833 79.5098 6.96239 67.9625 1.97483 45.3993C-3.01987 22.8212 11.6878 3.29328 34.4407 1.14542ZM35.3948 12.2558C35.5115 11.011 37.1202 10.4578 37.9865 11.3241L37.9944 11.331C38.1254 11.462 38.2123 11.7098 38.3215 11.87L38.3869 32.2782C39.5446 32.7733 40.5056 33.4073 41.1682 34.5067C42.4714 36.6619 41.9326 39.7201 39.7629 41.1034C36.9308 42.9087 33.1961 41.7873 32.2131 38.5185H18.0227C16.3772 38.3656 16.1443 36.3484 17.5422 35.664L32.1545 35.6064C32.7443 34.0628 33.7859 32.9339 35.344 32.3368L35.3948 12.2558ZM36.924 35.0966C35.8465 35.0966 34.9719 35.9702 34.9719 37.0478C34.972 38.1252 35.8465 38.9989 36.924 38.9989C38.0014 38.9987 38.8751 38.1251 38.8752 37.0478C38.8752 35.9703 38.0014 35.0968 36.924 35.0966Z"/>
</mask>
<path d="M67.8078 42.4862C70.1521 42.2605 72.8607 42.6614 75.2414 42.494C75.6491 42.5377 76.3778 43.1341 76.3782 43.5273V59.7128L76.385 59.7353H82.1438C82.4058 59.7353 83.0465 60.2806 83.1633 60.5282C83.3526 60.9214 83.3238 61.6062 83.1272 61.9921L72.6135 79.5028C71.8126 80.2526 70.6839 80.1722 70.1233 79.1894L59.7698 61.9696C59.4497 61.409 59.6171 60.5067 60.1047 60.0917C60.1702 60.0335 60.7021 59.7274 60.7385 59.7274H66.4973V43.7167C66.4977 43.6795 66.7306 43.1776 66.7815 43.0976C67.029 42.7265 67.3639 42.53 67.8078 42.4862ZM69.4905 45.5439V61.5985C69.4905 61.9553 68.6887 62.7343 68.3537 62.7343H63.7746L71.4416 75.5194L79.1076 62.7343H74.6155C74.1495 62.7339 73.393 61.8901 73.3928 61.4169V45.4062H69.6282L69.4905 45.5439ZM34.4407 1.14542C52.8685 -0.59469 69.7968 13.4502 72.549 31.5067C72.7675 32.9338 73.1823 36.1303 72.9201 37.4482C72.6945 38.5547 71.0346 38.9335 70.3137 38.0165C69.724 37.2667 70.0149 36.1088 69.9494 35.206C68.5442 14.8342 49.7235 0.271968 29.592 4.82217C2.74003 10.8872 -5.46583 45.7195 16.4934 62.8515C26.2351 70.4525 39.4862 72.462 50.8078 67.1181C52.3003 66.4119 53.6619 65.487 55.1252 64.7226C56.4284 64.4168 57.5284 66.0838 56.677 67.1396C56.2547 67.6638 53.5745 69.0621 52.8391 69.4189C32.1833 79.5098 6.96239 67.9625 1.97483 45.3993C-3.01987 22.8212 11.6878 3.29328 34.4407 1.14542ZM35.3948 12.2558C35.5115 11.011 37.1202 10.4578 37.9865 11.3241L37.9944 11.331C38.1254 11.462 38.2123 11.7098 38.3215 11.87L38.3869 32.2782C39.5446 32.7733 40.5056 33.4073 41.1682 34.5067C42.4714 36.6619 41.9326 39.7201 39.7629 41.1034C36.9308 42.9087 33.1961 41.7873 32.2131 38.5185H18.0227C16.3772 38.3656 16.1443 36.3484 17.5422 35.664L32.1545 35.6064C32.7443 34.0628 33.7859 32.9339 35.344 32.3368L35.3948 12.2558ZM36.924 35.0966C35.8465 35.0966 34.9719 35.9702 34.9719 37.0478C34.972 38.1252 35.8465 38.9989 36.924 38.9989C38.0014 38.9987 38.8751 38.1251 38.8752 37.0478C38.8752 35.9703 38.0014 35.0968 36.924 35.0966Z" fill="url(#paint0_linear_607_9467)"/>
<path d="M67.8078 42.4862L67.712 41.4908L67.7098 41.4911L67.8078 42.4862ZM75.2414 42.494L75.348 41.4997L75.2598 41.4903L75.1713 41.4965L75.2414 42.494ZM76.3782 43.5273H77.3782V43.5265L76.3782 43.5273ZM76.3782 59.7128H75.3782V59.8616L75.4215 60.004L76.3782 59.7128ZM76.385 59.7353L75.4283 60.0264L75.644 60.7353H76.385V59.7353ZM83.1633 60.5282L82.2588 60.9548L82.2623 60.962L83.1633 60.5282ZM83.1272 61.9921L83.9845 62.5069L84.0024 62.477L84.0182 62.446L83.1272 61.9921ZM72.6135 79.5028L73.2969 80.2329L73.3989 80.1374L73.4708 80.0176L72.6135 79.5028ZM70.1233 79.1894L70.9919 78.6939L70.9862 78.6839L70.9803 78.6741L70.1233 79.1894ZM59.7698 61.9696L58.9013 62.4654L58.9069 62.4752L58.9127 62.4849L59.7698 61.9696ZM60.1047 60.0917L60.7529 60.8532L60.761 60.8463L60.7691 60.8391L60.1047 60.0917ZM66.4973 59.7274V60.7274H67.4973V59.7274H66.4973ZM66.4973 43.7167L65.4973 43.7057V43.7167H66.4973ZM66.7815 43.0976L65.9495 42.5427L65.9436 42.5516L65.9378 42.5607L66.7815 43.0976ZM69.4905 45.5439L68.7833 44.8367L68.4905 45.1296V45.5439H69.4905ZM63.7746 62.7343V61.7343H62.0089L62.917 63.2486L63.7746 62.7343ZM71.4416 75.5194L70.584 76.0337L71.4417 77.4639L72.2993 76.0337L71.4416 75.5194ZM79.1076 62.7343L79.9653 63.2485L80.8732 61.7343H79.1076V62.7343ZM74.6155 62.7343L74.6147 63.7343H74.6155V62.7343ZM73.3928 61.4169H72.3928V61.4174L73.3928 61.4169ZM73.3928 45.4062H74.3928V44.4062H73.3928V45.4062ZM69.6282 45.4062V44.4062H69.2139L68.921 44.6991L69.6282 45.4062ZM34.4407 1.14542L34.5346 2.14099L34.5347 2.14099L34.4407 1.14542ZM72.549 31.5067L71.5605 31.6574L71.5606 31.658L72.549 31.5067ZM72.9201 37.4482L73.9 37.648L73.9009 37.6432L72.9201 37.4482ZM70.3137 38.0165L71.0998 37.3985L71.0998 37.3983L70.3137 38.0165ZM69.9494 35.206L68.9518 35.2748L68.9521 35.2783L69.9494 35.206ZM29.592 4.82217L29.8123 5.7976L29.8125 5.79757L29.592 4.82217ZM16.4934 62.8515L17.1085 62.0631L17.1085 62.063L16.4934 62.8515ZM50.8078 67.1181L51.2347 68.0224L51.2355 68.022L50.8078 67.1181ZM55.1252 64.7226L54.8968 63.749L54.774 63.7778L54.6622 63.8362L55.1252 64.7226ZM56.677 67.1396L55.8986 66.5118L55.8982 66.5122L56.677 67.1396ZM52.8391 69.4189L52.4026 68.5191L52.4001 68.5203L52.8391 69.4189ZM1.97483 45.3993L2.95126 45.1835L2.95122 45.1833L1.97483 45.3993ZM35.3948 12.2558L34.3991 12.1624L34.3949 12.2077L34.3948 12.2532L35.3948 12.2558ZM37.9865 11.3241L37.2795 12.0313L37.303 12.0548L37.328 12.0767L37.9865 11.3241ZM37.9944 11.331L38.7015 10.6239L38.6779 10.6003L38.6529 10.5784L37.9944 11.331ZM38.3215 11.87L39.3215 11.8668L39.3205 11.5602L39.1478 11.3068L38.3215 11.87ZM38.3869 32.2782L37.3869 32.2814L37.3891 32.9391L37.9937 33.1977L38.3869 32.2782ZM41.1682 34.5067L40.3117 35.0229L40.3125 35.0242L41.1682 34.5067ZM39.7629 41.1034L40.3004 41.9467L40.3005 41.9466L39.7629 41.1034ZM32.2131 38.5185L33.1707 38.2305L32.9566 37.5185H32.2131V38.5185ZM18.0227 38.5185L17.9302 39.5142L17.9763 39.5185H18.0227V38.5185ZM17.5422 35.664L17.5383 34.664L17.3087 34.6649L17.1025 34.7658L17.5422 35.664ZM32.1545 35.6064L32.1585 36.6063L32.844 36.6036L33.0887 35.9633L32.1545 35.6064ZM35.344 32.3368L35.7018 33.2706L36.3422 33.0252L36.344 32.3394L35.344 32.3368ZM36.924 35.0966L36.9243 34.0966H36.924V35.0966ZM34.9719 37.0478H33.9719V37.0479L34.9719 37.0478ZM36.924 38.9989V39.9989H36.9243L36.924 38.9989ZM38.8752 37.0478L39.8752 37.0479V37.0478H38.8752ZM67.8078 42.4862L67.9037 43.4816C68.9973 43.3764 70.1935 43.416 71.4707 43.4675C72.7207 43.5178 74.0543 43.58 75.3116 43.4916L75.2414 42.494L75.1713 41.4965C74.0478 41.5755 72.8368 41.5209 71.5512 41.4691C70.2929 41.4184 68.9627 41.3704 67.712 41.4908L67.8078 42.4862ZM75.2414 42.494L75.1349 43.4884C75.0863 43.4831 75.0624 43.4735 75.0681 43.4756C75.0714 43.4768 75.0871 43.4829 75.114 43.4975C75.1693 43.5276 75.2386 43.575 75.3047 43.6327C75.3728 43.6922 75.412 43.7403 75.4262 43.7615C75.4325 43.771 75.4241 43.7607 75.4125 43.7304C75.4013 43.7014 75.3782 43.6307 75.3782 43.528L76.3782 43.5273L77.3782 43.5265C77.3778 43.1425 77.2115 42.8336 77.0893 42.6506C76.954 42.4481 76.7855 42.2706 76.6204 42.1265C76.4533 41.9805 76.2639 41.8461 76.068 41.7397C75.8861 41.641 75.6327 41.5302 75.348 41.4997L75.2414 42.494ZM76.3782 43.5273H75.3782V59.7128H76.3782H77.3782V43.5273H76.3782ZM76.3782 59.7128L75.4215 60.004L75.4283 60.0264L76.385 59.7353L77.3417 59.4441L77.3348 59.4216L76.3782 59.7128ZM76.385 59.7353V60.7353H82.1438V59.7353V58.7353H76.385V59.7353ZM82.1438 59.7353V60.7353C82.0756 60.7353 82.0225 60.7266 81.9896 60.7197C81.9559 60.7125 81.9321 60.7047 81.9197 60.7002C81.8969 60.692 81.8931 60.6882 81.9106 60.698C81.946 60.7177 82.0067 60.758 82.0804 60.8174C82.1524 60.8754 82.2168 60.9355 82.2621 60.9838C82.2845 61.0078 82.2961 61.0222 82.2992 61.0263C82.3059 61.0353 82.2847 61.0096 82.2588 60.9548L83.1633 60.5282L84.0678 60.1017C83.9696 59.8935 83.8188 59.7201 83.7211 59.6159C83.6052 59.4923 83.4712 59.3696 83.3356 59.2603C83.2018 59.1525 83.0459 59.041 82.8838 58.9507C82.7648 58.8844 82.4828 58.7353 82.1438 58.7353V59.7353ZM83.1633 60.5282L82.2623 60.962C82.2585 60.9542 82.2691 60.9747 82.2787 61.0324C82.2878 61.087 82.2927 61.1561 82.2904 61.2327C82.2881 61.309 82.2789 61.3811 82.2657 61.4412C82.2592 61.4706 82.2524 61.4943 82.2464 61.5119C82.2435 61.5206 82.2409 61.5271 82.239 61.5317C82.2371 61.5363 82.236 61.5384 82.2361 61.5382L83.1272 61.9921L84.0182 62.446C84.2031 62.083 84.2784 61.6588 84.2895 61.2931C84.3004 60.9311 84.2527 60.4857 84.0643 60.0944L83.1633 60.5282ZM83.1272 61.9921L82.2698 61.4773L71.7562 78.9881L72.6135 79.5028L73.4708 80.0176L83.9845 62.5069L83.1272 61.9921ZM72.6135 79.5028L71.9301 78.7728C71.7133 78.9758 71.5116 79.0153 71.3865 79.0017C71.2772 78.9898 71.1259 78.9288 70.9919 78.6939L70.1233 79.1894L69.2546 79.6848C69.6813 80.4328 70.3746 80.9034 71.1701 80.99C71.9497 81.0748 72.7128 80.7796 73.2969 80.2329L72.6135 79.5028ZM70.1233 79.1894L70.9803 78.6741L60.6268 61.4543L59.7698 61.9696L58.9127 62.4849L69.2663 79.7047L70.1233 79.1894ZM59.7698 61.9696L60.6382 61.4739C60.6231 61.4474 60.5859 61.3339 60.6185 61.1539C60.651 60.9739 60.7266 60.8756 60.7529 60.8532L60.1047 60.0917L59.4566 59.3302C58.9952 59.7228 58.7434 60.2832 58.6503 60.7983C58.5573 61.3133 58.5964 61.9313 58.9013 62.4654L59.7698 61.9696ZM60.1047 60.0917L60.7691 60.8391C60.7504 60.8557 60.7355 60.8676 60.7276 60.8737C60.719 60.8804 60.7126 60.8852 60.7092 60.8876C60.7029 60.8922 60.7006 60.8936 60.7045 60.891C60.712 60.886 60.7276 60.876 60.7522 60.8608C60.8005 60.8309 60.8647 60.7928 60.931 60.7546C60.9978 60.7162 61.0587 60.6824 61.1006 60.6603C61.123 60.6484 61.1304 60.645 61.1268 60.6467C61.125 60.6475 61.1208 60.6495 61.1145 60.6522C61.1087 60.6547 61.0976 60.6595 61.0826 60.6652C61.0698 60.6701 61.0412 60.6807 61.0031 60.6913C60.9836 60.6968 60.9535 60.7046 60.916 60.7114C60.8968 60.7149 60.8726 60.7187 60.8446 60.7218C60.817 60.7247 60.7809 60.7274 60.7385 60.7274V59.7274V58.7274C60.5965 58.7274 60.4876 58.7588 60.4642 58.7653C60.422 58.7771 60.3883 58.7895 60.3696 58.7966C60.3312 58.8113 60.2988 58.826 60.2803 58.8347C60.2403 58.8534 60.1996 58.8743 60.1661 58.8921C60.0959 58.9291 60.0129 58.9755 59.934 59.0208C59.8547 59.0665 59.7714 59.1158 59.7004 59.1597C59.6679 59.1798 59.5361 59.2592 59.4403 59.3443L60.1047 60.0917ZM60.7385 59.7274V60.7274H66.4973V59.7274V58.7274H60.7385V59.7274ZM66.4973 59.7274H67.4973V43.7167H66.4973H65.4973V59.7274H66.4973ZM66.4973 43.7167L67.4972 43.7277C67.4966 43.7864 67.4908 43.8332 67.4868 43.8601C67.4826 43.8892 67.4777 43.9129 67.4742 43.9289C67.4673 43.96 67.4603 43.9836 67.457 43.9947C67.4501 44.0174 67.4445 44.032 67.4445 44.0322C67.4435 44.0347 67.4464 44.0271 67.4555 44.0056C67.4726 43.9653 67.4986 43.9068 67.5285 43.842C67.5581 43.7779 67.5883 43.7143 67.6128 43.6646C67.6251 43.6395 67.6344 43.6212 67.6404 43.6097C67.6434 43.604 67.6443 43.6024 67.6434 43.604C67.6429 43.605 67.6413 43.6078 67.6388 43.6122C67.6364 43.6162 67.6317 43.6241 67.6251 43.6344L66.7815 43.0976L65.9378 42.5607C65.8675 42.6711 65.7651 42.8901 65.7124 43.0044C65.6776 43.0797 65.6422 43.1587 65.6139 43.2254C65.6004 43.2575 65.5846 43.2958 65.5706 43.3332C65.564 43.3509 65.5534 43.3801 65.543 43.4143C65.5379 43.4312 65.5297 43.4597 65.5218 43.4949C65.5167 43.5178 65.4985 43.5998 65.4974 43.7057L66.4973 43.7167ZM66.7815 43.0976L67.6134 43.6524C67.6907 43.5366 67.7531 43.4965 67.9059 43.4814L67.8078 42.4862L67.7098 41.4911C66.9748 41.5634 66.3672 41.9164 65.9495 42.5427L66.7815 43.0976ZM69.4905 45.5439H68.4905V61.5985H69.4905H70.4905V45.5439H69.4905ZM69.4905 61.5985H68.4905C68.4905 61.5288 68.5 61.4747 68.508 61.441C68.516 61.4067 68.5248 61.3835 68.5292 61.3726C68.5372 61.353 68.5387 61.3552 68.5225 61.38C68.5077 61.4027 68.4847 61.4341 68.4528 61.4722C68.4213 61.5098 68.3847 61.5495 68.345 61.5887C68.2617 61.6709 68.1837 61.7325 68.1319 61.7658C68.106 61.7824 68.1028 61.7816 68.1214 61.7741C68.1316 61.7699 68.1549 61.761 68.1896 61.7528C68.2233 61.7447 68.2799 61.7343 68.3537 61.7343V62.7343V63.7343C68.7455 63.7343 69.0685 63.5414 69.2134 63.4482C69.4061 63.3243 69.5913 63.1688 69.7504 63.0117C69.9093 62.8547 70.0693 62.6694 70.1974 62.473C70.2976 62.3195 70.4905 61.9951 70.4905 61.5985H69.4905ZM68.3537 62.7343V61.7343H63.7746V62.7343V63.7343H68.3537V62.7343ZM63.7746 62.7343L62.917 63.2486L70.584 76.0337L71.4416 75.5194L72.2992 75.0051L64.6322 62.22L63.7746 62.7343ZM71.4416 75.5194L72.2993 76.0337L79.9653 63.2485L79.1076 62.7343L78.25 62.22L70.584 75.0052L71.4416 75.5194ZM79.1076 62.7343V61.7343H74.6155V62.7343V63.7343H79.1076V62.7343ZM74.6155 62.7343L74.6162 61.7343C74.7052 61.7343 74.7612 61.7536 74.7746 61.7586C74.7901 61.7642 74.7861 61.7647 74.7635 61.7504C74.7163 61.7204 74.6442 61.6619 74.567 61.5776C74.4904 61.4939 74.4326 61.411 74.3994 61.3492C74.3833 61.3192 74.3789 61.3051 74.3798 61.3078C74.3798 61.3081 74.3928 61.3471 74.3928 61.4164L73.3928 61.4169L72.3928 61.4174C72.393 61.7728 72.5245 62.0852 72.6374 62.2955C72.7607 62.525 72.9212 62.7417 73.092 62.9283C73.2621 63.114 73.4666 63.2961 73.6922 63.4393C73.8971 63.5693 74.2237 63.734 74.6147 63.7343L74.6155 62.7343ZM73.3928 61.4169H74.3928V45.4062H73.3928H72.3928V61.4169H73.3928ZM73.3928 45.4062V44.4062H69.6282V45.4062V46.4062H73.3928V45.4062ZM69.6282 45.4062L68.921 44.6991L68.7833 44.8367L69.4905 45.5439L70.1976 46.251L70.3353 46.1133L69.6282 45.4062ZM34.4407 1.14542L34.5347 2.14099C52.4055 0.453487 68.8836 14.0953 71.5605 31.6574L72.549 31.5067L73.5376 31.3561C70.71 12.8051 53.3316 -1.64287 34.3466 0.149845L34.4407 1.14542ZM72.549 31.5067L71.5606 31.658C71.6678 32.3588 71.8228 33.4913 71.9185 34.6041C72.018 35.7615 72.0387 36.7534 71.9394 37.2531L72.9201 37.4482L73.9009 37.6432C74.0637 36.8251 74.008 35.5598 73.9111 34.4327C73.8103 33.261 73.6487 32.0817 73.5375 31.3554L72.549 31.5067ZM72.9201 37.4482L71.9403 37.2483C71.9264 37.3165 71.8426 37.458 71.5859 37.515C71.3336 37.571 71.1683 37.4855 71.0998 37.3985L70.3137 38.0165L69.5275 38.6345C70.1801 39.4645 71.2051 39.6482 72.0194 39.4674C72.8292 39.2876 73.6882 38.6864 73.9 37.648L72.9201 37.4482ZM70.3137 38.0165L71.0998 37.3983C71.0128 37.2878 70.9429 37.0876 70.9348 36.6501C70.9309 36.4367 70.941 36.22 70.9504 35.9563C70.9592 35.7099 70.9675 35.4193 70.9468 35.1337L69.9494 35.206L68.9521 35.2783C68.9641 35.444 68.9606 35.6367 68.9517 35.8847C68.9434 36.1155 68.9299 36.4044 68.9352 36.6871C68.9454 37.2416 69.0249 37.9954 69.5276 38.6347L70.3137 38.0165ZM69.9494 35.206L70.9471 35.1371C69.501 14.1736 50.1206 -0.842993 29.3716 3.84678L29.592 4.82217L29.8125 5.79757C49.3265 1.38693 67.5874 15.4947 68.9518 35.2748L69.9494 35.206ZM29.592 4.82217L29.3717 3.84675C1.71283 10.094 -6.75929 45.9787 15.8783 63.6399L16.4934 62.8515L17.1085 62.063C-4.17237 45.4603 3.76724 11.6803 29.8123 5.7976L29.592 4.82217ZM16.4934 62.8515L15.8782 63.6399C25.892 71.4532 39.5433 73.5409 51.2347 68.0224L50.8078 67.1181L50.381 66.2138C39.4291 71.3832 26.5783 69.4519 17.1085 62.0631L16.4934 62.8515ZM50.8078 67.1181L51.2355 68.022C52.0244 67.6487 52.7703 67.2217 53.4822 66.8054C54.2046 66.3831 54.8836 65.9771 55.5883 65.6089L55.1252 64.7226L54.6622 63.8362C53.9036 64.2325 53.1701 64.6712 52.4727 65.0789C51.7649 65.4928 51.0838 65.8812 50.3801 66.2142L50.8078 67.1181ZM55.1252 64.7226L55.3537 65.6961C55.5015 65.6614 55.7117 65.7207 55.8703 65.9651C56.0261 66.205 55.9897 66.3988 55.8986 66.5118L56.677 67.1396L57.4554 67.7673C58.2157 66.8245 58.0549 65.657 57.5478 64.8759C57.0435 64.0993 56.0521 63.4779 54.8968 63.749L55.1252 64.7226ZM56.677 67.1396L55.8982 66.5122C55.921 66.484 55.9085 66.5055 55.809 66.5825C55.7225 66.6494 55.6043 66.7324 55.4558 66.8294C55.1594 67.023 54.7828 67.2461 54.384 67.4711C53.587 67.9208 52.7514 68.3499 52.4026 68.5191L52.8391 69.4189L53.2756 70.3186C53.6622 70.131 54.5344 69.6826 55.3668 69.2129C55.7828 68.9782 56.2014 68.7312 56.5494 68.504C56.723 68.3906 56.8892 68.2755 57.033 68.1642C57.1638 68.063 57.3274 67.9262 57.4557 67.7669L56.677 67.1396ZM52.8391 69.4189L52.4001 68.5203C32.3023 78.3387 7.79351 67.0893 2.95126 45.1835L1.97483 45.3993L0.998401 45.6152C6.13128 68.8357 32.0643 80.6809 53.278 70.3174L52.8391 69.4189ZM1.97483 45.3993L2.95122 45.1833C-1.91044 23.2066 12.3656 4.23375 34.5346 2.14099L34.4407 1.14542L34.3467 0.149842C11.0101 2.35282 -4.1293 22.4359 0.998436 45.6153L1.97483 45.3993ZM35.3948 12.2558L36.3904 12.3491C36.4066 12.1767 36.5227 12.0189 36.7428 11.9411C36.9672 11.8618 37.1627 11.9145 37.2795 12.0313L37.9865 11.3241L38.6936 10.617C37.2424 9.16592 34.5967 10.0555 34.3991 12.1624L35.3948 12.2558ZM37.9865 11.3241L37.328 12.0767L37.3359 12.0835L37.9944 11.331L38.6529 10.5784L38.6451 10.5716L37.9865 11.3241ZM37.9944 11.331L37.2872 12.0381C37.2512 12.0021 37.2373 11.9779 37.2433 11.9872C37.2485 11.9953 37.2595 12.014 37.2812 12.0553C37.2918 12.0755 37.3023 12.0958 37.3161 12.1225C37.3289 12.1473 37.3444 12.1773 37.3608 12.208C37.3923 12.2669 37.4379 12.3491 37.4952 12.4332L38.3215 11.87L39.1478 11.3068C39.1506 11.3108 39.1443 11.302 39.1247 11.2653C39.0953 11.2104 39.0943 11.2059 39.0511 11.1239C39.021 11.0668 38.9789 10.9889 38.9275 10.9087C38.8769 10.8296 38.803 10.7254 38.7015 10.6239L37.9944 11.331ZM38.3215 11.87L37.3215 11.8732L37.3869 32.2814L38.3869 32.2782L39.3869 32.275L39.3215 11.8668L38.3215 11.87ZM38.3869 32.2782L37.9937 33.1977C39.048 33.6485 39.7987 34.1717 40.3117 35.0229L41.1682 34.5067L42.0247 33.9906C41.2126 32.643 40.0412 31.8981 38.7802 31.3588L38.3869 32.2782ZM41.1682 34.5067L40.3125 35.0242C41.365 36.7648 40.8892 39.1993 39.2253 40.2602L39.7629 41.1034L40.3005 41.9466C42.976 40.2408 43.5778 36.559 42.0239 33.9893L41.1682 34.5067ZM39.7629 41.1034L39.2254 40.2602C36.8802 41.7551 33.9388 40.7845 33.1707 38.2305L32.2131 38.5185L31.2555 38.8064C32.4534 42.7901 36.9813 44.0623 40.3004 41.9467L39.7629 41.1034ZM32.2131 38.5185V37.5185H18.0227V38.5185V39.5185H32.2131V38.5185ZM18.0227 38.5185L18.1152 37.5228C17.9111 37.5038 17.8042 37.4352 17.748 37.3815C17.6872 37.3234 17.6449 37.2432 17.6306 37.1456C17.6027 36.9552 17.684 36.708 17.9819 36.5621L17.5422 35.664L17.1025 34.7658C16.0025 35.3044 15.5013 36.408 15.6517 37.4354C15.8067 38.4941 16.641 39.3944 17.9302 39.5142L18.0227 38.5185ZM17.5422 35.664L17.5462 36.664L32.1585 36.6063L32.1545 35.6064L32.1506 34.6064L17.5383 34.664L17.5422 35.664ZM32.1545 35.6064L33.0887 35.9633C33.5871 34.6588 34.4343 33.7563 35.7018 33.2706L35.344 32.3368L34.9862 31.403C33.1375 32.1114 31.9015 33.4668 31.2204 35.2494L32.1545 35.6064ZM35.344 32.3368L36.344 32.3394L36.3947 12.2583L35.3948 12.2558L34.3948 12.2532L34.344 32.3343L35.344 32.3368ZM36.924 35.0966V34.0966C35.2948 34.0966 33.9719 35.4172 33.9719 37.0478H34.9719H35.9719C35.9719 36.5231 36.3981 36.0966 36.924 36.0966V35.0966ZM34.9719 37.0478L33.9719 37.0479C33.9721 38.6781 35.2948 39.9989 36.924 39.9989V38.9989V37.9989C36.3983 37.9989 35.972 37.5724 35.9719 37.0476L34.9719 37.0478ZM36.924 38.9989L36.9243 39.9989C38.5536 39.9986 39.875 38.6775 39.8752 37.0479L38.8752 37.0478L37.8752 37.0476C37.8752 37.5727 37.4491 37.9988 36.9238 37.9989L36.924 38.9989ZM38.8752 37.0478H39.8752C39.8752 35.4178 38.5536 34.0969 36.9243 34.0966L36.924 35.0966L36.9238 36.0966C37.4493 36.0967 37.8752 36.5228 37.8752 37.0478H38.8752Z" fill="url(#paint1_linear_607_9467)" mask="url(#path-1-outside-1_607_9467)"/>
<defs>
<linearGradient id="paint0_linear_607_9467" x1="42.1456" y1="5.54009" x2="57.6585" y2="54.1896" gradientUnits="userSpaceOnUse">
<stop stop-color="#FCD30B"/>
<stop offset="1" stop-color="#4997EA"/>
</linearGradient>
<linearGradient id="paint1_linear_607_9467" x1="33.9169" y1="8.13147" x2="86.035" y2="61.8957" gradientUnits="userSpaceOnUse">
<stop stop-color="#FCD30B"/>
<stop offset="0.764423" stop-color="#4997EA"/>
</linearGradient>
</defs>
</svg>
