<svg width="83" height="83" viewBox="0 0 83 83" fill="none" xmlns="http://www.w3.org/2000/svg">
<path d="M34.2933 0.273472C37.3775 -0.0914637 45.9209 -0.0915017 49.012 0.273472C49.6599 0.34792 50.1515 0.326327 50.5462 0.966831V7.85648L59.2239 10.9629C61.101 10.5756 63.2762 5.8455 65.2054 6.73148C66.6578 8.93623 76.3034 16.7945 76.7288 18.3965C77.1087 19.8341 72.7586 22.6574 72.0061 24.0801L75.4847 32.7129L83.0003 33.2051V50.0987L75.4847 50.5909L71.9837 59.2159L76.7884 64.5498L64.8997 76.7285C63.462 77.1077 60.6387 72.7582 59.2161 72.0059L50.5833 75.4844L50.0921 83H33.1976V82.9854L32.7063 75.4698L24.0804 71.9766C22.6799 72.7517 19.8269 77.0863 18.3968 76.7139C16.8024 76.2962 8.94396 66.6429 6.73173 65.1905C5.90492 63.3953 10.4794 60.8027 11.2913 59.2012L7.85673 50.5235H0.967082C0.333987 50.1362 0.355634 49.6373 0.273723 48.9893C-0.0912553 45.9056 -0.0912264 37.3621 0.273723 34.2705C0.348211 33.6225 0.326483 33.1302 0.967082 32.7354H7.85673L10.9632 24.0577C10.9329 22.5604 6.14362 20.0131 6.57548 18.3819L18.7542 6.4932L24.0804 11.2754L32.7581 7.84183V0.966831C33.1454 0.333681 33.6452 0.355409 34.2933 0.273472ZM35.4173 9.41312C32.9146 10.8209 30.0619 11.4095 27.4251 12.5342C26.4121 12.9662 24.9441 14.3523 24.013 14.4268C22.4413 14.5601 20.0204 11.0219 18.7542 10.0909L10.0911 18.7539C11.0296 20.0201 14.5673 22.4559 14.4339 24.0127L9.42118 35.4248H2.97099V47.8721H9.41337L14.427 59.2832L10.2854 64.7657L18.7474 73.2051C20.0063 72.2738 22.4494 68.7283 24.0061 68.8623C24.8705 68.9371 28.3786 71.1122 29.6448 71.6485C31.574 72.4678 33.8679 72.5427 35.4173 73.876V80.3184H47.8645V73.876L59.2757 68.8623C60.8399 68.7208 63.2766 72.274 64.5354 73.2051L73.1975 64.542C72.2586 63.2756 68.7217 60.8399 68.8558 59.2832L73.8684 47.8721H80.3118V35.4248H73.8684L68.8558 24.0127L72.9974 18.5313L64.5354 10.0909C63.2691 11.022 60.8474 14.5609 59.2757 14.4268C58.3371 14.3444 56.8774 12.9587 55.8645 12.5342C53.2277 11.417 50.3751 10.8209 47.8724 9.41312V2.97074H35.4173V9.41312ZM39.7767 16.4375C70.6595 14.121 77.2291 59.6261 47.3518 66.2481C11.9478 74.0839 4.40978 19.0893 39.7767 16.4375ZM41.1253 19.0752C9.04329 19.7903 14.3017 70.1137 46.2122 63.7676C72.4618 58.546 68.41 18.4722 41.1253 19.0752ZM41.4808 26.5694C41.9349 26.4279 42.9776 27.5289 42.9788 27.6416V37.8692C42.9794 38.3088 46.5011 39.8208 44.9671 43.418C44.7287 43.9767 42.9788 45.1616 42.9788 45.4297V55.6573C42.9758 55.7418 42.0394 56.6923 41.8089 56.7295C41.355 56.8708 40.3144 55.7713 40.3118 55.6573V45.4297C40.3118 44.9902 36.7881 43.4777 38.3226 39.8799C38.5611 39.3213 40.3113 38.1375 40.3118 37.8692C40.3118 35.6643 39.8723 29.2059 40.3118 27.6416C40.3572 27.4922 41.2714 26.6078 41.4808 26.5694ZM51.264 26.5537C53.5056 26.1893 52.5152 31.7151 52.8577 32.8848C53.1631 33.9053 54.7051 34.2857 54.9808 35.6563C55.6657 39.1271 52.7679 40.0585 52.7679 40.5352V55.6485C52.7679 55.7304 51.8301 56.683 51.5989 56.7207C51.1445 56.8623 50.1018 55.7602 50.1018 55.6485V40.5352H50.094C49.7737 39.3955 47.4578 39.4846 47.845 36.0733C48.061 34.1589 49.6625 34.0468 50.0052 32.8848C50.4296 31.4692 49.3497 26.8666 51.264 26.5537ZM30.5306 27.6416C30.8509 26.5616 33.1976 26.9191 33.1976 27.6416V42.7549C33.1976 43.2987 37.1153 45.0345 35.1643 48.2744C34.6876 49.064 33.5251 49.6083 33.2942 50.4053C32.7059 52.3792 34.2029 55.3734 32.1028 56.6621C29.3096 55.9024 31.0741 52.5282 30.4485 50.4053C30.1506 49.3848 28.6011 49.0044 28.3255 47.6338C27.6405 44.163 30.5384 43.2316 30.5384 42.7549V27.6416H30.5306Z" fill="url(#paint0_linear_2053_2183)"/>
<defs>
<linearGradient id="paint0_linear_2053_2183" x1="41.5001" y1="-0.000244141" x2="62.3771" y2="38.9256" gradientUnits="userSpaceOnUse">
<stop stop-color="#FCD30B"/>
<stop offset="1" stop-color="#2269FF"/>
</linearGradient>
</defs>
</svg>
