<svg width="59" height="59" viewBox="0 0 59 59" fill="none" xmlns="http://www.w3.org/2000/svg">
<path d="M37.1309 1.01758C46.764 3.44424 55.1232 11.6674 57.795 21.2393L58.9708 27.2695V31.7305L57.8438 37.5518C55.123 47.2952 47.2664 55.1267 37.5352 57.8721L31.714 59H27.2647L21.6515 57.9336C11.9205 55.2862 4.0397 47.4177 1.19637 37.7725L0.0323121 31.7188C0.105848 30.3338 -0.0779911 28.899 0.0323121 27.5264C1.11103 13.3464 12.6687 0.931442 27.1182 0.245117L27.5352 0H31.4688L37.1309 1.01758ZM50.1837 42.9697C61.4346 25.8482 47.7694 3.16248 27.4981 4.80469L27.4854 4.79199C9.4695 6.25064 -0.996428 26.0925 8.10946 41.8535C17.2155 57.6145 40.0969 58.3138 50.1837 42.9697ZM34.4464 20.1484C36.5913 19.8787 43.3313 17.9792 44.839 18.457C46.7263 19.0576 46.9474 21.8273 45.1827 22.7588C43.1972 23.8251 37.6449 24.0701 35.1202 24.7441C34.7648 24.8422 34.2501 24.9159 34.1153 25.3203C33.7357 26.4486 34.6791 32.3184 34.9854 33.8135C35.7944 37.7108 38.4663 42.4172 38.9932 45.7998C39.4466 48.7041 37.253 50.0031 34.9981 48.2266L29.752 34.8672L24.752 47.9443C24.0167 49.2067 22.1043 49.3661 21.0626 48.4102H21.0753C20.8547 48.2018 20.5355 47.6013 20.4864 47.2949C20.1923 45.4688 22.8398 39.9286 23.4893 37.7471C24.6903 33.6782 24.7883 29.5602 24.629 25.332C24.4818 24.9033 23.9795 24.8666 23.6241 24.7686C20.9279 23.9842 16.271 23.8862 13.9913 22.8691C12.055 21.999 12.2138 19.094 14.1622 18.4688C15.7064 17.9785 22.3865 19.8788 24.5557 20.1484C27.8403 20.5651 31.1618 20.5651 34.4464 20.1484ZM28.5147 10.0254C34.4098 8.7998 35.6849 17.7222 29.9981 18.335C24.3116 18.9477 23.6618 11.0307 28.5147 10.0254Z" fill="url(#paint0_linear_2053_2248)"/>
<defs>
<linearGradient id="paint0_linear_2053_2248" x1="29.4834" y1="0" x2="44.3272" y2="27.6648" gradientUnits="userSpaceOnUse">
<stop stop-color="#FCD30B"/>
<stop offset="1" stop-color="#2269FF"/>
</linearGradient>
</defs>
</svg>
