<svg width="93" height="77" viewBox="0 0 93 77" fill="none" xmlns="http://www.w3.org/2000/svg">
<mask id="path-1-outside-1_2053_2230" maskUnits="userSpaceOnUse" x="-1" y="0" width="94" height="77" fill="black">
<rect fill="white" x="-1" width="94" height="77"/>
<path d="M36.2422 21.6201C37.0062 18.8698 40.0871 18.8699 42.043 20.459C47.6292 25.0125 43.8698 37.3161 39.6953 41.9307C39.7201 42.3828 41.2547 42.2908 41.6152 42.2725C45.6982 42.1135 55.4582 40.2193 58.7344 41.7715C61.0142 42.8533 61.9131 45.3411 61.6992 47.7432C61.6014 48.8492 60.8494 50.1202 60.8125 50.9209C60.6842 53.7874 62.713 55.6212 61.2158 59.4043C60.6413 60.859 60.6541 59.8817 60.6113 61.7031C60.5808 63.1943 60.5864 64.3436 59.8896 65.7188C59.4799 66.5194 58.0744 67.6381 57.9521 68.0537C57.7446 68.7688 57.9886 69.8687 57.8848 70.6875C57.298 75.2532 53.362 75.3938 49.707 75.5527C47.03 75.6689 44.2732 75.706 41.6084 75.7793C33.1129 76.0116 27.3312 76.4019 19.3857 72.7959C18.0473 72.1908 17.7231 71.0179 19.2998 70.6572C22.1907 71.4212 25.1733 72.8882 28.0459 73.585C32.2693 74.6118 40.142 73.6401 44.7383 73.5117C46.8774 73.4506 49.1636 73.6699 51.2783 73.5293C52.8 73.4315 54.0954 73.4072 55.0977 72.1729C56.4728 70.4799 55.5387 69.3248 55.9297 67.6074C56.1252 66.7396 57.8602 65.5476 58.3066 64.3682C58.9911 62.553 58.1481 61.2202 58.3496 59.9307C58.4474 59.3317 59.0829 59.1234 59.3457 58.665C60.8003 56.1042 58.6005 52.8162 58.582 50.6709C58.582 50.1025 59.5535 48.855 59.6758 47.7549C60.1462 43.4768 57.1575 43.0487 53.7471 43.1709C49.6583 43.3176 45.2091 44.2159 41.1631 44.3076C39.6596 44.3382 38.0697 43.9598 37.7578 42.2793C37.5011 40.8858 39.1518 39.5224 39.873 38.2939C42.0734 34.5534 45.1598 24.2181 40.2275 21.6143C37.8805 20.3796 38.125 23.283 37.7949 24.5176C37.2326 26.5955 36.432 28.6796 35.8086 30.7393L35.8027 30.7334C33.8102 32.1575 31.4143 33.3925 29.4951 34.8838C25.7669 37.793 22.9673 42.6819 19.832 46.2451C19.1597 46.6302 18.4988 46.3803 18.126 45.708C17.9976 45.219 18.628 44.4974 18.9092 44.0879C20.4983 41.7287 23.5721 37.9702 25.5156 35.8555C28.0827 33.0562 31.2555 31.5587 34.1709 29.2178C35.2833 26.8341 35.5638 24.0649 36.2422 21.6201ZM3.64648 44.1182C5.1133 43.8187 12.551 43.8608 14.1406 44.0869C16.072 44.362 17.0503 46.1901 17.2031 47.9932C17.8509 55.4497 16.7076 63.8295 17.1904 71.3838C16.9397 73.9016 15.516 75.118 13.041 75.332C11.2135 75.4909 4.70954 75.5518 3.25488 74.9834C2.16719 74.5616 1.57481 73.6505 1.11035 72.6299L1 47.0947C1.09779 45.8907 2.50379 44.3443 3.64062 44.1182H3.64648ZM13.2549 45.8906C11.837 45.6889 5.87246 45.6582 4.55762 45.9209L4.55078 45.915C3.5364 46.1169 2.90735 46.9848 2.80957 47.9932C3.33512 55.3702 2.12504 63.6763 2.80957 70.9434C2.91348 72.0435 3.26782 73.0886 4.51465 73.2842C7.20392 73.7058 11.0423 73.076 13.8477 73.1982C14.5565 72.862 15.1618 72.2205 15.1924 71.3955L15.0879 47.2041C14.7395 46.4037 14.1103 46.0068 13.2549 45.8906ZM64.9844 2C70.363 4.32257 75.7603 6.67568 81.5117 7.97754C83.8832 8.51539 86.2732 8.59484 88.5469 9.04102C89.5675 9.24279 90.7771 10.056 90.9482 11.1377C91.3455 13.6436 91.0643 19.1621 90.9727 21.9248C90.447 37.7121 86.4865 50.3282 71.4082 57.6748C70.1484 58.2924 64.8508 60.7055 63.8115 59.5264H63.7988C63.4261 59.1046 63.695 58.1325 64.2021 57.8818C64.6361 57.6679 65.058 57.9615 65.498 57.8516C70.7544 56.5436 77.1723 52.1492 80.7295 48.1152C89.6163 38.0427 88.6874 27.3038 88.9258 14.707C88.9441 13.6497 89.5064 12.4881 88.9502 11.3818C88.8157 11.1679 88.5523 11.1072 88.3262 11.0645C86.126 10.6244 83.7975 10.4899 81.5117 10.001C75.7665 8.76636 70.3025 6.57148 64.9912 4.13281C57.449 7.52498 49.5944 10.4038 41.2637 11.125C39.9134 11.7673 41.9725 17.451 40.4385 17.9521C38.416 18.6178 39.0328 14.9399 39.0146 13.8271C38.9902 12.507 38.404 11.327 39.498 10.0312C40.5129 8.82731 45.3533 8.6128 47.1562 8.24609C53.3842 6.98702 59.1598 4.42028 64.9844 2ZM64.9941 9.08398C69.9447 11.3392 74.7669 13.0264 80.127 14.0898C81.9972 14.4627 84.4236 13.9859 84.6865 16.5039C85.0899 20.3055 84.6385 26.7658 84.1924 30.6592C83.1472 39.8455 77.9088 47.3695 69.5293 51.3057C68.5819 51.7518 62.928 54.3309 63.7959 51.4277C63.9918 50.7739 65.7707 50.6522 66.5713 50.3711C69.7251 49.2648 73.2455 47.0333 75.5986 44.668L75.5928 44.6621C83.3609 36.851 82.7069 26.7293 82.6152 16.4307C76.3565 15.8439 70.5556 13.6498 64.8164 11.2783C61.8583 12.464 58.9492 13.8274 55.875 14.7197C53.0696 15.5387 50.1966 15.9665 47.3301 16.5166C46.7867 16.9813 47.3183 18.0998 47.3428 18.7598C47.3916 20.3181 47.2817 21.8948 47.3428 23.4531C45.9921 24.3026 45.4292 23.8263 45.3008 22.3779C45.1724 20.9294 45.1235 17.3717 45.3252 16.082C45.6615 13.9492 50.2392 14.041 52.1035 13.6377C56.6325 12.6537 60.728 10.7953 64.9941 9.08398ZM72.4668 21.1797C73.7136 21.1125 76.592 23.8325 77.2461 24.835C77.8451 25.7579 77.8513 26.8949 77.3379 27.8545L64.417 40.5674C63.5369 41.1356 62.247 41.0566 61.3486 40.5127L53.7705 32.5791C53.0615 31.6684 52.7067 30.6537 53.1406 29.5107C53.3301 29.0096 56.0559 26.2895 56.5693 25.9717C59.5336 24.1259 61.0616 27.9765 63.1641 29.2051C63.7751 28.5268 64.5514 28.0317 65.2236 27.4268C66.9228 25.9049 69.148 22.952 70.835 21.7969C71.275 21.4974 71.9535 21.2044 72.4668 21.1738V21.1797ZM63.3105 31.833C62.0086 32.1928 59.5821 27.8604 58.207 27.457C57.9474 27.4352 54.5835 30.0486 55.0166 30.8613C56.1595 31.8637 61.9422 38.8129 62.749 38.8984C62.9444 38.9167 63.1335 38.8679 63.3105 38.8008L75.498 26.9189C75.6141 26.699 75.7001 26.4487 75.6758 26.1982C75.6269 25.7277 72.9683 23.087 72.4424 23.1904V23.1846L63.3105 31.833Z"/>
</mask>
<path d="M36.2422 21.6201C37.0062 18.8698 40.0871 18.8699 42.043 20.459C47.6292 25.0125 43.8698 37.3161 39.6953 41.9307C39.7201 42.3828 41.2547 42.2908 41.6152 42.2725C45.6982 42.1135 55.4582 40.2193 58.7344 41.7715C61.0142 42.8533 61.9131 45.3411 61.6992 47.7432C61.6014 48.8492 60.8494 50.1202 60.8125 50.9209C60.6842 53.7874 62.713 55.6212 61.2158 59.4043C60.6413 60.859 60.6541 59.8817 60.6113 61.7031C60.5808 63.1943 60.5864 64.3436 59.8896 65.7188C59.4799 66.5194 58.0744 67.6381 57.9521 68.0537C57.7446 68.7688 57.9886 69.8687 57.8848 70.6875C57.298 75.2532 53.362 75.3938 49.707 75.5527C47.03 75.6689 44.2732 75.706 41.6084 75.7793C33.1129 76.0116 27.3312 76.4019 19.3857 72.7959C18.0473 72.1908 17.7231 71.0179 19.2998 70.6572C22.1907 71.4212 25.1733 72.8882 28.0459 73.585C32.2693 74.6118 40.142 73.6401 44.7383 73.5117C46.8774 73.4506 49.1636 73.6699 51.2783 73.5293C52.8 73.4315 54.0954 73.4072 55.0977 72.1729C56.4728 70.4799 55.5387 69.3248 55.9297 67.6074C56.1252 66.7396 57.8602 65.5476 58.3066 64.3682C58.9911 62.553 58.1481 61.2202 58.3496 59.9307C58.4474 59.3317 59.0829 59.1234 59.3457 58.665C60.8003 56.1042 58.6005 52.8162 58.582 50.6709C58.582 50.1025 59.5535 48.855 59.6758 47.7549C60.1462 43.4768 57.1575 43.0487 53.7471 43.1709C49.6583 43.3176 45.2091 44.2159 41.1631 44.3076C39.6596 44.3382 38.0697 43.9598 37.7578 42.2793C37.5011 40.8858 39.1518 39.5224 39.873 38.2939C42.0734 34.5534 45.1598 24.2181 40.2275 21.6143C37.8805 20.3796 38.125 23.283 37.7949 24.5176C37.2326 26.5955 36.432 28.6796 35.8086 30.7393L35.8027 30.7334C33.8102 32.1575 31.4143 33.3925 29.4951 34.8838C25.7669 37.793 22.9673 42.6819 19.832 46.2451C19.1597 46.6302 18.4988 46.3803 18.126 45.708C17.9976 45.219 18.628 44.4974 18.9092 44.0879C20.4983 41.7287 23.5721 37.9702 25.5156 35.8555C28.0827 33.0562 31.2555 31.5587 34.1709 29.2178C35.2833 26.8341 35.5638 24.0649 36.2422 21.6201ZM3.64648 44.1182C5.1133 43.8187 12.551 43.8608 14.1406 44.0869C16.072 44.362 17.0503 46.1901 17.2031 47.9932C17.8509 55.4497 16.7076 63.8295 17.1904 71.3838C16.9397 73.9016 15.516 75.118 13.041 75.332C11.2135 75.4909 4.70954 75.5518 3.25488 74.9834C2.16719 74.5616 1.57481 73.6505 1.11035 72.6299L1 47.0947C1.09779 45.8907 2.50379 44.3443 3.64062 44.1182H3.64648ZM13.2549 45.8906C11.837 45.6889 5.87246 45.6582 4.55762 45.9209L4.55078 45.915C3.5364 46.1169 2.90735 46.9848 2.80957 47.9932C3.33512 55.3702 2.12504 63.6763 2.80957 70.9434C2.91348 72.0435 3.26782 73.0886 4.51465 73.2842C7.20392 73.7058 11.0423 73.076 13.8477 73.1982C14.5565 72.862 15.1618 72.2205 15.1924 71.3955L15.0879 47.2041C14.7395 46.4037 14.1103 46.0068 13.2549 45.8906ZM64.9844 2C70.363 4.32257 75.7603 6.67568 81.5117 7.97754C83.8832 8.51539 86.2732 8.59484 88.5469 9.04102C89.5675 9.24279 90.7771 10.056 90.9482 11.1377C91.3455 13.6436 91.0643 19.1621 90.9727 21.9248C90.447 37.7121 86.4865 50.3282 71.4082 57.6748C70.1484 58.2924 64.8508 60.7055 63.8115 59.5264H63.7988C63.4261 59.1046 63.695 58.1325 64.2021 57.8818C64.6361 57.6679 65.058 57.9615 65.498 57.8516C70.7544 56.5436 77.1723 52.1492 80.7295 48.1152C89.6163 38.0427 88.6874 27.3038 88.9258 14.707C88.9441 13.6497 89.5064 12.4881 88.9502 11.3818C88.8157 11.1679 88.5523 11.1072 88.3262 11.0645C86.126 10.6244 83.7975 10.4899 81.5117 10.001C75.7665 8.76636 70.3025 6.57148 64.9912 4.13281C57.449 7.52498 49.5944 10.4038 41.2637 11.125C39.9134 11.7673 41.9725 17.451 40.4385 17.9521C38.416 18.6178 39.0328 14.9399 39.0146 13.8271C38.9902 12.507 38.404 11.327 39.498 10.0312C40.5129 8.82731 45.3533 8.6128 47.1562 8.24609C53.3842 6.98702 59.1598 4.42028 64.9844 2ZM64.9941 9.08398C69.9447 11.3392 74.7669 13.0264 80.127 14.0898C81.9972 14.4627 84.4236 13.9859 84.6865 16.5039C85.0899 20.3055 84.6385 26.7658 84.1924 30.6592C83.1472 39.8455 77.9088 47.3695 69.5293 51.3057C68.5819 51.7518 62.928 54.3309 63.7959 51.4277C63.9918 50.7739 65.7707 50.6522 66.5713 50.3711C69.7251 49.2648 73.2455 47.0333 75.5986 44.668L75.5928 44.6621C83.3609 36.851 82.7069 26.7293 82.6152 16.4307C76.3565 15.8439 70.5556 13.6498 64.8164 11.2783C61.8583 12.464 58.9492 13.8274 55.875 14.7197C53.0696 15.5387 50.1966 15.9665 47.3301 16.5166C46.7867 16.9813 47.3183 18.0998 47.3428 18.7598C47.3916 20.3181 47.2817 21.8948 47.3428 23.4531C45.9921 24.3026 45.4292 23.8263 45.3008 22.3779C45.1724 20.9294 45.1235 17.3717 45.3252 16.082C45.6615 13.9492 50.2392 14.041 52.1035 13.6377C56.6325 12.6537 60.728 10.7953 64.9941 9.08398ZM72.4668 21.1797C73.7136 21.1125 76.592 23.8325 77.2461 24.835C77.8451 25.7579 77.8513 26.8949 77.3379 27.8545L64.417 40.5674C63.5369 41.1356 62.247 41.0566 61.3486 40.5127L53.7705 32.5791C53.0615 31.6684 52.7067 30.6537 53.1406 29.5107C53.3301 29.0096 56.0559 26.2895 56.5693 25.9717C59.5336 24.1259 61.0616 27.9765 63.1641 29.2051C63.7751 28.5268 64.5514 28.0317 65.2236 27.4268C66.9228 25.9049 69.148 22.952 70.835 21.7969C71.275 21.4974 71.9535 21.2044 72.4668 21.1738V21.1797ZM63.3105 31.833C62.0086 32.1928 59.5821 27.8604 58.207 27.457C57.9474 27.4352 54.5835 30.0486 55.0166 30.8613C56.1595 31.8637 61.9422 38.8129 62.749 38.8984C62.9444 38.9167 63.1335 38.8679 63.3105 38.8008L75.498 26.9189C75.6141 26.699 75.7001 26.4487 75.6758 26.1982C75.6269 25.7277 72.9683 23.087 72.4424 23.1904V23.1846L63.3105 31.833Z" fill="url(#paint0_linear_2053_2230)"/>
<path d="M36.2422 21.6201L35.2787 21.3525L35.2786 21.3527L36.2422 21.6201ZM42.043 20.459L42.6748 19.6839L42.6736 19.6829L42.043 20.459ZM39.6953 41.9307L38.9537 41.2598L38.674 41.569L38.6968 41.9853L39.6953 41.9307ZM41.6152 42.2725L41.5763 41.2731L41.5645 41.2738L41.6152 42.2725ZM58.7344 41.7715L59.1631 40.868L59.1625 40.8678L58.7344 41.7715ZM61.6992 47.7432L60.7032 47.6545L60.7031 47.6551L61.6992 47.7432ZM60.8125 50.9209L59.8136 50.8749L59.8135 50.8762L60.8125 50.9209ZM61.2158 59.4043L60.286 59.0363L60.2857 59.037L61.2158 59.4043ZM60.6113 61.7031L59.6116 61.6796L59.6115 61.6826L60.6113 61.7031ZM59.8896 65.7188L60.7799 66.1743L60.7817 66.1707L59.8896 65.7188ZM57.9521 68.0537L56.9928 67.7715L56.9918 67.775L57.9521 68.0537ZM57.8848 70.6875L58.8766 70.815L58.8768 70.8134L57.8848 70.6875ZM49.707 75.5527L49.7504 76.5518L49.7505 76.5518L49.707 75.5527ZM41.6084 75.7793L41.6357 76.7789L41.6359 76.7789L41.6084 75.7793ZM19.3857 72.7959L19.799 71.8853L19.7977 71.8847L19.3857 72.7959ZM19.2998 70.6572L19.5553 69.6904L19.3171 69.6275L19.0768 69.6824L19.2998 70.6572ZM28.0459 73.585L28.2821 72.6133L28.2816 72.6131L28.0459 73.585ZM44.7383 73.5117L44.7662 74.5113L44.7668 74.5113L44.7383 73.5117ZM51.2783 73.5293L51.2142 72.5313L51.212 72.5315L51.2783 73.5293ZM55.0977 72.1729L54.3215 71.5424L54.3214 71.5425L55.0977 72.1729ZM55.9297 67.6074L56.9047 67.8294L56.9052 67.8273L55.9297 67.6074ZM58.3066 64.3682L59.2419 64.7222L59.2423 64.721L58.3066 64.3682ZM58.3496 59.9307L57.3627 59.7695L57.3616 59.7763L58.3496 59.9307ZM59.3457 58.665L60.2132 59.1624L60.2152 59.1589L59.3457 58.665ZM58.582 50.6709H57.582L57.5821 50.6795L58.582 50.6709ZM59.6758 47.7549L60.6697 47.8653L60.6698 47.8642L59.6758 47.7549ZM53.7471 43.1709L53.7113 42.1715L53.7112 42.1715L53.7471 43.1709ZM41.1631 44.3076L41.1834 45.3074L41.1858 45.3074L41.1631 44.3076ZM37.7578 42.2793L36.7744 42.4605L36.7746 42.4618L37.7578 42.2793ZM39.873 38.2939L39.0111 37.7869L39.0107 37.7877L39.873 38.2939ZM40.2275 21.6143L40.6944 20.7299L40.6931 20.7292L40.2275 21.6143ZM37.7949 24.5176L38.7602 24.7788L38.761 24.7758L37.7949 24.5176ZM35.8086 30.7393L35.1015 31.4464L36.282 32.6269L36.7657 31.029L35.8086 30.7393ZM35.8027 30.7334L36.5098 30.0263L35.9107 29.4271L35.2213 29.9198L35.8027 30.7334ZM29.4951 34.8838L28.8815 34.0942L28.8799 34.0954L29.4951 34.8838ZM19.832 46.2451L20.329 47.1129L20.4731 47.0304L20.5828 46.9057L19.832 46.2451ZM18.126 45.708L17.1587 45.9619L17.1906 46.0833L17.2515 46.193L18.126 45.708ZM18.9092 44.0879L19.7336 44.6539L19.7386 44.6466L18.9092 44.0879ZM25.5156 35.8555L26.2519 36.5322L26.2526 36.5313L25.5156 35.8555ZM34.1709 29.2178L34.797 29.9975L34.9786 29.8517L35.0771 29.6407L34.1709 29.2178ZM3.64648 44.1182V45.1182H3.74753L3.84652 45.0979L3.64648 44.1182ZM14.1406 44.0869L14.2816 43.0969L14.2815 43.0969L14.1406 44.0869ZM17.2031 47.9932L16.2067 48.0776L16.2069 48.0797L17.2031 47.9932ZM17.1904 71.3838L18.1855 71.4829L18.1936 71.4016L18.1884 71.32L17.1904 71.3838ZM13.041 75.332L12.9549 74.3357L12.9544 74.3358L13.041 75.332ZM3.25488 74.9834L3.61884 74.052L3.61644 74.051L3.25488 74.9834ZM1.11035 72.6299L0.110361 72.6342L0.111288 72.8488L0.200172 73.0441L1.11035 72.6299ZM1 47.0947L0.00328195 47.0138L-0.000175238 47.0563L9.35793e-06 47.099L1 47.0947ZM3.64062 44.1182V43.1182H3.54213L3.44552 43.1374L3.64062 44.1182ZM13.2549 45.8906L13.1141 46.8807L13.1203 46.8815L13.2549 45.8906ZM4.55762 45.9209L3.90683 46.6802L4.27633 46.9969L4.75357 46.9015L4.55762 45.9209ZM4.55078 45.915L5.20157 45.1558L4.83245 44.8394L4.35563 44.9343L4.55078 45.915ZM2.80957 47.9932L1.81424 47.8966L1.80612 47.9803L1.8121 48.0642L2.80957 47.9932ZM2.80957 70.9434L1.81398 71.0371L1.814 71.0374L2.80957 70.9434ZM4.51465 73.2842L4.35968 74.2721L4.35975 74.2721L4.51465 73.2842ZM13.8477 73.1982L13.8041 74.1973L14.052 74.2081L14.2762 74.1018L13.8477 73.1982ZM15.1924 71.3955L16.1917 71.4325L16.1925 71.4119L16.1924 71.3912L15.1924 71.3955ZM15.0879 47.2041L16.0879 47.1998L16.087 46.9939L16.0048 46.805L15.0879 47.2041ZM64.9844 2L65.3808 1.08194L64.9919 0.913987L64.6007 1.07655L64.9844 2ZM81.5117 7.97754L81.7329 7.00231L81.7325 7.00221L81.5117 7.97754ZM88.5469 9.04102L88.7408 8.06L88.7394 8.05973L88.5469 9.04102ZM90.9482 11.1377L89.9605 11.2939L89.9606 11.2943L90.9482 11.1377ZM90.9727 21.9248L91.9721 21.9581L91.9721 21.958L90.9727 21.9248ZM71.4082 57.6748L70.9702 56.7758L70.968 56.7769L71.4082 57.6748ZM63.8115 59.5264L64.5617 58.8652L64.2631 58.5264H63.8115V59.5264ZM63.7988 59.5264L63.0495 60.1886L63.348 60.5264H63.7988V59.5264ZM64.2021 57.8818L63.76 56.9849L63.7591 56.9853L64.2021 57.8818ZM65.498 57.8516L65.2566 56.8812L65.2557 56.8814L65.498 57.8516ZM80.7295 48.1152L79.9796 47.4536L79.9795 47.4538L80.7295 48.1152ZM88.9258 14.707L89.9256 14.726L89.9256 14.7244L88.9258 14.707ZM88.9502 11.3818L89.8436 10.9326L89.8222 10.89L89.7968 10.8497L88.9502 11.3818ZM88.3262 11.0645L88.1301 12.0451L88.1403 12.047L88.3262 11.0645ZM81.5117 10.001L81.3016 10.9787L81.3026 10.9789L81.5117 10.001ZM64.9912 4.13281L65.4085 3.22403L64.9955 3.0344L64.581 3.22081L64.9912 4.13281ZM41.2637 11.125L41.1774 10.1287L40.9974 10.1443L40.8341 10.2219L41.2637 11.125ZM40.4385 17.9521L40.1279 17.0016L40.1259 17.0023L40.4385 17.9521ZM39.0146 13.8271L40.0145 13.8108L40.0145 13.8086L39.0146 13.8271ZM39.498 10.0312L40.2621 10.6764L40.2626 10.6758L39.498 10.0312ZM47.1562 8.24609L46.9581 7.26592L46.9569 7.26616L47.1562 8.24609ZM64.9941 9.08398L65.4087 8.17396L65.0191 7.9965L64.6218 8.15587L64.9941 9.08398ZM80.127 14.0898L80.3225 13.1091L80.3216 13.109L80.127 14.0898ZM84.6865 16.5039L83.6919 16.6077L83.6921 16.6094L84.6865 16.5039ZM84.1924 30.6592L83.1989 30.5453L83.1988 30.5461L84.1924 30.6592ZM69.5293 51.3057L69.1041 50.4005L69.1032 50.401L69.5293 51.3057ZM63.7959 51.4277L62.838 51.1407L62.8378 51.1413L63.7959 51.4277ZM66.5713 50.3711L66.2403 49.4275L66.24 49.4276L66.5713 50.3711ZM75.5986 44.668L76.3076 45.3732L77.011 44.6661L76.3057 43.9609L75.5986 44.668ZM75.5928 44.6621L74.8837 43.957L74.1805 44.6641L74.8857 45.3692L75.5928 44.6621ZM82.6152 16.4307L83.6152 16.4218L83.6072 15.5193L82.7086 15.435L82.6152 16.4307ZM64.8164 11.2783L65.1983 10.3541L64.8221 10.1987L64.4444 10.3501L64.8164 11.2783ZM55.875 14.7197L55.5962 13.7594L55.5948 13.7598L55.875 14.7197ZM47.3301 16.5166L47.1416 15.5345L46.8815 15.5844L46.6801 15.7566L47.3301 16.5166ZM47.3428 18.7598L48.3423 18.7284L48.3421 18.7228L47.3428 18.7598ZM47.3428 23.4531L47.8752 24.2996L48.3647 23.9918L48.342 23.4139L47.3428 23.4531ZM45.3008 22.3779L44.3047 22.4662L44.3047 22.4662L45.3008 22.3779ZM45.3252 16.082L44.3374 15.9263L44.3372 15.9275L45.3252 16.082ZM52.1035 13.6377L52.3149 14.6151L52.3158 14.6149L52.1035 13.6377ZM72.4668 21.1797H71.4668V22.235L72.5206 22.1782L72.4668 21.1797ZM77.2461 24.835L78.0849 24.2906L78.0836 24.2885L77.2461 24.835ZM77.3379 27.8545L78.0392 28.5673L78.1478 28.4605L78.2196 28.3262L77.3379 27.8545ZM64.417 40.5674L64.9594 41.4075L65.0454 41.352L65.1183 41.2802L64.417 40.5674ZM61.3486 40.5127L60.6255 41.2034L60.7172 41.2994L60.8307 41.3681L61.3486 40.5127ZM53.7705 32.5791L52.9814 33.1934L53.0125 33.2333L53.0474 33.2698L53.7705 32.5791ZM53.1406 29.5107L54.0755 29.8657L54.076 29.8644L53.1406 29.5107ZM56.5693 25.9717L57.0957 26.8219L57.0979 26.8206L56.5693 25.9717ZM63.1641 29.2051L62.6595 30.0685L63.3623 30.4791L63.907 29.8744L63.1641 29.2051ZM65.2236 27.4268L64.5564 26.6819L64.5547 26.6834L65.2236 27.4268ZM70.835 21.7969L70.2724 20.9701L70.27 20.9718L70.835 21.7969ZM72.4668 21.1738H73.4668V20.1125L72.4074 20.1756L72.4668 21.1738ZM63.3105 31.833L63.5769 32.7969L63.8172 32.7305L63.9982 32.5591L63.3105 31.833ZM58.207 27.457L58.4885 26.4975L58.3915 26.469L58.2907 26.4605L58.207 27.457ZM55.0166 30.8613L54.1341 31.3317L54.22 31.4928L54.3572 31.6132L55.0166 30.8613ZM62.749 38.8984L62.6435 39.8929L62.6561 39.8941L62.749 38.8984ZM63.3105 38.8008L63.6651 39.7358L63.8596 39.6621L64.0086 39.5168L63.3105 38.8008ZM75.498 26.9189L76.1961 27.635L76.3089 27.525L76.3824 27.3857L75.498 26.9189ZM75.6758 26.1982L76.6711 26.1015L76.6704 26.0949L75.6758 26.1982ZM72.4424 23.1904H71.4424V24.4062L72.6353 24.1716L72.4424 23.1904ZM72.4424 23.1846H73.4424V20.8602L71.7548 22.4585L72.4424 23.1846ZM36.2422 21.6201L37.2057 21.8878C37.4753 20.9172 38.0946 20.4993 38.8253 20.4038C39.6248 20.2993 40.6155 20.5876 41.4124 21.2351L42.043 20.459L42.6736 19.6829C41.5147 18.7413 39.9869 18.235 38.566 18.4207C37.0763 18.6154 35.7731 19.5727 35.2787 21.3525L36.2422 21.6201ZM42.043 20.459L41.4111 21.2341C43.7576 23.1468 44.2936 26.8558 43.5453 30.994C42.8073 35.0756 40.8891 39.1204 38.9537 41.2598L39.6953 41.9307L40.4369 42.6015C42.676 40.1264 44.7247 35.7121 45.5134 31.3499C46.2919 27.0443 45.9146 22.3247 42.6748 19.6839L42.043 20.459ZM39.6953 41.9307L38.6968 41.9853C38.7394 42.764 39.4207 43.0484 39.6185 43.1191C39.9012 43.2201 40.215 43.2579 40.4572 43.2754C40.9614 43.3118 41.4984 43.2797 41.666 43.2712L41.6152 42.2725L41.5645 41.2738C41.3715 41.2836 40.9609 41.3066 40.6015 41.2806C40.5156 41.2744 40.4427 41.266 40.3842 41.2561C40.3553 41.2513 40.3328 41.2466 40.3161 41.2425C40.299 41.2383 40.2914 41.2357 40.2916 41.2357C40.2919 41.2358 40.2952 41.237 40.301 41.2396C40.3068 41.2421 40.3161 41.2464 40.3282 41.253C40.3508 41.2653 40.3925 41.2905 40.4408 41.3342C40.5484 41.4314 40.6796 41.6165 40.6938 41.876L39.6953 41.9307ZM41.6152 42.2725L41.6541 43.2717C42.7191 43.2302 44.1333 43.0771 45.6652 42.9024C47.2129 42.7259 48.9018 42.5246 50.5661 42.3763C52.232 42.2279 53.8424 42.1355 55.225 42.1722C56.6402 42.2098 57.6864 42.3815 58.3062 42.6752L58.7344 41.7715L59.1625 40.8678C58.1442 40.3853 56.7419 40.2118 55.2781 40.1729C53.7816 40.1332 52.0825 40.2333 50.3886 40.3842C48.6929 40.5353 46.9715 40.7404 45.4385 40.9153C43.8897 41.0919 42.5528 41.2352 41.5763 41.2732L41.6152 42.2725ZM58.7344 41.7715L58.3057 42.6749C60.0827 43.5182 60.8939 45.5126 60.7032 47.6545L61.6992 47.7432L62.6953 47.8319C62.9324 45.1697 61.9456 42.1884 59.1631 40.868L58.7344 41.7715ZM61.6992 47.7432L60.7031 47.6551C60.6679 48.0532 60.5076 48.5227 60.2946 49.1009C60.1964 49.3676 60.0846 49.6658 59.9977 49.946C59.9124 50.2212 59.8287 50.547 59.8136 50.8749L60.8125 50.9209L61.8114 50.9669C61.8148 50.8945 61.8389 50.7611 61.908 50.5383C61.9756 50.3204 62.0648 50.0816 62.1714 49.7922C62.368 49.2583 62.6327 48.5392 62.6953 47.8313L61.6992 47.7432ZM60.8125 50.9209L59.8135 50.8762C59.741 52.4946 60.292 53.9362 60.5542 55.0483C60.826 56.2012 60.9389 57.3866 60.286 59.0363L61.2158 59.4043L62.1456 59.7723C62.99 57.6388 62.8371 56.0157 62.5008 54.5894C62.1549 53.1221 61.7556 52.2137 61.8115 50.9656L60.8125 50.9209ZM61.2158 59.4043L60.2857 59.037C60.1564 59.3644 60.069 59.5329 60.0153 59.6274C59.9858 59.6794 59.9645 59.713 59.9307 59.7682C59.9013 59.8163 59.8486 59.9023 59.8015 60.0076C59.6933 60.2491 59.6624 60.4808 59.6457 60.7066C59.6297 60.9251 59.622 61.2361 59.6116 61.6796L60.6113 61.7031L61.6111 61.7266C61.622 61.2594 61.6288 61.0096 61.6403 60.8536C61.6513 60.7049 61.6611 60.7485 61.6269 60.8248C61.6167 60.8474 61.6094 60.8567 61.636 60.8131C61.6583 60.7768 61.7039 60.7041 61.7547 60.6147C61.8616 60.4264 61.988 60.1715 62.1459 59.7716L61.2158 59.4043ZM60.6113 61.7031L59.6115 61.6826C59.5804 63.204 59.576 64.1252 58.9976 65.2668L59.8896 65.7188L60.7817 66.1707C61.5968 64.562 61.5812 63.1847 61.6111 61.7236L60.6113 61.7031ZM59.8896 65.7188L58.9994 65.2632C58.8771 65.5022 58.5472 65.8675 58.0946 66.3351C57.896 66.5402 57.6741 66.7663 57.4995 66.964C57.4109 67.0642 57.318 67.1754 57.2376 67.289C57.1681 67.3872 57.0554 67.5585 56.9928 67.7715L57.9521 68.0537L58.9115 68.3359C58.8794 68.445 58.8374 68.4905 58.8698 68.4448C58.8912 68.4146 58.9314 68.3639 58.9982 68.2883C59.1342 68.1343 59.3123 67.9527 59.5316 67.7261C59.9148 67.3303 60.4925 66.7359 60.7799 66.1743L59.8896 65.7188ZM57.9521 68.0537L56.9918 67.775C56.8342 68.3178 56.8598 68.938 56.8807 69.379C56.9053 69.8988 56.9307 70.2623 56.8927 70.5616L57.8848 70.6875L58.8768 70.8134C58.9427 70.2938 58.898 69.698 58.8785 69.2844C58.8552 68.792 58.8625 68.5048 58.9125 68.3325L57.9521 68.0537ZM57.8848 70.6875L56.8929 70.56C56.7646 71.5584 56.4633 72.2472 56.0824 72.7398C55.7015 73.2323 55.1953 73.5878 54.5646 73.8485C53.2465 74.3931 51.5449 74.4719 49.6636 74.5537L49.707 75.5527L49.7505 76.5518C51.5242 76.4747 53.618 76.4036 55.3284 75.6968C56.2119 75.3317 57.0282 74.7861 57.6645 73.9632C58.3008 73.1404 58.7115 72.0994 58.8766 70.815L57.8848 70.6875ZM49.707 75.5527L49.6637 74.5537C46.9964 74.6694 44.2657 74.7058 41.5809 74.7797L41.6084 75.7793L41.6359 76.7789C44.2806 76.7061 47.0637 76.6683 49.7504 76.5518L49.707 75.5527ZM41.6084 75.7793L41.5811 74.7797C33.0573 75.0127 27.5041 75.3822 19.799 71.8853L19.3857 72.7959L18.9725 73.7065C27.1583 77.4216 33.1686 77.0104 41.6357 76.7789L41.6084 75.7793ZM19.3857 72.7959L19.7977 71.8847C19.5547 71.7748 19.3948 71.6552 19.3049 71.5622C19.2088 71.4627 19.2329 71.4387 19.242 71.512C19.2472 71.554 19.244 71.6098 19.2234 71.6678C19.2031 71.7249 19.1756 71.7569 19.1663 71.7662C19.1573 71.7752 19.2346 71.698 19.5228 71.632L19.2998 70.6572L19.0768 69.6824C18.5766 69.7968 18.1033 70.0014 17.7533 70.3508C17.3752 70.7283 17.1918 71.2301 17.2572 71.7578C17.3733 72.6959 18.1947 73.3549 18.9738 73.7071L19.3857 72.7959ZM19.2998 70.6572L19.0443 71.624C20.4313 71.9906 21.8488 72.5281 23.3289 73.0827C24.7874 73.6292 26.3062 74.192 27.8102 74.5568L28.0459 73.585L28.2816 72.6131C26.9131 72.2812 25.5042 71.762 24.0306 71.2099C22.5785 70.6658 21.0592 70.0879 19.5553 69.6904L19.2998 70.6572ZM28.0459 73.585L27.8097 74.5567C30.0754 75.1075 33.231 75.111 36.2948 74.9806C37.8431 74.9148 39.4017 74.8126 40.849 74.7197C42.3033 74.6263 43.6385 74.5428 44.7662 74.5113L44.7383 73.5117L44.7104 72.5121C43.5399 72.5448 42.1674 72.6309 40.7209 72.7238C39.2674 72.8171 37.7321 72.9177 36.2098 72.9824C33.1323 73.1133 30.2398 73.0892 28.2821 72.6133L28.0459 73.585ZM44.7383 73.5117L44.7668 74.5113C45.8015 74.4818 46.8725 74.5199 47.9906 74.5499C49.0936 74.5795 50.2358 74.6008 51.3446 74.5271L51.2783 73.5293L51.212 72.5315C50.2062 72.5984 49.1479 72.5803 48.0443 72.5507C46.9559 72.5215 45.8143 72.4806 44.7097 72.5121L44.7383 73.5117ZM51.2783 73.5293L51.3424 74.5272C52.7608 74.4361 54.5495 74.4343 55.874 72.8032L55.0977 72.1729L54.3214 71.5425C53.6413 72.38 52.8392 72.4269 51.2142 72.5314L51.2783 73.5293ZM55.0977 72.1729L55.8739 72.8033C56.7445 71.7314 56.8984 70.7711 56.8826 69.8814C56.8663 68.9727 56.745 68.5309 56.9047 67.8294L55.9297 67.6074L54.9546 67.3854C54.7233 68.4012 54.8736 69.3958 54.8829 69.9171C54.8925 70.4576 54.8259 70.9213 54.3215 71.5424L55.0977 72.1729ZM55.9297 67.6074L56.9052 67.8273C56.903 67.8371 56.9299 67.7456 57.1087 67.5169C57.2741 67.3052 57.4905 67.0722 57.7571 66.7849C58.2283 66.2771 58.9349 65.5331 59.2419 64.7222L58.3066 64.3682L57.3714 64.0142C57.2319 64.3827 56.8478 64.8245 56.2911 65.4245C56.0437 65.6911 55.7617 65.9925 55.5329 66.2852C55.3175 66.5609 55.0541 66.9439 54.9542 67.3876L55.9297 67.6074ZM58.3066 64.3682L59.2423 64.721C59.6694 63.5885 59.6099 62.6093 59.4998 61.815C59.4368 61.3608 59.389 61.1446 59.3471 60.7941C59.312 60.5011 59.3074 60.2786 59.3376 60.0851L58.3496 59.9307L57.3616 59.7763C57.2911 60.2275 57.3162 60.6552 57.3612 61.0315C57.3993 61.3503 57.4817 61.8225 57.5187 62.0897C57.6086 62.7379 57.6284 63.3327 57.371 64.0153L58.3066 64.3682ZM58.3496 59.9307L59.3365 60.0918C59.3277 60.1458 59.2867 60.1402 59.4561 59.9872C59.4972 59.9501 59.6838 59.7902 59.7824 59.6963C59.9128 59.5722 60.0791 59.3965 60.2132 59.1624L59.3457 58.665L58.4782 58.1677C58.4809 58.1628 58.4692 58.1851 58.4035 58.2476C58.306 58.3404 58.2783 58.356 58.1154 58.5031C57.8769 58.7185 57.4693 59.1166 57.3627 59.7695L58.3496 59.9307ZM59.3457 58.665L60.2152 59.1589C61.1501 57.5129 60.8639 55.7067 60.4834 54.2581C60.2987 53.5549 60.0403 52.7669 59.8751 52.1897C59.6916 51.5489 59.5854 51.053 59.582 50.6623L58.582 50.6709L57.5821 50.6795C57.5879 51.3614 57.7636 52.081 57.9523 52.7402C58.1592 53.4628 58.3633 54.0591 58.5491 54.7662C58.9094 56.1382 58.9958 57.2563 58.4762 58.1712L59.3457 58.665ZM58.582 50.6709H59.582C59.582 50.7559 59.5609 50.7404 59.6529 50.5286C59.7326 50.3452 59.839 50.1388 59.9789 49.8567C60.2276 49.3553 60.5862 48.6168 60.6697 47.8653L59.6758 47.7549L58.6819 47.6445C58.6432 47.9932 58.4548 48.4285 58.1872 48.9679C58.069 49.2062 57.9249 49.487 57.8185 49.7318C57.7246 49.9481 57.582 50.3017 57.582 50.6709H58.582ZM59.6758 47.7549L60.6698 47.8642C60.7993 46.6861 60.7026 45.6746 60.3502 44.8311C59.9895 43.968 59.3913 43.3539 58.6567 42.941C57.2686 42.1609 55.4003 42.111 53.7113 42.1715L53.7471 43.1709L53.7829 44.1703C55.5042 44.1086 56.8355 44.2117 57.6768 44.6845C58.0569 44.8982 58.3307 45.1856 58.5048 45.6021C58.687 46.0384 58.7874 46.6847 58.6818 47.6456L59.6758 47.7549ZM53.7471 43.1709L53.7112 42.1715C51.617 42.2467 49.4382 42.5139 47.3204 42.7669C45.1842 43.0222 43.1075 43.2633 41.1404 43.3079L41.1631 44.3076L41.1858 45.3074C43.2646 45.2602 45.4356 45.0063 47.5577 44.7528C49.6982 44.4971 51.7884 44.2418 53.7829 44.1703L53.7471 43.1709ZM41.1631 44.3076L41.1428 43.3078C40.4584 43.3217 39.8672 43.2364 39.4476 43.0342C39.082 42.858 38.8333 42.5941 38.741 42.0968L37.7578 42.2793L36.7746 42.4618C36.9942 43.645 37.6964 44.4105 38.5796 44.836C39.4088 45.2355 40.3643 45.3241 41.1834 45.3074L41.1631 44.3076ZM37.7578 42.2793L38.7413 42.0981C38.6932 41.837 38.8076 41.452 39.2664 40.8004C39.4827 40.4932 39.7238 40.1951 39.9898 39.8551C40.2419 39.5328 40.5179 39.1708 40.7354 38.8002L39.873 38.2939L39.0107 37.7877C38.8676 38.0314 38.6667 38.3004 38.4145 38.6228C38.1762 38.9275 37.8855 39.2877 37.631 39.649C37.1483 40.3347 36.5658 41.328 36.7744 42.4605L37.7578 42.2793ZM39.873 38.2939L40.735 38.801C41.905 36.8119 43.2701 33.1631 43.717 29.6542C43.9409 27.8966 43.9443 26.1015 43.5289 24.5364C43.1089 22.9538 42.2397 21.5457 40.6944 20.7299L40.2275 21.6143L39.7607 22.4986C40.6815 22.9847 41.2761 23.8449 41.5958 25.0495C41.9202 26.2714 41.9393 27.7822 41.733 29.4015C41.3197 32.6463 40.0414 36.0354 39.0111 37.7869L39.873 38.2939ZM40.2275 21.6143L40.6931 20.7292C40.0017 20.3656 39.2551 20.172 38.5506 20.4378C37.841 20.7057 37.496 21.318 37.3191 21.7873C37.139 22.2653 37.0538 22.8059 36.994 23.2298C36.9261 23.7114 36.8908 24.0277 36.8288 24.2593L37.7949 24.5176L38.761 24.7758C38.8641 24.3901 38.922 23.8805 38.9744 23.5091C39.0349 23.08 39.0972 22.7404 39.1906 22.4926C39.2873 22.236 39.3419 22.2769 39.2568 22.309C39.1769 22.3392 39.2798 22.2456 39.762 22.4993L40.2275 21.6143ZM37.7949 24.5176L36.8296 24.2564C36.5569 25.2644 36.2245 26.2806 35.8766 27.3172C35.5316 28.3453 35.1688 29.4013 34.8515 30.4496L35.8086 30.7393L36.7657 31.029C37.0718 30.0176 37.421 29.0017 37.7727 27.9534C38.1216 26.9136 38.4707 25.8488 38.7602 24.7788L37.7949 24.5176ZM35.8086 30.7393L36.5157 30.0322L36.5098 30.0263L35.8027 30.7334L35.0956 31.4405L35.1015 31.4464L35.8086 30.7393ZM35.8027 30.7334L35.2213 29.9198C34.259 30.6076 33.1974 31.2511 32.0952 31.933C31.0087 32.6053 29.8881 33.312 28.8815 34.0942L29.4951 34.8838L30.1087 35.6734C31.0213 34.9643 32.0583 34.3078 33.1476 33.6338C34.2213 32.9694 35.354 32.2833 36.3842 31.547L35.8027 30.7334ZM29.4951 34.8838L28.8799 34.0954C26.9094 35.633 25.2134 37.6692 23.6477 39.7106C22.0529 41.7901 20.6197 43.8361 19.0813 45.5845L19.832 46.2451L20.5828 46.9057C22.1797 45.0908 23.7139 42.9108 25.2348 40.9277C26.7848 38.9066 28.3526 37.0437 30.1103 35.6722L29.4951 34.8838ZM19.832 46.2451L19.335 45.3774C19.2693 45.415 19.2278 45.4237 19.2107 45.4258C19.195 45.4278 19.1878 45.426 19.1822 45.4241C19.1734 45.4212 19.093 45.3899 19.0005 45.223L18.126 45.708L17.2515 46.193C17.5317 46.6984 17.9682 47.1282 18.5512 47.322C19.1499 47.5211 19.7776 47.4287 20.329 47.1129L19.832 46.2451ZM18.126 45.708L19.0932 45.4541C19.127 45.5829 19.0938 45.6526 19.1076 45.6094C19.1197 45.5713 19.152 45.4978 19.2201 45.3849C19.286 45.2759 19.367 45.1596 19.4589 45.0332C19.5385 44.9237 19.6535 44.7706 19.7336 44.6539L18.9092 44.0879L18.0848 43.5219C18.0167 43.6211 17.6961 44.0395 17.5079 44.3514C17.3994 44.5312 17.2805 44.7554 17.2017 45.0029C17.1246 45.2454 17.0608 45.5886 17.1587 45.9619L18.126 45.708ZM18.9092 44.0879L19.7386 44.6466C21.2919 42.3405 24.3315 38.6217 26.2519 36.5322L25.5156 35.8555L24.7793 35.1788C22.8127 37.3187 19.7047 41.117 18.0798 43.5292L18.9092 44.0879ZM25.5156 35.8555L26.2526 36.5313C27.4587 35.2162 28.8192 34.1929 30.2793 33.1887C31.7155 32.2009 33.3008 31.1989 34.797 29.9975L34.1709 29.2178L33.5448 28.438C32.1256 29.5776 30.6668 30.4948 29.1459 31.5408C27.6491 32.5703 26.1396 33.6954 24.7786 35.1796L25.5156 35.8555ZM34.1709 29.2178L35.0771 29.6407C35.6794 28.35 36.0462 26.9779 36.3445 25.6631C36.6515 24.3097 36.8744 23.0817 37.2058 21.8875L36.2422 21.6201L35.2786 21.3527C34.9315 22.6034 34.675 23.9823 34.3941 25.2206C34.1044 26.4976 33.7748 27.7019 33.2647 28.7949L34.1709 29.2178ZM3.64648 44.1182L3.84652 45.0979C4.11896 45.0423 4.77566 44.9896 5.71874 44.9544C6.63076 44.9204 7.73437 44.9048 8.84689 44.9054C11.106 44.9068 13.2882 44.9757 13.9998 45.077L14.1406 44.0869L14.2815 43.0969C13.4034 42.972 11.0719 42.9068 8.8481 42.9054C7.71915 42.9048 6.58895 42.9206 5.64419 42.9558C4.73049 42.9899 3.90741 43.0443 3.44644 43.1384L3.64648 44.1182ZM14.1406 44.0869L13.9996 45.0769C15.2508 45.2551 16.0709 46.4749 16.2067 48.0776L17.2031 47.9932L18.1996 47.9087C18.0298 45.9054 16.8933 43.4688 14.2816 43.0969L14.1406 44.0869ZM17.2031 47.9932L16.2069 48.0797C16.5246 51.7372 16.4041 55.6363 16.2593 59.6155C16.1154 63.5712 15.9472 67.6099 16.1925 71.4476L17.1904 71.3838L18.1884 71.32C17.9508 67.6034 18.1129 63.6751 18.258 59.6882C18.4022 55.7247 18.5294 51.7056 18.1994 47.9066L17.2031 47.9932ZM17.1904 71.3838L16.1954 71.2847C16.0872 72.3714 15.7418 73.0513 15.2701 73.4884C14.7893 73.934 14.0549 74.2406 12.9549 74.3357L13.041 75.332L13.1272 76.3283C14.5021 76.2094 15.7171 75.8009 16.6296 74.9553C17.5512 74.1012 18.043 72.914 18.1855 71.4829L17.1904 71.3838ZM13.041 75.332L12.9544 74.3358C12.0904 74.4109 10.0468 74.4663 8.0258 74.4306C7.01955 74.4128 6.03752 74.3727 5.22547 74.3036C4.36832 74.2307 3.82873 74.134 3.61884 74.052L3.25488 74.9834L2.89093 75.9148C3.40836 76.117 4.22727 76.2259 5.05585 76.2964C5.92953 76.3708 6.96045 76.4121 7.99047 76.4303C10.0421 76.4665 12.1641 76.4121 13.1276 76.3283L13.041 75.332ZM3.25488 74.9834L3.61644 74.051C2.90576 73.7755 2.45587 73.1723 2.02053 72.2157L1.11035 72.6299L0.200172 73.0441C0.693747 74.1287 1.42862 75.3478 2.89333 75.9157L3.25488 74.9834ZM1.11035 72.6299L2.11034 72.6256L1.99999 47.0904L1 47.0947L9.35793e-06 47.099L0.110361 72.6342L1.11035 72.6299ZM1 47.0947L1.99672 47.1757C2.02088 46.8781 2.24401 46.3893 2.67593 45.9065C3.10926 45.4222 3.56579 45.1526 3.83573 45.0989L3.64062 44.1182L3.44552 43.1374C2.57862 43.3098 1.76374 43.9266 1.18541 44.5729C0.605673 45.2209 0.0769085 46.1073 0.00328195 47.0138L1 47.0947ZM3.64062 44.1182V45.1182H3.64648V44.1182V43.1182H3.64062V44.1182ZM13.2549 45.8906L13.3957 44.9006C12.6047 44.7881 10.6875 44.7317 8.86766 44.7316C7.94228 44.7316 7.01505 44.7462 6.23157 44.7778C5.4741 44.8083 4.77878 44.8569 4.36167 44.9403L4.55762 45.9209L4.75357 46.9015C4.99387 46.8535 5.53719 46.8074 6.31219 46.7762C7.06118 46.7459 7.96024 46.7316 8.86759 46.7316C10.7132 46.7317 12.4872 46.7915 13.1141 46.8807L13.2549 45.8906ZM4.55762 45.9209L5.20841 45.1616L5.20157 45.1558L4.55078 45.915L3.89999 46.6743L3.90683 46.6802L4.55762 45.9209ZM4.55078 45.915L4.35563 44.9343C2.81796 45.2402 1.94493 46.5489 1.81424 47.8966L2.80957 47.9932L3.8049 48.0897C3.86978 47.4207 4.25484 46.9935 4.74593 46.8958L4.55078 45.915ZM2.80957 47.9932L1.8121 48.0642C2.07015 51.6865 1.90261 55.547 1.7507 59.4708C1.5998 63.3685 1.4645 67.3271 1.81398 71.0371L2.80957 70.9434L3.80516 70.8496C3.47011 67.2926 3.59758 63.4647 3.7492 59.5482C3.89981 55.658 4.07454 51.6769 3.80704 47.9221L2.80957 47.9932ZM2.80957 70.9434L1.814 71.0374C1.871 71.6408 2.00444 72.3566 2.37914 72.9726C2.78455 73.6392 3.43638 74.1273 4.35968 74.2721L4.51465 73.2842L4.66962 72.2963C4.34609 72.2455 4.19734 72.1133 4.08789 71.9333C3.94774 71.7029 3.85206 71.3461 3.80514 70.8493L2.80957 70.9434ZM4.51465 73.2842L4.35975 74.2721C5.82251 74.5015 7.55417 74.441 9.19189 74.352C10.8782 74.2604 12.4653 74.139 13.8041 74.1973L13.8477 73.1982L13.8912 72.1992C12.4247 72.1353 10.69 72.2677 9.08337 72.355C7.42824 72.4449 5.89607 72.4886 4.66955 72.2962L4.51465 73.2842ZM13.8477 73.1982L14.2762 74.1018C15.1844 73.671 16.1425 72.7611 16.1917 71.4325L15.1924 71.3955L14.1931 71.3585C14.1812 71.6799 13.9286 72.0531 13.4191 72.2947L13.8477 73.1982ZM15.1924 71.3955L16.1924 71.3912L16.0879 47.1998L15.0879 47.2041L14.0879 47.2084L14.1924 71.3998L15.1924 71.3955ZM15.0879 47.2041L16.0048 46.805C15.4931 45.6294 14.5275 45.0543 13.3895 44.8997L13.2549 45.8906L13.1203 46.8815C13.6931 46.9593 13.9859 47.178 14.171 47.6032L15.0879 47.2041ZM64.9844 2L64.5879 2.91806C69.9489 5.23304 75.4329 7.62686 81.2909 8.95287L81.5117 7.97754L81.7325 7.00221C76.0877 5.72449 70.777 3.4121 65.3808 1.08194L64.9844 2ZM81.5117 7.97754L81.2905 8.95277C82.5314 9.2342 83.7674 9.39351 84.9456 9.53638C86.139 9.6811 87.2619 9.80793 88.3543 10.0223L88.5469 9.04102L88.7394 8.05973C87.5582 7.82793 86.3492 7.69194 85.1863 7.55093C84.0082 7.40807 82.8635 7.25873 81.7329 7.00231L81.5117 7.97754ZM88.5469 9.04102L88.3529 10.022C88.7031 10.0913 89.1122 10.2749 89.4387 10.538C89.7695 10.8046 89.9262 11.0767 89.9605 11.2939L90.9482 11.1377L91.936 10.9814C91.7992 10.1169 91.2655 9.44157 90.6936 8.98072C90.1173 8.51635 89.4113 8.19255 88.7408 8.06L88.5469 9.04102ZM90.9482 11.1377L89.9606 11.2943C90.1437 12.4496 90.1761 14.3728 90.1439 16.4192C90.112 18.446 90.0196 20.4937 89.9732 21.8916L90.9727 21.9248L91.9721 21.958C92.0174 20.5932 92.1114 18.5003 92.1437 16.4507C92.1756 14.4207 92.15 12.3317 91.9359 10.9811L90.9482 11.1377ZM90.9727 21.9248L89.9732 21.8915C89.7124 29.7241 88.6005 36.6639 85.7484 42.5277C82.9104 48.3624 78.3184 53.1955 70.9702 56.7758L71.4082 57.6748L71.8462 58.5738C79.5763 54.8074 84.5037 49.6592 87.547 43.4025C90.5761 37.1748 91.7073 29.9128 91.9721 21.9581L90.9727 21.9248ZM71.4082 57.6748L70.968 56.7769C70.3576 57.0762 68.7639 57.8121 67.2132 58.3249C66.4319 58.5833 65.7119 58.768 65.1546 58.8269C64.8754 58.8564 64.6834 58.849 64.5666 58.8274C64.4469 58.8052 64.4913 58.7852 64.5617 58.8652L63.8115 59.5264L63.0613 60.1876C63.3916 60.5623 63.8289 60.7248 64.2027 60.794C64.5794 60.8637 64.9817 60.8563 65.365 60.8158C66.1326 60.7346 67.0106 60.4985 67.8412 60.2238C69.514 59.6705 71.199 58.8911 71.8484 58.5727L71.4082 57.6748ZM63.8115 59.5264V58.5264H63.7988V59.5264V60.5264H63.8115V59.5264ZM63.7988 59.5264L64.5482 58.8642C64.6221 58.9478 64.6271 59.0147 64.6256 59.0028C64.6252 58.9998 64.6241 58.9874 64.6258 58.9655C64.6275 58.9439 64.6316 58.9177 64.6391 58.8887C64.6549 58.8272 64.6793 58.7774 64.6989 58.7487C64.7078 58.7356 64.7112 58.7336 64.7056 58.7388C64.7 58.744 64.6808 58.7608 64.6452 58.7783L64.2021 57.8818L63.7591 56.9853C63.1452 57.2887 62.8255 57.9104 62.702 58.3912C62.5818 58.859 62.5437 59.6163 63.0495 60.1886L63.7988 59.5264ZM64.2021 57.8818L64.6443 58.7788C64.5613 58.8197 64.5 58.7861 64.6963 58.8162C64.7648 58.8267 64.935 58.8568 65.0906 58.8694C65.2649 58.8834 65.4905 58.8842 65.7404 58.8217L65.498 57.8516L65.2557 56.8814C65.2786 56.8756 65.3064 56.8863 64.9993 56.8392C64.7661 56.8035 64.2769 56.7301 63.76 56.9849L64.2021 57.8818ZM65.498 57.8516L65.7395 58.822C71.2343 57.4547 77.8195 52.9272 81.4795 48.7766L80.7295 48.1152L79.9795 47.4538C76.5251 51.3711 70.2745 55.6325 65.2566 56.8812L65.498 57.8516ZM80.7295 48.1152L81.4794 48.7768C90.6619 38.3691 89.6899 27.1837 89.9256 14.726L88.9258 14.707L87.926 14.6881C87.685 27.4239 88.5707 37.7163 79.9796 47.4536L80.7295 48.1152ZM88.9258 14.707L89.9256 14.7244C89.9289 14.5386 89.9566 14.3288 90.0015 14.0641C90.0423 13.8233 90.1051 13.4975 90.145 13.1924C90.2283 12.5553 90.2544 11.7497 89.8436 10.9326L88.9502 11.3818L88.0568 11.831C88.2022 12.1202 88.2252 12.4485 88.1619 12.9331C88.1284 13.1889 88.082 13.4209 88.0296 13.7298C87.9813 14.0148 87.9319 14.3468 87.9259 14.6897L88.9258 14.707ZM88.9502 11.3818L89.7968 10.8497C89.3977 10.2147 88.6713 10.112 88.5121 10.0819L88.3262 11.0645L88.1403 12.047C88.1913 12.0567 88.2248 12.0637 88.2514 12.0706C88.2777 12.0773 88.285 12.0808 88.2806 12.079C88.2758 12.0769 88.2504 12.0657 88.2162 12.0392C88.1798 12.0111 88.1385 11.9697 88.1036 11.914L88.9502 11.3818ZM88.3262 11.0645L88.5223 10.0839C87.3824 9.85591 86.2136 9.70794 85.0809 9.55953C83.9355 9.40945 82.8193 9.25805 81.7209 9.0231L81.5117 10.001L81.3026 10.9789C82.4899 11.2328 83.6808 11.3932 84.8211 11.5426C85.9742 11.6937 87.0698 11.833 88.1301 12.045L88.3262 11.0645ZM81.5117 10.001L81.7218 9.0233C76.0824 7.81141 70.6957 5.65166 65.4085 3.22403L64.9912 4.13281L64.5739 5.0416C69.9093 7.4913 75.4506 9.72131 81.3016 10.9787L81.5117 10.001ZM64.9912 4.13281L64.581 3.22081C57.0731 6.59757 49.3402 9.42204 41.1774 10.1287L41.2637 11.125L41.3499 12.1213C49.8485 11.3855 57.8249 8.45239 65.4014 5.04482L64.9912 4.13281ZM41.2637 11.125L40.8341 10.2219C40.3364 10.4587 40.085 10.8921 39.9591 11.2531C39.8349 11.6095 39.7931 12.0019 39.7813 12.3593C39.7578 13.072 39.8506 13.9369 39.9248 14.6896C40.0041 15.4933 40.0638 16.181 40.0272 16.6931C40.009 16.9488 39.9708 17.0787 39.9488 17.127C39.9369 17.1531 39.9831 17.0489 40.1279 17.0016L40.4385 17.9521L40.749 18.9027C41.2773 18.7301 41.5947 18.3387 41.7691 17.9555C41.9335 17.5945 41.9966 17.1932 42.0222 16.8355C42.0732 16.1209 41.9901 15.2536 41.9151 14.4933C41.8351 13.6823 41.7621 12.9745 41.7803 12.4252C41.7893 12.1515 41.8201 11.9906 41.8477 11.9113C41.8738 11.8366 41.8534 11.9519 41.6932 12.0281L41.2637 11.125ZM40.4385 17.9521L40.1259 17.0023C39.9913 17.0465 39.9676 17.0251 40.0131 17.0352C40.0733 17.0485 40.1171 17.0851 40.1293 17.0996C40.1299 17.1004 40.0973 17.0595 40.059 16.9362C40.0218 16.8165 39.9906 16.6561 39.9697 16.4537C39.9274 16.0451 39.936 15.5646 39.9592 15.0829C39.98 14.652 40.0198 14.1313 40.0145 13.8108L39.0146 13.8271L38.0148 13.8435C38.0186 14.0794 37.9881 14.4358 37.9615 14.9866C37.9374 15.4866 37.9217 16.0927 37.9803 16.6594C38.0345 17.1841 38.169 17.8782 38.6014 18.3902C38.8405 18.6732 39.1681 18.8967 39.5817 18.9881C39.9806 19.0762 40.38 19.0242 40.7511 18.902L40.4385 17.9521ZM39.0146 13.8271L40.0145 13.8086C40.0072 13.4147 39.9581 13.0402 39.9176 12.7299C39.8747 12.4014 39.8418 12.1457 39.8367 11.8994C39.8278 11.4672 39.9034 11.1013 40.2621 10.6764L39.498 10.0312L38.734 9.38612C37.9987 10.257 37.8204 11.1289 37.8371 11.9407C37.8449 12.3163 37.8947 12.6841 37.9344 12.9887C37.9765 13.3114 38.0099 13.5795 38.0148 13.8457L39.0146 13.8271ZM39.498 10.0312L40.2626 10.6758C40.3167 10.6116 40.5608 10.44 41.1674 10.2505C41.7237 10.0767 42.4248 9.93452 43.1896 9.81215C43.9503 9.69044 44.7374 9.59384 45.4659 9.50269C46.176 9.41383 46.8593 9.32697 47.3556 9.22603L47.1562 8.24609L46.9569 7.26616C46.5517 7.34857 45.9539 7.42603 45.2176 7.51816C44.4997 7.60799 43.6752 7.70902 42.8736 7.83727C42.0761 7.96486 41.2642 8.12494 40.5711 8.34147C39.9284 8.54224 39.1868 8.84892 38.7335 9.38673L39.498 10.0312ZM47.1562 8.24609L47.3544 9.22626C53.7007 7.94326 59.5821 5.32772 65.3681 2.92345L64.9844 2L64.6007 1.07655C58.7376 3.51284 53.0676 6.03079 46.9581 7.26592L47.1562 8.24609ZM64.9941 9.08398L64.5796 9.994C69.5851 12.2743 74.4816 13.9892 79.9323 15.0707L80.127 14.0898L80.3216 13.109C75.0523 12.0635 70.3043 10.4042 65.4087 8.17396L64.9941 9.08398ZM80.127 14.0898L79.9314 15.0705C80.4621 15.1763 81.0289 15.2212 81.4967 15.2657C81.9958 15.3132 82.401 15.3614 82.7423 15.4561C83.0738 15.548 83.2697 15.6646 83.3945 15.7985C83.5103 15.9228 83.6438 16.1464 83.6919 16.6077L84.6865 16.5039L85.6811 16.4001C85.5978 15.6024 85.3294 14.9413 84.8579 14.4352C84.3953 13.9387 83.8185 13.679 83.2767 13.5288C82.7447 13.3813 82.1762 13.3214 81.6862 13.2747C81.1647 13.2251 80.727 13.1898 80.3225 13.1091L80.127 14.0898ZM84.6865 16.5039L83.6921 16.6094C84.083 20.293 83.6443 26.6589 83.1989 30.5453L84.1924 30.6592L85.1859 30.773C85.6328 26.8727 86.0968 20.318 85.6809 16.3984L84.6865 16.5039ZM84.1924 30.6592L83.1988 30.5461C82.1916 39.399 77.1594 46.6167 69.1041 50.4005L69.5293 51.3057L69.9545 52.2108C78.6582 48.1223 84.1029 40.292 85.186 30.7722L84.1924 30.6592ZM69.5293 51.3057L69.1032 50.401C68.6291 50.6243 67.0627 51.3386 65.7511 51.6497C65.4295 51.726 65.1496 51.7714 64.9226 51.7842C64.6832 51.7976 64.5717 51.7705 64.5453 51.7606C64.5397 51.7584 64.5684 51.7683 64.6074 51.8051C64.6499 51.8451 64.6805 51.8945 64.6965 51.9394C64.723 52.014 64.676 51.9751 64.754 51.7142L63.7959 51.4277L62.8378 51.1413C62.6988 51.6062 62.6387 52.1217 62.812 52.6093C63.0023 53.1448 63.4089 53.4694 63.8394 53.6318C64.2358 53.7814 64.6632 53.8019 65.035 53.781C65.4191 53.7594 65.8225 53.6883 66.2127 53.5957C67.7479 53.2316 69.4821 52.4332 69.9554 52.2104L69.5293 51.3057ZM63.7959 51.4277L64.7538 51.7148C64.6847 51.9455 64.5301 51.9817 64.6616 51.9132C64.7657 51.859 64.943 51.7962 65.2073 51.7278C65.4666 51.6607 65.7398 51.605 66.0391 51.5402C66.3139 51.4807 66.6348 51.4087 66.9026 51.3146L66.5713 50.3711L66.24 49.4276C66.1075 49.4741 65.9058 49.5227 65.6158 49.5855C65.3502 49.643 65.0163 49.7113 64.7063 49.7915C64.4014 49.8705 64.0472 49.9782 63.7376 50.1395C63.4555 50.2864 63.0051 50.5831 62.838 51.1407L63.7959 51.4277ZM66.5713 50.3711L66.9023 51.3147C70.1999 50.158 73.8492 47.8443 76.3076 45.3732L75.5986 44.668L74.8897 43.9627C72.6418 46.2222 69.2502 48.3716 66.2403 49.4275L66.5713 50.3711ZM75.5986 44.668L76.3057 43.9609L76.2999 43.955L75.5928 44.6621L74.8857 45.3692L74.8915 45.3751L75.5986 44.668ZM75.5928 44.6621L76.3018 45.3673C84.4232 37.201 83.7057 26.584 83.6152 16.4218L82.6152 16.4307L81.6153 16.4396C81.7082 26.8746 82.2987 36.501 74.8837 43.957L75.5928 44.6621ZM82.6152 16.4307L82.7086 15.435C76.6128 14.8636 70.9335 12.7239 65.1983 10.3541L64.8164 11.2783L64.4345 12.2025C70.1777 14.5756 76.1003 16.8243 82.5219 17.4263L82.6152 16.4307ZM64.8164 11.2783L64.4444 10.3501C61.4151 11.5643 58.6074 12.8854 55.5962 13.7594L55.875 14.7197L56.1538 15.6801C59.291 14.7695 62.3016 13.3637 65.1885 12.2065L64.8164 11.2783ZM55.875 14.7197L55.5948 13.7598C52.8498 14.5612 50.0627 14.974 47.1416 15.5345L47.3301 16.5166L47.5185 17.4987C50.3305 16.9591 53.2895 16.5163 56.1552 15.6797L55.875 14.7197ZM47.3301 16.5166L46.6801 15.7566C46.3115 16.0719 46.1603 16.4783 46.1097 16.8268C46.0619 17.1566 46.0964 17.4783 46.1364 17.7248C46.1762 17.9706 46.2383 18.2322 46.2771 18.4097C46.323 18.6196 46.3411 18.7323 46.3435 18.7968L47.3428 18.7598L48.3421 18.7228C48.3323 18.4573 48.2747 18.1827 48.231 17.9827C48.1802 17.7504 48.1389 17.5795 48.1106 17.4051C48.0825 17.2314 48.0845 17.1451 48.089 17.1139C48.0909 17.1013 48.077 17.1937 47.98 17.2766L47.3301 16.5166ZM47.3428 18.7598L46.3433 18.7911C46.3668 19.5411 46.3522 20.299 46.3383 21.0889C46.3246 21.8698 46.3117 22.6807 46.3435 23.4923L47.3428 23.4531L48.342 23.4139C48.3127 22.6672 48.3242 21.9106 48.338 21.124C48.3517 20.3464 48.3676 19.5368 48.3423 18.7284L47.3428 18.7598ZM47.3428 23.4531L46.8104 22.6066C46.5232 22.7872 46.3479 22.8512 46.2634 22.8692C46.1961 22.8835 46.2675 22.854 46.3752 22.9181C46.4676 22.9731 46.4586 23.0228 46.4154 22.9122C46.3717 22.8004 46.3247 22.6035 46.2969 22.2896L45.3008 22.3779L44.3047 22.4662C44.3411 22.8766 44.4126 23.2823 44.5528 23.6407C44.6934 24.0002 44.9336 24.3874 45.3517 24.6364C46.2214 25.1544 47.1842 24.7342 47.8752 24.2996L47.3428 23.4531ZM45.3008 22.3779L46.2969 22.2897C46.2363 21.6062 46.1922 20.3867 46.1892 19.1679C46.1861 17.93 46.2262 16.7928 46.3132 16.2366L45.3252 16.082L44.3372 15.9275C44.2225 16.6609 44.1862 17.9474 44.1892 19.1729C44.1923 20.4175 44.2369 21.7012 44.3047 22.4662L45.3008 22.3779ZM45.3252 16.082L46.313 16.2378C46.3348 16.0997 46.4215 15.9247 46.7713 15.7188C47.1362 15.504 47.6719 15.3298 48.3442 15.1905C49.0055 15.0535 49.7224 14.9648 50.4213 14.8831C51.0908 14.8048 51.7889 14.7289 52.3149 14.6151L52.1035 13.6377L51.8921 12.6603C51.4859 12.7482 50.9127 12.812 50.1891 12.8966C49.4948 12.9778 48.6967 13.075 47.9385 13.2321C47.1913 13.3869 46.403 13.6148 45.7567 13.9953C45.0954 14.3846 44.4838 14.998 44.3374 15.9263L45.3252 16.082ZM52.1035 13.6377L52.3158 14.6149C56.951 13.6078 61.1564 11.7009 65.3664 10.0121L64.9941 9.08398L64.6218 8.15587C60.2995 9.88977 56.3141 11.6995 51.8912 12.6605L52.1035 13.6377ZM72.4668 21.1797L72.5206 22.1782C72.4972 22.1795 72.5402 22.1737 72.6723 22.22C72.7965 22.2636 72.9566 22.338 73.15 22.449C73.5375 22.6712 73.9856 22.9974 74.4389 23.3748C75.3672 24.1476 76.1618 25.0033 76.4086 25.3814L77.2461 24.835L78.0836 24.2885C77.6762 23.6642 76.7047 22.6587 75.7185 21.8377C75.2146 21.4182 74.6685 21.0143 74.1451 20.7141C73.6695 20.4412 73.0359 20.1476 72.413 20.1811L72.4668 21.1797ZM77.2461 24.835L76.4073 25.3794C76.7925 25.9729 76.8115 26.7186 76.4562 27.3827L77.3379 27.8545L78.2196 28.3262C78.8911 27.0712 78.8977 25.5429 78.0849 24.2906L77.2461 24.835ZM77.3379 27.8545L76.6365 27.1417L63.7156 39.8546L64.417 40.5674L65.1183 41.2802L78.0392 28.5673L77.3379 27.8545ZM64.417 40.5674L63.8746 39.7273C63.3733 40.0509 62.5005 40.0411 61.8665 39.6573L61.3486 40.5127L60.8307 41.3681C61.9935 42.0721 63.7004 42.2204 64.9594 41.4075L64.417 40.5674ZM61.3486 40.5127L62.0718 39.822L54.4936 31.8884L53.7705 32.5791L53.0474 33.2698L60.6255 41.2034L61.3486 40.5127ZM53.7705 32.5791L54.5596 31.9648C53.9768 31.2162 53.8092 30.5672 54.0755 29.8657L53.1406 29.5107L52.2057 29.1558C51.6043 30.7401 52.1463 32.1207 52.9814 33.1934L53.7705 32.5791ZM53.1406 29.5107L54.076 29.8644C54.0417 29.9553 54.0177 29.9639 54.1168 29.8338C54.1907 29.7367 54.2979 29.6075 54.4355 29.4509C54.709 29.1395 55.0694 28.7571 55.4465 28.3736C55.8228 27.991 56.2068 27.6162 56.5246 27.3206C56.6839 27.1725 56.8219 27.0486 56.9312 26.9554C57.0546 26.8502 57.1025 26.8177 57.0957 26.8219L56.5693 25.9717L56.043 25.1214C55.8147 25.2628 55.4728 25.5676 55.1627 25.856C54.8191 26.1755 54.4135 26.5716 54.0205 26.9713C53.6282 27.3702 53.2396 27.7817 52.9327 28.1311C52.78 28.305 52.6392 28.473 52.5258 28.6218C52.4375 28.7377 52.287 28.9409 52.2052 29.1571L53.1406 29.5107ZM56.5693 25.9717L57.0979 26.8206C57.6575 26.4721 58.051 26.4435 58.3553 26.5054C58.7006 26.5756 59.0783 26.7929 59.5326 27.1891C59.996 27.5933 60.4203 28.0715 60.9425 28.6149C61.4298 29.122 62.0027 29.6847 62.6595 30.0685L63.1641 29.2051L63.6686 28.3417C63.2742 28.1112 62.8677 27.7318 62.3845 27.2291C61.9363 26.7626 61.3991 26.1632 60.8471 25.6818C60.2861 25.1926 59.5946 24.7165 58.754 24.5455C57.8724 24.3662 56.9633 24.5483 56.0408 25.1228L56.5693 25.9717ZM63.1641 29.2051L63.907 29.8744C64.1562 29.5978 64.4509 29.3457 64.7964 29.0686C65.1234 28.8065 65.5282 28.498 65.8925 28.1701L65.2236 27.4268L64.5547 26.6834C64.2468 26.9605 63.9274 27.2019 63.5454 27.5082C63.182 27.7995 62.783 28.134 62.4211 28.5357L63.1641 29.2051ZM65.2236 27.4268L65.8908 28.1716C66.7893 27.3669 67.8211 26.1904 68.7724 25.1486C69.7682 24.058 70.669 23.1225 71.4 22.622L70.835 21.7969L70.27 20.9718C69.314 21.6264 68.2588 22.7449 67.2954 23.8C66.2875 24.9039 65.3571 25.9647 64.5564 26.6819L65.2236 27.4268ZM70.835 21.7969L71.3975 22.6236C71.7495 22.3842 72.2547 22.1882 72.5262 22.1721L72.4668 21.1738L72.4074 20.1756C71.6523 20.2205 70.8006 20.6107 70.2724 20.9701L70.835 21.7969ZM72.4668 21.1738H71.4668V21.1797H72.4668H73.4668V21.1738H72.4668ZM63.3105 31.833L63.0442 30.8691C63.1802 30.8315 63.2459 30.8799 63.1751 30.8488C63.1038 30.8176 62.9798 30.7423 62.7993 30.5911C62.4372 30.2878 62.0171 29.8259 61.5426 29.2771C61.0917 28.7556 60.5875 28.1505 60.1211 27.6672C59.8845 27.422 59.6353 27.1841 59.3827 26.9871C59.1403 26.798 58.8357 26.5993 58.4885 26.4975L58.207 27.457L57.9256 28.4166C57.9221 28.4156 57.9942 28.4405 58.1527 28.5642C58.3011 28.6799 58.4772 28.8438 58.6819 29.0559C59.0979 29.4871 59.5395 30.0183 60.0298 30.5853C60.4966 31.1251 61.0132 31.704 61.5151 32.1244C61.7668 32.3351 62.0566 32.5424 62.3726 32.6808C62.689 32.8194 63.1154 32.9244 63.5769 32.7969L63.3105 31.833ZM58.207 27.457L58.2907 26.4605C58.0882 26.4435 57.9288 26.4916 57.8777 26.5074C57.8046 26.5301 57.7427 26.5569 57.7001 26.5769C57.6134 26.6174 57.5286 26.6661 57.4557 26.7107C57.3059 26.8024 57.1295 26.9242 56.9444 27.0608C56.5713 27.3361 56.1123 27.7087 55.6757 28.1096C55.2466 28.5036 54.8012 28.9591 54.4844 29.3991C54.3284 29.6157 54.1688 29.8757 54.0725 30.1572C53.9809 30.4249 53.8923 30.878 54.1341 31.3317L55.0166 30.8613L55.8991 30.391C56.0326 30.6415 55.9544 30.8352 55.9649 30.8045C55.9706 30.7876 56.0049 30.7102 56.1073 30.5679C56.3075 30.2899 56.6382 29.9411 57.0283 29.5829C57.411 29.2315 57.8147 28.9041 58.1318 28.6701C58.2918 28.5521 58.4174 28.467 58.4995 28.4167C58.5427 28.3903 58.5563 28.3843 58.5472 28.3886C58.5434 28.3904 58.5151 28.4037 58.4699 28.4177C58.4468 28.4249 58.3096 28.4692 58.1233 28.4535L58.207 27.457ZM55.0166 30.8613L54.3572 31.6132C54.588 31.8155 55.1173 32.3837 55.8507 33.1975C56.2066 33.5924 56.5976 34.0302 57.007 34.4885C57.4157 34.946 57.8421 35.4231 58.2663 35.8934C59.1118 36.831 59.9596 37.7542 60.6511 38.4516C60.995 38.7984 61.3161 39.1055 61.5877 39.3344C61.7222 39.4477 61.8632 39.5578 62.0014 39.6465C62.1008 39.7104 62.3416 39.8608 62.6436 39.8929L62.749 38.8984L62.8545 37.904C63.0556 37.9253 63.1567 38.0115 63.0822 37.9637C63.0465 37.9407 62.9794 37.8917 62.8764 37.8049C62.6728 37.6334 62.4008 37.3757 62.0713 37.0434C61.4159 36.3824 60.5954 35.4897 59.7515 34.554C59.3309 34.0876 58.9074 33.6138 58.4985 33.156C58.0902 32.699 57.6959 32.2574 57.3363 31.8585C56.6389 31.0846 56.0167 30.4083 55.676 30.1095L55.0166 30.8613ZM62.749 38.8984L62.6561 39.8941C63.0723 39.933 63.4289 39.8254 63.6651 39.7358L63.3105 38.8008L62.956 37.8657C62.9009 37.8866 62.8662 37.896 62.8452 37.9001C62.8258 37.9039 62.827 37.9014 62.842 37.9028L62.749 38.8984ZM63.3105 38.8008L64.0086 39.5168L76.1961 27.635L75.498 26.9189L74.8 26.2029L62.6125 38.0848L63.3105 38.8008ZM75.498 26.9189L76.3824 27.3857C76.5384 27.0903 76.7227 26.6331 76.6711 26.1015L75.6758 26.1982L74.6805 26.2949C74.6785 26.275 74.683 26.2767 74.6745 26.3079C74.6658 26.3401 74.6475 26.3881 74.6137 26.4522L75.498 26.9189ZM75.6758 26.1982L76.6704 26.0949C76.649 25.8885 76.5738 25.7239 76.534 25.6433C76.4855 25.5451 76.4286 25.4529 76.3752 25.3731C76.2677 25.2126 76.1315 25.0395 75.987 24.8689C75.6953 24.5245 75.317 24.1282 74.93 23.7572C74.5448 23.3879 74.1283 23.0219 73.7585 22.7475C73.5763 22.6123 73.3795 22.4799 73.1871 22.3811C73.0911 22.3318 72.9718 22.2781 72.8387 22.2402C72.7188 22.2061 72.5025 22.1595 72.2495 22.2092L72.4424 23.1904L72.6353 24.1716C72.448 24.2085 72.3141 24.1703 72.291 24.1638C72.2546 24.1534 72.2464 24.1463 72.2735 24.1602C72.3274 24.1879 72.425 24.2485 72.5668 24.3537C72.8448 24.56 73.1947 24.8642 73.546 25.201C73.8955 25.536 74.2238 25.8816 74.4608 26.1615C74.5807 26.303 74.6643 26.4126 74.7136 26.4862C74.7385 26.5234 74.7443 26.5361 74.7404 26.5283C74.7381 26.5236 74.7289 26.5047 74.7183 26.4739C74.7086 26.4458 74.6898 26.3853 74.6811 26.3016L75.6758 26.1982ZM72.4424 23.1904H73.4424V23.1846H72.4424H71.4424V23.1904H72.4424ZM72.4424 23.1846L71.7548 22.4585L62.6229 31.1069L63.3105 31.833L63.9982 32.5591L73.13 23.9106L72.4424 23.1846Z" fill="url(#paint1_linear_2053_2230)" mask="url(#path-1-outside-1_2053_2230)"/>
<defs>
<linearGradient id="paint0_linear_2053_2230" x1="46.0775" y1="2" x2="62.5267" y2="39.406" gradientUnits="userSpaceOnUse">
<stop stop-color="#FCD30B"/>
<stop offset="1" stop-color="#2269FF"/>
</linearGradient>
<linearGradient id="paint1_linear_2053_2230" x1="46.0775" y1="2" x2="46.0775" y2="75.9204" gradientUnits="userSpaceOnUse">
<stop stop-color="#FCD30B"/>
<stop offset="1" stop-color="#046FE1"/>
</linearGradient>
</defs>
</svg>
