<svg width="64" height="87" viewBox="0 0 64 87" fill="none" xmlns="http://www.w3.org/2000/svg">
<path d="M64 4.02913V75.4877C62.2212 81.5002 55.5386 78.9564 50.8714 79.5461C50.7412 79.6212 49.6519 81.9215 49.595 82.198C49.2759 83.7474 50.1727 85.903 48.6396 87H23.5872C21.9128 85.9762 23.0443 83.7016 22.5749 82.0716L12.2135 66.7518C9.7855 66.7518 7.22176 67.0759 6.44236 64.2024L6.39101 9.41169C6.44603 7.83667 7.8306 6.45211 9.40772 6.39533L55.0874 6.44662C56.1731 6.62976 57.3706 7.81469 57.5558 8.91354C57.8089 10.4208 57.752 14.7613 57.609 16.3711C57.3999 18.7281 54.8564 17.796 54.8564 16.9114V9.41902L54.5813 9.1443H9.41506L9.13998 9.41902V63.6988C9.60761 64.1969 10.4915 63.9277 11.1334 63.9534C11.4048 59.4938 16.072 57.5598 19.747 59.7685V41.5843C19.747 41.4525 20.0698 40.3939 20.1523 40.1631C20.5668 39.0112 21.6634 37.6449 22.8554 37.2878C16.9376 32.0774 15.9913 23.1822 21.205 17.0909C27.9371 9.22489 40.7118 11.0087 44.9553 20.4112C49.6225 30.7533 41.1042 41.9671 29.9873 40.3976L30.1707 49.899C32.9509 48.7342 35.1937 49.6719 37.0257 51.8788C39.8223 49.6316 44.1741 51.2231 44.9883 54.6479C47.5117 53.6021 50.3267 54.0582 51.9002 56.4189C52.1973 56.8657 52.8446 58.4792 52.8446 58.9462V63.9717L54.5556 63.946L54.8564 63.5156L54.8472 21.8397C54.9334 20.2171 57.521 20.2171 57.6053 21.8397L57.598 63.8819C57.2257 66.3269 55.0709 67.01 52.8428 66.7133C52.8666 70.0758 52.9326 73.4529 52.2945 76.766H59.3347C59.9435 76.766 61.0823 75.7752 61.13 75.0884V4.42838C60.8366 3.29473 59.916 2.80391 58.7937 2.74164H5.20267C3.59804 2.88266 2.8755 3.60241 2.73429 5.20857L2.78564 74.8027C2.99837 75.9327 3.73741 76.581 4.86157 76.7495L17.4254 76.8026C18.7531 77.4949 18.5679 79.2109 17.1063 79.5168C13.0901 79.0882 7.88561 80.0937 4.01249 79.4252C2.19697 79.1121 0.394281 77.3136 0.08069 75.4968L0 4.48699C0.240236 2.1098 2.41887 0.0366285 4.8359 0L59.518 0.00915712C61.7499 0.256399 63.3582 1.95596 64 4.0273V4.02913ZM40.1634 18.3472C29.9195 7.88245 13.6641 23.0009 23.4936 34.0022C33.6807 45.4047 50.9356 29.3504 40.1634 18.3472ZM25.4155 81.427V84.2602H46.6278C46.0722 80.4801 49.5253 77.841 49.8976 74.2771C50.3964 69.4934 49.5638 63.9845 49.9288 59.1221C49.8921 56.7668 46.6645 56.0434 45.555 58.0598C45.0397 58.9975 45.4762 60.4773 44.1448 60.6751C41.2253 61.111 43.1013 56.3566 42.056 54.7431C41.0914 53.2542 38.8229 53.2706 37.9958 54.8896C37.5062 55.8511 37.8986 57.6368 36.1803 57.4829C34.462 57.3291 35.0616 55.5489 34.9076 54.3933C34.5647 51.8293 31.15 51.4227 30.3083 53.7853C30.0992 54.3713 30.1927 55.3347 29.6719 55.7559C28.8265 56.4408 27.5593 56.0123 27.4163 54.9336C26.8991 51.018 27.8821 45.9724 27.4053 41.9689C27.0568 39.0405 23.5266 38.5387 22.6831 41.4122C22.1934 48.1756 23.2919 55.7614 22.6812 62.4278C22.5877 63.4479 22.1072 64.3141 20.9501 64.1511C20.3504 64.0669 19.3088 62.7062 18.5935 62.2904C16.1582 60.882 13.3267 61.8619 14.2895 64.9478L25.4155 81.4251V81.427Z" fill="url(#paint0_linear_2053_2155)"/>
<defs>
<linearGradient id="paint0_linear_2053_2155" x1="32" y1="0" x2="57.01" y2="34.304" gradientUnits="userSpaceOnUse">
<stop stop-color="#FCD30B"/>
<stop offset="1" stop-color="#2269FF"/>
</linearGradient>
</defs>
</svg>
