<svg width="337" height="79" viewBox="0 0 337 79" fill="none" xmlns="http://www.w3.org/2000/svg">
<path d="M25.72 29L20.72 11.68L20.08 9.08L19.44 11.68L14.48 29H8.36L0.08 1.8H5.84L11 20.96L11.64 23.72L12.28 20.96L17.76 1.8H22.76L28.16 20.96L28.84 23.8L29.44 20.96L34.6 1.8H40.04L31.8 29H25.72ZM61.4278 22C60.2678 26.96 56.4278 29.6 51.3078 29.6C44.8278 29.6 40.8678 25.32 40.8678 18.32C40.8678 11.04 44.8678 6.96 51.1078 6.96C57.3878 6.96 61.2678 11.2 61.2678 18.12V19.32H46.1478C46.3878 23.24 48.1878 25.4 51.3078 25.4C53.7078 25.4 55.3478 24.28 56.0278 22H61.4278ZM51.1078 11.16C48.3878 11.16 46.7478 12.88 46.2678 16.12H55.9078C55.4278 12.92 53.7878 11.16 51.1078 11.16ZM65.11 29V0.199999H70.23V29H65.11ZM93.4747 15.16H88.3547C87.8747 12.36 86.1947 11.2 84.0347 11.2C80.8747 11.2 79.1947 13.72 79.1947 18.32C79.1947 22.84 80.9547 25.36 84.1947 25.36C86.3947 25.36 87.9547 24.16 88.4747 21.72H93.6347C92.6747 27.08 88.9147 29.6 84.0747 29.6C77.7547 29.6 73.9147 25.28 73.9147 18.32C73.9147 11.04 77.8747 6.96 84.0347 6.96C88.9147 6.96 92.7547 9.68 93.4747 15.16ZM106.46 29.6C100.1 29.6 96.1803 25.32 96.1803 18.32C96.1803 11.04 100.22 6.96 106.46 6.96C112.78 6.96 116.7 11.28 116.7 18.32C116.7 25.52 112.66 29.6 106.46 29.6ZM106.46 25.36C109.7 25.36 111.42 22.88 111.42 18.32C111.42 13.76 109.66 11.2 106.46 11.2C103.18 11.2 101.46 13.72 101.46 18.32C101.46 22.84 103.22 25.36 106.46 25.36ZM120.423 29V7.56H125.543V10.32C126.903 8.08 128.983 6.96 131.503 6.96C134.223 6.96 136.343 8.16 137.423 10.6C138.863 8.16 141.143 6.96 143.903 6.96C148.023 6.96 150.823 9.52 150.823 14.72V29H145.703V15.76C145.703 12.84 144.623 11.2 142.343 11.2C139.783 11.2 138.183 13.68 138.183 16.56V29H133.063V15.76C133.063 12.84 131.983 11.2 129.703 11.2C127.143 11.2 125.543 13.68 125.543 16.56V29H120.423ZM175.1 22C173.94 26.96 170.1 29.6 164.98 29.6C158.5 29.6 154.54 25.32 154.54 18.32C154.54 11.04 158.54 6.96 164.78 6.96C171.06 6.96 174.94 11.2 174.94 18.12V19.32H159.82C160.06 23.24 161.86 25.4 164.98 25.4C167.38 25.4 169.02 24.28 169.7 22H175.1ZM164.78 11.16C162.06 11.16 160.42 12.88 159.94 16.12H169.58C169.1 12.92 167.46 11.16 164.78 11.16ZM187.157 22.32V11.52H184.397V7.56H187.157V2.64H192.277V7.56H196.797V11.52H192.277V21.88C192.277 24.12 192.917 25.32 195.757 25.32H196.717V29.08C196.157 29.36 194.997 29.6 193.597 29.6C189.237 29.6 187.157 27.12 187.157 22.32ZM209.078 29.6C202.717 29.6 198.798 25.32 198.798 18.32C198.798 11.04 202.838 6.96 209.078 6.96C215.398 6.96 219.318 11.28 219.318 18.32C219.318 25.52 215.278 29.6 209.078 29.6ZM209.078 25.36C212.318 25.36 214.038 22.88 214.038 18.32C214.038 13.76 212.278 11.2 209.078 11.2C205.798 11.2 204.078 13.72 204.078 18.32C204.078 22.84 205.838 25.36 209.078 25.36ZM19.92 64.16H14.8C14.32 61.36 12.64 60.2 10.48 60.2C7.32 60.2 5.64 62.72 5.64 67.32C5.64 71.84 7.4 74.36 10.64 74.36C12.84 74.36 14.4 73.16 14.92 70.72H20.08C19.12 76.08 15.36 78.6 10.52 78.6C4.2 78.6 0.36 74.28 0.36 67.32C0.36 60.04 4.32 55.96 10.48 55.96C15.36 55.96 19.2 58.68 19.92 64.16ZM28.5856 63.6H23.4256C24.1056 58.84 27.5856 55.96 32.9856 55.96C38.9456 55.96 41.9856 59.48 41.9856 64.44V72.76C41.9856 75.4 42.2256 76.88 42.6256 78H37.3056C37.0256 77.28 36.9056 76.24 36.8656 75.08C35.1056 77.56 32.4656 78.6 29.9056 78.6C25.7056 78.6 22.7056 76.52 22.7056 72.4C22.7056 69.48 24.3456 67.28 27.6256 66.2C30.4656 65.24 33.2256 65 36.8256 64.96V64.44C36.8256 61.68 35.5056 60.2 32.6656 60.2C30.2256 60.2 28.9056 61.56 28.5856 63.6ZM27.8656 72.12C27.8656 73.76 29.1456 74.8 31.2256 74.8C34.3856 74.8 36.8256 72.24 36.8256 69.04V68.12C29.5456 68.24 27.8656 69.96 27.8656 72.12ZM46.8678 78V56.56H51.9878V59.68C53.3878 57.12 55.5478 55.96 57.8678 55.96C58.7478 55.96 59.5478 56.2 59.9478 56.56V61C59.2678 60.8 58.5078 60.72 57.5878 60.72C53.7078 60.72 51.9878 63.04 51.9878 66.6V78H46.8678ZM81.8184 71C80.6584 75.96 76.8184 78.6 71.6984 78.6C65.2184 78.6 61.2584 74.32 61.2584 67.32C61.2584 60.04 65.2584 55.96 71.4984 55.96C77.7784 55.96 81.6584 60.2 81.6584 67.12V68.32H66.5384C66.7784 72.24 68.5784 74.4 71.6984 74.4C74.0984 74.4 75.7384 73.28 76.4184 71H81.8184ZM71.4984 60.16C68.7784 60.16 67.1384 61.88 66.6584 65.12H76.2984C75.8184 61.92 74.1784 60.16 71.4984 60.16ZM105.061 71C103.901 75.96 100.061 78.6 94.9406 78.6C88.4606 78.6 84.5006 74.32 84.5006 67.32C84.5006 60.04 88.5006 55.96 94.7406 55.96C101.021 55.96 104.901 60.2 104.901 67.12V68.32H89.7806C90.0206 72.24 91.8206 74.4 94.9406 74.4C97.3406 74.4 98.9806 73.28 99.6606 71H105.061ZM94.7406 60.16C92.0206 60.16 90.3806 61.88 89.9006 65.12H99.5406C99.0606 61.92 97.4206 60.16 94.7406 60.16ZM108.743 78V56.56H113.863V59.68C115.263 57.12 117.423 55.96 119.743 55.96C120.623 55.96 121.423 56.2 121.823 56.56V61C121.143 60.8 120.383 60.72 119.463 60.72C115.583 60.72 113.863 63.04 113.863 66.6V78H108.743ZM128.804 62.32C128.804 67.24 142.324 63.08 142.324 71.68C142.324 75.8 138.524 78.6 133.164 78.6C127.884 78.6 124.084 76.16 123.324 71H128.444C128.804 73.32 130.644 74.64 133.324 74.64C135.844 74.64 137.164 73.56 137.164 72C137.164 67.2 123.924 71.32 123.924 62.64C123.924 59.16 126.644 55.96 132.244 55.96C137.164 55.96 140.884 58.28 141.524 63.6H136.404C136.004 61 134.484 59.96 132.044 59.96C130.004 59.96 128.804 60.96 128.804 62.32ZM158.468 63.6H153.308C153.988 58.84 157.468 55.96 162.868 55.96C168.828 55.96 171.868 59.48 171.868 64.44V72.76C171.868 75.4 172.108 76.88 172.508 78H167.188C166.908 77.28 166.788 76.24 166.748 75.08C164.988 77.56 162.348 78.6 159.788 78.6C155.588 78.6 152.588 76.52 152.588 72.4C152.588 69.48 154.228 67.28 157.508 66.2C160.348 65.24 163.108 65 166.708 64.96V64.44C166.708 61.68 165.388 60.2 162.548 60.2C160.108 60.2 158.788 61.56 158.468 63.6ZM157.748 72.12C157.748 73.76 159.028 74.8 161.108 74.8C164.268 74.8 166.708 72.24 166.708 69.04V68.12C159.428 68.24 157.748 69.96 157.748 72.12ZM177.431 71.32V60.52H174.671V56.56H177.431V51.64H182.551V56.56H187.071V60.52H182.551V70.88C182.551 73.12 183.191 74.32 186.031 74.32H186.991V78.08C186.431 78.36 185.271 78.6 183.871 78.6C179.511 78.6 177.431 76.12 177.431 71.32ZM215.835 78L213.755 72.36H202.155L200.075 78H194.675L204.915 50.8H211.275L221.515 78H215.835ZM207.155 58.88L203.715 68.2H212.195L208.755 58.88L207.955 56.08L207.155 58.88ZM242.342 64.16H237.222C236.742 61.36 235.062 60.2 232.902 60.2C229.742 60.2 228.062 62.72 228.062 67.32C228.062 71.84 229.822 74.36 233.062 74.36C235.262 74.36 236.822 73.16 237.342 70.72H242.502C241.542 76.08 237.782 78.6 232.942 78.6C226.622 78.6 222.782 74.28 222.782 67.32C222.782 60.04 226.742 55.96 232.902 55.96C237.782 55.96 241.622 58.68 242.342 64.16ZM265.608 71C264.448 75.96 260.608 78.6 255.488 78.6C249.008 78.6 245.048 74.32 245.048 67.32C245.048 60.04 249.048 55.96 255.288 55.96C261.568 55.96 265.448 60.2 265.448 67.12V68.32H250.328C250.568 72.24 252.368 74.4 255.488 74.4C257.888 74.4 259.528 73.28 260.208 71H265.608ZM255.288 60.16C252.568 60.16 250.928 61.88 250.448 65.12H260.088C259.608 61.92 257.968 60.16 255.288 60.16ZM273.57 62.32C273.57 67.24 287.09 63.08 287.09 71.68C287.09 75.8 283.29 78.6 277.93 78.6C272.65 78.6 268.85 76.16 268.09 71H273.21C273.57 73.32 275.41 74.64 278.09 74.64C280.61 74.64 281.93 73.56 281.93 72C281.93 67.2 268.69 71.32 268.69 62.64C268.69 59.16 271.41 55.96 277.01 55.96C281.93 55.96 285.65 58.28 286.29 63.6H281.17C280.77 61 279.25 59.96 276.81 59.96C274.77 59.96 273.57 60.96 273.57 62.32ZM299.859 78.6C293.499 78.6 289.579 74.32 289.579 67.32C289.579 60.04 293.619 55.96 299.859 55.96C306.179 55.96 310.099 60.28 310.099 67.32C310.099 74.52 306.059 78.6 299.859 78.6ZM299.859 74.36C303.099 74.36 304.819 71.88 304.819 67.32C304.819 62.76 303.059 60.2 299.859 60.2C296.579 60.2 294.859 62.72 294.859 67.32C294.859 71.84 296.619 74.36 299.859 74.36ZM311.661 60.52V56.56H314.421V55.88C314.421 51.04 316.581 48.6 320.661 48.6C321.981 48.6 322.941 48.88 323.461 49.12V52.44H323.061C320.221 52.44 319.541 53.6 319.541 55.88V56.56H323.461V60.52H319.541V78H314.421V60.52H311.661ZM326.571 71.32V60.52H323.811V56.56H326.571V51.64H331.691V56.56H336.211V60.52H331.691V70.88C331.691 73.12 332.331 74.32 335.171 74.32H336.131V78.08C335.571 78.36 334.411 78.6 333.011 78.6C328.651 78.6 326.571 76.12 326.571 71.32Z" fill="url(#paint0_linear_629_32786)"/>
<defs>
<linearGradient id="paint0_linear_629_32786" x1="-22.044" y1="11.8936" x2="250.034" y2="53.442" gradientUnits="userSpaceOnUse">
<stop stop-color="#FCD30B"/>
<stop offset="1" stop-color="#549CE9"/>
</linearGradient>
</defs>
</svg>
