<svg width="64" height="80" viewBox="0 0 64 80" fill="none" xmlns="http://www.w3.org/2000/svg">
<mask id="path-1-outside-1_2056_2481" maskUnits="userSpaceOnUse" x="0" y="0" width="64" height="80" fill="black">
<rect fill="white" width="64" height="80"/>
<path d="M29.1512 1.86637C30.7578 1.05483 32.3067 0.629797 34.0349 1.42008L47.7771 9.16032C48.3902 10.0832 49.0613 9.98266 49.8963 10.4015C51.265 11.0911 52.2377 12.619 52.3435 14.1466C52.5867 17.6476 52.1481 21.4302 52.3435 24.9631C52.2907 26.0612 50.7423 26.1725 50.5838 25.0373L50.5359 13.924C50.4143 13.1339 49.8122 12.3488 49.1043 11.9933C48.2217 11.5531 48.305 12.0405 47.6922 12.4914L42.9148 15.1808C42.7563 17.1117 43.062 19.2399 42.8982 21.1496C42.8029 22.2317 41.7305 23.9344 40.5574 23.9347H32.9676V30.3107H39.4998C40.4036 30.3109 41.9263 31.9184 41.9265 32.8361V34.7404C45.4834 34.8517 49.051 34.3429 52.4969 35.425C62.8932 38.6928 66.3236 51.498 59.2732 59.8107C58.9721 60.166 58.502 60.506 58.2957 60.9142L60.5945 69.5558C62.4338 78.5315 50.8114 82.6853 46.4402 74.9035C45.1612 71.4501 44.5107 67.7789 43.406 64.2619C40.7846 63.4874 38.528 61.8745 36.657 59.9172L27.491 59.8957C27.3856 59.8853 27.3117 59.9336 27.2273 59.9865C26.8363 60.2094 25.8852 61.3593 25.3777 61.7629C23.9507 62.898 22.2746 63.7097 20.5623 64.3039L17.9461 73.9748C14.5581 82.6215 1.99446 79.2745 3.28885 70.0763L5.69901 60.925C5.26569 60.3151 4.6742 59.7951 4.20389 59.1906C-2.35003 50.8249 1.63472 38.2786 11.7615 35.3449C15.1176 34.3742 18.6169 34.8625 22.0681 34.7511V32.8468C22.0684 31.9397 23.6017 30.3215 24.4949 30.3215H31.0701C31.1387 30.0192 31.1494 29.7061 31.1599 29.3986C31.2075 27.9663 31.3185 25.6052 31.1599 24.2472C31.1441 24.12 31.1489 24.0191 31.0222 23.9396H23.4324V23.9445C22.1163 23.7376 21.191 22.3267 21.0906 21.0695C20.9427 19.1758 21.223 17.1065 21.075 15.1916C19.6532 14.3004 18.0301 13.595 16.6189 12.7091C15.208 11.8233 14.7641 10.8367 15.9265 9.4152C20.3028 6.98562 24.6956 4.12619 29.1512 1.86637ZM7.14725 62.3576C6.60816 64.7657 5.76309 67.1583 5.22928 69.5558C3.41107 77.7041 13.9398 80.0698 16.3289 73.2531L18.6228 64.7922C14.6642 65.4022 10.4936 64.559 7.28006 62.1349L7.14725 62.3576ZM56.7049 62.1291C53.5139 64.5152 49.3824 65.4169 45.4568 64.7873L47.6609 73.2482C49.5532 78.6909 57.2809 78.5264 58.8084 73.0041C59.2681 71.3387 58.9719 70.4365 58.5808 68.84C58.1316 66.978 57.5027 64.0545 56.8367 62.3517C56.8051 62.2671 56.8048 62.1873 56.7049 62.1291ZM14.8963 36.5548C2.76081 37.6264 -1.78457 53.45 8.26834 60.6964C14.0718 64.8766 21.0648 63.7051 25.9539 58.8088C26.1757 58.586 26.2759 58.241 26.6297 58.1613L37.4285 58.1828C38.0097 58.6443 38.4538 59.2752 39.0086 59.7843C45.4198 65.593 55.7157 63.7632 59.7117 56.1086C64.2094 47.483 58.3848 37.2654 48.8553 36.5226L14.8963 36.5548ZM15.9588 38.3205C24.6427 38.2411 30.2659 47.5883 26.1697 55.3068C22.3006 62.6058 12.1059 63.5075 7.02127 56.9777C1.15445 49.4449 6.4604 38.4061 15.9529 38.3156L15.9588 38.3205ZM47.7342 38.3205C56.1855 38.1562 61.9151 47.0471 58.3582 54.7443C54.801 62.4416 43.7751 63.7307 38.6746 56.6593C33.2149 49.0947 38.4689 38.4961 47.7342 38.3156V38.3205ZM47.6443 40.0978C40.8579 40.2783 36.3288 47.4184 38.9978 53.6886C42.0794 60.9295 51.9684 61.7093 56.1756 55.0412C60.3823 48.3731 55.3556 39.896 47.6443 40.1027V40.0978ZM15.7791 40.0978C8.47453 40.2941 3.98665 48.3203 7.60721 54.7179C11.2648 61.1898 20.6999 61.2478 24.4314 54.8078C28.1628 48.3678 23.3794 39.9013 15.7791 40.1027V40.0978ZM47.3767 52.2306C51.8057 51.5307 52.2599 58.3044 48.0476 58.4054C44.2318 58.4953 43.7616 52.8035 47.3767 52.2306ZM15.6004 52.2345C19.4476 51.7525 20.4093 57.1364 17.0535 58.2082C12.656 59.614 11.3878 52.7597 15.6004 52.2345ZM16.6414 56.4631C17.9992 55.7839 17.3067 53.7202 15.7742 54.0011C13.8874 54.3461 14.8655 57.3542 16.6414 56.4631ZM49.0262 56.0129C49.9504 54.6179 48.0269 53.2549 46.991 54.3683C45.6961 55.7529 47.9849 57.5884 49.0262 56.0129ZM20.8953 46.8244C24.2036 46.342 25.8842 50.448 23.242 52.3683C20.7896 54.1507 17.5231 51.6258 18.5799 48.756C18.9288 47.8172 19.9017 46.9735 20.8953 46.8302V46.8244ZM10.0388 46.8244C14.4149 46.1881 14.8484 52.2939 11.3181 52.8937C6.93119 53.6364 6.34958 47.3602 10.0388 46.8244ZM41.9051 46.8244C45.2346 46.2994 46.9634 50.3789 44.3953 52.3312C42.2917 53.9332 39.2412 52.2144 39.4578 49.5939C39.5583 48.3686 40.6737 47.0155 41.9051 46.8244ZM52.7635 46.8244C57.0652 46.1514 57.6355 52.3577 53.9519 52.8937C49.5971 53.5298 49.1007 47.3973 52.7635 46.8244ZM54.4119 49.1164C53.952 48.4642 52.9221 48.364 52.3777 48.9631H52.3719C51.907 49.4777 51.9649 50.4112 52.4881 50.8673C53.6139 51.8487 55.3104 50.4001 54.4119 49.1164ZM21.1433 51.1427C23.3736 51.498 23.22 48.1091 21.0691 48.5968C19.8224 48.8837 19.8753 50.9409 21.1433 51.1427ZM42.2381 51.1379C44.4312 51.4878 44.3101 48.152 42.1648 48.5968C40.8964 48.8621 40.9275 50.9308 42.2381 51.1379ZM10.4568 51.1427C12.5334 51.349 12.3692 48.1622 10.2976 48.5968C9.00824 48.8676 9.01398 50.9995 10.4568 51.1427ZM15.9578 41.3341C19.8369 41.2017 20.2497 47.1482 16.3709 47.5148C12.1479 47.9074 11.8091 41.4777 15.9578 41.3341ZM47.8191 41.3341C51.8464 41.223 52.0687 47.2116 48.2371 47.5089C43.9507 47.8431 43.8077 41.4458 47.8191 41.3341ZM16.0428 43.1066C14.3461 43.149 14.288 45.796 16.1062 45.7482C17.9241 45.7002 17.6493 43.0697 16.0428 43.1066ZM47.8982 43.1164C46.2074 43.1858 46.2127 45.7948 47.9724 45.7472C49.7322 45.6993 49.5523 43.0423 47.8982 43.1164ZM26.7869 38.3C30.1431 38.4962 33.7958 38.0347 37.115 38.3C37.876 38.3583 38.7322 38.7187 38.8328 39.5832C38.9596 40.6282 38.8907 41.9388 38.0926 42.6974H38.0984C37.7497 43.0262 37.1473 43.3019 36.6717 43.3498C33.6801 43.18 30.4499 43.5779 27.49 43.3498C25.4395 43.1958 24.8109 41.2276 25.1756 39.424C25.3079 38.7612 26.1581 38.3108 26.7869 38.3ZM26.9139 40.0714C26.9403 40.6973 26.7029 41.4025 27.49 41.5724C30.3283 41.3815 33.5211 41.8431 36.3172 41.5832C37.2843 41.4929 37.0464 40.8353 37.0623 40.0714H26.9139ZM39.0564 32.0988L24.7117 32.1408C24.4422 32.1779 23.8293 32.8094 23.8289 33.0324V34.7619H40.1609V33.0265C40.16 32.7715 39.421 31.9988 39.0564 32.0988ZM41.1336 16.2365L34.3094 20.0617C32.967 20.6716 31.35 20.8094 29.9812 20.2101L22.867 16.2316V21.2394C22.867 21.4781 23.3692 22.0933 23.6599 22.1252L40.1287 22.1681C40.5355 22.1839 41.1439 21.6058 41.1443 21.2345V16.2267L41.1336 16.2365ZM32.9412 2.88493C31.7309 2.56136 30.8052 3.01716 29.7693 3.5529C25.594 5.71184 21.6194 8.32178 17.4441 10.4914C17.291 10.5921 17.0796 10.7516 17.116 10.9582L31.0799 18.7404C31.9044 18.8889 32.7508 18.8416 33.5066 18.465L45.3513 11.7228H31.8152C31.7835 11.7228 31.3827 11.474 31.3289 11.4152C30.9431 10.9749 31.26 9.95063 31.7303 9.95036H45.367L45.2508 9.75407L32.9412 2.88493Z"/>
</mask>
<path d="M29.1512 1.86637C30.7578 1.05483 32.3067 0.629797 34.0349 1.42008L47.7771 9.16032C48.3902 10.0832 49.0613 9.98266 49.8963 10.4015C51.265 11.0911 52.2377 12.619 52.3435 14.1466C52.5867 17.6476 52.1481 21.4302 52.3435 24.9631C52.2907 26.0612 50.7423 26.1725 50.5838 25.0373L50.5359 13.924C50.4143 13.1339 49.8122 12.3488 49.1043 11.9933C48.2217 11.5531 48.305 12.0405 47.6922 12.4914L42.9148 15.1808C42.7563 17.1117 43.062 19.2399 42.8982 21.1496C42.8029 22.2317 41.7305 23.9344 40.5574 23.9347H32.9676V30.3107H39.4998C40.4036 30.3109 41.9263 31.9184 41.9265 32.8361V34.7404C45.4834 34.8517 49.051 34.3429 52.4969 35.425C62.8932 38.6928 66.3236 51.498 59.2732 59.8107C58.9721 60.166 58.502 60.506 58.2957 60.9142L60.5945 69.5558C62.4338 78.5315 50.8114 82.6853 46.4402 74.9035C45.1612 71.4501 44.5107 67.7789 43.406 64.2619C40.7846 63.4874 38.528 61.8745 36.657 59.9172L27.491 59.8957C27.3856 59.8853 27.3117 59.9336 27.2273 59.9865C26.8363 60.2094 25.8852 61.3593 25.3777 61.7629C23.9507 62.898 22.2746 63.7097 20.5623 64.3039L17.9461 73.9748C14.5581 82.6215 1.99446 79.2745 3.28885 70.0763L5.69901 60.925C5.26569 60.3151 4.6742 59.7951 4.20389 59.1906C-2.35003 50.8249 1.63472 38.2786 11.7615 35.3449C15.1176 34.3742 18.6169 34.8625 22.0681 34.7511V32.8468C22.0684 31.9397 23.6017 30.3215 24.4949 30.3215H31.0701C31.1387 30.0192 31.1494 29.7061 31.1599 29.3986C31.2075 27.9663 31.3185 25.6052 31.1599 24.2472C31.1441 24.12 31.1489 24.0191 31.0222 23.9396H23.4324V23.9445C22.1163 23.7376 21.191 22.3267 21.0906 21.0695C20.9427 19.1758 21.223 17.1065 21.075 15.1916C19.6532 14.3004 18.0301 13.595 16.6189 12.7091C15.208 11.8233 14.7641 10.8367 15.9265 9.4152C20.3028 6.98562 24.6956 4.12619 29.1512 1.86637ZM7.14725 62.3576C6.60816 64.7657 5.76309 67.1583 5.22928 69.5558C3.41107 77.7041 13.9398 80.0698 16.3289 73.2531L18.6228 64.7922C14.6642 65.4022 10.4936 64.559 7.28006 62.1349L7.14725 62.3576ZM56.7049 62.1291C53.5139 64.5152 49.3824 65.4169 45.4568 64.7873L47.6609 73.2482C49.5532 78.6909 57.2809 78.5264 58.8084 73.0041C59.2681 71.3387 58.9719 70.4365 58.5808 68.84C58.1316 66.978 57.5027 64.0545 56.8367 62.3517C56.8051 62.2671 56.8048 62.1873 56.7049 62.1291ZM14.8963 36.5548C2.76081 37.6264 -1.78457 53.45 8.26834 60.6964C14.0718 64.8766 21.0648 63.7051 25.9539 58.8088C26.1757 58.586 26.2759 58.241 26.6297 58.1613L37.4285 58.1828C38.0097 58.6443 38.4538 59.2752 39.0086 59.7843C45.4198 65.593 55.7157 63.7632 59.7117 56.1086C64.2094 47.483 58.3848 37.2654 48.8553 36.5226L14.8963 36.5548ZM15.9588 38.3205C24.6427 38.2411 30.2659 47.5883 26.1697 55.3068C22.3006 62.6058 12.1059 63.5075 7.02127 56.9777C1.15445 49.4449 6.4604 38.4061 15.9529 38.3156L15.9588 38.3205ZM47.7342 38.3205C56.1855 38.1562 61.9151 47.0471 58.3582 54.7443C54.801 62.4416 43.7751 63.7307 38.6746 56.6593C33.2149 49.0947 38.4689 38.4961 47.7342 38.3156V38.3205ZM47.6443 40.0978C40.8579 40.2783 36.3288 47.4184 38.9978 53.6886C42.0794 60.9295 51.9684 61.7093 56.1756 55.0412C60.3823 48.3731 55.3556 39.896 47.6443 40.1027V40.0978ZM15.7791 40.0978C8.47453 40.2941 3.98665 48.3203 7.60721 54.7179C11.2648 61.1898 20.6999 61.2478 24.4314 54.8078C28.1628 48.3678 23.3794 39.9013 15.7791 40.1027V40.0978ZM47.3767 52.2306C51.8057 51.5307 52.2599 58.3044 48.0476 58.4054C44.2318 58.4953 43.7616 52.8035 47.3767 52.2306ZM15.6004 52.2345C19.4476 51.7525 20.4093 57.1364 17.0535 58.2082C12.656 59.614 11.3878 52.7597 15.6004 52.2345ZM16.6414 56.4631C17.9992 55.7839 17.3067 53.7202 15.7742 54.0011C13.8874 54.3461 14.8655 57.3542 16.6414 56.4631ZM49.0262 56.0129C49.9504 54.6179 48.0269 53.2549 46.991 54.3683C45.6961 55.7529 47.9849 57.5884 49.0262 56.0129ZM20.8953 46.8244C24.2036 46.342 25.8842 50.448 23.242 52.3683C20.7896 54.1507 17.5231 51.6258 18.5799 48.756C18.9288 47.8172 19.9017 46.9735 20.8953 46.8302V46.8244ZM10.0388 46.8244C14.4149 46.1881 14.8484 52.2939 11.3181 52.8937C6.93119 53.6364 6.34958 47.3602 10.0388 46.8244ZM41.9051 46.8244C45.2346 46.2994 46.9634 50.3789 44.3953 52.3312C42.2917 53.9332 39.2412 52.2144 39.4578 49.5939C39.5583 48.3686 40.6737 47.0155 41.9051 46.8244ZM52.7635 46.8244C57.0652 46.1514 57.6355 52.3577 53.9519 52.8937C49.5971 53.5298 49.1007 47.3973 52.7635 46.8244ZM54.4119 49.1164C53.952 48.4642 52.9221 48.364 52.3777 48.9631H52.3719C51.907 49.4777 51.9649 50.4112 52.4881 50.8673C53.6139 51.8487 55.3104 50.4001 54.4119 49.1164ZM21.1433 51.1427C23.3736 51.498 23.22 48.1091 21.0691 48.5968C19.8224 48.8837 19.8753 50.9409 21.1433 51.1427ZM42.2381 51.1379C44.4312 51.4878 44.3101 48.152 42.1648 48.5968C40.8964 48.8621 40.9275 50.9308 42.2381 51.1379ZM10.4568 51.1427C12.5334 51.349 12.3692 48.1622 10.2976 48.5968C9.00824 48.8676 9.01398 50.9995 10.4568 51.1427ZM15.9578 41.3341C19.8369 41.2017 20.2497 47.1482 16.3709 47.5148C12.1479 47.9074 11.8091 41.4777 15.9578 41.3341ZM47.8191 41.3341C51.8464 41.223 52.0687 47.2116 48.2371 47.5089C43.9507 47.8431 43.8077 41.4458 47.8191 41.3341ZM16.0428 43.1066C14.3461 43.149 14.288 45.796 16.1062 45.7482C17.9241 45.7002 17.6493 43.0697 16.0428 43.1066ZM47.8982 43.1164C46.2074 43.1858 46.2127 45.7948 47.9724 45.7472C49.7322 45.6993 49.5523 43.0423 47.8982 43.1164ZM26.7869 38.3C30.1431 38.4962 33.7958 38.0347 37.115 38.3C37.876 38.3583 38.7322 38.7187 38.8328 39.5832C38.9596 40.6282 38.8907 41.9388 38.0926 42.6974H38.0984C37.7497 43.0262 37.1473 43.3019 36.6717 43.3498C33.6801 43.18 30.4499 43.5779 27.49 43.3498C25.4395 43.1958 24.8109 41.2276 25.1756 39.424C25.3079 38.7612 26.1581 38.3108 26.7869 38.3ZM26.9139 40.0714C26.9403 40.6973 26.7029 41.4025 27.49 41.5724C30.3283 41.3815 33.5211 41.8431 36.3172 41.5832C37.2843 41.4929 37.0464 40.8353 37.0623 40.0714H26.9139ZM39.0564 32.0988L24.7117 32.1408C24.4422 32.1779 23.8293 32.8094 23.8289 33.0324V34.7619H40.1609V33.0265C40.16 32.7715 39.421 31.9988 39.0564 32.0988ZM41.1336 16.2365L34.3094 20.0617C32.967 20.6716 31.35 20.8094 29.9812 20.2101L22.867 16.2316V21.2394C22.867 21.4781 23.3692 22.0933 23.6599 22.1252L40.1287 22.1681C40.5355 22.1839 41.1439 21.6058 41.1443 21.2345V16.2267L41.1336 16.2365ZM32.9412 2.88493C31.7309 2.56136 30.8052 3.01716 29.7693 3.5529C25.594 5.71184 21.6194 8.32178 17.4441 10.4914C17.291 10.5921 17.0796 10.7516 17.116 10.9582L31.0799 18.7404C31.9044 18.8889 32.7508 18.8416 33.5066 18.465L45.3513 11.7228H31.8152C31.7835 11.7228 31.3827 11.474 31.3289 11.4152C30.9431 10.9749 31.26 9.95063 31.7303 9.95036H45.367L45.2508 9.75407L32.9412 2.88493Z" fill="url(#paint0_linear_2056_2481)"/>
<path d="M29.1512 1.86637L28.9257 1.42007L28.925 1.42045L29.1512 1.86637ZM34.0349 1.42008L34.2803 0.984435L34.262 0.974115L34.2429 0.965371L34.0349 1.42008ZM47.7771 9.16032L48.1936 8.88367L48.1272 8.78362L48.0225 8.72467L47.7771 9.16032ZM49.8963 10.4015L50.1212 9.95499L50.1205 9.95461L49.8963 10.4015ZM52.3435 14.1466L51.8447 14.1812L51.8447 14.1813L52.3435 14.1466ZM52.3435 24.9631L52.843 24.9871L52.8442 24.9613L52.8428 24.9354L52.3435 24.9631ZM50.5838 25.0373L50.0838 25.0394L50.0839 25.0731L50.0886 25.1064L50.5838 25.0373ZM50.5359 13.924L51.0359 13.9218L51.0358 13.8847L51.0301 13.8479L50.5359 13.924ZM49.1043 11.9933L49.3287 11.5465L49.3275 11.5459L49.1043 11.9933ZM47.6922 12.4914L47.9375 12.9271L47.964 12.9122L47.9885 12.8941L47.6922 12.4914ZM42.9148 15.1808L42.6695 14.7451L42.4382 14.8753L42.4165 15.1399L42.9148 15.1808ZM42.8982 21.1496L43.3963 21.1935L43.3964 21.1923L42.8982 21.1496ZM40.5574 23.9347V24.4347H40.5576L40.5574 23.9347ZM32.9676 23.9347V23.4347H32.4676V23.9347H32.9676ZM32.9676 30.3107H32.4676V30.8107H32.9676V30.3107ZM39.4998 30.3107L39.4999 29.8107H39.4998V30.3107ZM41.9265 32.8361H42.4265V32.836L41.9265 32.8361ZM41.9265 34.7404H41.4265V35.225L41.9109 35.2402L41.9265 34.7404ZM52.4969 35.425L52.6468 34.948L52.6467 34.9479L52.4969 35.425ZM59.2732 59.8107L58.8919 59.4873L58.8918 59.4874L59.2732 59.8107ZM58.2957 60.9142L57.8494 60.6887L57.7635 60.8587L57.8125 61.0428L58.2957 60.9142ZM60.5945 69.5558L61.0843 69.4555L61.0814 69.4413L61.0777 69.4273L60.5945 69.5558ZM46.4402 74.9035L45.9713 75.0771L45.985 75.114L46.0043 75.1484L46.4402 74.9035ZM43.406 64.2619L43.8831 64.1121L43.8032 63.8579L43.5477 63.7824L43.406 64.2619ZM36.657 59.9172L37.0185 59.5717L36.8712 59.4177L36.6582 59.4172L36.657 59.9172ZM27.491 59.8957L27.4419 60.3932L27.4658 60.3956L27.4898 60.3957L27.491 59.8957ZM27.2273 59.9865L27.4749 60.4209L27.4841 60.4157L27.493 60.41L27.2273 59.9865ZM25.3777 61.7629L25.0665 61.3715L25.0664 61.3716L25.3777 61.7629ZM20.5623 64.3039L20.3984 63.8315L20.1487 63.9181L20.0796 64.1733L20.5623 64.3039ZM17.9461 73.9748L18.4116 74.1572L18.4216 74.1317L18.4287 74.1053L17.9461 73.9748ZM3.28885 70.0763L2.80534 69.949L2.79783 69.9775L2.79373 70.0067L3.28885 70.0763ZM5.69901 60.925L6.18252 61.0523L6.2421 60.8261L6.10659 60.6354L5.69901 60.925ZM4.20389 59.1906L4.59853 58.8836L4.59748 58.8822L4.20389 59.1906ZM11.7615 35.3449L11.6226 34.8646L11.6224 34.8646L11.7615 35.3449ZM22.0681 34.7511L22.0843 35.2509L22.5681 35.2353V34.7511H22.0681ZM22.0681 32.8468L21.5681 32.8467V32.8468H22.0681ZM31.0701 30.3215V30.8215H31.4693L31.5577 30.4322L31.0701 30.3215ZM31.1599 29.3986L31.6596 29.4158L31.6597 29.4152L31.1599 29.3986ZM31.1599 24.2472L31.6566 24.1892L31.6561 24.1855L31.1599 24.2472ZM31.0222 23.9396L31.2881 23.5161L31.1662 23.4396H31.0222V23.9396ZM23.4324 23.9396V23.4396H22.9324V23.9396H23.4324ZM23.4324 23.9445L23.3548 24.4384L23.9324 24.5292V23.9445H23.4324ZM21.0906 21.0695L20.5921 21.1084L20.5922 21.1093L21.0906 21.0695ZM21.075 15.1916L21.5735 15.153L21.5541 14.9018L21.3405 14.7679L21.075 15.1916ZM16.6189 12.7091L16.3531 13.1326L16.3531 13.1326L16.6189 12.7091ZM15.9265 9.4152L15.6839 8.97805L15.6001 9.02454L15.5395 9.09867L15.9265 9.4152ZM7.14725 62.3576L6.71784 62.1014L6.67682 62.1702L6.65933 62.2484L7.14725 62.3576ZM5.22928 69.5558L5.71728 69.6647L5.71733 69.6645L5.22928 69.5558ZM16.3289 73.2531L16.8007 73.4185L16.8067 73.4014L16.8115 73.3839L16.3289 73.2531ZM18.6228 64.7922L19.1054 64.923L19.3066 64.1809L18.5467 64.298L18.6228 64.7922ZM7.28006 62.1349L7.58117 61.7358L7.13619 61.4001L6.85065 61.8788L7.28006 62.1349ZM56.7049 62.1291L56.9567 61.6971L56.6706 61.5303L56.4054 61.7286L56.7049 62.1291ZM45.4568 64.7873L45.536 64.2936L44.7799 64.1723L44.973 64.9133L45.4568 64.7873ZM47.6609 73.2482L47.1771 73.3743L47.1821 73.3936L47.1886 73.4124L47.6609 73.2482ZM58.8084 73.0041L59.2903 73.1374L59.2904 73.1371L58.8084 73.0041ZM58.5808 68.84L58.0948 68.9573L58.0952 68.959L58.5808 68.84ZM56.8367 62.3517L56.3681 62.5264L56.371 62.5338L56.8367 62.3517ZM14.8963 36.5548L14.8958 36.0548L14.874 36.0549L14.8523 36.0568L14.8963 36.5548ZM8.26834 60.6964L7.97597 61.1021L7.97611 61.1022L8.26834 60.6964ZM25.9539 58.8088L26.3077 59.162L26.3082 59.1615L25.9539 58.8088ZM26.6297 58.1613L26.6307 57.6613L26.5746 57.6612L26.5198 57.6735L26.6297 58.1613ZM37.4285 58.1828L37.7394 57.7912L37.6033 57.6831L37.4295 57.6828L37.4285 58.1828ZM39.0086 59.7843L38.6705 60.1527L38.6729 60.1549L39.0086 59.7843ZM59.7117 56.1086L60.1549 56.3399L60.155 56.3397L59.7117 56.1086ZM48.8553 36.5226L48.8941 36.0241L48.8745 36.0226L48.8548 36.0226L48.8553 36.5226ZM15.9588 38.3205L15.6387 38.7046L15.7797 38.8221L15.9633 38.8205L15.9588 38.3205ZM26.1697 55.3068L25.7281 55.0724L25.7279 55.0726L26.1697 55.3068ZM7.02127 56.9777L7.41578 56.6705L7.41575 56.6705L7.02127 56.9777ZM15.9529 38.3156L16.273 37.9315L16.1319 37.8139L15.9481 37.8156L15.9529 38.3156ZM47.7342 38.3205H47.2342V38.8303L47.7439 38.8204L47.7342 38.3205ZM58.3582 54.7443L58.8121 54.9541L58.8121 54.954L58.3582 54.7443ZM38.6746 56.6593L39.0801 56.3668L39.08 56.3667L38.6746 56.6593ZM47.7342 38.3156H48.2342V37.8058L47.7244 37.8157L47.7342 38.3156ZM47.6443 40.0978H48.1443V39.5843L47.631 39.598L47.6443 40.0978ZM38.9978 53.6886L39.4579 53.4928L39.4579 53.4928L38.9978 53.6886ZM56.1756 55.0412L56.5984 55.308L56.5984 55.308L56.1756 55.0412ZM47.6443 40.1027H47.1443V40.6163L47.6577 40.6025L47.6443 40.1027ZM15.7791 40.0978H16.2791V39.5842L15.7657 39.598L15.7791 40.0978ZM7.60721 54.7179L8.0425 54.4719L8.04236 54.4717L7.60721 54.7179ZM24.4314 54.8078L24.8641 55.0585L24.8641 55.0584L24.4314 54.8078ZM15.7791 40.1027H15.2791V40.6161L15.7923 40.6025L15.7791 40.1027ZM47.3767 52.2306L47.2987 51.7368L47.2985 51.7368L47.3767 52.2306ZM48.0476 58.4054L48.0594 58.9053L48.0596 58.9053L48.0476 58.4054ZM15.6004 52.2345L15.6622 52.7307L15.6625 52.7307L15.6004 52.2345ZM17.0535 58.2082L16.9014 57.7319L16.9013 57.7319L17.0535 58.2082ZM16.6414 56.4631L16.4177 56.0159L16.4171 56.0162L16.6414 56.4631ZM15.7742 54.0011L15.8641 54.493L15.8643 54.4929L15.7742 54.0011ZM49.0262 56.0129L48.6093 55.7367L48.609 55.7372L49.0262 56.0129ZM46.991 54.3683L47.3562 54.7099L47.3571 54.7089L46.991 54.3683ZM20.8953 46.8244L20.8232 46.3296L20.3953 46.392V46.8244H20.8953ZM23.242 52.3683L23.5359 52.7728H23.5359L23.242 52.3683ZM18.5799 48.756L18.1112 48.5818L18.1107 48.5832L18.5799 48.756ZM20.8953 46.8302L20.9666 47.3251L21.3953 47.2633V46.8302H20.8953ZM10.0388 46.8244L10.1107 47.3192L10.1108 47.3192L10.0388 46.8244ZM11.3181 52.8937L11.4016 53.3867L11.4019 53.3867L11.3181 52.8937ZM41.9051 46.8244L41.9818 47.3185L41.9829 47.3183L41.9051 46.8244ZM44.3953 52.3312L44.0927 51.9332L44.0924 51.9334L44.3953 52.3312ZM39.4578 49.5939L39.9561 49.6351L39.9561 49.6348L39.4578 49.5939ZM52.7635 46.8244L52.8407 47.3184L52.8407 47.3184L52.7635 46.8244ZM53.9519 52.8937L53.8799 52.3989L53.8797 52.399L53.9519 52.8937ZM54.4119 49.1164L54.8215 48.8297L54.8205 48.8282L54.4119 49.1164ZM52.3777 48.9631V49.4631H52.599L52.7478 49.2993L52.3777 48.9631ZM52.3719 48.9631V48.4631H52.1497L52.0008 48.6279L52.3719 48.9631ZM52.4881 50.8673L52.1595 51.2442L52.1595 51.2443L52.4881 50.8673ZM21.1433 51.1427L21.222 50.649L21.2219 50.649L21.1433 51.1427ZM21.0691 48.5968L20.9586 48.1092L20.957 48.1096L21.0691 48.5968ZM42.2381 51.1379L42.3168 50.6441L42.3161 50.644L42.2381 51.1379ZM42.1648 48.5968L42.0633 48.1073L42.0625 48.1074L42.1648 48.5968ZM10.4568 51.1427L10.5062 50.6452L10.5062 50.6452L10.4568 51.1427ZM10.2976 48.5968L10.195 48.1075L10.1949 48.1075L10.2976 48.5968ZM15.9578 41.3341L15.9407 40.8344L15.9405 40.8344L15.9578 41.3341ZM16.3709 47.5148L16.4172 48.0127L16.4179 48.0126L16.3709 47.5148ZM47.8191 41.3341L47.8053 40.8343L47.8052 40.8343L47.8191 41.3341ZM48.2371 47.5089L48.1984 47.0104L48.1982 47.0105L48.2371 47.5089ZM16.0428 43.1066L16.0313 42.6067L16.0303 42.6068L16.0428 43.1066ZM16.1062 45.7482L16.1194 46.248H16.1194L16.1062 45.7482ZM47.8982 43.1164L47.9187 43.616L47.9206 43.6159L47.8982 43.1164ZM47.9724 45.7472L47.9859 46.2471L47.9861 46.247L47.9724 45.7472ZM26.7869 38.3L26.8161 37.8008L26.7972 37.7997L26.7783 37.8L26.7869 38.3ZM37.115 38.3L37.0752 38.7984L37.0768 38.7985L37.115 38.3ZM38.8328 39.5832L38.3361 39.641L38.3364 39.6434L38.8328 39.5832ZM38.0926 42.6974L37.7481 42.335L36.8408 43.1974H38.0926V42.6974ZM38.0984 42.6974L38.4414 43.0612L39.3576 42.1974H38.0984V42.6974ZM36.6717 43.3498L36.6433 43.849L36.6826 43.8512L36.7217 43.8473L36.6717 43.3498ZM27.49 43.3498L27.5284 42.8512L27.5275 42.8512L27.49 43.3498ZM25.1756 39.424L25.6657 39.5231L25.6659 39.5219L25.1756 39.424ZM26.9139 40.0714V39.5714H26.3923L26.4143 40.0925L26.9139 40.0714ZM27.49 41.5724L27.3845 42.0612L27.4533 42.076L27.5236 42.0713L27.49 41.5724ZM36.3172 41.5832L36.3635 42.081L36.3636 42.081L36.3172 41.5832ZM37.0623 40.0714L37.5622 40.0818L37.5728 39.5714H37.0623V40.0714ZM39.0564 32.0988L39.0579 32.5988L39.1245 32.5986L39.1887 32.581L39.0564 32.0988ZM24.7117 32.1408L24.7102 31.6408L24.6767 31.6409L24.6435 31.6455L24.7117 32.1408ZM23.8289 33.0324L23.3289 33.0316V33.0324H23.8289ZM23.8289 34.7619H23.3289V35.2619H23.8289V34.7619ZM40.1609 34.7619V35.2619H40.6609V34.7619H40.1609ZM40.1609 33.0265H40.6609L40.6609 33.0247L40.1609 33.0265ZM41.1336 16.2365L41.3781 16.6726L41.4278 16.6448L41.4699 16.6065L41.1336 16.2365ZM34.3094 20.0617L34.5162 20.5169L34.5354 20.5082L34.5538 20.4978L34.3094 20.0617ZM29.9812 20.2101L29.7372 20.6465L29.7584 20.6584L29.7807 20.6681L29.9812 20.2101ZM22.867 16.2316L23.111 15.7952L22.367 15.3791V16.2316H22.867ZM23.6599 22.1252L23.6055 22.6222L23.632 22.6251L23.6586 22.6252L23.6599 22.1252ZM40.1287 22.1681L40.148 21.6685L40.139 21.6682L40.13 21.6681L40.1287 22.1681ZM41.1443 21.2345L41.6443 21.2351V21.2345H41.1443ZM41.1443 16.2267H41.6443V15.0964L40.808 15.8568L41.1443 16.2267ZM32.9412 2.88493L33.1848 2.44831L33.1305 2.41797L33.0703 2.40189L32.9412 2.88493ZM29.7693 3.5529L29.999 3.99703L29.999 3.99701L29.7693 3.5529ZM17.4441 10.4914L17.2136 10.0477L17.1908 10.0595L17.1694 10.0736L17.4441 10.4914ZM17.116 10.9582L16.6236 11.045L16.6649 11.2792L16.8726 11.3949L17.116 10.9582ZM31.0799 18.7404L30.8365 19.1771L30.9092 19.2177L30.9912 19.2325L31.0799 18.7404ZM33.5066 18.465L33.7296 18.9125L33.742 18.9064L33.754 18.8995L33.5066 18.465ZM45.3513 11.7228L45.5987 12.1574L47.2405 11.2228H45.3513V11.7228ZM31.3289 11.4152L30.9527 11.7448L30.9599 11.7526L31.3289 11.4152ZM31.7303 9.95036V9.45036H31.73L31.7303 9.95036ZM45.367 9.95036V10.4504H46.2441L45.7972 9.69563L45.367 9.95036ZM45.2508 9.75407L45.681 9.49934L45.6123 9.38321L45.4944 9.31745L45.2508 9.75407ZM29.1512 1.86637L29.3766 2.31267C30.9326 1.52672 32.3051 1.17884 33.827 1.8748L34.0349 1.42008L34.2429 0.965371C32.3084 0.0807485 30.583 0.58295 28.9257 1.42007L29.1512 1.86637ZM34.0349 1.42008L33.7896 1.85573L47.5318 9.59597L47.7771 9.16032L48.0225 8.72467L34.2803 0.984435L34.0349 1.42008ZM47.7771 9.16032L47.3606 9.43697C47.7309 9.99432 48.1377 10.2584 48.5643 10.4328C48.7582 10.512 48.9673 10.5766 49.1397 10.6346C49.3217 10.6958 49.4944 10.7593 49.6721 10.8484L49.8963 10.4015L50.1205 9.95461C49.8806 9.83429 49.6563 9.7533 49.4586 9.68677C49.2512 9.61699 49.0975 9.57041 48.9427 9.50712C48.6717 9.39633 48.4364 9.24922 48.1936 8.88367L47.7771 9.16032ZM49.8963 10.4015L49.6713 10.8481C50.8749 11.4544 51.7505 12.8209 51.8447 14.1812L52.3435 14.1466L52.8423 14.1121C52.7249 12.4172 51.6552 10.7278 50.1212 9.955L49.8963 10.4015ZM52.3435 14.1466L51.8447 14.1813C51.9643 15.9032 51.9165 17.6998 51.8616 19.5279C51.807 21.347 51.7451 23.1987 51.8443 24.9907L52.3435 24.9631L52.8428 24.9354C52.7464 23.1945 52.8062 21.3885 52.8612 19.5579C52.9159 17.7363 52.9659 15.8911 52.8423 14.112L52.3435 14.1466ZM52.3435 24.9631L51.8441 24.939C51.8313 25.2057 51.6607 25.328 51.4753 25.3384C51.3789 25.3439 51.2912 25.3161 51.2269 25.2657C51.1681 25.2196 51.1021 25.1339 51.079 24.9681L50.5838 25.0373L50.0886 25.1064C50.2066 25.9518 50.8788 26.3735 51.5313 26.3369C52.1729 26.3009 52.8029 25.8185 52.843 24.9871L52.3435 24.9631ZM50.5838 25.0373L51.0838 25.0351L51.0359 13.9218L50.5359 13.924L50.0359 13.9261L50.0838 25.0394L50.5838 25.0373ZM50.5359 13.924L51.0301 13.8479C50.8823 12.8878 50.172 11.97 49.3287 11.5465L49.1043 11.9933L48.8799 12.4402C49.4525 12.7277 49.9463 13.3799 50.0417 14.0001L50.5359 13.924ZM49.1043 11.9933L49.3275 11.5459C49.0869 11.4259 48.857 11.3396 48.6338 11.3233C48.3786 11.3047 48.1702 11.3798 47.9992 11.5066C47.8644 11.6066 47.7439 11.7512 47.6759 11.8266C47.5922 11.9195 47.5089 12.0055 47.3959 12.0886L47.6922 12.4914L47.9885 12.8941C48.1819 12.7518 48.318 12.6078 48.4186 12.4962C48.5349 12.3673 48.5637 12.3329 48.5949 12.3098C48.6 12.306 48.5932 12.3119 48.5775 12.3167C48.5614 12.3216 48.5532 12.3201 48.5612 12.3207C48.5897 12.3228 48.6804 12.3406 48.8811 12.4407L49.1043 11.9933ZM47.6922 12.4914L47.4469 12.0557L42.6695 14.7451L42.9148 15.1808L43.1601 15.6165L47.9375 12.9271L47.6922 12.4914ZM42.9148 15.1808L42.4165 15.1399C42.3344 16.14 42.3729 17.1851 42.4088 18.191C42.4452 19.2091 42.4789 20.1876 42.4001 21.1068L42.8982 21.1496L43.3964 21.1923C43.4814 20.2019 43.4441 19.1614 43.4082 18.1553C43.3718 17.1369 43.3367 16.1525 43.4132 15.2217L42.9148 15.1808ZM42.8982 21.1496L42.4002 21.1057C42.3626 21.5318 42.1178 22.1405 41.734 22.6451C41.3392 23.1642 40.9072 23.4346 40.5572 23.4347L40.5574 23.9347L40.5576 24.4347C41.3807 24.4345 42.0714 23.8534 42.53 23.2505C42.9995 22.6332 43.3385 21.8495 43.3963 21.1935L42.8982 21.1496ZM40.5574 23.9347V23.4347H32.9676V23.9347V24.4347H40.5574V23.9347ZM32.9676 23.9347H32.4676V30.3107H32.9676H33.4676V23.9347H32.9676ZM32.9676 30.3107V30.8107H39.4998V30.3107V29.8107H32.9676V30.3107ZM39.4998 30.3107L39.4997 30.8107C39.592 30.8107 39.7626 30.8581 39.9993 31.0029C40.2254 31.1412 40.4674 31.3413 40.6905 31.5748C40.9135 31.8081 41.1052 32.0618 41.2383 32.299C41.3769 32.5462 41.4265 32.7304 41.4265 32.8362L41.9265 32.8361L42.4265 32.836C42.4265 32.483 42.2856 32.1221 42.1105 31.8098C41.9297 31.4875 41.6842 31.1672 41.4135 30.8839C41.1429 30.6008 40.8348 30.3417 40.5211 30.1498C40.2181 29.9644 39.8595 29.8108 39.4999 29.8107L39.4998 30.3107ZM41.9265 32.8361H41.4265V34.7404H41.9265H42.4265V32.8361H41.9265ZM41.9265 34.7404L41.9109 35.2402C42.8133 35.2684 43.7139 35.2572 44.6027 35.2421C45.4949 35.2269 46.3728 35.2077 47.2471 35.2186C48.9941 35.2403 50.6916 35.3822 52.3471 35.902L52.4969 35.425L52.6467 34.9479C50.8562 34.3857 49.047 34.2409 47.2595 34.2187C46.3667 34.2076 45.4703 34.2272 44.5856 34.2422C43.6974 34.2574 42.8182 34.2681 41.9422 34.2406L41.9265 34.7404ZM52.4969 35.425L52.3469 35.902C62.3865 39.0576 65.7216 51.4349 58.8919 59.4873L59.2732 59.8107L59.6545 60.1341C66.9256 51.5612 63.3998 38.3279 52.6468 34.948L52.4969 35.425ZM59.2732 59.8107L58.8918 59.4874C58.7591 59.644 58.6031 59.7819 58.3958 59.9885C58.2109 60.1729 57.9914 60.4078 57.8494 60.6887L58.2957 60.9142L58.742 61.1397C58.8063 61.0124 58.9249 60.8732 59.1019 60.6967C59.2566 60.5424 59.4862 60.3327 59.6546 60.134L59.2732 59.8107ZM58.2957 60.9142L57.8125 61.0428L60.1113 69.6844L60.5945 69.5558L61.0777 69.4273L58.7789 60.7857L58.2957 60.9142ZM60.5945 69.5558L60.1047 69.6562C61.8262 78.0567 50.9759 81.9572 46.8762 74.6586L46.4402 74.9035L46.0043 75.1484C50.6469 83.4134 63.0415 79.0063 61.0843 69.4555L60.5945 69.5558ZM46.4402 74.9035L46.9091 74.7298C46.2792 73.0291 45.8021 71.2694 45.3419 69.4819C44.8836 67.7015 44.4404 65.8867 43.8831 64.1121L43.406 64.2619L42.929 64.4117C43.4763 66.1541 43.9107 67.9334 44.3735 69.7312C44.8345 71.5219 45.3222 73.3245 45.9713 75.0771L46.4402 74.9035ZM43.406 64.2619L43.5477 63.7824C41.0326 63.0393 38.8479 61.4856 37.0185 59.5717L36.657 59.9172L36.2956 60.2626C38.2081 62.2634 40.5365 63.9355 43.2644 64.7414L43.406 64.2619ZM36.657 59.9172L36.6582 59.4172L27.4922 59.3957L27.491 59.8957L27.4898 60.3957L36.6558 60.4172L36.657 59.9172ZM27.491 59.8957L27.5401 59.3981C27.2391 59.3684 27.0225 59.5248 26.9616 59.5629L27.2273 59.9865L27.493 60.41C27.5048 60.4027 27.513 60.3975 27.5214 60.3923C27.5293 60.3874 27.535 60.384 27.5394 60.3815C27.5485 60.3762 27.5481 60.377 27.5418 60.3796C27.5345 60.3826 27.5201 60.3877 27.5004 60.3911C27.4801 60.3945 27.46 60.395 27.4419 60.3932L27.491 59.8957ZM27.2273 59.9865L26.9797 59.5521C26.8222 59.6419 26.6495 59.7962 26.4991 59.94C26.3381 60.094 26.1597 60.2787 25.985 60.4612C25.6189 60.8437 25.2861 61.1969 25.0665 61.3715L25.3777 61.7629L25.6889 62.1542C25.9769 61.9252 26.3733 61.5017 26.7074 61.1526C26.8828 60.9693 27.0472 60.7995 27.1903 60.6627C27.3441 60.5156 27.437 60.4425 27.4749 60.4209L27.2273 59.9865ZM25.3777 61.7629L25.0664 61.3716C23.6965 62.4614 22.0754 63.2496 20.3984 63.8315L20.5623 64.3039L20.7262 64.7762C22.4738 64.1699 24.205 63.3346 25.689 62.1541L25.3777 61.7629ZM20.5623 64.3039L20.0796 64.1733L17.4634 73.8442L17.9461 73.9748L18.4287 74.1053L21.0449 64.4344L20.5623 64.3039ZM17.9461 73.9748L17.4805 73.7924C14.3163 81.8682 2.56941 78.7769 3.78397 70.146L3.28885 70.0763L2.79373 70.0067C1.41951 79.7721 14.8 83.3748 18.4116 74.1572L17.9461 73.9748ZM3.28885 70.0763L3.77236 70.2037L6.18252 61.0523L5.69901 60.925L5.21549 60.7976L2.80534 69.949L3.28885 70.0763ZM5.69901 60.925L6.10659 60.6354C5.86905 60.301 5.5924 59.9972 5.33226 59.7162C5.06539 59.4278 4.81742 59.1649 4.59853 58.8836L4.20389 59.1906L3.80925 59.4976C4.06067 59.8208 4.3436 60.1202 4.59838 60.3954C4.85988 60.678 5.09565 60.939 5.29142 61.2146L5.69901 60.925ZM4.20389 59.1906L4.59748 58.8822C-1.74169 50.7907 2.11975 38.6587 11.9006 35.8251L11.7615 35.3449L11.6224 34.8646C1.1497 37.8986 -2.95837 50.8592 3.81029 59.4989L4.20389 59.1906ZM11.7615 35.3449L11.9004 35.8252C13.514 35.3585 15.1749 35.2388 16.883 35.2258C18.5505 35.213 20.3673 35.3063 22.0843 35.2509L22.0681 34.7511L22.052 34.2514C20.3178 34.3073 18.6593 34.2122 16.8753 34.2258C15.1319 34.2391 13.3651 34.3606 11.6226 34.8646L11.7615 35.3449ZM22.0681 34.7511H22.5681V32.8468H22.0681H21.5681V34.7511H22.0681ZM22.0681 32.8468L22.5681 32.847C22.5682 32.7453 22.6172 32.5632 22.7572 32.3154C22.8911 32.0782 23.0841 31.8238 23.3081 31.5894C23.5323 31.3549 23.7751 31.1534 24.0011 31.0142C24.2385 30.868 24.407 30.8215 24.4949 30.8215V30.3215V29.8215C24.1362 29.8215 23.7781 29.9771 23.4768 30.1627C23.1641 30.3553 22.856 30.6151 22.5852 30.8985C22.3142 31.1821 22.068 31.5023 21.8865 31.8236C21.7109 32.1344 21.5682 32.4948 21.5681 32.8467L22.0681 32.8468ZM24.4949 30.3215V30.8215H31.0701V30.3215V29.8215H24.4949V30.3215ZM31.0701 30.3215L31.5577 30.4322C31.6386 30.0759 31.6494 29.7148 31.6596 29.4158L31.1599 29.3986L30.6602 29.3814C30.6494 29.6974 30.6389 29.9625 30.5825 30.2107L31.0701 30.3215ZM31.1599 29.3986L31.6597 29.4152C31.7064 28.0097 31.8207 25.5953 31.6566 24.1892L31.1599 24.2472L30.6633 24.3052C30.8163 25.6151 30.7087 27.9228 30.6602 29.382L31.1599 29.3986ZM31.1599 24.2472L31.6561 24.1855C31.6547 24.1744 31.6535 24.1633 31.6518 24.147C31.6502 24.1325 31.648 24.1124 31.6453 24.0916C31.64 24.0508 31.6303 23.989 31.6082 23.9209C31.5555 23.7591 31.4513 23.6186 31.2881 23.5161L31.0222 23.9396L30.7564 24.3631C30.7456 24.3563 30.7233 24.3398 30.7004 24.3104C30.6771 24.2805 30.6639 24.2509 30.6572 24.2302C30.6517 24.2132 30.6517 24.2055 30.6538 24.2218C30.6549 24.2296 30.6559 24.2389 30.6576 24.2545C30.6591 24.2684 30.6612 24.2882 30.6638 24.309L31.1599 24.2472ZM31.0222 23.9396V23.4396H23.4324V23.9396V24.4396H31.0222V23.9396ZM23.4324 23.9396H22.9324V23.9445H23.4324H23.9324V23.9396H23.4324ZM23.4324 23.9445L23.5101 23.4506C23.0107 23.3721 22.5553 23.0595 22.2033 22.5978C21.8508 22.1353 21.6313 21.559 21.589 21.0297L21.0906 21.0695L20.5922 21.1093C20.6503 21.8372 20.9437 22.595 21.408 23.204C21.8728 23.8137 22.538 24.31 23.3548 24.4384L23.4324 23.9445ZM21.0906 21.0695L21.5891 21.0306C21.5177 20.1164 21.5493 19.1542 21.5825 18.1551C21.6154 17.1671 21.65 16.1429 21.5735 15.153L21.075 15.1916L20.5765 15.2301C20.648 16.1552 20.6164 17.1231 20.5831 18.1218C20.5502 19.1096 20.5156 20.1289 20.5921 21.1084L21.0906 21.0695ZM21.075 15.1916L21.3405 14.7679C20.6105 14.3103 19.8319 13.9024 19.0752 13.5056C18.3121 13.1054 17.5711 12.7165 16.8848 12.2857L16.6189 12.7091L16.3531 13.1326C17.078 13.5877 17.8541 13.9944 18.6108 14.3912C19.3739 14.7913 20.1177 15.1816 20.8094 15.6152L21.075 15.1916ZM16.6189 12.7091L16.8848 12.2857C16.2084 11.8611 15.8828 11.4807 15.791 11.1348C15.7077 10.8211 15.7809 10.3832 16.3136 9.73173L15.9265 9.4152L15.5395 9.09867C14.9098 9.8687 14.6236 10.6348 14.8245 11.3913C15.0167 12.1156 15.6185 12.6714 16.3531 13.1326L16.6189 12.7091ZM15.9265 9.4152L16.1692 9.85235C20.5989 7.39314 24.9214 4.57227 29.3773 2.3123L29.1512 1.86637L28.925 1.42045C24.4697 3.68011 20.0068 6.5781 15.6839 8.97805L15.9265 9.4152ZM7.14725 62.3576L6.65933 62.2484C6.39364 63.4352 6.05197 64.6208 5.70583 65.8223C5.36118 67.0186 5.01204 68.2309 4.74123 69.4472L5.22928 69.5558L5.71733 69.6645C5.98034 68.4832 6.32064 67.3005 6.66674 66.0991C7.01136 64.9029 7.36177 63.6881 7.63517 62.4668L7.14725 62.3576ZM5.22928 69.5558L4.74128 69.4469C4.26212 71.5943 4.58947 73.405 5.43364 74.7899C6.27449 76.1694 7.60499 77.0881 9.0664 77.4978C11.9878 78.3167 15.5071 77.1097 16.8007 73.4185L16.3289 73.2531L15.857 73.0877C14.7616 76.2132 11.822 77.2317 9.33633 76.5349C8.0942 76.1867 6.9841 75.4122 6.28752 74.2694C5.59425 73.1321 5.28733 71.5915 5.71728 69.6647L5.22928 69.5558ZM16.3289 73.2531L16.8115 73.3839L19.1054 64.923L18.6228 64.7922L18.1403 64.6613L15.8463 73.1223L16.3289 73.2531ZM18.6228 64.7922L18.5467 64.298C14.7032 64.8903 10.673 64.0681 7.58117 61.7358L7.28006 62.1349L6.97896 62.5341C10.3141 65.0499 14.6251 65.9141 18.699 65.2863L18.6228 64.7922ZM7.28006 62.1349L6.85065 61.8788L6.71784 62.1014L7.14725 62.3576L7.57666 62.6137L7.70947 62.3911L7.28006 62.1349ZM56.7049 62.1291L56.4054 61.7286C53.3308 64.0277 49.3381 64.9034 45.536 64.2936L45.4568 64.7873L45.3776 65.281C49.4266 65.9304 53.6969 65.0026 57.0043 62.5295L56.7049 62.1291ZM45.4568 64.7873L44.973 64.9133L47.1771 73.3743L47.6609 73.2482L48.1448 73.1222L45.9407 64.6612L45.4568 64.7873ZM47.6609 73.2482L47.1886 73.4124C49.2341 79.2957 57.6256 79.1555 59.2903 73.1374L58.8084 73.0041L58.3265 72.8708C56.9361 77.8973 49.8723 78.0862 48.1332 73.084L47.6609 73.2482ZM58.8084 73.0041L59.2904 73.1371C59.7894 71.3291 59.4543 70.3043 59.0665 68.721L58.5808 68.84L58.0952 68.959C58.4895 70.5687 58.7467 71.3482 58.3264 72.871L58.8084 73.0041ZM58.5808 68.84L59.0669 68.7227C58.6252 66.8921 57.9847 63.9142 57.3024 62.1696L56.8367 62.3517L56.371 62.5338C57.0206 64.1948 57.638 67.0639 58.0948 68.9573L58.5808 68.84ZM56.8367 62.3517L57.3052 62.1771C57.3056 62.1782 57.3052 62.1772 57.3036 62.1721C57.3016 62.1655 57.3002 62.1608 57.2961 62.147C57.29 62.1263 57.2764 62.0802 57.2546 62.0303C57.2009 61.9074 57.1091 61.7859 56.9567 61.6971L56.7049 62.1291L56.4531 62.561C56.4338 62.5498 56.4084 62.5308 56.3837 62.5021C56.3594 62.4737 56.3453 62.4469 56.3383 62.4307C56.333 62.4186 56.3317 62.412 56.3376 62.4319C56.3395 62.4383 56.3441 62.4542 56.3485 62.4684C56.3534 62.4841 56.3599 62.5041 56.3682 62.5264L56.8367 62.3517ZM14.8963 36.5548L14.8523 36.0568C2.26374 37.1684 -2.45947 53.5799 7.97597 61.1021L8.26834 60.6964L8.56072 60.2908C-1.10967 53.3201 3.25788 38.0845 14.9403 37.0529L14.8963 36.5548ZM8.26834 60.6964L7.97611 61.1022C14.008 65.4469 21.2722 64.2051 26.3077 59.162L25.9539 58.8088L25.6001 58.4555C20.8575 63.2051 14.1356 64.3064 8.56057 60.2907L8.26834 60.6964ZM25.9539 58.8088L26.3082 59.1615C26.3938 59.0755 26.461 58.9846 26.5109 58.9144C26.5685 58.8333 26.597 58.7894 26.6362 58.7393C26.7008 58.6567 26.7242 58.6525 26.7395 58.6491L26.6297 58.1613L26.5198 57.6735C26.1814 57.7497 25.9778 57.9579 25.8484 58.1234C25.7905 58.1974 25.7303 58.2866 25.6957 58.3353C25.6533 58.3948 25.6248 58.4306 25.5996 58.456L25.9539 58.8088ZM26.6297 58.1613L26.6287 58.6613L37.4275 58.6828L37.4285 58.1828L37.4295 57.6828L26.6307 57.6613L26.6297 58.1613ZM37.4285 58.1828L37.1176 58.5744C37.3732 58.7773 37.6057 59.0233 37.858 59.3015C38.1023 59.571 38.3716 59.8785 38.6705 60.1527L39.0086 59.7843L39.3466 59.4159C39.0907 59.1811 38.8606 58.9185 38.5988 58.6298C38.3451 58.35 38.065 58.0497 37.7394 57.7912L37.4285 58.1828ZM39.0086 59.7843L38.6729 60.1549C45.3259 66.1827 56.007 64.2857 60.1549 56.3399L59.7117 56.1086L59.2685 55.8772C55.4245 63.2406 45.5137 65.0034 39.3443 59.4138L39.0086 59.7843ZM59.7117 56.1086L60.155 56.3397C64.8208 47.3919 58.7762 36.7944 48.8941 36.0241L48.8553 36.5226L48.8164 37.0211C57.9934 37.7364 63.598 47.5741 59.2684 55.8774L59.7117 56.1086ZM48.8553 36.5226L48.8548 36.0226L14.8958 36.0548L14.8963 36.5548L14.8967 37.0548L48.8557 37.0226L48.8553 36.5226ZM15.9588 38.3205L15.9633 38.8205C24.2622 38.7446 29.6494 47.6834 25.7281 55.0724L26.1697 55.3068L26.6114 55.5412C30.8824 47.4933 25.0232 37.7375 15.9542 37.8205L15.9588 38.3205ZM26.1697 55.3068L25.7279 55.0726C22.0285 62.0516 12.2774 62.9139 7.41577 56.6705L7.02127 56.9777L6.62677 57.2849C11.9344 64.1011 22.5728 63.1599 26.6115 55.541L26.1697 55.3068ZM7.02127 56.9777L7.41575 56.6705C1.80076 49.461 6.88335 38.9021 15.9577 38.8156L15.9529 38.3156L15.9481 37.8156C6.03746 37.9101 0.508146 49.4288 6.6268 57.2849L7.02127 56.9777ZM15.9529 38.3156L15.6328 38.6997L15.6387 38.7046L15.9588 38.3205L16.2789 37.9364L16.273 37.9315L15.9529 38.3156ZM47.7342 38.3205L47.7439 38.8204C55.8196 38.6634 61.309 47.1667 57.9043 54.5346L58.3582 54.7443L58.8121 54.954C62.5211 46.9275 56.5513 37.649 47.7244 37.8206L47.7342 38.3205ZM58.3582 54.7443L57.9043 54.5345C54.5032 61.8941 43.9507 63.1194 39.0801 56.3668L38.6746 56.6593L38.2691 56.9518C43.5995 64.342 55.0988 62.989 58.8121 54.9541L58.3582 54.7443ZM38.6746 56.6593L39.08 56.3667C33.8532 49.1247 38.8874 38.988 47.7439 38.8155L47.7342 38.3156L47.7244 37.8157C38.0504 38.0042 32.5766 49.0647 38.2692 56.952L38.6746 56.6593ZM47.7342 38.3156H47.2342V38.3205H47.7342H48.2342V38.3156H47.7342ZM47.6443 40.0978L47.631 39.598C40.4864 39.788 35.7328 47.2948 38.5378 53.8845L38.9978 53.6886L39.4579 53.4928C36.9248 47.542 41.2294 40.7686 47.6576 40.5976L47.6443 40.0978ZM38.9978 53.6886L38.5378 53.8844C41.7782 61.4986 52.1773 62.3152 56.5984 55.308L56.1756 55.0412L55.7527 54.7744C51.7595 61.1034 42.3806 60.3605 39.4579 53.4928L38.9978 53.6886ZM56.1756 55.0412L56.5984 55.308C61.0241 48.2929 55.7312 39.3857 47.6309 39.6029L47.6443 40.1027L47.6577 40.6025C54.98 40.4062 59.7405 48.4533 55.7527 54.7744L56.1756 55.0412ZM47.6443 40.1027H48.1443V40.0978H47.6443H47.1443V40.1027H47.6443ZM15.7791 40.0978L15.7657 39.598C8.07807 39.8046 3.36881 48.2437 7.17206 54.9642L7.60721 54.7179L8.04236 54.4717C4.60449 48.3968 8.87099 40.7836 15.7925 40.5976L15.7791 40.0978ZM7.60721 54.7179L7.17192 54.9639C11.0196 61.772 20.9385 61.8333 24.8641 55.0585L24.4314 54.8078L23.9988 54.5571C20.4613 60.6624 11.51 60.6075 8.0425 54.4719L7.60721 54.7179ZM24.4314 54.8078L24.8641 55.0584C28.7842 48.2926 23.7717 39.3907 15.7658 39.6029L15.7791 40.1027L15.7923 40.6025C22.9872 40.4119 27.5413 48.443 23.9988 54.5571L24.4314 54.8078ZM15.7791 40.1027H16.2791V40.0978H15.7791H15.2791V40.1027H15.7791ZM47.3767 52.2306L47.4548 52.7245C48.4263 52.571 49.1302 52.8289 49.6084 53.2581C50.0985 53.698 50.3933 54.3565 50.4545 55.061C50.5157 55.7658 50.3391 56.473 49.9432 56.9989C49.5572 57.5116 48.9403 57.8839 48.0357 57.9056L48.0476 58.4054L48.0596 58.9053C49.2611 58.8765 50.167 58.3642 50.7421 57.6003C51.3073 56.8496 51.5301 55.8882 51.4507 54.9744C51.3713 54.0603 50.9854 53.1503 50.2764 52.5139C49.5553 51.8667 48.5416 51.5403 47.2987 51.7368L47.3767 52.2306ZM48.0476 58.4054L48.0359 57.9056C46.4471 57.943 45.5467 56.8022 45.4232 55.5187C45.2991 54.2272 45.9736 52.9592 47.455 52.7245L47.3767 52.2306L47.2985 51.7368C45.1647 52.0749 44.2668 53.9393 44.4278 55.6144C44.5897 57.2976 45.8323 58.9578 48.0594 58.9053L48.0476 58.4054ZM15.6004 52.2345L15.6625 52.7307C16.4994 52.6258 17.1458 52.8404 17.6139 53.2073C18.0893 53.5801 18.4094 54.1331 18.539 54.7427C18.8001 55.9706 18.2807 57.2914 16.9014 57.7319L17.0535 58.2082L17.2056 58.6845C19.1821 58.0532 19.8597 56.1462 19.5171 54.5347C19.3449 53.7246 18.9128 52.955 18.2308 52.4204C17.5415 51.8799 16.6249 51.6023 15.5382 51.7384L15.6004 52.2345ZM17.0535 58.2082L16.9013 57.7319C15.9317 58.0419 15.1898 57.8857 14.6585 57.5272C14.1129 57.1591 13.7355 56.5402 13.5873 55.8417C13.439 55.1428 13.5306 54.4107 13.8638 53.839C14.1882 53.2825 14.76 52.8432 15.6622 52.7307L15.6004 52.2345L15.5385 51.7384C14.3345 51.8885 13.4851 52.5029 12.9999 53.3354C12.5236 54.1525 12.4171 55.1446 12.609 56.0492C12.801 56.9542 13.3018 57.8181 14.0992 58.3562C14.9109 58.9039 15.9765 59.0774 17.2057 58.6844L17.0535 58.2082ZM16.6414 56.4631L16.8651 56.9102C17.8016 56.4418 18.0283 55.4748 17.7644 54.7092C17.4997 53.9411 16.7246 53.3186 15.6841 53.5093L15.7742 54.0011L15.8643 54.4929C16.3563 54.4028 16.6938 54.6717 16.819 55.035C16.945 55.4007 16.839 55.8051 16.4177 56.0159L16.6414 56.4631ZM15.7742 54.0011L15.6843 53.5093C15.0623 53.623 14.628 53.974 14.4099 54.4474C14.2011 54.9006 14.2122 55.4159 14.3605 55.8555C14.5089 56.2953 14.8131 56.7139 15.2608 56.9465C15.7277 57.1891 16.2915 57.1981 16.8657 56.9099L16.6414 56.4631L16.4171 56.0162C16.1034 56.1736 15.879 56.1408 15.7219 56.0592C15.5458 55.9677 15.3904 55.7797 15.3081 55.5358C15.2257 55.2917 15.2351 55.0459 15.3181 54.8659C15.3917 54.7061 15.5427 54.5517 15.8641 54.493L15.7742 54.0011ZM49.0262 56.0129L49.443 56.289C49.7436 55.8354 49.8294 55.3518 49.7324 54.9048C49.6374 54.4673 49.3758 54.1024 49.0461 53.8519C48.3937 53.3562 47.3553 53.2427 46.6249 54.0277L46.991 54.3683L47.3571 54.7089C47.6626 54.3805 48.1039 54.3919 48.4412 54.6481C48.6063 54.7736 48.717 54.9413 48.7551 55.1169C48.7912 55.283 48.7709 55.4929 48.6093 55.7367L49.0262 56.0129ZM46.991 54.3683L46.6258 54.0268C46.2057 54.476 46.0497 54.9995 46.1213 55.5015C46.1905 55.9874 46.4654 56.4055 46.819 56.6901C47.1725 56.9746 47.6393 57.1535 48.1275 57.1136C48.6327 57.0723 49.1049 56.8006 49.4433 56.2885L49.0262 56.0129L48.609 55.7372C48.4268 56.0129 48.2224 56.1025 48.0461 56.1169C47.8527 56.1327 47.6331 56.0617 47.446 55.9111C47.2591 55.7607 47.1395 55.5588 47.1113 55.3604C47.0853 55.1781 47.1289 54.9529 47.3562 54.7099L46.991 54.3683ZM20.8953 46.8244L20.9674 47.3191C23.7831 46.9086 25.1482 50.3648 22.948 51.9639L23.242 52.3683L23.5359 52.7728C26.6202 50.5311 24.6241 45.7754 20.8232 46.3296L20.8953 46.8244ZM23.242 52.3683L22.948 51.9639C20.9161 53.4406 18.1542 51.3588 19.0491 48.9288L18.5799 48.756L18.1107 48.5832C16.8919 51.8929 20.663 54.8608 23.5359 52.7728L23.242 52.3683ZM18.5799 48.756L19.0485 48.9302C19.3394 48.1475 20.17 47.44 20.9666 47.3251L20.8953 46.8302L20.824 46.3354C19.6335 46.507 18.5181 47.4869 18.1112 48.5818L18.5799 48.756ZM20.8953 46.8302H21.3953V46.8244H20.8953H20.3953V46.8302H20.8953ZM10.0388 46.8244L10.1108 47.3192C11.0829 47.1778 11.7849 47.4138 12.2644 47.8067C12.7529 48.2069 13.0557 48.8075 13.1482 49.4652C13.337 50.8074 12.6528 52.1598 11.2344 52.4008L11.3181 52.8937L11.4019 53.3867C13.5138 53.0278 14.3778 51.0274 14.1385 49.3259C14.0169 48.4617 13.6115 47.6176 12.8982 47.0332C12.1759 46.4414 11.1828 46.1528 9.9669 46.3296L10.0388 46.8244ZM11.3181 52.8937L11.2347 52.4007C10.2629 52.5652 9.55209 52.3375 9.06155 51.944C8.56112 51.5426 8.24506 50.9322 8.14433 50.2639C7.93933 48.904 8.6233 47.5352 10.1107 47.3192L10.0388 46.8244L9.96699 46.3296C7.76512 46.6493 6.89527 48.6866 7.1555 50.413C7.28738 51.2879 7.70869 52.1408 8.43586 52.7241C9.17292 53.3153 10.1799 53.5935 11.4016 53.3867L11.3181 52.8937ZM41.9051 46.8244L41.9829 47.3183C44.8301 46.8694 46.2224 50.3141 44.0927 51.9332L44.3953 52.3312L44.6979 52.7293C47.7043 50.4438 45.6391 45.7295 41.8272 46.3305L41.9051 46.8244ZM44.3953 52.3312L44.0924 51.9334C42.3432 53.2655 39.7742 51.8366 39.9561 49.6351L39.4578 49.5939L38.9595 49.5527C38.7083 52.5922 42.2402 54.601 44.6982 52.729L44.3953 52.3312ZM39.4578 49.5939L39.9561 49.6348C39.996 49.1485 40.2448 48.6006 40.6357 48.1483C41.0273 47.6951 41.5149 47.3909 41.9818 47.3185L41.9051 46.8244L41.8284 46.3303C41.0639 46.449 40.3781 46.9169 39.8791 47.4944C39.3793 48.0727 39.0201 48.8141 38.9595 49.553L39.4578 49.5939ZM52.7635 46.8244L52.8407 47.3184C53.7892 47.17 54.4839 47.4033 54.9638 47.7991C55.4537 48.2032 55.762 48.8121 55.8572 49.4766C56.0507 50.8268 55.368 52.1824 53.8799 52.3989L53.9519 52.8937L54.0239 53.3885C56.2194 53.069 57.0934 51.0535 56.8471 49.3348C56.7225 48.4648 56.3119 47.6148 55.6001 47.0277C54.8783 46.4324 53.8886 46.1423 52.6862 46.3304L52.7635 46.8244ZM53.9519 52.8937L53.8797 52.399C52.9143 52.54 52.2124 52.3032 51.7314 51.908C51.2414 51.5054 50.9373 50.9021 50.8464 50.244C50.6619 48.908 51.3528 47.5511 52.8407 47.3184L52.7635 46.8244L52.6862 46.3304C50.5114 46.6706 49.6191 48.6664 49.8558 50.3808C49.9755 51.248 50.3831 52.0944 51.0965 52.6806C51.819 53.2743 52.8121 53.5655 54.0242 53.3885L53.9519 52.8937ZM54.4119 49.1164L54.8205 48.8282C54.1892 47.9329 52.7821 47.7746 52.0077 48.6268L52.3777 48.9631L52.7478 49.2993C53.0621 48.9533 53.7149 48.9955 54.0033 49.4045L54.4119 49.1164ZM52.3777 48.9631V48.4631H52.3719V48.9631V49.4631H52.3777V48.9631ZM52.3719 48.9631L52.0008 48.6279C51.6615 49.0035 51.5321 49.506 51.5604 49.9678C51.5887 50.4295 51.7786 50.9121 52.1595 51.2442L52.4881 50.8673L52.8167 50.4905C52.6744 50.3664 52.5737 50.1542 52.5585 49.9065C52.5433 49.6588 52.6173 49.4372 52.7429 49.2982L52.3719 48.9631ZM52.4881 50.8673L52.1595 51.2443C52.9475 51.9312 53.9375 51.7486 54.5402 51.2159C55.1508 50.6764 55.4402 49.7136 54.8215 48.8297L54.4119 49.1164L54.0023 49.4031C54.2821 49.8029 54.1725 50.2063 53.878 50.4666C53.5756 50.7339 53.1544 50.7849 52.8166 50.4904L52.4881 50.8673ZM21.1433 51.1427L21.0647 51.6365C21.7527 51.7461 22.3286 51.5716 22.7249 51.1834C23.1082 50.8082 23.2675 50.2875 23.2488 49.8009C23.2301 49.3144 23.0317 48.8086 22.6286 48.4604C22.211 48.0998 21.6302 47.9569 20.9586 48.1092L21.0691 48.5968L21.1797 49.0845C21.5835 48.9929 21.8285 49.0907 21.975 49.2172C22.1359 49.3562 22.2397 49.5839 22.2495 49.8393C22.2593 50.0945 22.1733 50.324 22.0253 50.469C21.8904 50.6011 21.6491 50.717 21.222 50.649L21.1433 51.1427ZM21.0691 48.5968L20.957 48.1096C20.0292 48.323 19.6432 49.185 19.6634 49.9155C19.6836 50.6469 20.1185 51.4859 21.0648 51.6365L21.1433 51.1427L21.2219 50.649C20.9001 50.5977 20.6746 50.3073 20.663 49.8879C20.6514 49.4676 20.8622 49.1575 21.1812 49.0841L21.0691 48.5968ZM42.2381 51.1379L42.1593 51.6316C42.8384 51.74 43.4086 51.5675 43.8023 51.1841C44.1831 50.8134 44.3441 50.2984 44.3281 49.8152C44.3121 49.3319 44.1177 48.8291 43.7196 48.4796C43.3079 48.1183 42.7327 47.9684 42.0633 48.1073L42.1648 48.5968L42.2664 49.0864C42.6696 49.0028 42.914 49.1031 43.0599 49.2312C43.2193 49.3711 43.3203 49.5969 43.3286 49.8483C43.3369 50.0997 43.251 50.3252 43.1047 50.4676C42.9714 50.5974 42.7343 50.7107 42.3168 50.6441L42.2381 51.1379ZM42.1648 48.5968L42.0625 48.1074C41.1226 48.304 40.7177 49.1626 40.7344 49.9005C40.7512 50.6424 41.1981 51.4797 42.16 51.6317L42.2381 51.1379L42.3161 50.644C41.9675 50.5889 41.7435 50.2883 41.7342 49.8778C41.7248 49.4633 41.9387 49.1549 42.2672 49.0863L42.1648 48.5968ZM10.4568 51.1427L10.4074 51.6403C11.0631 51.7054 11.6027 51.5019 11.9657 51.1111C12.3165 50.7334 12.4586 50.2279 12.432 49.756C12.4053 49.2838 12.2071 48.7968 11.8133 48.4602C11.4065 48.1124 10.8446 47.9712 10.195 48.1075L10.2976 48.5968L10.4003 49.0862C10.7865 49.0052 11.0219 49.0993 11.1636 49.2203C11.3183 49.3526 11.4198 49.5679 11.4336 49.8123C11.4474 50.057 11.3706 50.2824 11.233 50.4306C11.1075 50.5657 10.8888 50.6832 10.5062 50.6452L10.4568 51.1427ZM10.2976 48.5968L10.1949 48.1075C9.24598 48.3068 8.8264 49.182 8.85295 49.9352C8.88017 50.7074 9.37917 51.5382 10.4074 51.6403L10.4568 51.1427L10.5062 50.6452C10.0916 50.604 9.86634 50.2973 9.85233 49.9C9.83766 49.4838 10.0599 49.1577 10.4004 49.0862L10.2976 48.5968ZM15.9578 41.3341L15.9749 41.8339C16.8053 41.8055 17.4204 42.0985 17.8439 42.539C18.2758 42.9882 18.53 43.6149 18.5747 44.2713C18.6194 44.9277 18.4523 45.5804 18.0853 46.0797C17.7257 46.5689 17.1552 46.9385 16.3238 47.017L16.3709 47.5148L16.4179 48.0126C17.526 47.9079 18.3584 47.3966 18.8911 46.6719C19.4164 45.9573 19.6309 45.0629 19.5724 44.2034C19.5139 43.3439 19.18 42.4859 18.5647 41.8459C17.941 41.1972 17.0499 40.7966 15.9407 40.8344L15.9578 41.3341ZM16.3709 47.5148L16.3246 47.017C15.4063 47.1023 14.7409 46.8186 14.2914 46.3778C13.8317 45.9271 13.5648 45.2788 13.5241 44.5958C13.4833 43.9127 13.6712 43.2329 14.0711 42.725C14.4622 42.2281 15.0794 41.8648 15.9751 41.8338L15.9578 41.3341L15.9405 40.8344C14.7619 40.8752 13.8656 41.3695 13.2854 42.1063C12.714 42.8321 12.4726 43.7621 12.5258 44.6553C12.5791 45.5486 12.9294 46.443 13.5913 47.0919C14.2633 47.7508 15.224 48.1236 16.4172 48.0127L16.3709 47.5148ZM47.8191 41.3341L47.8329 41.834C48.7052 41.8099 49.336 42.1122 49.7612 42.5561C50.1947 43.0087 50.4413 43.6374 50.4758 44.2946C50.5105 44.9522 50.3311 45.6053 49.9558 46.1014C49.5879 46.5877 49.015 46.9471 48.1984 47.0104L48.2371 47.5089L48.2758 48.0075C49.375 47.9221 50.2111 47.4214 50.7533 46.7047C51.2881 45.9978 51.5199 45.1049 51.4745 44.242C51.429 43.3788 51.1043 42.5126 50.4833 41.8643C49.8539 41.2073 48.9466 40.8028 47.8053 40.8343L47.8191 41.3341ZM48.2371 47.5089L48.1982 47.0105C47.261 47.0835 46.5955 46.7906 46.1532 46.3476C45.701 45.8946 45.4463 45.2475 45.4159 44.5665C45.3855 43.885 45.5816 43.2077 45.9812 42.7037C46.372 42.2106 46.9762 41.8578 47.833 41.834L47.8191 41.3341L47.8052 40.8343C46.6564 40.8663 45.7741 41.3551 45.1975 42.0825C44.6296 42.7989 44.3772 43.7209 44.4169 44.611C44.4566 45.5015 44.7907 46.3981 45.4455 47.0541C46.1102 47.72 47.07 48.1015 48.276 48.0074L48.2371 47.5089ZM16.0428 43.1066L16.0303 42.6068C14.8501 42.6363 14.2555 43.594 14.2564 44.4617C14.2569 44.8984 14.4021 45.3532 14.7235 45.7009C15.0535 46.058 15.5339 46.2634 16.1194 46.248L16.1062 45.7482L16.0931 45.2484C15.7695 45.2569 15.5753 45.1493 15.4579 45.0222C15.3317 44.8857 15.2567 44.6851 15.2564 44.4607C15.256 44.0063 15.5388 43.6194 16.0553 43.6064L16.0428 43.1066ZM16.1062 45.7482L16.1194 46.248C16.7048 46.2326 17.1716 46.0025 17.4776 45.6247C17.7748 45.258 17.8853 44.7956 17.8576 44.3636C17.8033 43.5178 17.1768 42.5804 16.0313 42.6067L16.0428 43.1066L16.0542 43.6065C16.5152 43.5959 16.8293 43.9553 16.8596 44.4276C16.8742 44.6545 16.813 44.8565 16.7006 44.9953C16.5971 45.1231 16.4166 45.2398 16.093 45.2484L16.1062 45.7482ZM47.8982 43.1164L47.8777 42.6168C46.702 42.6651 46.1283 43.6208 46.1414 44.4832C46.148 44.9158 46.2969 45.3638 46.614 45.7059C46.9399 46.0574 47.4121 46.2626 47.9859 46.2471L47.9724 45.7472L47.9589 45.2474C47.653 45.2557 47.4646 45.1525 47.3474 45.0261C47.2214 44.8902 47.1447 44.6905 47.1413 44.4681C47.1345 44.0205 47.4036 43.6371 47.9187 43.616L47.8982 43.1164ZM47.9724 45.7472L47.9861 46.247C48.5637 46.2313 49.0234 45.9946 49.3255 45.6188C49.6186 45.2543 49.7357 44.7945 49.715 44.3621C49.6942 43.9298 49.534 43.4863 49.2218 43.1495C48.9002 42.8027 48.4367 42.5918 47.8759 42.6169L47.8982 43.1164L47.9206 43.6159C48.1868 43.604 48.3661 43.6974 48.4885 43.8294C48.6202 43.9715 48.7051 44.1814 48.7161 44.4101C48.7271 44.6386 48.6626 44.8474 48.5462 44.9922C48.4388 45.1258 48.2611 45.2392 47.9588 45.2474L47.9724 45.7472ZM26.7869 38.3L26.7577 38.7991C28.4634 38.8989 30.2408 38.8313 31.9813 38.7738C33.7322 38.716 35.4479 38.6684 37.0752 38.7984L37.115 38.3L37.1548 37.8016C35.4629 37.6664 33.6926 37.7168 31.9483 37.7744C30.1937 37.8323 28.4666 37.8973 26.8161 37.8008L26.7869 38.3ZM37.115 38.3L37.0768 38.7985C37.4021 38.8234 37.7198 38.9121 37.9525 39.0607C38.1723 39.201 38.3063 39.3848 38.3361 39.641L38.8328 39.5832L39.3294 39.5254C39.2587 38.917 38.9143 38.4884 38.4907 38.2179C38.0798 37.9555 37.589 37.8348 37.1532 37.8014L37.115 38.3ZM38.8328 39.5832L38.3364 39.6434C38.3961 40.1349 38.4069 40.6701 38.3177 41.1578C38.2284 41.646 38.0458 42.052 37.7481 42.335L38.0926 42.6974L38.437 43.0598C38.9374 42.5843 39.1884 41.9557 39.3014 41.3377C39.4145 40.7192 39.3963 40.0765 39.3292 39.5229L38.8328 39.5832ZM38.0926 42.6974V43.1974H38.0984V42.6974V42.1974H38.0926V42.6974ZM38.0984 42.6974L37.7554 42.3336C37.4865 42.5872 36.9869 42.8155 36.6216 42.8523L36.6717 43.3498L36.7217 43.8473C37.3076 43.7883 38.0129 43.4653 38.4414 43.0612L38.0984 42.6974ZM36.6717 43.3498L36.7 42.8506C35.1774 42.7642 33.5977 42.8224 32.0529 42.8719C30.4983 42.9217 28.9772 42.9629 27.5284 42.8512L27.49 43.3498L27.4516 43.8483C28.9628 43.9648 30.5366 43.921 32.085 43.8714C33.6432 43.8214 35.1743 43.7656 36.6433 43.849L36.6717 43.3498ZM27.49 43.3498L27.5275 42.8512C26.6853 42.7879 26.1671 42.3683 25.8744 41.7821C25.5687 41.1699 25.4992 40.3464 25.6657 39.5231L25.1756 39.424L24.6855 39.3249C24.4873 40.3052 24.5497 41.3675 24.9798 42.2288C25.4228 43.1162 26.2442 43.7576 27.4526 43.8484L27.49 43.3498ZM25.1756 39.424L25.6659 39.5219C25.6959 39.3717 25.8224 39.1936 26.0645 39.0387C26.303 38.8862 26.5835 38.8035 26.7955 38.7999L26.7869 38.3L26.7783 37.8C26.3614 37.8072 25.9025 37.9552 25.5256 38.1963C25.1523 38.4351 24.7876 38.8136 24.6853 39.3261L25.1756 39.424ZM26.9139 40.0714L26.4143 40.0925C26.4198 40.2224 26.4116 40.3538 26.4047 40.5262C26.3985 40.6827 26.3932 40.8783 26.4225 41.0688C26.4527 41.2657 26.5245 41.4916 26.6982 41.6867C26.8741 41.8843 27.1115 42.0022 27.3845 42.0612L27.49 41.5724L27.5955 41.0837C27.475 41.0577 27.4469 41.0237 27.4451 41.0217C27.4411 41.0173 27.423 40.9959 27.4109 40.917C27.3978 40.8318 27.3977 40.7231 27.4039 40.566C27.4096 40.4249 27.4211 40.2334 27.4134 40.0504L26.9139 40.0714ZM27.49 41.5724L27.5236 42.0713C28.9105 41.978 30.3888 42.0439 31.8998 42.1033C33.398 42.1622 34.9275 42.2145 36.3635 42.081L36.3172 41.5832L36.2709 41.0853C34.9108 41.2118 33.4459 41.1633 31.9391 41.104C30.4451 41.0453 28.9078 40.9759 27.4565 41.0736L27.49 41.5724ZM36.3172 41.5832L36.3636 42.081C36.6566 42.0537 36.9256 41.9782 37.1412 41.8149C37.3691 41.6424 37.4817 41.4145 37.5333 41.1938C37.5811 40.9894 37.58 40.7756 37.575 40.6027C37.5693 40.4088 37.5586 40.2565 37.5622 40.0818L37.0623 40.0714L36.5624 40.0611C36.5581 40.2683 36.5711 40.4847 36.5754 40.6318C36.5803 40.7998 36.5752 40.8993 36.5596 40.9661C36.5478 41.0165 36.5376 41.0177 36.5376 41.0177C36.5252 41.027 36.4613 41.0675 36.2707 41.0853L36.3172 41.5832ZM37.0623 40.0714V39.5714H26.9139V40.0714V40.5714H37.0623V40.0714ZM39.0564 32.0988L39.055 31.5988L24.7102 31.6408L24.7117 32.1408L24.7132 32.6408L39.0579 32.5988L39.0564 32.0988ZM24.7117 32.1408L24.6435 31.6455C24.4482 31.6724 24.2752 31.7823 24.1701 31.8571C24.0458 31.9456 23.9218 32.0554 23.8126 32.1666C23.7038 32.2774 23.5978 32.4017 23.5151 32.5238C23.4739 32.5847 23.4324 32.6538 23.3995 32.7272C23.3702 32.7926 23.3291 32.9018 23.3289 33.0316L23.8289 33.0324L24.3289 33.0332C24.3288 33.1073 24.3069 33.1479 24.3122 33.1359C24.314 33.132 24.3225 33.1149 24.3431 33.0846C24.3838 33.0245 24.448 32.9468 24.5261 32.8672C24.6039 32.788 24.6837 32.719 24.7501 32.6717C24.7833 32.6481 24.8068 32.6344 24.8199 32.6279C24.8371 32.6193 24.8212 32.6304 24.7799 32.6361L24.7117 32.1408ZM23.8289 33.0324H23.3289V34.7619H23.8289H24.3289V33.0324H23.8289ZM23.8289 34.7619V35.2619H40.1609V34.7619V34.2619H23.8289V34.7619ZM40.1609 34.7619H40.6609V33.0265H40.1609H39.6609V34.7619H40.1609ZM40.1609 33.0265L40.6609 33.0247C40.6604 32.8872 40.6147 32.7702 40.5818 32.6992C40.5446 32.6188 40.4971 32.5418 40.4482 32.4722C40.3499 32.3326 40.2217 32.1889 40.0841 32.062C39.9479 31.9363 39.7848 31.8108 39.6124 31.7216C39.4603 31.6429 39.2018 31.5404 38.9241 31.6166L39.0564 32.0988L39.1887 32.581C39.0933 32.6071 39.0639 32.5637 39.153 32.6098C39.2217 32.6454 39.3118 32.7101 39.406 32.797C39.4989 32.8827 39.5783 32.9737 39.6303 33.0476C39.6565 33.0848 39.6697 33.1092 39.6745 33.1195C39.6836 33.1392 39.6612 33.1021 39.6609 33.0283L40.1609 33.0265ZM41.1336 16.2365L40.8891 15.8003L34.0649 19.6255L34.3094 20.0617L34.5538 20.4978L41.3781 16.6726L41.1336 16.2365ZM34.3094 20.0617L34.1025 19.6065C32.8607 20.1707 31.3942 20.2829 30.1818 19.7521L29.9812 20.2101L29.7807 20.6681C31.3058 21.3359 33.0732 21.1725 34.5162 20.5169L34.3094 20.0617ZM29.9812 20.2101L30.2253 19.7737L23.111 15.7952L22.867 16.2316L22.6229 16.668L29.7372 20.6465L29.9812 20.2101ZM22.867 16.2316H22.367V21.2394H22.867H23.367V16.2316H22.867ZM22.867 21.2394H22.367C22.367 21.436 22.4558 21.6153 22.5143 21.7193C22.585 21.8449 22.6773 21.9723 22.7759 22.0865C22.8743 22.2005 22.9902 22.3146 23.1137 22.4071C23.2232 22.4891 23.3974 22.5994 23.6055 22.6222L23.6599 22.1252L23.7144 21.6281C23.7533 21.6324 23.7708 21.6428 23.7622 21.6386C23.7556 21.6354 23.7391 21.6261 23.7131 21.6067C23.6607 21.5674 23.5965 21.5068 23.533 21.4332C23.4697 21.3599 23.4183 21.2866 23.3857 21.2288C23.3695 21.2 23.362 21.1821 23.3596 21.1754C23.3555 21.164 23.367 21.1892 23.367 21.2394H22.867ZM23.6599 22.1252L23.6586 22.6252L40.1274 22.6681L40.1287 22.1681L40.13 21.6681L23.6612 21.6252L23.6599 22.1252ZM40.1287 22.1681L40.1094 22.6678C40.3266 22.6762 40.5277 22.6066 40.6846 22.5273C40.8471 22.4451 40.9993 22.3337 41.1296 22.2125C41.2597 22.0913 41.3804 21.9488 41.4718 21.7958C41.5587 21.6505 41.6441 21.4541 41.6443 21.2351L41.1443 21.2345L40.6443 21.234C40.6444 21.2006 40.6535 21.2158 40.6135 21.2827C40.578 21.342 40.5211 21.4126 40.4482 21.4805C40.3755 21.5482 40.2993 21.6015 40.2333 21.6349C40.1617 21.6711 40.1342 21.668 40.148 21.6685L40.1287 22.1681ZM41.1443 21.2345H41.6443V16.2267H41.1443H40.6443V21.2345H41.1443ZM41.1443 16.2267L40.808 15.8568L40.7972 15.8665L41.1336 16.2365L41.4699 16.6065L41.4807 16.5967L41.1443 16.2267ZM32.9412 2.88493L33.0703 2.40189C31.6527 2.02288 30.5643 2.57883 29.5396 3.10878L29.7693 3.5529L29.999 3.99701C31.0461 3.45548 31.8091 3.09983 32.8121 3.36796L32.9412 2.88493ZM29.7693 3.5529L29.5397 3.10876C27.4384 4.19526 25.3897 5.39417 23.354 6.58671C21.3144 7.78148 19.288 8.96976 17.2136 10.0477L17.4441 10.4914L17.6747 10.935C19.7755 9.84339 21.824 8.64191 23.8594 7.44957C25.8987 6.255 27.9249 5.06947 29.999 3.99703L29.7693 3.5529ZM17.4441 10.4914L17.1694 10.0736C17.0874 10.1275 16.946 10.2243 16.8302 10.3587C16.7124 10.4954 16.5688 10.7346 16.6236 11.045L17.116 10.9582L17.6084 10.8713C17.6165 10.9171 17.6093 10.959 17.5985 10.9878C17.5894 11.0123 17.5805 11.0199 17.5878 11.0114C17.5947 11.0034 17.609 10.9892 17.6338 10.9695C17.6581 10.9502 17.6864 10.9305 17.7188 10.9091L17.4441 10.4914ZM17.116 10.9582L16.8726 11.3949L30.8365 19.1771L31.0799 18.7404L31.3233 18.3036L17.3594 10.5214L17.116 10.9582ZM31.0799 18.7404L30.9912 19.2325C31.8894 19.3943 32.8518 19.35 33.7296 18.9125L33.5066 18.465L33.2836 18.0175C32.6499 18.3333 31.9193 18.3835 31.1685 18.2483L31.0799 18.7404ZM33.5066 18.465L33.754 18.8995L45.5987 12.1574L45.3513 11.7228L45.104 11.2883L33.2593 18.0305L33.5066 18.465ZM45.3513 11.7228V11.2228H31.8152V11.7228V12.2228H45.3513V11.7228ZM31.8152 11.7228V11.2228C31.8532 11.2228 31.8834 11.2272 31.9012 11.2304C31.9202 11.2338 31.9356 11.2377 31.9459 11.2406C31.966 11.2462 31.9808 11.2518 31.9875 11.2545C31.9952 11.2575 32.0007 11.2599 32.0032 11.2611C32.006 11.2623 32.0076 11.2631 32.0077 11.2631C32.0078 11.2632 32.0053 11.262 31.9998 11.259C31.9946 11.2562 31.9878 11.2525 31.9795 11.2478C31.9452 11.2284 31.8973 11.1996 31.846 11.1675C31.7948 11.1354 31.7454 11.103 31.7077 11.077C31.6886 11.0638 31.6758 11.0544 31.6687 11.0489C31.6651 11.0462 31.6654 11.0462 31.6682 11.0487C31.6692 11.0495 31.6817 11.0601 31.6979 11.0778L31.3289 11.4152L30.9599 11.7526C31.019 11.8173 31.106 11.8767 31.1385 11.8992C31.1921 11.9363 31.2549 11.9772 31.3147 12.0147C31.3743 12.052 31.4359 12.0892 31.4873 12.1183C31.5122 12.1324 31.5404 12.1477 31.5672 12.1609C31.5799 12.1671 31.5997 12.1765 31.6228 12.1856C31.6341 12.19 31.653 12.1971 31.6765 12.2036C31.6924 12.2081 31.7457 12.2228 31.8152 12.2228V11.7228ZM31.3289 11.4152L31.7049 11.0857C31.6944 11.0736 31.6693 11.0338 31.6598 10.9465C31.6505 10.8608 31.6599 10.7572 31.689 10.6564C31.7187 10.5534 31.7606 10.4818 31.7917 10.4461C31.8244 10.4086 31.8063 10.4503 31.7306 10.4504L31.7303 9.95036L31.73 9.45036C31.4191 9.45054 31.185 9.62037 31.0381 9.78875C30.8896 9.95903 30.7882 10.171 30.7281 10.3792C30.6168 10.765 30.5979 11.3397 30.9528 11.7447L31.3289 11.4152ZM31.7303 9.95036V10.4504H45.367V9.95036V9.45036H31.7303V9.95036ZM45.367 9.95036L45.7972 9.69563L45.681 9.49934L45.2508 9.75407L44.8205 10.0088L44.9367 10.2051L45.367 9.95036ZM45.2508 9.75407L45.4944 9.31745L33.1848 2.44831L32.9412 2.88493L32.6975 3.32155L45.0071 10.1907L45.2508 9.75407Z" fill="url(#paint1_linear_2056_2481)" mask="url(#path-1-outside-1_2056_2481)"/>
<defs>
<linearGradient id="paint0_linear_2056_2481" x1="19.3512" y1="22.1873" x2="48.49" y2="62.4421" gradientUnits="userSpaceOnUse">
<stop stop-color="#FCD30B"/>
<stop offset="1" stop-color="#2269FF"/>
</linearGradient>
<linearGradient id="paint1_linear_2056_2481" x1="31.9884" y1="1" x2="70.566" y2="67.5541" gradientUnits="userSpaceOnUse">
<stop stop-color="#FCD30B"/>
<stop offset="1" stop-color="#046FE1"/>
</linearGradient>
</defs>
</svg>
