<svg width="67" height="68" viewBox="0 0 67 68" fill="none" xmlns="http://www.w3.org/2000/svg">
<mask id="path-1-outside-1_2056_2504" maskUnits="userSpaceOnUse" x="0" y="0" width="67" height="68" fill="black">
<rect fill="white" width="67" height="68"/>
<path d="M5.35934 52.0011C5.35934 52.0011 5.49827 52.4815 5.82321 52.7677C8.43825 55.0807 14.5806 56.3416 18.0156 56.9064C21.4507 57.4712 25.0409 57.8192 28.5224 57.8888L26.8281 56.3029L29.2109 53.3556L36.3134 58.5539C37.559 59.9387 37.1412 60.8521 35.9267 61.9816C34.008 63.7765 31.2144 65.2778 29.1797 67.0031L26.8047 63.6916L28.9013 62.0744C22.0931 61.5638 14.7278 61.0683 8.29098 58.6545C5.24278 57.5094 1.46778 55.6605 1.17379 52.0011H5.35934ZM66.1367 52.009C65.6901 56.4676 60.1781 58.439 56.4511 59.506C52.1188 60.7515 47.4538 61.3396 42.9668 61.6955L42.789 57.7189C48.2047 56.9143 56.1111 56.434 60.7607 53.3781C61.4411 52.9297 61.8667 52.0102 61.9599 52.009H66.1367ZM16.6543 1.27263C27.6944 0.413863 39.8565 1.91407 51.0127 1.3029C55.1748 1.74387 58.2847 5.21764 57.9677 9.44938C62.1919 9.12444 65.6974 12.2354 66.1152 16.4054C66.8656 23.9408 65.6201 32.6369 66.1152 40.2961C65.6819 43.9863 63.0046 46.9572 59.2138 47.259C53.628 47.6999 47.4309 46.9567 41.7832 47.2043C39.7871 46.8484 39.88 43.5219 39.0058 42.0519L28.4755 41.9279C27.3383 43.5913 27.733 46.9958 25.2109 47.2511C19.6406 46.8334 13.2343 47.8234 7.76461 47.2277C4.08992 46.8252 1.37501 43.568 1.1816 39.9396C1.63802 32.4042 0.601365 24.2111 1.1816 16.7531C1.52208 12.3667 4.9178 9.17111 9.35836 9.44938C9.0569 5.00112 12.2756 1.61311 16.6543 1.27263ZM8.55367 13.5041L8.54684 13.4963C6.89894 13.62 5.5837 14.7264 5.35934 16.3898V40.3263C5.59916 42.1211 7.11492 43.2125 8.86325 43.2746L23.4707 43.2433C23.8342 43.1186 24.2985 41.0845 24.5615 40.5353C25.0567 39.5065 26.0156 38.5391 27.0908 38.1291C28.7155 37.5024 36.2593 37.5877 38.3095 37.7502C40.3596 37.9127 41.8995 38.7253 42.8046 40.6672C43.1141 41.3326 43.3773 43.1507 44.0039 43.2668H58.6259C60.4594 43.0501 61.7897 42.0516 61.9599 40.1408C62.6252 32.5822 61.4493 24.0489 61.9599 16.3898C61.7201 14.5949 60.2035 13.5035 58.455 13.4416L8.55367 13.5041ZM32.2744 17.6584C33.4813 17.3876 37.1178 17.5575 38.2861 18.0217C42.5644 19.7314 42.8432 25.5811 39.2148 28.1574L41.8134 32.4201L38.4951 34.5168L34.9824 29.4025V33.7736H30.998V18.8498C31.0755 18.5326 31.8798 17.7437 32.2744 17.6584ZM26.6425 18.3009L21.9775 32.6213C21.1497 34.2459 18.8436 34.1217 18.2324 32.3732L13.5214 18.2853L17.5127 17.047L19.9814 25.0236C20.4685 25.1009 20.2754 24.9774 20.3759 24.7531C21.3972 22.494 21.9771 19.4221 22.8281 17.0392L26.6425 18.3009ZM50.1308 17.6584C56.645 16.3277 57.016 26.4709 50.4863 25.5734C46.1696 24.9851 46.1775 18.463 50.1308 17.6584ZM34.9902 25.0236C38.5955 25.4414 38.6264 21.0776 34.9902 21.6037V25.0236ZM16.1054 5.47282C14.2022 5.85965 13.2189 7.57802 13.3349 9.44255H53.9755L53.9834 9.44938C54.1301 7.40718 52.8309 5.4583 50.665 5.45036L16.1054 5.47282Z"/>
</mask>
<path d="M5.35934 52.0011C5.35934 52.0011 5.49827 52.4815 5.82321 52.7677C8.43825 55.0807 14.5806 56.3416 18.0156 56.9064C21.4507 57.4712 25.0409 57.8192 28.5224 57.8888L26.8281 56.3029L29.2109 53.3556L36.3134 58.5539C37.559 59.9387 37.1412 60.8521 35.9267 61.9816C34.008 63.7765 31.2144 65.2778 29.1797 67.0031L26.8047 63.6916L28.9013 62.0744C22.0931 61.5638 14.7278 61.0683 8.29098 58.6545C5.24278 57.5094 1.46778 55.6605 1.17379 52.0011H5.35934ZM66.1367 52.009C65.6901 56.4676 60.1781 58.439 56.4511 59.506C52.1188 60.7515 47.4538 61.3396 42.9668 61.6955L42.789 57.7189C48.2047 56.9143 56.1111 56.434 60.7607 53.3781C61.4411 52.9297 61.8667 52.0102 61.9599 52.009H66.1367ZM16.6543 1.27263C27.6944 0.413863 39.8565 1.91407 51.0127 1.3029C55.1748 1.74387 58.2847 5.21764 57.9677 9.44938C62.1919 9.12444 65.6974 12.2354 66.1152 16.4054C66.8656 23.9408 65.6201 32.6369 66.1152 40.2961C65.6819 43.9863 63.0046 46.9572 59.2138 47.259C53.628 47.6999 47.4309 46.9567 41.7832 47.2043C39.7871 46.8484 39.88 43.5219 39.0058 42.0519L28.4755 41.9279C27.3383 43.5913 27.733 46.9958 25.2109 47.2511C19.6406 46.8334 13.2343 47.8234 7.76461 47.2277C4.08992 46.8252 1.37501 43.568 1.1816 39.9396C1.63802 32.4042 0.601365 24.2111 1.1816 16.7531C1.52208 12.3667 4.9178 9.17111 9.35836 9.44938C9.0569 5.00112 12.2756 1.61311 16.6543 1.27263ZM8.55367 13.5041L8.54684 13.4963C6.89894 13.62 5.5837 14.7264 5.35934 16.3898V40.3263C5.59916 42.1211 7.11492 43.2125 8.86325 43.2746L23.4707 43.2433C23.8342 43.1186 24.2985 41.0845 24.5615 40.5353C25.0567 39.5065 26.0156 38.5391 27.0908 38.1291C28.7155 37.5024 36.2593 37.5877 38.3095 37.7502C40.3596 37.9127 41.8995 38.7253 42.8046 40.6672C43.1141 41.3326 43.3773 43.1507 44.0039 43.2668H58.6259C60.4594 43.0501 61.7897 42.0516 61.9599 40.1408C62.6252 32.5822 61.4493 24.0489 61.9599 16.3898C61.7201 14.5949 60.2035 13.5035 58.455 13.4416L8.55367 13.5041ZM32.2744 17.6584C33.4813 17.3876 37.1178 17.5575 38.2861 18.0217C42.5644 19.7314 42.8432 25.5811 39.2148 28.1574L41.8134 32.4201L38.4951 34.5168L34.9824 29.4025V33.7736H30.998V18.8498C31.0755 18.5326 31.8798 17.7437 32.2744 17.6584ZM26.6425 18.3009L21.9775 32.6213C21.1497 34.2459 18.8436 34.1217 18.2324 32.3732L13.5214 18.2853L17.5127 17.047L19.9814 25.0236C20.4685 25.1009 20.2754 24.9774 20.3759 24.7531C21.3972 22.494 21.9771 19.4221 22.8281 17.0392L26.6425 18.3009ZM50.1308 17.6584C56.645 16.3277 57.016 26.4709 50.4863 25.5734C46.1696 24.9851 46.1775 18.463 50.1308 17.6584ZM34.9902 25.0236C38.5955 25.4414 38.6264 21.0776 34.9902 21.6037V25.0236ZM16.1054 5.47282C14.2022 5.85965 13.2189 7.57802 13.3349 9.44255H53.9755L53.9834 9.44938C54.1301 7.40718 52.8309 5.4583 50.665 5.45036L16.1054 5.47282Z" fill="url(#paint0_linear_2056_2504)"/>
<path d="M5.35934 52.0011L5.83965 51.8622L5.73522 51.5011H5.35934V52.0011ZM5.82321 52.7677L6.15447 52.3932L6.15372 52.3926L5.82321 52.7677ZM18.0156 56.9064L17.9345 57.3998H17.9345L18.0156 56.9064ZM28.5224 57.8888L28.5124 58.3887L29.816 58.4148L28.8641 57.5238L28.5224 57.8888ZM26.8281 56.3029L26.4393 55.9885L26.1469 56.3502L26.4864 56.6679L26.8281 56.3029ZM29.2109 53.3556L29.5062 52.9522L29.1217 52.6707L28.8221 53.0413L29.2109 53.3556ZM36.3134 58.5539L36.6852 58.2195L36.6505 58.181L36.6087 58.1504L36.3134 58.5539ZM35.9267 61.9816L35.5862 61.6155L35.5851 61.6165L35.9267 61.9816ZM29.1797 67.0031L28.7733 67.2945L29.0894 67.7352L29.503 67.3845L29.1797 67.0031ZM26.8047 63.6916L26.4993 63.2957L26.1169 63.5906L26.3983 63.983L26.8047 63.6916ZM28.9013 62.0744L29.2067 62.4703L30.2399 61.6734L28.9387 61.5758L28.9013 62.0744ZM8.29098 58.6545L8.11515 59.1225L8.11542 59.1226L8.29098 58.6545ZM1.17379 52.0011V51.5011H0.632012L0.675397 52.0412L1.17379 52.0011ZM66.1367 52.009L66.6342 52.0588L66.6893 51.509H66.1367V52.009ZM56.4511 59.506L56.3135 59.0253L56.313 59.0255L56.4511 59.506ZM42.9668 61.6955L42.4673 61.7178L42.4904 62.2348L43.0063 62.1939L42.9668 61.6955ZM42.789 57.7189L42.7155 57.2243L42.2694 57.2906L42.2895 57.7412L42.789 57.7189ZM60.7607 53.3781L61.0353 53.7959L61.0359 53.7956L60.7607 53.3781ZM61.9599 52.009V51.5089L61.9535 51.509L61.9599 52.009ZM16.6543 1.27263L16.693 1.77112L16.693 1.77112L16.6543 1.27263ZM51.0127 1.3029L51.0653 0.805682L51.0254 0.801451L50.9853 0.803648L51.0127 1.3029ZM57.9677 9.44938L57.4691 9.41204L57.4257 9.99256L58.0061 9.94791L57.9677 9.44938ZM66.1152 16.4054L66.6127 16.3559L66.6127 16.3556L66.1152 16.4054ZM66.1152 40.2961L66.6118 40.3544L66.6171 40.3092L66.6142 40.2638L66.1152 40.2961ZM59.2138 47.259L59.2532 47.7574L59.2535 47.7574L59.2138 47.259ZM41.7832 47.2043L41.6954 47.6965L41.7498 47.7062L41.8051 47.7038L41.7832 47.2043ZM39.0058 42.0519L39.4356 41.7963L39.2922 41.5553L39.0117 41.552L39.0058 42.0519ZM28.4755 41.9279L28.4814 41.4279L28.2138 41.4248L28.0628 41.6457L28.4755 41.9279ZM25.2109 47.2511L25.1735 47.7497L25.2174 47.753L25.2613 47.7486L25.2109 47.2511ZM7.76461 47.2277L7.71017 47.7247L7.71048 47.7248L7.76461 47.2277ZM1.1816 39.9396L0.682519 39.9094L0.680798 39.9378L0.682313 39.9662L1.1816 39.9396ZM1.1816 16.7531L1.6801 16.7919L1.6801 16.7918L1.1816 16.7531ZM9.35836 9.44938L9.32709 9.94841L9.89574 9.98404L9.85722 9.41558L9.35836 9.44938ZM8.55367 13.5041L8.17739 13.8333L8.32704 14.0044L8.5543 14.0041L8.55367 13.5041ZM8.54684 13.4963L8.92313 13.167L8.75857 12.9789L8.50939 12.9977L8.54684 13.4963ZM5.35934 16.3898L4.86383 16.323L4.85934 16.3562V16.3898H5.35934ZM5.35934 40.3263H4.85934V40.3596L4.86374 40.3926L5.35934 40.3263ZM8.86325 43.2746L8.84551 43.7743L8.85491 43.7746L8.86431 43.7746L8.86325 43.2746ZM23.4707 43.2433L23.4717 43.7433L23.5546 43.7432L23.6329 43.7163L23.4707 43.2433ZM24.5615 40.5353L24.111 40.3185L24.1105 40.3194L24.5615 40.5353ZM27.0908 38.1291L27.2689 38.5963L27.2707 38.5956L27.0908 38.1291ZM38.3095 37.7502L38.349 37.2517H38.349L38.3095 37.7502ZM42.8046 40.6672L43.258 40.4563L43.2578 40.4559L42.8046 40.6672ZM44.0039 43.2668L43.9128 43.7584L43.958 43.7668H44.0039V43.2668ZM58.6259 43.2668V43.7668H58.6554L58.6846 43.7633L58.6259 43.2668ZM61.9599 40.1408L62.458 40.1852L62.458 40.1846L61.9599 40.1408ZM61.9599 16.3898L62.4588 16.4231L62.4621 16.3732L62.4555 16.3236L61.9599 16.3898ZM58.455 13.4416L58.4727 12.9419L58.4636 12.9416L58.4544 12.9416L58.455 13.4416ZM32.2744 17.6584L32.3801 18.1471L32.3838 18.1462L32.2744 17.6584ZM38.2861 18.0217L38.4716 17.5574L38.4707 17.557L38.2861 18.0217ZM39.2148 28.1574L38.9253 27.7497L38.5452 28.0196L38.7879 28.4177L39.2148 28.1574ZM41.8134 32.4201L42.0805 32.8428L42.4965 32.58L42.2404 32.1598L41.8134 32.4201ZM38.4951 34.5168L38.0829 34.7998L38.3554 35.1965L38.7622 34.9395L38.4951 34.5168ZM34.9824 29.4025L35.3945 29.1194L34.4824 27.7914V29.4025H34.9824ZM34.9824 33.7736V34.2736H35.4824V33.7736H34.9824ZM30.998 33.7736H30.498V34.2736H30.998V33.7736ZM30.998 18.8498L30.5123 18.7312L30.498 18.7896V18.8498H30.998ZM26.6425 18.3009L27.118 18.4558L27.2721 17.9826L26.7996 17.8262L26.6425 18.3009ZM21.9775 32.6213L22.423 32.8483L22.4408 32.8134L22.4529 32.7761L21.9775 32.6213ZM18.2324 32.3732L17.7582 32.5318L17.7604 32.5382L18.2324 32.3732ZM13.5214 18.2853L13.3733 17.8078L12.8852 17.9592L13.0473 18.4439L13.5214 18.2853ZM17.5127 17.047L17.9903 16.8992L17.8424 16.4212L17.3645 16.5695L17.5127 17.047ZM19.9814 25.0236L19.5038 25.1714L19.5958 25.4687L19.9031 25.5174L19.9814 25.0236ZM20.3759 24.7531L19.9203 24.5471L19.9197 24.5486L20.3759 24.7531ZM22.8281 17.0392L22.9851 16.5645L22.5215 16.4112L22.3572 16.8711L22.8281 17.0392ZM50.1308 17.6584L50.2305 18.1483L50.2309 18.1483L50.1308 17.6584ZM50.4863 25.5734L50.5544 25.0781L50.5538 25.078L50.4863 25.5734ZM34.9902 25.0236H34.4902V25.469L34.9326 25.5203L34.9902 25.0236ZM34.9902 21.6037L34.9186 21.1088L34.4902 21.1708V21.6037H34.9902ZM16.1054 5.47282L16.1051 4.97282L16.055 4.97285L16.0058 4.98284L16.1054 5.47282ZM13.3349 9.44255L12.8359 9.47361L12.8651 9.94255H13.3349V9.44255ZM53.9755 9.44255L54.3048 9.06626L54.1634 8.94255H53.9755V9.44255ZM53.9834 9.44938L53.6541 9.82567L54.4101 10.4871L54.4821 9.48523L53.9834 9.44938ZM50.665 5.45036L50.6668 4.95036L50.6647 4.95036L50.665 5.45036ZM5.35934 52.0011C4.87902 52.1401 4.87906 52.1402 4.87909 52.1403C4.8791 52.1403 4.87913 52.1404 4.87916 52.1405C4.8792 52.1407 4.87925 52.1409 4.8793 52.141C4.87941 52.1414 4.87952 52.1418 4.87964 52.1422C4.87988 52.143 4.88016 52.1439 4.88048 52.145C4.88111 52.1471 4.88189 52.1497 4.88282 52.1528C4.88469 52.1589 4.88716 52.1668 4.89025 52.1764C4.89644 52.1954 4.90515 52.2213 4.91653 52.2524C4.93916 52.3143 4.97299 52.399 5.01926 52.4947C5.10826 52.6788 5.25926 52.9373 5.49269 53.1429L5.82321 52.7677L6.15372 52.3926C6.06222 52.312 5.98128 52.1871 5.91958 52.0595C5.8905 51.9993 5.86929 51.9461 5.85572 51.909C5.84899 51.8906 5.84432 51.8766 5.84163 51.8683C5.84029 51.8642 5.83946 51.8615 5.83913 51.8604C5.83897 51.8599 5.83893 51.8598 5.83902 51.8601C5.83906 51.8602 5.83914 51.8604 5.83924 51.8608C5.83929 51.861 5.83935 51.8612 5.83942 51.8614C5.83946 51.8615 5.83949 51.8617 5.83953 51.8618C5.83955 51.8619 5.83958 51.862 5.83959 51.862C5.83962 51.8621 5.83965 51.8622 5.35934 52.0011ZM5.82321 52.7677L5.49194 53.1423C6.8877 54.3768 9.16987 55.2947 11.4707 55.9723C13.7908 56.6556 16.2079 57.1159 17.9345 57.3998L18.0156 56.9064L18.0967 56.413C16.3882 56.1321 14.0167 55.6796 11.7532 55.013C9.47027 54.3407 7.37376 53.4717 6.15447 52.3932L5.82321 52.7677ZM18.0156 56.9064L17.9345 57.3998C21.3913 57.9681 25.0054 58.3186 28.5124 58.3887L28.5224 57.8888L28.5324 57.3889C25.0765 57.3198 21.51 56.9742 18.0967 56.413L18.0156 56.9064ZM28.5224 57.8888L28.8641 57.5238L27.1698 55.9379L26.8281 56.3029L26.4864 56.6679L28.1807 58.2539L28.5224 57.8888ZM26.8281 56.3029L27.2169 56.6173L29.5997 53.67L29.2109 53.3556L28.8221 53.0413L26.4393 55.9885L26.8281 56.3029ZM29.2109 53.3556L28.9156 53.7591L36.0181 58.9574L36.3134 58.5539L36.6087 58.1504L29.5062 52.9522L29.2109 53.3556ZM36.3134 58.5539L35.9417 58.8882C36.5149 59.5256 36.6111 59.9477 36.551 60.2724C36.4824 60.6424 36.1868 61.0569 35.5862 61.6155L35.9267 61.9816L36.2672 62.3477C36.8811 61.7768 37.4017 61.1699 37.5342 60.4546C37.6752 59.6939 37.3575 58.967 36.6852 58.2195L36.3134 58.5539ZM35.9267 61.9816L35.5851 61.6165C34.6576 62.4842 33.5101 63.2883 32.3145 64.1057C31.1316 64.9145 29.8983 65.7382 28.8563 66.6217L29.1797 67.0031L29.503 67.3845C30.4958 66.5427 31.6767 65.7532 32.8789 64.9312C34.0685 64.1179 35.2772 63.2739 36.2683 62.3467L35.9267 61.9816ZM29.1797 67.0031L29.586 66.7117L27.211 63.4002L26.8047 63.6916L26.3983 63.983L28.7733 67.2945L29.1797 67.0031ZM26.8047 63.6916L27.11 64.0875L29.2067 62.4703L28.9013 62.0744L28.596 61.6785L26.4993 63.2957L26.8047 63.6916ZM28.9013 62.0744L28.9387 61.5758C22.1114 61.0637 14.8233 60.5701 8.46654 58.1863L8.29098 58.6545L8.11542 59.1226C14.6323 61.5665 22.0748 62.0638 28.8639 62.573L28.9013 62.0744ZM8.29098 58.6545L8.4668 58.1864C6.95386 57.6181 5.30675 56.8909 4.00722 55.8765C2.71515 54.868 1.8044 53.6068 1.67219 51.9611L1.17379 52.0011L0.675397 52.0412C0.83717 54.0548 1.96092 55.5478 3.3919 56.6648C4.81541 57.776 6.57991 58.5458 8.11515 59.1225L8.29098 58.6545ZM1.17379 52.0011V52.5011H5.35934V52.0011V51.5011H1.17379V52.0011ZM66.1367 52.009L65.6392 51.9591C65.438 53.9683 64.0967 55.4605 62.2597 56.605C60.4227 57.7494 58.1701 58.4938 56.3135 59.0253L56.4511 59.506L56.5888 59.9867C58.4591 59.4512 60.826 58.6764 62.7885 57.4537C64.7509 56.2311 66.3889 54.5082 66.6342 52.0588L66.1367 52.009ZM56.4511 59.506L56.313 59.0255C52.0282 60.2573 47.4019 60.8422 42.9272 61.197L42.9668 61.6955L43.0063 62.1939C47.5057 61.8371 52.2094 61.2457 56.5893 59.9866L56.4511 59.506ZM42.9668 61.6955L43.4663 61.6732L43.2885 57.6966L42.789 57.7189L42.2895 57.7412L42.4673 61.7178L42.9668 61.6955ZM42.789 57.7189L42.8625 58.2135C45.5296 57.8172 48.9124 57.4882 52.1537 56.8843C55.4036 56.2788 58.6242 55.3806 61.0353 53.7959L60.7607 53.3781L60.4861 52.9603C58.2476 54.4315 55.1901 55.3014 51.9705 55.9012C48.7423 56.5026 45.4641 56.816 42.7155 57.2243L42.789 57.7189ZM60.7607 53.3781L61.0359 53.7956C61.4563 53.5184 61.7766 53.1133 61.9882 52.8153C62.0923 52.6686 62.1888 52.52 62.2421 52.4419C62.2566 52.4206 62.2683 52.4039 62.2777 52.3908C62.2824 52.3844 62.286 52.3795 62.2888 52.376C62.2916 52.3723 62.2929 52.3707 62.2929 52.3708C62.2928 52.3709 62.2922 52.3716 62.2911 52.3728C62.29 52.3741 62.2881 52.3761 62.2855 52.3788C62.2811 52.3835 62.2711 52.3935 62.2561 52.4058C62.2497 52.4111 62.142 52.5067 61.9664 52.5089L61.9599 52.009L61.9535 51.509C61.7662 51.5114 61.6442 51.6143 61.621 51.6334C61.5777 51.669 61.5451 51.7062 61.5262 51.7287C61.4868 51.7758 61.4476 51.832 61.4157 51.8787C61.3417 51.9874 61.2718 52.0969 61.1728 52.2364C60.9782 52.5104 60.7455 52.7893 60.4855 52.9606L60.7607 53.3781ZM61.9599 52.009V52.509H66.1367V52.009V51.509H61.9599V52.009ZM16.6543 1.27263L16.693 1.77112C22.1815 1.3442 27.9555 1.50324 33.7735 1.69465C39.5815 1.88572 45.4354 2.10919 51.04 1.80215L51.0127 1.3029L50.9853 0.803648C45.4338 1.10778 39.6285 0.886731 33.8064 0.695188C27.9943 0.503975 22.1671 0.342293 16.6155 0.774132L16.6543 1.27263ZM51.0127 1.3029L50.96 1.80012C54.8708 2.21446 57.7646 5.46671 57.4691 9.41204L57.9677 9.44938L58.4663 9.48673C58.8047 4.96857 55.4789 1.27328 51.0653 0.805682L51.0127 1.3029ZM57.9677 9.44938L58.0061 9.94791C61.9452 9.6449 65.2255 12.5411 65.6177 16.4553L66.1152 16.4054L66.6127 16.3556C66.1693 11.9297 62.4387 8.60399 57.9294 8.95086L57.9677 9.44938ZM66.1152 16.4054L65.6177 16.455C65.9889 20.1834 65.8671 24.2082 65.7113 28.2853C65.556 32.349 65.3666 36.4673 65.6162 40.3283L66.1152 40.2961L66.6142 40.2638C66.3686 36.4657 66.5545 32.4064 66.7105 28.3234C66.8661 24.2538 66.9918 20.1628 66.6127 16.3559L66.1152 16.4054ZM66.1152 40.2961L65.6186 40.2378C65.2093 43.7234 62.6961 46.4801 59.1741 46.7605L59.2138 47.259L59.2535 47.7574C63.3131 47.4342 66.1544 44.2492 66.6118 40.3544L66.1152 40.2961ZM59.2138 47.259L59.1745 46.7605C56.4133 46.9785 53.4938 46.9042 50.5386 46.8044C47.5933 46.705 44.6091 46.5799 41.7613 46.7047L41.7832 47.2043L41.8051 47.7038C44.6049 47.5811 47.5432 47.7038 50.5048 47.8039C53.4566 47.9035 56.4286 47.9804 59.2532 47.7574L59.2138 47.259ZM41.7832 47.2043L41.8709 46.712C41.1889 46.5904 40.7881 45.9614 40.4505 44.895C40.2856 44.3741 40.1631 43.8464 40.0097 43.2934C39.8638 42.7674 39.6914 42.2265 39.4356 41.7963L39.0058 42.0519L38.5761 42.3075C38.7574 42.6124 38.9012 43.0385 39.0461 43.5607C39.1835 44.056 39.3265 44.6578 39.4971 45.1968C39.8306 46.2501 40.3814 47.4622 41.6954 47.6965L41.7832 47.2043ZM39.0058 42.0519L39.0117 41.552L28.4814 41.4279L28.4755 41.9279L28.4697 42.4279L38.9999 42.5519L39.0058 42.0519ZM28.4755 41.9279L28.0628 41.6457C27.7314 42.1304 27.5253 42.7194 27.3603 43.2856C27.1847 43.8882 27.066 44.4187 26.8876 44.9614C26.7152 45.4855 26.5182 45.9103 26.2498 46.2152C25.996 46.5036 25.663 46.7028 25.1605 46.7537L25.2109 47.2511L25.2613 47.7486C26.0199 47.6718 26.5833 47.3498 27.0004 46.876C27.4029 46.4187 27.6511 45.8406 27.8375 45.2737C28.0178 44.7254 28.1713 44.077 28.3204 43.5654C28.48 43.0174 28.6511 42.5571 28.8883 42.2101L28.4755 41.9279ZM25.2109 47.2511L25.2483 46.7525C22.428 46.541 19.4012 46.6862 16.4298 46.8066C13.4435 46.9276 10.5109 47.0238 7.81875 46.7306L7.76461 47.2277L7.71048 47.7248C10.4881 48.0273 13.4935 47.9264 16.4703 47.8058C19.462 47.6845 22.4235 47.5435 25.1735 47.7497L25.2109 47.2511ZM7.76461 47.2277L7.81905 46.7307C4.41754 46.3581 1.86292 43.3278 1.6809 39.913L1.1816 39.9396L0.682313 39.9662C0.887104 43.8081 3.76231 47.2923 7.71017 47.7247L7.76461 47.2277ZM1.1816 39.9396L1.68069 39.9698C1.9106 36.1741 1.76426 32.2167 1.6349 28.3008C1.50519 24.3747 1.39246 20.489 1.6801 16.7919L1.1816 16.7531L0.683111 16.7143C0.390511 20.4752 0.505981 24.415 0.635441 28.3338C0.765242 32.2629 0.909024 36.1698 0.682519 39.9094L1.1816 39.9396ZM1.1816 16.7531L1.6801 16.7918C2.001 12.6575 5.17904 9.68846 9.32709 9.94841L9.35836 9.44938L9.38963 8.95036C4.65656 8.65375 1.04315 12.0758 0.683104 16.7144L1.1816 16.7531ZM9.35836 9.44938L9.85722 9.41558C9.57587 5.26409 12.5639 2.09219 16.693 1.77112L16.6543 1.27263L16.6155 0.774131C11.9872 1.13402 8.53794 4.73815 8.85951 9.48319L9.35836 9.44938ZM8.55367 13.5041L8.92996 13.1748L8.92313 13.167L8.54684 13.4963L8.17055 13.8255L8.17739 13.8333L8.55367 13.5041ZM8.54684 13.4963L8.50939 12.9977C6.6517 13.1372 5.12308 14.4009 4.86383 16.323L5.35934 16.3898L5.85485 16.4566C6.04432 15.0519 7.14617 14.1029 8.58429 13.9949L8.54684 13.4963ZM5.35934 16.3898H4.85934V40.3263H5.35934H5.85934V16.3898H5.35934ZM5.35934 40.3263L4.86374 40.3926C5.14244 42.4783 6.90681 43.7055 8.84551 43.7743L8.86325 43.2746L8.88098 42.7749C7.32304 42.7196 6.05588 41.7639 5.85493 40.2601L5.35934 40.3263ZM8.86325 43.2746L8.86431 43.7746L23.4717 43.7433L23.4707 43.2433L23.4696 42.7433L8.86217 42.7746L8.86325 43.2746ZM23.4707 43.2433L23.6329 43.7163C23.8371 43.6462 23.9615 43.4852 24.0209 43.4003C24.0939 43.2958 24.1575 43.1728 24.2125 43.0521C24.3235 42.8085 24.4309 42.5032 24.5289 42.2043C24.6261 41.9079 24.7251 41.5827 24.8075 41.3247C24.896 41.0477 24.9643 40.8519 25.0124 40.7513L24.5615 40.5353L24.1105 40.3194C24.0272 40.4934 23.9388 40.7577 23.8549 41.0205C23.765 41.3022 23.6759 41.5963 23.5787 41.8927C23.4823 42.1865 23.3891 42.4474 23.3025 42.6375C23.2587 42.7336 23.2244 42.7943 23.2014 42.8271C23.1648 42.8794 23.1951 42.8093 23.3084 42.7704L23.4707 43.2433ZM24.5615 40.5353L25.012 40.7522C25.4599 39.8216 26.3297 38.9544 27.2689 38.5963L27.0908 38.1291L26.9126 37.6619C25.7014 38.1238 24.6534 39.1915 24.111 40.3185L24.5615 40.5353ZM27.0908 38.1291L27.2707 38.5956C27.5991 38.4689 28.3041 38.3594 29.2808 38.281C30.2337 38.2046 31.3813 38.1619 32.5484 38.1436C34.8862 38.107 37.2672 38.1691 38.27 38.2486L38.3095 37.7502L38.349 37.2517C37.3017 37.1687 34.8856 37.1069 32.5328 37.1438C31.3546 37.1622 30.1835 37.2055 29.2009 37.2842C28.2421 37.3611 27.3948 37.4759 26.9108 37.6626L27.0908 38.1291ZM38.3095 37.7502L38.27 38.2486C39.2411 38.3256 40.0555 38.5539 40.7236 38.9668C41.3866 39.3765 41.9357 39.9865 42.3515 40.8784L42.8046 40.6672L43.2578 40.4559C42.7684 39.406 42.0951 38.6388 41.2493 38.1161C40.4087 37.5966 39.428 37.3373 38.349 37.2517L38.3095 37.7502ZM42.8046 40.6672L42.3513 40.878C42.4102 41.0047 42.475 41.2068 42.5547 41.4785C42.6298 41.7347 42.7157 42.0432 42.8106 42.3301C42.9049 42.6148 43.0198 42.916 43.1663 43.1614C43.3001 43.3857 43.5329 43.6881 43.9128 43.7584L44.0039 43.2668L44.0949 42.7751C44.1615 42.7875 44.1265 42.819 44.025 42.649C43.9362 42.5001 43.8485 42.2834 43.76 42.0159C43.6722 41.7506 43.595 41.4725 43.5142 41.197C43.438 40.9371 43.3538 40.6624 43.258 40.4563L42.8046 40.6672ZM44.0039 43.2668V43.7668H58.6259V43.2668V42.7668H44.0039V43.2668ZM58.6259 43.2668L58.6846 43.7633C59.6725 43.6466 60.5686 43.3143 61.2479 42.7137C61.9353 42.1058 62.3626 41.256 62.458 40.1852L61.9599 40.1408L61.4619 40.0964C61.3871 40.9364 61.0641 41.5413 60.5854 41.9645C60.0986 42.395 59.4129 42.6703 58.5673 42.7702L58.6259 43.2668ZM61.9599 40.1408L62.458 40.1846C62.7938 36.3696 62.6644 32.3161 62.5176 28.2848C62.3703 24.2415 62.2056 20.2216 62.4588 16.4231L61.9599 16.3898L61.461 16.3566C61.2037 20.2172 61.3716 24.2935 61.5183 28.3212C61.6654 32.361 61.7913 36.3535 61.4618 40.097L61.9599 40.1408ZM61.9599 16.3898L62.4555 16.3236C62.1768 14.2376 60.4115 13.0105 58.4727 12.9419L58.455 13.4416L58.4374 13.9413C59.9956 13.9964 61.2634 14.9522 61.4643 16.456L61.9599 16.3898ZM58.455 13.4416L58.4544 12.9416L8.55305 13.0041L8.55367 13.5041L8.5543 14.0041L58.4557 13.9416L58.455 13.4416ZM32.2744 17.6584L32.3838 18.1462C32.9136 18.0274 34.0632 17.9971 35.2671 18.0636C35.8587 18.0963 36.4451 18.1514 36.951 18.2257C37.4665 18.3014 37.8655 18.3926 38.1015 18.4863L38.2861 18.0217L38.4707 17.557C38.1225 17.4186 37.6289 17.3145 37.0963 17.2363C36.554 17.1567 35.9367 17.0991 35.3223 17.0652C34.1142 16.9984 32.8421 17.0186 32.1649 17.1705L32.2744 17.6584ZM38.2861 18.0217L38.1005 18.4859C41.9559 20.0267 42.2805 25.3674 38.9253 27.7497L39.2148 28.1574L39.5043 28.5651C43.4059 25.7948 43.1729 19.4362 38.4716 17.5574L38.2861 18.0217ZM39.2148 28.1574L38.7879 28.4177L41.3865 32.6803L41.8134 32.4201L42.2404 32.1598L39.6417 27.8971L39.2148 28.1574ZM41.8134 32.4201L41.5464 31.9974L38.228 34.0941L38.4951 34.5168L38.7622 34.9395L42.0805 32.8428L41.8134 32.4201ZM38.4951 34.5168L38.9072 34.2337L35.3945 29.1194L34.9824 29.4025L34.5702 29.6856L38.0829 34.7998L38.4951 34.5168ZM34.9824 29.4025H34.4824V33.7736H34.9824H35.4824V29.4025H34.9824ZM34.9824 33.7736V33.2736H30.998V33.7736V34.2736H34.9824V33.7736ZM30.998 33.7736H31.498V18.8498H30.998H30.498V33.7736H30.998ZM30.998 18.8498L31.4837 18.9684C31.4764 18.9985 31.483 18.9607 31.5706 18.8472C31.6445 18.7513 31.7466 18.6391 31.862 18.5293C31.9774 18.4195 32.0969 18.3207 32.2028 18.2478C32.2556 18.2115 32.3002 18.1849 32.3354 18.1671C32.373 18.148 32.3868 18.1456 32.3801 18.1471L32.2744 17.6584L32.1687 17.1697C31.972 17.2122 31.7822 17.3234 31.6359 17.424C31.4776 17.533 31.3172 17.6672 31.1725 17.805C31.0279 17.9427 30.8897 18.0925 30.7787 18.2365C30.6813 18.3627 30.5584 18.5424 30.5123 18.7312L30.998 18.8498ZM26.6425 18.3009L26.1671 18.1461L21.5021 32.4664L21.9775 32.6213L22.4529 32.7761L27.118 18.4558L26.6425 18.3009ZM21.9775 32.6213L21.532 32.3943C20.8993 33.6359 19.167 33.5316 18.7044 32.2082L18.2324 32.3732L17.7604 32.5382C18.5202 34.7118 21.4 34.856 22.423 32.8483L21.9775 32.6213ZM18.2324 32.3732L18.7066 32.2146L13.9956 18.1268L13.5214 18.2853L13.0473 18.4439L17.7582 32.5318L18.2324 32.3732ZM13.5214 18.2853L13.6696 18.7629L17.6608 17.5246L17.5127 17.047L17.3645 16.5695L13.3733 17.8078L13.5214 18.2853ZM17.5127 17.047L17.035 17.1949L19.5038 25.1714L19.9814 25.0236L20.4591 24.8758L17.9903 16.8992L17.5127 17.047ZM19.9814 25.0236L19.9031 25.5174C20.0261 25.5369 20.1576 25.5533 20.2748 25.5438C20.4078 25.5331 20.6429 25.4752 20.7688 25.2291C20.8143 25.1401 20.8266 25.0579 20.8313 25.0212C20.834 25.0005 20.8355 24.9819 20.8364 24.9707C20.8376 24.9553 20.8377 24.9529 20.8385 24.9442C20.8401 24.9254 20.8403 24.9395 20.8322 24.9576L20.3759 24.7531L19.9197 24.5486C19.8613 24.6788 19.8479 24.7925 19.8423 24.8575C19.8412 24.8698 19.8399 24.8873 19.8396 24.8909C19.839 24.8986 19.8389 24.8979 19.8394 24.894C19.8399 24.8899 19.8418 24.8761 19.8467 24.8569C19.8518 24.8373 19.8611 24.8078 19.8785 24.7738C19.8964 24.7386 19.9217 24.7014 19.9561 24.6666C19.9904 24.6319 20.0275 24.606 20.0631 24.5875C20.1298 24.5528 20.1835 24.548 20.194 24.5471C20.2065 24.5461 20.2042 24.5476 20.177 24.5452C20.1516 24.543 20.1141 24.5384 20.0598 24.5298L19.9814 25.0236ZM20.3759 24.7531L20.8316 24.9591C21.3594 23.7914 21.7684 22.4255 22.1472 21.0779C22.53 19.716 22.881 18.3776 23.299 17.2074L22.8281 17.0392L22.3572 16.8711C21.9241 18.0837 21.5596 19.4728 21.1845 20.8073C20.8053 22.1561 20.4137 23.4557 19.9203 24.5471L20.3759 24.7531ZM22.8281 17.0392L22.6711 17.5139L26.4855 18.7757L26.6425 18.3009L26.7996 17.8262L22.9851 16.5645L22.8281 17.0392ZM50.1308 17.6584L50.2309 18.1483C51.7256 17.8429 52.8051 18.2016 53.5218 18.8347C54.2523 19.4799 54.6596 20.4581 54.7004 21.4735C54.7413 22.4893 54.4135 23.4901 53.743 24.1796C53.0861 24.8553 52.0502 25.2837 50.5544 25.0781L50.4863 25.5734L50.4182 26.0688C52.1872 26.3119 53.5536 25.8089 54.46 24.8767C55.3529 23.9584 55.7496 22.6749 55.6996 21.4333C55.6497 20.1915 55.1509 18.9395 54.1838 18.0852C53.2029 17.2187 51.7932 16.8085 50.0308 17.1685L50.1308 17.6584ZM50.4863 25.5734L50.5538 25.078C48.6995 24.8253 47.7463 23.311 47.7071 21.685C47.6677 20.045 48.5599 18.4883 50.2305 18.1483L50.1308 17.6584L50.0311 17.1684C47.7485 17.633 46.66 19.7397 46.7074 21.709C46.7552 23.6923 47.9564 25.7333 50.4188 26.0688L50.4863 25.5734ZM34.9902 25.0236L34.9326 25.5203C35.9329 25.6362 36.7471 25.426 37.3238 24.9905C37.8997 24.5556 38.2032 23.9197 38.2057 23.275C38.2083 22.6292 37.9084 21.9943 37.3252 21.5704C36.7431 21.1474 35.9231 20.9635 34.9186 21.1088L34.9902 21.6037L35.0618 22.0985C35.8754 21.9808 36.4151 22.1452 36.7372 22.3793C37.0582 22.6126 37.207 22.9439 37.2057 23.2711C37.2044 23.5993 37.0514 23.9431 36.7212 24.1925C36.3918 24.4413 35.8501 24.6199 35.0478 24.5269L34.9902 25.0236ZM34.9902 21.6037H34.4902V25.0236H34.9902H35.4902V21.6037H34.9902ZM16.1054 5.47282L16.0058 4.98284C13.7994 5.4313 12.7084 7.42493 12.8359 9.47361L13.3349 9.44255L13.834 9.41149C13.7294 7.73111 14.605 6.28801 16.205 5.9628L16.1054 5.47282ZM13.3349 9.44255V9.94255H53.9755V9.44255V8.94255H13.3349V9.44255ZM53.9755 9.44255L53.6463 9.81884L53.6541 9.82567L53.9834 9.44938L54.3126 9.0731L54.3048 9.06626L53.9755 9.44255ZM53.9834 9.44938L54.4821 9.48523C54.6432 7.24289 53.2042 4.95967 50.6668 4.95036L50.665 5.45036L50.6632 5.95036C52.4576 5.95694 53.617 7.57147 53.4846 9.41354L53.9834 9.44938ZM50.665 5.45036L50.6647 4.95036L16.1051 4.97282L16.1054 5.47282L16.1058 5.97282L50.6653 5.95036L50.665 5.45036Z" fill="url(#paint1_linear_2056_2504)" mask="url(#path-1-outside-1_2056_2504)"/>
<defs>
<linearGradient id="paint0_linear_2056_2504" x1="20.3536" y1="18.9285" x2="42.8987" y2="57.7459" gradientUnits="userSpaceOnUse">
<stop stop-color="#FCD30B"/>
<stop offset="1" stop-color="#2269FF"/>
</linearGradient>
<linearGradient id="paint1_linear_2056_2504" x1="33.6811" y1="1" x2="62.4508" y2="62.8591" gradientUnits="userSpaceOnUse">
<stop stop-color="#FCD30B"/>
<stop offset="1" stop-color="#046FE1"/>
</linearGradient>
</defs>
</svg>
