<svg width="179" height="132" viewBox="0 0 179 132" fill="none" xmlns="http://www.w3.org/2000/svg">
<path d="M88.7619 61.8726C89.1028 61.1917 90.0357 61.1487 90.4504 61.7446L90.5256 61.8726L90.5266 61.8745L108.119 96.5093L108.156 96.5796L108.165 96.5894C108.444 97.2314 107.973 97.9711 107.246 97.9712H71.7776C71.0219 97.9712 70.5444 97.1775 70.8821 96.5122L88.759 61.8774L88.7619 61.8726Z" fill="#E9B100" stroke="url(#paint0_linear_1_1372)"/>
<path d="M88.8193 1.1416C89.2343 0.339601 90.3231 0.289443 90.8223 0.991211L90.9141 1.1416L90.915 1.14355L140.363 95.9844V95.9854C140.777 96.7836 140.193 97.7275 139.306 97.7275H121.227C120.852 97.7275 120.488 97.5393 120.272 97.2402L120.188 97.1055L120.187 97.1006L91.7188 43.6826H91.7197C90.9036 42.1314 88.6699 42.1309 87.8525 43.6807L59.2422 97.3037L59.2402 97.3086C59.0463 97.6819 58.6333 97.9297 58.1816 97.9297L39.6807 97.7881H39.6768C38.8541 97.7881 38.2961 96.95 38.5713 96.1982L38.6377 96.0498L88.4795 1.72363L88.5049 1.74902L88.8193 1.1416Z" fill="#1E63AD" stroke="url(#paint1_linear_1_1372)"/>
<mask id="path-3-inside-1_1_1372" fill="white">
<path d="M13.0493 129L11.9507 126.07H5.2002L4.07715 129H0.146484L7.10449 111.495H10.0952L17.0776 129H13.0493ZM6.4209 122.896H10.73L8.60596 117.306L6.4209 122.896ZM25.9399 129.244C24.2716 129.244 22.758 128.854 21.3989 128.072C20.048 127.291 18.986 126.213 18.2129 124.837C17.4479 123.462 17.0654 121.932 17.0654 120.248C17.0654 118.563 17.4479 117.033 18.2129 115.658C18.986 114.282 20.048 113.204 21.3989 112.423C22.758 111.642 24.2716 111.251 25.9399 111.251C27.299 111.251 28.5848 111.528 29.7974 112.081C31.0099 112.626 32.015 113.391 32.8125 114.376C33.6182 115.353 34.1024 116.443 34.2651 117.647H30.1392C29.9032 116.826 29.3945 116.154 28.6133 115.633C27.8402 115.112 26.9491 114.852 25.9399 114.852C24.4995 114.852 23.291 115.369 22.3145 116.402C21.346 117.428 20.8618 118.709 20.8618 120.248C20.8618 121.786 21.346 123.071 22.3145 124.105C23.291 125.139 24.4995 125.655 25.9399 125.655C26.9572 125.655 27.8564 125.37 28.6377 124.801C29.4271 124.231 29.9357 123.507 30.1636 122.628H34.314C33.9803 124.573 33.0322 126.164 31.4697 127.401C29.9154 128.63 28.0721 129.244 25.9399 129.244ZM36.4624 111.495H47.1802V115.047H40.1611V118.197H46.4111V121.749H40.1611V125.448H47.1802V129H36.4624V111.495ZM55.7251 129.244C53.8127 129.244 52.2298 128.674 50.9766 127.535C49.7233 126.396 49.0967 124.951 49.0967 123.202H52.7466C52.7466 123.967 53.0233 124.585 53.5767 125.057C54.13 125.521 54.8462 125.753 55.7251 125.753C56.5389 125.753 57.1981 125.578 57.7026 125.228C58.2153 124.878 58.4717 124.418 58.4717 123.849C58.4717 123.523 58.3659 123.238 58.1543 122.994C57.9427 122.75 57.6579 122.551 57.2998 122.396C56.9499 122.241 56.543 122.103 56.0791 121.981C55.6234 121.851 55.1392 121.721 54.6265 121.59C54.1219 121.452 53.6133 121.301 53.1006 121.139C52.596 120.976 52.1118 120.764 51.6479 120.504C51.1922 120.243 50.7853 119.942 50.4272 119.601C50.0773 119.251 49.7965 118.807 49.585 118.27C49.3734 117.725 49.2676 117.11 49.2676 116.427C49.2676 114.929 49.8372 113.692 50.9766 112.716C52.124 111.739 53.5645 111.251 55.2979 111.251C56.1361 111.251 56.9051 111.357 57.605 111.568C58.3049 111.772 58.8989 112.057 59.3872 112.423C59.8755 112.781 60.2865 113.208 60.6201 113.705C60.9538 114.193 61.1979 114.722 61.3525 115.292C61.5153 115.853 61.5967 116.447 61.5967 117.074H57.7759C57.7596 116.39 57.5155 115.833 57.0435 115.401C56.5796 114.97 55.957 114.754 55.1758 114.754C54.4759 114.754 53.9185 114.901 53.5034 115.194C53.0965 115.487 52.8931 115.89 52.8931 116.402C52.8931 116.712 52.9989 116.98 53.2104 117.208C53.422 117.428 53.7069 117.611 54.0649 117.757C54.423 117.896 54.8299 118.026 55.2856 118.148C55.7495 118.262 56.2378 118.384 56.7505 118.514C57.2632 118.644 57.7759 118.791 58.2886 118.954C58.8013 119.116 59.2855 119.332 59.7412 119.601C60.2051 119.869 60.616 120.187 60.9741 120.553C61.3322 120.911 61.617 121.371 61.8286 121.932C62.0402 122.494 62.146 123.132 62.146 123.849C62.146 125.403 61.5356 126.693 60.3149 127.718C59.1024 128.736 57.5724 129.244 55.7251 129.244ZM68.2007 112.423C69.5679 111.642 71.0897 111.251 72.7661 111.251C74.4425 111.251 75.9644 111.642 77.3315 112.423C78.6987 113.204 79.7689 114.282 80.542 115.658C81.3232 117.033 81.7139 118.563 81.7139 120.248C81.7139 121.932 81.3232 123.462 80.542 124.837C79.7689 126.213 78.6987 127.291 77.3315 128.072C75.9644 128.854 74.4425 129.244 72.7661 129.244C71.0897 129.244 69.5679 128.854 68.2007 128.072C66.8416 127.291 65.7756 126.213 65.0024 124.837C64.2293 123.462 63.8428 121.932 63.8428 120.248C63.8428 118.563 64.2293 117.033 65.0024 115.658C65.7756 114.282 66.8416 113.204 68.2007 112.423ZM76.4282 116.402C75.4517 115.369 74.231 114.852 72.7661 114.852C71.3013 114.852 70.0806 115.369 69.104 116.402C68.1274 117.428 67.6392 118.709 67.6392 120.248C67.6392 121.786 68.1274 123.071 69.104 124.105C70.0806 125.139 71.3013 125.655 72.7661 125.655C74.231 125.655 75.4517 125.139 76.4282 124.105C77.4048 123.071 77.8931 121.786 77.8931 120.248C77.8931 118.709 77.4048 117.428 76.4282 116.402ZM83.8745 111.495H94.5923V115.047H87.5732V118.697H93.8232V122.25H87.5732V129H83.8745V111.495ZM109.741 111.495V115.047H104.614V129H100.916V115.047H95.813V111.495H109.741Z"/>
<path d="M116.687 111.495H120.386V125.448H128.406V129H116.687V111.495ZM142.078 129L140.979 126.07H134.229L133.105 129H129.175L136.133 111.495H139.124L146.106 129H142.078ZM135.449 122.896H139.758L137.634 117.306L135.449 122.896ZM147.595 129V111.495H154.163C155.668 111.495 156.954 111.955 158.02 112.875C159.086 113.786 159.619 114.876 159.619 116.146C159.619 116.935 159.387 117.676 158.923 118.368C158.468 119.051 157.89 119.511 157.19 119.747C158.126 119.934 158.895 120.423 159.497 121.212C160.107 122.001 160.413 122.929 160.413 123.995C160.413 125.395 159.875 126.579 158.801 127.547C157.727 128.516 156.433 129 154.919 129H147.595ZM151.294 118.551H153.992C154.513 118.551 154.952 118.38 155.31 118.038C155.676 117.688 155.859 117.269 155.859 116.781C155.859 116.292 155.68 115.882 155.322 115.548C154.964 115.214 154.521 115.047 153.992 115.047H151.294V118.551ZM151.294 125.448H154.59C155.16 125.448 155.644 125.252 156.042 124.862C156.441 124.463 156.641 123.983 156.641 123.421C156.641 122.86 156.441 122.38 156.042 121.981C155.652 121.574 155.184 121.371 154.639 121.371H151.294V125.448ZM168.445 129.244C166.532 129.244 164.95 128.674 163.696 127.535C162.443 126.396 161.816 124.951 161.816 123.202H165.466C165.466 123.967 165.743 124.585 166.296 125.057C166.85 125.521 167.566 125.753 168.445 125.753C169.259 125.753 169.918 125.578 170.422 125.228C170.935 124.878 171.191 124.418 171.191 123.849C171.191 123.523 171.086 123.238 170.874 122.994C170.662 122.75 170.378 122.551 170.02 122.396C169.67 122.241 169.263 122.103 168.799 121.981C168.343 121.851 167.859 121.721 167.346 121.59C166.842 121.452 166.333 121.301 165.82 121.139C165.316 120.976 164.832 120.764 164.368 120.504C163.912 120.243 163.505 119.942 163.147 119.601C162.797 119.251 162.516 118.807 162.305 118.27C162.093 117.725 161.987 117.11 161.987 116.427C161.987 114.929 162.557 113.692 163.696 112.716C164.844 111.739 166.284 111.251 168.018 111.251C168.856 111.251 169.625 111.357 170.325 111.568C171.025 111.772 171.619 112.057 172.107 112.423C172.595 112.781 173.006 113.208 173.34 113.705C173.674 114.193 173.918 114.722 174.072 115.292C174.235 115.853 174.316 116.447 174.316 117.074H170.496C170.479 116.39 170.235 115.833 169.763 115.401C169.299 114.97 168.677 114.754 167.896 114.754C167.196 114.754 166.638 114.901 166.223 115.194C165.816 115.487 165.613 115.89 165.613 116.402C165.613 116.712 165.719 116.98 165.93 117.208C166.142 117.428 166.427 117.611 166.785 117.757C167.143 117.896 167.55 118.026 168.005 118.148C168.469 118.262 168.958 118.384 169.47 118.514C169.983 118.644 170.496 118.791 171.008 118.954C171.521 119.116 172.005 119.332 172.461 119.601C172.925 119.869 173.336 120.187 173.694 120.553C174.052 120.911 174.337 121.371 174.548 121.932C174.76 122.494 174.866 123.132 174.866 123.849C174.866 125.403 174.255 126.693 173.035 127.718C171.822 128.736 170.292 129.244 168.445 129.244Z"/>
</mask>
<path d="M13.0493 129L11.9507 126.07H5.2002L4.07715 129H0.146484L7.10449 111.495H10.0952L17.0776 129H13.0493ZM6.4209 122.896H10.73L8.60596 117.306L6.4209 122.896ZM25.9399 129.244C24.2716 129.244 22.758 128.854 21.3989 128.072C20.048 127.291 18.986 126.213 18.2129 124.837C17.4479 123.462 17.0654 121.932 17.0654 120.248C17.0654 118.563 17.4479 117.033 18.2129 115.658C18.986 114.282 20.048 113.204 21.3989 112.423C22.758 111.642 24.2716 111.251 25.9399 111.251C27.299 111.251 28.5848 111.528 29.7974 112.081C31.0099 112.626 32.015 113.391 32.8125 114.376C33.6182 115.353 34.1024 116.443 34.2651 117.647H30.1392C29.9032 116.826 29.3945 116.154 28.6133 115.633C27.8402 115.112 26.9491 114.852 25.9399 114.852C24.4995 114.852 23.291 115.369 22.3145 116.402C21.346 117.428 20.8618 118.709 20.8618 120.248C20.8618 121.786 21.346 123.071 22.3145 124.105C23.291 125.139 24.4995 125.655 25.9399 125.655C26.9572 125.655 27.8564 125.37 28.6377 124.801C29.4271 124.231 29.9357 123.507 30.1636 122.628H34.314C33.9803 124.573 33.0322 126.164 31.4697 127.401C29.9154 128.63 28.0721 129.244 25.9399 129.244ZM36.4624 111.495H47.1802V115.047H40.1611V118.197H46.4111V121.749H40.1611V125.448H47.1802V129H36.4624V111.495ZM55.7251 129.244C53.8127 129.244 52.2298 128.674 50.9766 127.535C49.7233 126.396 49.0967 124.951 49.0967 123.202H52.7466C52.7466 123.967 53.0233 124.585 53.5767 125.057C54.13 125.521 54.8462 125.753 55.7251 125.753C56.5389 125.753 57.1981 125.578 57.7026 125.228C58.2153 124.878 58.4717 124.418 58.4717 123.849C58.4717 123.523 58.3659 123.238 58.1543 122.994C57.9427 122.75 57.6579 122.551 57.2998 122.396C56.9499 122.241 56.543 122.103 56.0791 121.981C55.6234 121.851 55.1392 121.721 54.6265 121.59C54.1219 121.452 53.6133 121.301 53.1006 121.139C52.596 120.976 52.1118 120.764 51.6479 120.504C51.1922 120.243 50.7853 119.942 50.4272 119.601C50.0773 119.251 49.7965 118.807 49.585 118.27C49.3734 117.725 49.2676 117.11 49.2676 116.427C49.2676 114.929 49.8372 113.692 50.9766 112.716C52.124 111.739 53.5645 111.251 55.2979 111.251C56.1361 111.251 56.9051 111.357 57.605 111.568C58.3049 111.772 58.8989 112.057 59.3872 112.423C59.8755 112.781 60.2865 113.208 60.6201 113.705C60.9538 114.193 61.1979 114.722 61.3525 115.292C61.5153 115.853 61.5967 116.447 61.5967 117.074H57.7759C57.7596 116.39 57.5155 115.833 57.0435 115.401C56.5796 114.97 55.957 114.754 55.1758 114.754C54.4759 114.754 53.9185 114.901 53.5034 115.194C53.0965 115.487 52.8931 115.89 52.8931 116.402C52.8931 116.712 52.9989 116.98 53.2104 117.208C53.422 117.428 53.7069 117.611 54.0649 117.757C54.423 117.896 54.8299 118.026 55.2856 118.148C55.7495 118.262 56.2378 118.384 56.7505 118.514C57.2632 118.644 57.7759 118.791 58.2886 118.954C58.8013 119.116 59.2855 119.332 59.7412 119.601C60.2051 119.869 60.616 120.187 60.9741 120.553C61.3322 120.911 61.617 121.371 61.8286 121.932C62.0402 122.494 62.146 123.132 62.146 123.849C62.146 125.403 61.5356 126.693 60.3149 127.718C59.1024 128.736 57.5724 129.244 55.7251 129.244ZM68.2007 112.423C69.5679 111.642 71.0897 111.251 72.7661 111.251C74.4425 111.251 75.9644 111.642 77.3315 112.423C78.6987 113.204 79.7689 114.282 80.542 115.658C81.3232 117.033 81.7139 118.563 81.7139 120.248C81.7139 121.932 81.3232 123.462 80.542 124.837C79.7689 126.213 78.6987 127.291 77.3315 128.072C75.9644 128.854 74.4425 129.244 72.7661 129.244C71.0897 129.244 69.5679 128.854 68.2007 128.072C66.8416 127.291 65.7756 126.213 65.0024 124.837C64.2293 123.462 63.8428 121.932 63.8428 120.248C63.8428 118.563 64.2293 117.033 65.0024 115.658C65.7756 114.282 66.8416 113.204 68.2007 112.423ZM76.4282 116.402C75.4517 115.369 74.231 114.852 72.7661 114.852C71.3013 114.852 70.0806 115.369 69.104 116.402C68.1274 117.428 67.6392 118.709 67.6392 120.248C67.6392 121.786 68.1274 123.071 69.104 124.105C70.0806 125.139 71.3013 125.655 72.7661 125.655C74.231 125.655 75.4517 125.139 76.4282 124.105C77.4048 123.071 77.8931 121.786 77.8931 120.248C77.8931 118.709 77.4048 117.428 76.4282 116.402ZM83.8745 111.495H94.5923V115.047H87.5732V118.697H93.8232V122.25H87.5732V129H83.8745V111.495ZM109.741 111.495V115.047H104.614V129H100.916V115.047H95.813V111.495H109.741Z" fill="#1C62AD"/>
<path d="M116.687 111.495H120.386V125.448H128.406V129H116.687V111.495ZM142.078 129L140.979 126.07H134.229L133.105 129H129.175L136.133 111.495H139.124L146.106 129H142.078ZM135.449 122.896H139.758L137.634 117.306L135.449 122.896ZM147.595 129V111.495H154.163C155.668 111.495 156.954 111.955 158.02 112.875C159.086 113.786 159.619 114.876 159.619 116.146C159.619 116.935 159.387 117.676 158.923 118.368C158.468 119.051 157.89 119.511 157.19 119.747C158.126 119.934 158.895 120.423 159.497 121.212C160.107 122.001 160.413 122.929 160.413 123.995C160.413 125.395 159.875 126.579 158.801 127.547C157.727 128.516 156.433 129 154.919 129H147.595ZM151.294 118.551H153.992C154.513 118.551 154.952 118.38 155.31 118.038C155.676 117.688 155.859 117.269 155.859 116.781C155.859 116.292 155.68 115.882 155.322 115.548C154.964 115.214 154.521 115.047 153.992 115.047H151.294V118.551ZM151.294 125.448H154.59C155.16 125.448 155.644 125.252 156.042 124.862C156.441 124.463 156.641 123.983 156.641 123.421C156.641 122.86 156.441 122.38 156.042 121.981C155.652 121.574 155.184 121.371 154.639 121.371H151.294V125.448ZM168.445 129.244C166.532 129.244 164.95 128.674 163.696 127.535C162.443 126.396 161.816 124.951 161.816 123.202H165.466C165.466 123.967 165.743 124.585 166.296 125.057C166.85 125.521 167.566 125.753 168.445 125.753C169.259 125.753 169.918 125.578 170.422 125.228C170.935 124.878 171.191 124.418 171.191 123.849C171.191 123.523 171.086 123.238 170.874 122.994C170.662 122.75 170.378 122.551 170.02 122.396C169.67 122.241 169.263 122.103 168.799 121.981C168.343 121.851 167.859 121.721 167.346 121.59C166.842 121.452 166.333 121.301 165.82 121.139C165.316 120.976 164.832 120.764 164.368 120.504C163.912 120.243 163.505 119.942 163.147 119.601C162.797 119.251 162.516 118.807 162.305 118.27C162.093 117.725 161.987 117.11 161.987 116.427C161.987 114.929 162.557 113.692 163.696 112.716C164.844 111.739 166.284 111.251 168.018 111.251C168.856 111.251 169.625 111.357 170.325 111.568C171.025 111.772 171.619 112.057 172.107 112.423C172.595 112.781 173.006 113.208 173.34 113.705C173.674 114.193 173.918 114.722 174.072 115.292C174.235 115.853 174.316 116.447 174.316 117.074H170.496C170.479 116.39 170.235 115.833 169.763 115.401C169.299 114.97 168.677 114.754 167.896 114.754C167.196 114.754 166.638 114.901 166.223 115.194C165.816 115.487 165.613 115.89 165.613 116.402C165.613 116.712 165.719 116.98 165.93 117.208C166.142 117.428 166.427 117.611 166.785 117.757C167.143 117.896 167.55 118.026 168.005 118.148C168.469 118.262 168.958 118.384 169.47 118.514C169.983 118.644 170.496 118.791 171.008 118.954C171.521 119.116 172.005 119.332 172.461 119.601C172.925 119.869 173.336 120.187 173.694 120.553C174.052 120.911 174.337 121.371 174.548 121.932C174.76 122.494 174.866 123.132 174.866 123.849C174.866 125.403 174.255 126.693 173.035 127.718C171.822 128.736 170.292 129.244 168.445 129.244Z" fill="#E9B100"/>
<path d="M13.0493 129L12.113 129.351L12.3563 130H13.0493V129ZM11.9507 126.07L12.887 125.719L12.6437 125.07H11.9507V126.07ZM5.2002 126.07V125.07H4.51257L4.26645 125.712L5.2002 126.07ZM4.07715 129V130H4.76477L5.01089 129.358L4.07715 129ZM0.146484 129L-0.782795 128.631L-1.32711 130H0.146484V129ZM7.10449 111.495V110.495H6.42588L6.17521 111.126L7.10449 111.495ZM10.0952 111.495L11.024 111.125L10.7729 110.495H10.0952V111.495ZM17.0776 129V130H18.5531L18.0065 128.63L17.0776 129ZM6.4209 122.896L5.48951 122.532L4.95641 123.896H6.4209V122.896ZM10.73 122.896V123.896H12.1796L11.6648 122.541L10.73 122.896ZM8.60596 117.306L9.54077 116.951L8.61917 114.525L7.67456 116.942L8.60596 117.306ZM13.0493 129L13.9856 128.649L12.887 125.719L11.9507 126.07L11.0144 126.421L12.113 129.351L13.0493 129ZM11.9507 126.07V125.07H5.2002V126.07V127.07H11.9507V126.07ZM5.2002 126.07L4.26645 125.712L3.1434 128.642L4.07715 129L5.01089 129.358L6.13394 126.428L5.2002 126.07ZM4.07715 129V128H0.146484V129V130H4.07715V129ZM0.146484 129L1.07576 129.369L8.03377 111.864L7.10449 111.495L6.17521 111.126L-0.782795 128.631L0.146484 129ZM7.10449 111.495V112.495H10.0952V111.495V110.495H7.10449V111.495ZM10.0952 111.495L9.16638 111.866L16.1488 129.37L17.0776 129L18.0065 128.63L11.024 111.125L10.0952 111.495ZM17.0776 129V128H13.0493V129V130H17.0776V129ZM6.4209 122.896V123.896H10.73V122.896V121.896H6.4209V122.896ZM10.73 122.896L11.6648 122.541L9.54077 116.951L8.60596 117.306L7.67115 117.661L9.79517 123.252L10.73 122.896ZM8.60596 117.306L7.67456 116.942L5.48951 122.532L6.4209 122.896L7.35229 123.26L9.53735 117.67L8.60596 117.306ZM21.3989 128.072L20.8983 128.938L20.9006 128.939L21.3989 128.072ZM18.2129 124.837L17.339 125.323L17.3412 125.327L18.2129 124.837ZM18.2129 115.658L17.3412 115.168L17.339 115.172L18.2129 115.658ZM21.3989 112.423L20.9006 111.556L20.8983 111.557L21.3989 112.423ZM29.7974 112.081L29.3822 112.991L29.3873 112.993L29.7974 112.081ZM32.8125 114.376L32.0354 115.005L32.0411 115.012L32.8125 114.376ZM34.2651 117.647V118.647H35.4094L35.2561 117.514L34.2651 117.647ZM30.1392 117.647L29.178 117.923L29.3859 118.647H30.1392V117.647ZM28.6133 115.633L28.0546 116.463L28.0586 116.465L28.6133 115.633ZM22.3145 116.402L21.5876 115.716L21.5874 115.716L22.3145 116.402ZM22.3145 124.105L21.5847 124.789L21.5876 124.792L22.3145 124.105ZM28.6377 124.801L28.0525 123.99L28.0485 123.993L28.6377 124.801ZM30.1636 122.628V121.628H29.3898L29.1956 122.377L30.1636 122.628ZM34.314 122.628L35.2996 122.797L35.5001 121.628H34.314V122.628ZM31.4697 127.401L32.0899 128.185L32.0904 128.185L31.4697 127.401ZM25.9399 129.244V128.244C24.4349 128.244 23.0949 127.894 21.8973 127.205L21.3989 128.072L20.9006 128.939C22.421 129.813 24.1084 130.244 25.9399 130.244V129.244ZM21.3989 128.072L21.8996 127.207C20.7055 126.516 19.7709 125.568 19.0846 124.347L18.2129 124.837L17.3412 125.327C18.2011 126.857 19.3905 128.066 20.8983 128.938L21.3989 128.072ZM18.2129 124.837L19.0868 124.351C18.4103 123.135 18.0654 121.774 18.0654 120.248H17.0654H16.0654C16.0654 122.09 16.4855 123.789 17.339 125.323L18.2129 124.837ZM17.0654 120.248H18.0654C18.0654 118.721 18.4103 117.36 19.0868 116.144L18.2129 115.658L17.339 115.172C16.4855 116.706 16.0654 118.405 16.0654 120.248H17.0654ZM18.2129 115.658L19.0846 116.148C19.7709 114.927 20.7055 113.979 21.8996 113.289L21.3989 112.423L20.8983 111.557C19.3905 112.429 18.2011 113.638 17.3412 115.168L18.2129 115.658ZM21.3989 112.423L21.8973 113.29C23.0949 112.601 24.4349 112.251 25.9399 112.251V111.251V110.251C24.1084 110.251 22.421 110.682 20.9006 111.556L21.3989 112.423ZM25.9399 111.251V112.251C27.1586 112.251 28.3026 112.498 29.3822 112.991L29.7974 112.081L30.2125 111.171C28.867 110.557 27.4394 110.251 25.9399 110.251V111.251ZM29.7974 112.081L29.3873 112.993C30.4643 113.477 31.3413 114.148 32.0354 115.005L32.8125 114.376L33.5896 113.747C32.6887 112.634 31.5556 111.775 30.2075 111.169L29.7974 112.081ZM32.8125 114.376L32.0411 115.012C32.7334 115.851 33.1374 116.77 33.2741 117.781L34.2651 117.647L35.2561 117.514C35.0673 116.117 34.5029 114.854 33.5839 113.74L32.8125 114.376ZM34.2651 117.647V116.647H30.1392V117.647V118.647H34.2651V117.647ZM30.1392 117.647L31.1003 117.371C30.7924 116.299 30.1256 115.44 29.168 114.801L28.6133 115.633L28.0586 116.465C28.6635 116.869 29.0139 117.352 29.178 117.923L30.1392 117.647ZM28.6133 115.633L29.172 114.804C28.2201 114.163 27.1309 113.852 25.9399 113.852V114.852V115.852C26.7672 115.852 27.4603 116.062 28.0546 116.463L28.6133 115.633ZM25.9399 114.852V113.852C24.2285 113.852 22.7558 114.479 21.5876 115.716L22.3145 116.402L23.0413 117.089C23.8262 116.258 24.7705 115.852 25.9399 115.852V114.852ZM22.3145 116.402L21.5874 115.716C20.4271 116.944 19.8618 118.479 19.8618 120.248H20.8618H21.8618C21.8618 118.94 22.2649 117.911 23.0415 117.089L22.3145 116.402ZM20.8618 120.248H19.8618C19.8618 122.016 20.427 123.553 21.5847 124.789L22.3145 124.105L23.0442 123.421C22.265 122.59 21.8618 121.556 21.8618 120.248H20.8618ZM22.3145 124.105L21.5876 124.792C22.7558 126.028 24.2285 126.655 25.9399 126.655V125.655V124.655C24.7705 124.655 23.8262 124.249 23.0413 123.418L22.3145 124.105ZM25.9399 125.655V126.655C27.1572 126.655 28.2653 126.31 29.2269 125.609L28.6377 124.801L28.0485 123.993C27.4476 124.431 26.7572 124.655 25.9399 124.655V125.655ZM28.6377 124.801L29.2229 125.612C30.1865 124.916 30.8408 124 31.1316 122.879L30.1636 122.628L29.1956 122.377C29.0306 123.013 28.6676 123.546 28.0525 123.99L28.6377 124.801ZM30.1636 122.628V123.628H34.314V122.628V121.628H30.1636V122.628ZM34.314 122.628L33.3284 122.459C33.0368 124.158 32.2204 125.531 30.849 126.617L31.4697 127.401L32.0904 128.185C33.8441 126.797 34.9238 124.988 35.2996 122.797L34.314 122.628ZM31.4697 127.401L30.8496 126.616C29.4856 127.695 27.8653 128.244 25.9399 128.244V129.244V130.244C28.2789 130.244 30.3451 129.565 32.0899 128.185L31.4697 127.401ZM36.4624 111.495V110.495H35.4624V111.495H36.4624ZM47.1802 111.495H48.1802V110.495H47.1802V111.495ZM47.1802 115.047V116.047H48.1802V115.047H47.1802ZM40.1611 115.047V114.047H39.1611V115.047H40.1611ZM40.1611 118.197H39.1611V119.197H40.1611V118.197ZM46.4111 118.197H47.4111V117.197H46.4111V118.197ZM46.4111 121.749V122.749H47.4111V121.749H46.4111ZM40.1611 121.749V120.749H39.1611V121.749H40.1611ZM40.1611 125.448H39.1611V126.448H40.1611V125.448ZM47.1802 125.448H48.1802V124.448H47.1802V125.448ZM47.1802 129V130H48.1802V129H47.1802ZM36.4624 129H35.4624V130H36.4624V129ZM36.4624 111.495V112.495H47.1802V111.495V110.495H36.4624V111.495ZM47.1802 111.495H46.1802V115.047H47.1802H48.1802V111.495H47.1802ZM47.1802 115.047V114.047H40.1611V115.047V116.047H47.1802V115.047ZM40.1611 115.047H39.1611V118.197H40.1611H41.1611V115.047H40.1611ZM40.1611 118.197V119.197H46.4111V118.197V117.197H40.1611V118.197ZM46.4111 118.197H45.4111V121.749H46.4111H47.4111V118.197H46.4111ZM46.4111 121.749V120.749H40.1611V121.749V122.749H46.4111V121.749ZM40.1611 121.749H39.1611V125.448H40.1611H41.1611V121.749H40.1611ZM40.1611 125.448V126.448H47.1802V125.448V124.448H40.1611V125.448ZM47.1802 125.448H46.1802V129H47.1802H48.1802V125.448H47.1802ZM47.1802 129V128H36.4624V129V130H47.1802V129ZM36.4624 129H37.4624V111.495H36.4624H35.4624V129H36.4624ZM50.9766 127.535L50.3039 128.275L50.9766 127.535ZM49.0967 123.202V122.202H48.0967V123.202H49.0967ZM52.7466 123.202H53.7466V122.202H52.7466V123.202ZM53.5767 125.057L52.9277 125.818L52.9343 125.823L53.5767 125.057ZM57.7026 125.228L57.1389 124.402L57.1327 124.406L57.7026 125.228ZM57.2998 122.396L56.8956 123.311L56.9034 123.314L57.2998 122.396ZM56.0791 121.981L55.8044 122.942L55.8145 122.945L55.8246 122.948L56.0791 121.981ZM54.6265 121.59L54.362 122.555L54.3711 122.557L54.3803 122.56L54.6265 121.59ZM53.1006 121.139L52.7936 122.09L52.798 122.092L53.1006 121.139ZM51.6479 120.504L51.1518 121.372L51.1584 121.376L51.6479 120.504ZM50.4272 119.601L49.7201 120.308L49.7284 120.316L49.7368 120.324L50.4272 119.601ZM49.585 118.27L48.6527 118.632L48.6546 118.637L49.585 118.27ZM50.9766 112.716L50.3284 111.954L50.3258 111.957L50.9766 112.716ZM57.605 111.568L57.3156 112.526L57.3258 112.529L57.605 111.568ZM59.3872 112.423L58.7872 113.223L58.7958 113.229L59.3872 112.423ZM60.6201 113.705L59.7901 114.262L59.7945 114.269L60.6201 113.705ZM61.3525 115.292L60.3875 115.553L60.3897 115.562L60.3921 115.57L61.3525 115.292ZM61.5967 117.074V118.074H62.5967V117.074H61.5967ZM57.7759 117.074L56.7762 117.098L56.7994 118.074H57.7759V117.074ZM57.0435 115.401L56.3625 116.134L56.3689 116.14L57.0435 115.401ZM53.5034 115.194L52.9267 114.377L52.9191 114.382L53.5034 115.194ZM53.2104 117.208L52.4777 117.888L52.4838 117.895L52.4901 117.902L53.2104 117.208ZM54.0649 117.757L53.6863 118.683L53.6954 118.687L53.7045 118.69L54.0649 117.757ZM55.2856 118.148L55.0269 119.114L55.037 119.117L55.0471 119.119L55.2856 118.148ZM59.7412 119.601L59.2335 120.462L59.2402 120.466L59.7412 119.601ZM60.9741 120.553L60.2591 121.252L60.267 121.26L60.9741 120.553ZM60.3149 127.718L60.9577 128.484L60.9581 128.484L60.3149 127.718ZM55.7251 129.244V128.244C54.0269 128.244 52.6944 127.745 51.6492 126.795L50.9766 127.535L50.3039 128.275C51.7653 129.604 53.5984 130.244 55.7251 130.244V129.244ZM50.9766 127.535L51.6492 126.795C50.6121 125.852 50.0967 124.68 50.0967 123.202H49.0967H48.0967C48.0967 125.223 48.8345 126.939 50.3039 128.275L50.9766 127.535ZM49.0967 123.202V124.202H52.7466V123.202V122.202H49.0967V123.202ZM52.7466 123.202H51.7466C51.7466 124.242 52.1387 125.145 52.9277 125.818L53.5767 125.057L54.2256 124.296C53.9078 124.025 53.7466 123.691 53.7466 123.202H52.7466ZM53.5767 125.057L52.9343 125.823C53.7045 126.469 54.6642 126.753 55.7251 126.753V125.753V124.753C55.0281 124.753 54.5556 124.573 54.2191 124.291L53.5767 125.057ZM55.7251 125.753V126.753C56.6772 126.753 57.5539 126.548 58.2725 126.05L57.7026 125.228L57.1327 124.406C56.8422 124.608 56.4006 124.753 55.7251 124.753V125.753ZM57.7026 125.228L58.2664 126.054C59.0232 125.537 59.4717 124.782 59.4717 123.849H58.4717H57.4717C57.4717 124.054 57.4074 124.219 57.1389 124.402L57.7026 125.228ZM58.4717 123.849H59.4717C59.4717 123.285 59.2805 122.767 58.91 122.339L58.1543 122.994L57.3986 123.649C57.4513 123.71 57.4717 123.762 57.4717 123.849H58.4717ZM58.1543 122.994L58.91 122.339C58.5816 121.96 58.1641 121.68 57.6962 121.478L57.2998 122.396L56.9034 123.314C57.1516 123.421 57.3038 123.54 57.3986 123.649L58.1543 122.994ZM57.2998 122.396L57.704 121.481C57.2953 121.301 56.8364 121.146 56.3336 121.014L56.0791 121.981L55.8246 122.948C56.2495 123.06 56.6045 123.182 56.8956 123.311L57.2998 122.396ZM56.0791 121.981L56.3538 121.019C55.8876 120.886 55.3938 120.753 54.8726 120.621L54.6265 121.59L54.3803 122.56C54.8845 122.688 55.3591 122.815 55.8044 122.942L56.0791 121.981ZM54.6265 121.59L54.8909 120.626C54.3995 120.491 53.9036 120.344 53.4032 120.186L53.1006 121.139L52.798 122.092C53.323 122.258 53.8443 122.413 54.362 122.555L54.6265 121.59ZM53.1006 121.139L53.4076 120.187C52.9666 120.045 52.5435 119.86 52.1375 119.632L51.6479 120.504L51.1584 121.376C51.6801 121.669 52.2255 121.907 52.7936 122.09L53.1006 121.139ZM51.6479 120.504L52.1441 119.636C51.7545 119.413 51.4137 119.16 51.1177 118.877L50.4272 119.601L49.7368 120.324C50.1569 120.725 50.6299 121.074 51.1518 121.372L51.6479 120.504ZM50.4272 119.601L51.1344 118.893C50.8962 118.655 50.685 118.334 50.5154 117.903L49.585 118.27L48.6546 118.637C48.9081 119.28 49.2584 119.846 49.7201 120.308L50.4272 119.601ZM49.585 118.27L50.5172 117.908C50.3573 117.496 50.2676 117.007 50.2676 116.427H49.2676H48.2676C48.2676 117.214 48.3895 117.953 48.6527 118.632L49.585 118.27ZM49.2676 116.427H50.2676C50.2676 115.222 50.7091 114.262 51.6274 113.475L50.9766 112.716L50.3258 111.957C48.9653 113.123 48.2676 114.637 48.2676 116.427H49.2676ZM50.9766 112.716L51.6247 113.477C52.5644 112.678 53.7641 112.251 55.2979 112.251V111.251V110.251C53.3648 110.251 51.6836 110.801 50.3284 111.954L50.9766 112.716ZM55.2979 111.251V112.251C56.0521 112.251 56.7221 112.346 57.3156 112.526L57.605 111.568L57.8944 110.611C57.0881 110.367 56.22 110.251 55.2979 110.251V111.251ZM57.605 111.568L57.3258 112.529C57.9319 112.705 58.4121 112.941 58.7872 113.223L59.3872 112.423L59.9872 111.623C59.3858 111.172 58.6778 110.839 57.8841 110.608L57.605 111.568ZM59.3872 112.423L58.7958 113.229C59.192 113.52 59.5219 113.863 59.7902 114.262L60.6201 113.705L61.4501 113.147C61.0511 112.553 60.559 112.042 59.9786 111.616L59.3872 112.423ZM60.6201 113.705L59.7945 114.269C60.0652 114.665 60.2622 115.092 60.3875 115.553L61.3525 115.292L62.3176 115.03C62.1337 114.352 61.8423 113.721 61.4458 113.14L60.6201 113.705ZM61.3525 115.292L60.3921 115.57C60.5268 116.035 60.5967 116.535 60.5967 117.074H61.5967H62.5967C62.5967 116.36 62.5038 115.671 62.313 115.013L61.3525 115.292ZM61.5967 117.074V116.074H57.7759V117.074V118.074H61.5967V117.074ZM57.7759 117.074L58.7756 117.05C58.7533 116.115 58.4063 115.292 57.718 114.663L57.0435 115.401L56.3689 116.14C56.6246 116.373 56.7659 116.665 56.7762 117.098L57.7759 117.074ZM57.0435 115.401L57.7244 114.669C57.0347 114.028 56.1478 113.754 55.1758 113.754V114.754V115.754C55.7663 115.754 56.1245 115.912 56.3625 116.134L57.0435 115.401ZM55.1758 114.754V113.754C54.3454 113.754 53.5635 113.927 52.9267 114.377L53.5034 115.194L54.0801 116.011C54.2735 115.874 54.6064 115.754 55.1758 115.754V114.754ZM53.5034 115.194L52.9191 114.382C52.2443 114.868 51.8931 115.577 51.8931 116.402H52.8931H53.8931C53.8931 116.203 53.9487 116.105 54.0877 116.005L53.5034 115.194ZM52.8931 116.402H51.8931C51.8931 116.966 52.0954 117.477 52.4777 117.888L53.2104 117.208L53.9432 116.528C53.9024 116.484 53.8931 116.458 53.8931 116.402H52.8931ZM53.2104 117.208L52.4901 117.902C52.8204 118.245 53.2328 118.497 53.6863 118.683L54.0649 117.757L54.4436 116.832C54.181 116.724 54.0236 116.611 53.9308 116.514L53.2104 117.208ZM54.0649 117.757L53.7045 118.69C54.1024 118.844 54.5442 118.985 55.0269 119.114L55.2856 118.148L55.5444 117.182C55.1156 117.067 54.7436 116.948 54.4253 116.825L54.0649 117.757ZM55.2856 118.148L55.0471 119.119C55.5082 119.232 55.9939 119.354 56.5043 119.483L56.7505 118.514L56.9966 117.545C56.4817 117.414 55.9908 117.291 55.5242 117.177L55.2856 118.148ZM56.7505 118.514L56.5043 119.483C56.9977 119.609 57.4916 119.75 57.986 119.907L58.2886 118.954L58.5912 118C58.0601 117.832 57.5286 117.68 56.9966 117.545L56.7505 118.514ZM58.2886 118.954L57.986 119.907C58.4283 120.047 58.8436 120.232 59.2335 120.462L59.7412 119.601L60.2489 118.739C59.7274 118.432 59.1742 118.186 58.5912 118L58.2886 118.954ZM59.7412 119.601L59.2402 120.466C59.6292 120.691 59.9674 120.953 60.2591 121.252L60.9741 120.553L61.6891 119.854C61.2647 119.42 60.781 119.047 60.2422 118.735L59.7412 119.601ZM60.9741 120.553L60.267 121.26C60.5077 121.5 60.7222 121.832 60.8928 122.285L61.8286 121.932L62.7644 121.58C62.5118 120.909 62.1567 120.321 61.6812 119.846L60.9741 120.553ZM61.8286 121.932L60.8928 122.285C61.0546 122.714 61.146 123.23 61.146 123.849H62.146H63.146C63.146 123.035 63.0258 122.273 62.7644 121.58L61.8286 121.932ZM62.146 123.849H61.146C61.146 125.099 60.6729 126.112 59.6717 126.953L60.3149 127.718L60.9581 128.484C62.3983 127.274 63.146 125.707 63.146 123.849H62.146ZM60.3149 127.718L59.6722 126.952C58.6691 127.794 57.3787 128.244 55.7251 128.244V129.244V130.244C57.7661 130.244 59.5357 129.677 60.9576 128.484L60.3149 127.718ZM68.2007 112.423L67.7045 111.555L67.7023 111.556L68.2007 112.423ZM80.542 115.658L79.6703 116.148L79.6725 116.152L80.542 115.658ZM80.542 124.837L79.6725 124.343L79.6703 124.347L80.542 124.837ZM68.2007 128.072L67.7023 128.939L67.7045 128.941L68.2007 128.072ZM65.0024 124.837L64.1307 125.327L65.0024 124.837ZM76.4282 116.402L75.7014 117.089L75.7041 117.092L76.4282 116.402ZM69.104 116.402L69.8281 117.092L69.8309 117.089L69.104 116.402ZM69.104 124.105L68.3772 124.792L69.104 124.105ZM68.2007 112.423L68.6968 113.291C69.9031 112.602 71.2521 112.251 72.7661 112.251V111.251V110.251C70.9273 110.251 69.2326 110.681 67.7045 111.555L68.2007 112.423ZM72.7661 111.251V112.251C74.2802 112.251 75.6291 112.602 76.8354 113.291L77.3315 112.423L77.8277 111.555C76.2996 110.681 74.6049 110.251 72.7661 110.251V111.251ZM77.3315 112.423L76.8354 113.291C78.0452 113.982 78.9856 114.93 79.6703 116.148L80.542 115.658L81.4137 115.168C80.5521 113.635 79.3523 112.426 77.8277 111.555L77.3315 112.423ZM80.542 115.658L79.6725 116.152C80.3626 117.367 80.7139 118.724 80.7139 120.248H81.7139H82.7139C82.7139 118.401 82.2839 116.7 81.4115 115.164L80.542 115.658ZM81.7139 120.248H80.7139C80.7139 121.771 80.3626 123.129 79.6725 124.343L80.542 124.837L81.4115 125.331C82.2839 123.796 82.7139 122.094 82.7139 120.248H81.7139ZM80.542 124.837L79.6703 124.347C78.9856 125.565 78.0452 126.513 76.8354 127.204L77.3315 128.072L77.8277 128.941C79.3523 128.069 80.5521 126.86 81.4137 125.327L80.542 124.837ZM77.3315 128.072L76.8354 127.204C75.6291 127.893 74.2802 128.244 72.7661 128.244V129.244V130.244C74.6049 130.244 76.2996 129.814 77.8277 128.941L77.3315 128.072ZM72.7661 129.244V128.244C71.2521 128.244 69.9031 127.893 68.6968 127.204L68.2007 128.072L67.7045 128.941C69.2326 129.814 70.9273 130.244 72.7661 130.244V129.244ZM68.2007 128.072L68.6991 127.205C67.4972 126.514 66.5596 125.567 65.8742 124.347L65.0024 124.837L64.1307 125.327C64.9915 126.859 66.1861 128.068 67.7023 128.939L68.2007 128.072ZM65.0024 124.837L65.8742 124.347C65.1908 123.132 64.8428 121.772 64.8428 120.248H63.8428H62.8428C62.8428 122.092 63.2678 123.792 64.1307 125.327L65.0024 124.837ZM63.8428 120.248H64.8428C64.8428 118.723 65.1908 117.363 65.8742 116.148L65.0024 115.658L64.1307 115.168C63.2678 116.703 62.8428 118.403 62.8428 120.248H63.8428ZM65.0024 115.658L65.8742 116.148C66.5596 114.928 67.4972 113.981 68.6991 113.29L68.2007 112.423L67.7023 111.556C66.1861 112.427 64.9915 113.636 64.1307 115.168L65.0024 115.658ZM76.4282 116.402L77.1551 115.716C75.9833 114.475 74.4966 113.852 72.7661 113.852V114.852V115.852C73.9653 115.852 74.9201 116.262 75.7014 117.089L76.4282 116.402ZM72.7661 114.852V113.852C71.0356 113.852 69.549 114.475 68.3772 115.716L69.104 116.402L69.8309 117.089C70.6122 116.262 71.5669 115.852 72.7661 115.852V114.852ZM69.104 116.402L68.3799 115.713C67.2102 116.941 66.6392 118.477 66.6392 120.248H67.6392H68.6392C68.6392 118.942 69.0447 117.915 69.8281 117.092L69.104 116.402ZM67.6392 120.248H66.6392C66.6392 122.018 67.2101 123.557 68.3772 124.792L69.104 124.105L69.8309 123.418C69.0448 122.586 68.6392 121.553 68.6392 120.248H67.6392ZM69.104 124.105L68.3772 124.792C69.549 126.032 71.0356 126.655 72.7661 126.655V125.655V124.655C71.5669 124.655 70.6122 124.245 69.8309 123.418L69.104 124.105ZM72.7661 125.655V126.655C74.4966 126.655 75.9833 126.032 77.1551 124.792L76.4282 124.105L75.7014 123.418C74.9201 124.245 73.9653 124.655 72.7661 124.655V125.655ZM76.4282 124.105L77.1551 124.792C78.3221 123.557 78.8931 122.018 78.8931 120.248H77.8931H76.8931C76.8931 121.553 76.4874 122.586 75.7014 123.418L76.4282 124.105ZM77.8931 120.248H78.8931C78.8931 118.477 78.322 116.941 77.1524 115.713L76.4282 116.402L75.7041 117.092C76.4875 117.915 76.8931 118.942 76.8931 120.248H77.8931ZM83.8745 111.495V110.495H82.8745V111.495H83.8745ZM94.5923 111.495H95.5923V110.495H94.5923V111.495ZM94.5923 115.047V116.047H95.5923V115.047H94.5923ZM87.5732 115.047V114.047H86.5732V115.047H87.5732ZM87.5732 118.697H86.5732V119.697H87.5732V118.697ZM93.8232 118.697H94.8232V117.697H93.8232V118.697ZM93.8232 122.25V123.25H94.8232V122.25H93.8232ZM87.5732 122.25V121.25H86.5732V122.25H87.5732ZM87.5732 129V130H88.5732V129H87.5732ZM83.8745 129H82.8745V130H83.8745V129ZM83.8745 111.495V112.495H94.5923V111.495V110.495H83.8745V111.495ZM94.5923 111.495H93.5923V115.047H94.5923H95.5923V111.495H94.5923ZM94.5923 115.047V114.047H87.5732V115.047V116.047H94.5923V115.047ZM87.5732 115.047H86.5732V118.697H87.5732H88.5732V115.047H87.5732ZM87.5732 118.697V119.697H93.8232V118.697V117.697H87.5732V118.697ZM93.8232 118.697H92.8232V122.25H93.8232H94.8232V118.697H93.8232ZM93.8232 122.25V121.25H87.5732V122.25V123.25H93.8232V122.25ZM87.5732 122.25H86.5732V129H87.5732H88.5732V122.25H87.5732ZM87.5732 129V128H83.8745V129V130H87.5732V129ZM83.8745 129H84.8745V111.495H83.8745H82.8745V129H83.8745ZM109.741 111.495H110.741V110.495H109.741V111.495ZM109.741 115.047V116.047H110.741V115.047H109.741ZM104.614 115.047V114.047H103.614V115.047H104.614ZM104.614 129V130H105.614V129H104.614ZM100.916 129H99.9155V130H100.916V129ZM100.916 115.047H101.916V114.047H100.916V115.047ZM95.813 115.047H94.813V116.047H95.813V115.047ZM95.813 111.495V110.495H94.813V111.495H95.813ZM109.741 111.495H108.741V115.047H109.741H110.741V111.495H109.741ZM109.741 115.047V114.047H104.614V115.047V116.047H109.741V115.047ZM104.614 115.047H103.614V129H104.614H105.614V115.047H104.614ZM104.614 129V128H100.916V129V130H104.614V129ZM100.916 129H101.916V115.047H100.916H99.9155V129H100.916ZM100.916 115.047V114.047H95.813V115.047V116.047H100.916V115.047ZM95.813 115.047H96.813V111.495H95.813H94.813V115.047H95.813ZM95.813 111.495V112.495H109.741V111.495V110.495H95.813V111.495ZM116.687 111.495V110.495H115.687V111.495H116.687ZM120.386 111.495H121.386V110.495H120.386V111.495ZM120.386 125.448H119.386V126.448H120.386V125.448ZM128.406 125.448H129.406V124.448H128.406V125.448ZM128.406 129V130H129.406V129H128.406ZM116.687 129H115.687V130H116.687V129ZM116.687 111.495V112.495H120.386V111.495V110.495H116.687V111.495ZM120.386 111.495H119.386V125.448H120.386H121.386V111.495H120.386ZM120.386 125.448V126.448H128.406V125.448V124.448H120.386V125.448ZM128.406 125.448H127.406V129H128.406H129.406V125.448H128.406ZM128.406 129V128H116.687V129V130H128.406V129ZM116.687 129H117.687V111.495H116.687H115.687V129H116.687ZM142.078 129L141.141 129.351L141.385 130H142.078V129ZM140.979 126.07L141.915 125.719L141.672 125.07H140.979V126.07ZM134.229 126.07V125.07H133.541L133.295 125.712L134.229 126.07ZM133.105 129V130H133.793L134.039 129.358L133.105 129ZM129.175 129L128.246 128.631L127.701 130H129.175V129ZM136.133 111.495V110.495H135.454L135.204 111.126L136.133 111.495ZM139.124 111.495L140.052 111.125L139.801 110.495H139.124V111.495ZM146.106 129V130H147.581L147.035 128.63L146.106 129ZM135.449 122.896L134.518 122.532L133.985 123.896H135.449V122.896ZM139.758 122.896V123.896H141.208L140.693 122.541L139.758 122.896ZM137.634 117.306L138.569 116.951L137.647 114.525L136.703 116.942L137.634 117.306ZM142.078 129L143.014 128.649L141.915 125.719L140.979 126.07L140.043 126.421L141.141 129.351L142.078 129ZM140.979 126.07V125.07H134.229V126.07V127.07H140.979V126.07ZM134.229 126.07L133.295 125.712L132.172 128.642L133.105 129L134.039 129.358L135.162 126.428L134.229 126.07ZM133.105 129V128H129.175V129V130H133.105V129ZM129.175 129L130.104 129.369L137.062 111.864L136.133 111.495L135.204 111.126L128.246 128.631L129.175 129ZM136.133 111.495V112.495H139.124V111.495V110.495H136.133V111.495ZM139.124 111.495L138.195 111.866L145.177 129.37L146.106 129L147.035 128.63L140.052 111.125L139.124 111.495ZM146.106 129V128H142.078V129V130H146.106V129ZM135.449 122.896V123.896H139.758V122.896V121.896H135.449V122.896ZM139.758 122.896L140.693 122.541L138.569 116.951L137.634 117.306L136.699 117.661L138.823 123.252L139.758 122.896ZM137.634 117.306L136.703 116.942L134.518 122.532L135.449 122.896L136.381 123.26L138.566 117.67L137.634 117.306ZM147.595 129H146.595V130H147.595V129ZM147.595 111.495V110.495H146.595V111.495H147.595ZM158.02 112.875L157.367 113.632L157.37 113.635L158.02 112.875ZM158.923 118.368L158.093 117.811L158.091 117.813L158.923 118.368ZM157.19 119.747L156.87 118.799L153.327 119.994L156.994 120.728L157.19 119.747ZM159.497 121.212L158.702 121.818L158.706 121.824L159.497 121.212ZM151.294 118.551H150.294V119.551H151.294V118.551ZM155.31 118.038L156.001 118.761L156.001 118.761L155.31 118.038ZM151.294 115.047V114.047H150.294V115.047H151.294ZM151.294 125.448H150.294V126.448H151.294V125.448ZM156.042 124.862L156.742 125.576L156.75 125.569L156.042 124.862ZM156.042 121.981L155.321 122.673L155.328 122.681L155.335 122.688L156.042 121.981ZM151.294 121.371V120.371H150.294V121.371H151.294ZM147.595 129H148.595V111.495H147.595H146.595V129H147.595ZM147.595 111.495V112.495H154.163V111.495V110.495H147.595V111.495ZM154.163 111.495V112.495C155.446 112.495 156.496 112.88 157.367 113.632L158.02 112.875L158.673 112.117C157.412 111.03 155.89 110.495 154.163 110.495V111.495ZM158.02 112.875L157.37 113.635C158.24 114.378 158.619 115.202 158.619 116.146H159.619H160.619C160.619 114.551 159.932 113.193 158.67 112.114L158.02 112.875ZM159.619 116.146H158.619C158.619 116.726 158.453 117.274 158.093 117.811L158.923 118.368L159.754 118.925C160.322 118.078 160.619 117.145 160.619 116.146H159.619ZM158.923 118.368L158.091 117.813C157.744 118.334 157.337 118.642 156.87 118.799L157.19 119.747L157.509 120.695C158.443 120.38 159.192 119.768 159.755 118.922L158.923 118.368ZM157.19 119.747L156.994 120.728C157.681 120.865 158.241 121.214 158.702 121.818L159.497 121.212L160.292 120.605C159.549 119.631 158.571 119.003 157.386 118.766L157.19 119.747ZM159.497 121.212L158.706 121.824C159.171 122.425 159.413 123.134 159.413 123.995H160.413H161.413C161.413 122.724 161.044 121.577 160.288 120.6L159.497 121.212ZM160.413 123.995H159.413C159.413 125.101 159.004 126.019 158.132 126.805L158.801 127.547L159.471 128.29C160.747 127.139 161.413 125.689 161.413 123.995H160.413ZM158.801 127.547L158.132 126.805C157.25 127.599 156.198 128 154.919 128V129V130C156.668 130 158.204 129.432 159.471 128.29L158.801 127.547ZM154.919 129V128H147.595V129V130H154.919V129ZM151.294 118.551V119.551H153.992V118.551V117.551H151.294V118.551ZM153.992 118.551V119.551C154.755 119.551 155.446 119.291 156.001 118.761L155.31 118.038L154.62 117.315C154.458 117.469 154.27 117.551 153.992 117.551V118.551ZM155.31 118.038L156.001 118.761C156.556 118.23 156.859 117.553 156.859 116.781H155.859H154.859C154.859 116.985 154.796 117.146 154.619 117.315L155.31 118.038ZM155.859 116.781H156.859C156.859 116.014 156.565 115.339 156.004 114.816L155.322 115.548L154.641 116.279C154.796 116.424 154.859 116.571 154.859 116.781H155.859ZM155.322 115.548L156.004 114.816C155.445 114.295 154.751 114.047 153.992 114.047V115.047V116.047C154.29 116.047 154.483 116.133 154.641 116.279L155.322 115.548ZM153.992 115.047V114.047H151.294V115.047V116.047H153.992V115.047ZM151.294 115.047H150.294V118.551H151.294H152.294V115.047H151.294ZM151.294 125.448V126.448H154.59V125.448V124.448H151.294V125.448ZM154.59 125.448V126.448C155.415 126.448 156.152 126.154 156.742 125.576L156.042 124.862L155.343 124.147C155.135 124.351 154.904 124.448 154.59 124.448V125.448ZM156.042 124.862L156.75 125.569C157.335 124.984 157.641 124.249 157.641 123.421H156.641H155.641C155.641 123.716 155.548 123.943 155.335 124.155L156.042 124.862ZM156.641 123.421H157.641C157.641 122.593 157.335 121.859 156.75 121.274L156.042 121.981L155.335 122.688C155.548 122.9 155.641 123.126 155.641 123.421H156.641ZM156.042 121.981L156.764 121.288C156.192 120.693 155.467 120.371 154.639 120.371V121.371V122.371C154.901 122.371 155.112 122.455 155.321 122.673L156.042 121.981ZM154.639 121.371V120.371H151.294V121.371V122.371H154.639V121.371ZM151.294 121.371H150.294V125.448H151.294H152.294V121.371H151.294ZM163.696 127.535L163.024 128.275L163.696 127.535ZM161.816 123.202V122.202H160.816V123.202H161.816ZM165.466 123.202H166.466V122.202H165.466V123.202ZM166.296 125.057L165.647 125.818L165.654 125.823L166.296 125.057ZM170.422 125.228L169.859 124.402L169.852 124.406L170.422 125.228ZM170.02 122.396L169.615 123.311L169.623 123.314L170.02 122.396ZM168.799 121.981L168.524 122.942L168.534 122.945L168.544 122.948L168.799 121.981ZM167.346 121.59L167.082 122.555L167.091 122.557L167.1 122.56L167.346 121.59ZM165.82 121.139L165.513 122.09L165.518 122.092L165.82 121.139ZM164.368 120.504L163.872 121.372L163.878 121.376L164.368 120.504ZM163.147 119.601L162.44 120.308L162.448 120.316L162.456 120.324L163.147 119.601ZM162.305 118.27L161.372 118.632L161.374 118.637L162.305 118.27ZM163.696 112.716L163.048 111.954L163.046 111.957L163.696 112.716ZM170.325 111.568L170.035 112.526L170.046 112.529L170.325 111.568ZM172.107 112.423L171.507 113.223L171.516 113.229L172.107 112.423ZM173.34 113.705L172.51 114.262L172.514 114.269L173.34 113.705ZM174.072 115.292L173.107 115.553L173.109 115.562L173.112 115.57L174.072 115.292ZM174.316 117.074V118.074H175.316V117.074H174.316ZM170.496 117.074L169.496 117.098L169.519 118.074H170.496V117.074ZM169.763 115.401L169.082 116.134L169.089 116.14L169.763 115.401ZM166.223 115.194L165.646 114.377L165.639 114.382L166.223 115.194ZM165.93 117.208L165.197 117.888L165.204 117.895L165.21 117.902L165.93 117.208ZM166.785 117.757L166.406 118.683L166.415 118.687L166.424 118.69L166.785 117.757ZM168.005 118.148L167.747 119.114L167.757 119.117L167.767 119.119L168.005 118.148ZM172.461 119.601L171.953 120.462L171.96 120.466L172.461 119.601ZM173.694 120.553L172.979 121.252L172.987 121.26L173.694 120.553ZM173.035 127.718L173.677 128.484L173.678 128.484L173.035 127.718ZM168.445 129.244V128.244C166.747 128.244 165.414 127.745 164.369 126.795L163.696 127.535L163.024 128.275C164.485 129.604 166.318 130.244 168.445 130.244V129.244ZM163.696 127.535L164.369 126.795C163.332 125.852 162.816 124.68 162.816 123.202H161.816H160.816C160.816 125.223 161.554 126.939 163.024 128.275L163.696 127.535ZM161.816 123.202V124.202H165.466V123.202V122.202H161.816V123.202ZM165.466 123.202H164.466C164.466 124.242 164.858 125.145 165.647 125.818L166.296 125.057L166.945 124.296C166.628 124.025 166.466 123.691 166.466 123.202H165.466ZM166.296 125.057L165.654 125.823C166.424 126.469 167.384 126.753 168.445 126.753V125.753V124.753C167.748 124.753 167.275 124.573 166.939 124.291L166.296 125.057ZM168.445 125.753V126.753C169.397 126.753 170.274 126.548 170.992 126.05L170.422 125.228L169.852 124.406C169.562 124.608 169.12 124.753 168.445 124.753V125.753ZM170.422 125.228L170.986 126.054C171.743 125.537 172.191 124.782 172.191 123.849H171.191H170.191C170.191 124.054 170.127 124.219 169.859 124.402L170.422 125.228ZM171.191 123.849H172.191C172.191 123.285 172 122.767 171.63 122.339L170.874 122.994L170.118 123.649C170.171 123.71 170.191 123.762 170.191 123.849H171.191ZM170.874 122.994L171.63 122.339C171.301 121.96 170.884 121.68 170.416 121.478L170.02 122.396L169.623 123.314C169.871 123.421 170.023 123.54 170.118 123.649L170.874 122.994ZM170.02 122.396L170.424 121.481C170.015 121.301 169.556 121.146 169.053 121.014L168.799 121.981L168.544 122.948C168.969 123.06 169.324 123.182 169.615 123.311L170.02 122.396ZM168.799 121.981L169.074 121.019C168.607 120.886 168.114 120.753 167.592 120.621L167.346 121.59L167.1 122.56C167.604 122.688 168.079 122.815 168.524 122.942L168.799 121.981ZM167.346 121.59L167.611 120.626C167.119 120.491 166.623 120.344 166.123 120.186L165.82 121.139L165.518 122.092C166.043 122.258 166.564 122.413 167.082 122.555L167.346 121.59ZM165.82 121.139L166.127 120.187C165.686 120.045 165.263 119.86 164.857 119.632L164.368 120.504L163.878 121.376C164.4 121.669 164.945 121.907 165.513 122.09L165.82 121.139ZM164.368 120.504L164.864 119.636C164.474 119.413 164.133 119.16 163.837 118.877L163.147 119.601L162.456 120.324C162.877 120.725 163.35 121.074 163.872 121.372L164.368 120.504ZM163.147 119.601L163.854 118.893C163.616 118.655 163.405 118.334 163.235 117.903L162.305 118.27L161.374 118.637C161.628 119.28 161.978 119.846 162.44 120.308L163.147 119.601ZM162.305 118.27L163.237 117.908C163.077 117.496 162.987 117.007 162.987 116.427H161.987H160.987C160.987 117.214 161.109 117.953 161.372 118.632L162.305 118.27ZM161.987 116.427H162.987C162.987 115.222 163.429 114.262 164.347 113.475L163.696 112.716L163.046 111.957C161.685 113.123 160.987 114.637 160.987 116.427H161.987ZM163.696 112.716L164.344 113.477C165.284 112.678 166.484 112.251 168.018 112.251V111.251V110.251C166.085 110.251 164.403 110.801 163.048 111.954L163.696 112.716ZM168.018 111.251V112.251C168.772 112.251 169.442 112.346 170.035 112.526L170.325 111.568L170.614 110.611C169.808 110.367 168.94 110.251 168.018 110.251V111.251ZM170.325 111.568L170.046 112.529C170.652 112.705 171.132 112.941 171.507 113.223L172.107 112.423L172.707 111.623C172.106 111.172 171.398 110.839 170.604 110.608L170.325 111.568ZM172.107 112.423L171.516 113.229C171.912 113.52 172.242 113.863 172.51 114.262L173.34 113.705L174.17 113.147C173.771 112.553 173.279 112.042 172.698 111.616L172.107 112.423ZM173.34 113.705L172.514 114.269C172.785 114.665 172.982 115.092 173.107 115.553L174.072 115.292L175.037 115.03C174.853 114.352 174.562 113.721 174.165 113.14L173.34 113.705ZM174.072 115.292L173.112 115.57C173.247 116.035 173.316 116.535 173.316 117.074H174.316H175.316C175.316 116.36 175.224 115.671 175.033 115.013L174.072 115.292ZM174.316 117.074V116.074H170.496V117.074V118.074H174.316V117.074ZM170.496 117.074L171.495 117.05C171.473 116.115 171.126 115.292 170.438 114.663L169.763 115.401L169.089 116.14C169.344 116.373 169.486 116.665 169.496 117.098L170.496 117.074ZM169.763 115.401L170.444 114.669C169.754 114.028 168.868 113.754 167.896 113.754V114.754V115.754C168.486 115.754 168.844 115.912 169.082 116.134L169.763 115.401ZM167.896 114.754V113.754C167.065 113.754 166.283 113.927 165.646 114.377L166.223 115.194L166.8 116.011C166.993 115.874 167.326 115.754 167.896 115.754V114.754ZM166.223 115.194L165.639 114.382C164.964 114.868 164.613 115.577 164.613 116.402H165.613H166.613C166.613 116.203 166.668 116.105 166.807 116.005L166.223 115.194ZM165.613 116.402H164.613C164.613 116.966 164.815 117.477 165.197 117.888L165.93 117.208L166.663 116.528C166.622 116.484 166.613 116.458 166.613 116.402H165.613ZM165.93 117.208L165.21 117.902C165.54 118.245 165.952 118.497 166.406 118.683L166.785 117.757L167.163 116.832C166.901 116.724 166.743 116.611 166.65 116.514L165.93 117.208ZM166.785 117.757L166.424 118.69C166.822 118.844 167.264 118.985 167.747 119.114L168.005 118.148L168.264 117.182C167.835 117.067 167.463 116.948 167.145 116.825L166.785 117.757ZM168.005 118.148L167.767 119.119C168.228 119.232 168.714 119.354 169.224 119.483L169.47 118.514L169.716 117.545C169.201 117.414 168.711 117.291 168.244 117.177L168.005 118.148ZM169.47 118.514L169.224 119.483C169.717 119.609 170.211 119.75 170.706 119.907L171.008 118.954L171.311 118C170.78 117.832 170.248 117.68 169.716 117.545L169.47 118.514ZM171.008 118.954L170.706 119.907C171.148 120.047 171.563 120.232 171.953 120.462L172.461 119.601L172.969 118.739C172.447 118.432 171.894 118.186 171.311 118L171.008 118.954ZM172.461 119.601L171.96 120.466C172.349 120.691 172.687 120.953 172.979 121.252L173.694 120.553L174.409 119.854C173.984 119.42 173.501 119.047 172.962 118.735L172.461 119.601ZM173.694 120.553L172.987 121.26C173.227 121.5 173.442 121.832 173.613 122.285L174.548 121.932L175.484 121.58C175.232 120.909 174.876 120.321 174.401 119.846L173.694 120.553ZM174.548 121.932L173.613 122.285C173.774 122.714 173.866 123.23 173.866 123.849H174.866H175.866C175.866 123.035 175.746 122.273 175.484 121.58L174.548 121.932ZM174.866 123.849H173.866C173.866 125.099 173.393 126.112 172.391 126.953L173.035 127.718L173.678 128.484C175.118 127.274 175.866 125.707 175.866 123.849H174.866ZM173.035 127.718L172.392 126.952C171.389 127.794 170.098 128.244 168.445 128.244V129.244V130.244C170.486 130.244 172.255 129.677 173.677 128.484L173.035 127.718Z" fill="url(#paint2_linear_1_1372)" mask="url(#path-3-inside-1_1_1372)"/>
<defs>
<linearGradient id="paint0_linear_1_1372" x1="89.5106" y1="60.8276" x2="89.5106" y2="98.4711" gradientUnits="userSpaceOnUse">
<stop stop-color="#1E2D3C"/>
<stop offset="1" stop-color="#517AA2"/>
</linearGradient>
<linearGradient id="paint1_linear_1_1372" x1="89.5" y1="0" x2="89.5" y2="98.4303" gradientUnits="userSpaceOnUse">
<stop stop-color="#1E2D3C"/>
<stop offset="1" stop-color="#517AA2"/>
</linearGradient>
<linearGradient id="paint2_linear_1_1372" x1="89.5" y1="103" x2="89.5" y2="132" gradientUnits="userSpaceOnUse">
<stop stop-color="#1E2D3C"/>
<stop offset="1" stop-color="#517AA2"/>
</linearGradient>
</defs>
</svg>
