<svg width="281" height="42" viewBox="0 0 281 42" fill="none" xmlns="http://www.w3.org/2000/svg">
<path d="M69.5283 41L68.0649 37.2163H60.0757L58.5859 41H55.2373L62.7783 22.0947H65.4282L72.9561 41H69.5283ZM61.2358 34.1973H66.8784L64.0703 26.9595L61.2358 34.1973ZM82.6724 41.2637C81.3452 41.2637 80.0928 41.0132 78.915 40.5122C77.7373 40.0112 76.7266 39.3301 75.8828 38.4688C75.0479 37.6074 74.3843 36.5747 73.8921 35.3706C73.4087 34.1665 73.167 32.8833 73.167 31.521C73.167 30.1675 73.4087 28.8931 73.8921 27.6978C74.3843 26.4937 75.0479 25.4653 75.8828 24.6128C76.7266 23.7515 77.7373 23.0747 78.915 22.5825C80.0928 22.0815 81.3452 21.8311 82.6724 21.8311C84.105 21.8311 85.4541 22.1167 86.7197 22.688C87.9941 23.2593 89.0488 24.0591 89.8838 25.0874C90.7275 26.1069 91.2461 27.2539 91.4395 28.5283H87.959C87.6514 27.4561 87.0098 26.5859 86.0342 25.918C85.0586 25.2412 83.938 24.9028 82.6724 24.9028C80.9058 24.9028 79.4248 25.5356 78.2295 26.8013C77.0342 28.0669 76.4365 29.6401 76.4365 31.521C76.4365 33.4106 77.0342 34.9971 78.2295 36.2803C79.4248 37.5547 80.9058 38.1919 82.6724 38.1919C83.9556 38.1919 85.0894 37.8359 86.0737 37.124C87.0669 36.4033 87.7041 35.4717 87.9854 34.3291H91.5054C91.1274 36.377 90.1167 38.0469 88.4731 39.3389C86.8384 40.6221 84.9048 41.2637 82.6724 41.2637ZM94.3267 22.0947H105.48V25.127H97.4907V29.583H104.61V32.6021H97.4907V37.981H105.48V41H94.3267V22.0947ZM114.919 41.2637C112.889 41.2637 111.21 40.666 109.883 39.4707C108.556 38.2666 107.893 36.7417 107.893 34.896H111.03C111.03 35.9067 111.391 36.7285 112.111 37.3613C112.841 37.9854 113.777 38.2974 114.919 38.2974C115.992 38.2974 116.866 38.0513 117.543 37.5591C118.22 37.0581 118.558 36.4121 118.558 35.6211C118.558 35.1729 118.439 34.7817 118.202 34.4478C117.965 34.1138 117.644 33.8457 117.24 33.6436C116.844 33.4326 116.383 33.248 115.855 33.0898C115.337 32.9316 114.788 32.7778 114.208 32.6284C113.636 32.479 113.061 32.3208 112.48 32.1538C111.909 31.9868 111.36 31.7671 110.833 31.4946C110.314 31.2222 109.853 30.9058 109.448 30.5454C109.053 30.1851 108.736 29.7192 108.499 29.1479C108.262 28.5679 108.143 27.9087 108.143 27.1704C108.143 25.6147 108.745 24.3359 109.949 23.334C111.153 22.332 112.683 21.8311 114.537 21.8311C115.592 21.8311 116.541 21.9893 117.385 22.3057C118.237 22.6221 118.927 23.0571 119.455 23.6108C119.991 24.1558 120.399 24.7842 120.681 25.4961C120.962 26.1992 121.103 26.9551 121.103 27.7637H117.859C117.833 26.9023 117.508 26.1992 116.884 25.6543C116.26 25.1006 115.442 24.8237 114.432 24.8237C113.474 24.8237 112.7 25.0391 112.111 25.4697C111.531 25.8916 111.241 26.4497 111.241 27.144C111.241 27.5659 111.36 27.9307 111.597 28.2383C111.834 28.5371 112.155 28.7788 112.56 28.9634C112.964 29.1479 113.425 29.3149 113.944 29.4644C114.471 29.6138 115.021 29.7588 115.592 29.8994C116.172 30.04 116.752 30.1982 117.332 30.374C117.912 30.541 118.461 30.7695 118.98 31.0596C119.507 31.3408 119.973 31.6748 120.377 32.0615C120.782 32.4395 121.103 32.9316 121.34 33.5381C121.577 34.1445 121.696 34.8389 121.696 35.6211C121.696 36.6934 121.401 37.6602 120.812 38.5215C120.232 39.3828 119.424 40.0552 118.387 40.5386C117.358 41.022 116.203 41.2637 114.919 41.2637ZM128.564 23.0967C130.032 22.2529 131.663 21.8311 133.456 21.8311C135.249 21.8311 136.875 22.2529 138.333 23.0967C139.801 23.9404 140.953 25.105 141.788 26.5903C142.623 28.0669 143.04 29.7104 143.04 31.521C143.04 33.3403 142.623 34.9971 141.788 36.4912C140.953 37.9766 139.801 39.1455 138.333 39.998C136.875 40.8418 135.249 41.2637 133.456 41.2637C131.663 41.2637 130.032 40.8418 128.564 39.998C127.097 39.1455 125.941 37.9766 125.097 36.4912C124.262 34.9971 123.845 33.3403 123.845 31.521C123.845 29.7104 124.262 28.0669 125.097 26.5903C125.941 25.105 127.097 23.9404 128.564 23.0967ZM133.456 24.9028C131.654 24.9028 130.146 25.5356 128.934 26.8013C127.721 28.0669 127.114 29.6401 127.114 31.521C127.114 33.4106 127.721 34.9971 128.934 36.2803C130.146 37.5547 131.654 38.1919 133.456 38.1919C135.249 38.1919 136.751 37.5547 137.964 36.2803C139.186 34.9971 139.797 33.4106 139.797 31.521C139.797 29.6401 139.186 28.0669 137.964 26.8013C136.751 25.5356 135.249 24.9028 133.456 24.9028ZM145.848 22.0947H157.001V25.127H149.012V30.0049H156.131V33.0371H149.012V41H145.848V22.0947ZM173.296 22.0947V25.127H167.496V41H164.345V25.127H158.531V22.0947H173.296Z" fill="#046FE1"/>
<path d="M181.628 22.0947H184.792V37.981H193.836V41H181.628V22.0947ZM209.169 41L207.706 37.2163H199.716L198.227 41H194.878L202.419 22.0947H205.069L212.597 41H209.169ZM200.876 34.1973H206.519L203.711 26.9595L200.876 34.1973ZM214.561 41V22.0947H221.417C222.99 22.0947 224.326 22.5737 225.424 23.5317C226.532 24.4897 227.085 25.6411 227.085 26.9858C227.085 27.9175 226.809 28.7656 226.255 29.5303C225.71 30.2949 225.033 30.7871 224.225 31.0068C225.314 31.1826 226.215 31.71 226.927 32.5889C227.648 33.4678 228.008 34.5005 228.008 35.687C228.008 37.1724 227.446 38.4292 226.321 39.4575C225.205 40.4858 223.851 41 222.26 41H214.561ZM217.725 29.9258H221.337C222.058 29.9258 222.665 29.6885 223.157 29.2139C223.658 28.7393 223.908 28.1592 223.908 27.4736C223.908 26.8232 223.653 26.2695 223.144 25.8125C222.643 25.3555 222.041 25.127 221.337 25.127H217.725V29.9258ZM217.725 37.981H222.036C222.818 37.981 223.473 37.7173 224 37.1899C224.528 36.6626 224.792 36.0166 224.792 35.252C224.792 34.4785 224.523 33.8281 223.987 33.3008C223.46 32.7646 222.818 32.4966 222.062 32.4966H217.725V37.981ZM236.868 41.2637C234.837 41.2637 233.159 40.666 231.832 39.4707C230.504 38.2666 229.841 36.7417 229.841 34.896H232.979C232.979 35.9067 233.339 36.7285 234.06 37.3613C234.789 37.9854 235.725 38.2974 236.868 38.2974C237.94 38.2974 238.814 38.0513 239.491 37.5591C240.168 37.0581 240.506 36.4121 240.506 35.6211C240.506 35.1729 240.388 34.7817 240.15 34.4478C239.913 34.1138 239.592 33.8457 239.188 33.6436C238.792 33.4326 238.331 33.248 237.804 33.0898C237.285 32.9316 236.736 32.7778 236.156 32.6284C235.584 32.479 235.009 32.3208 234.429 32.1538C233.857 31.9868 233.308 31.7671 232.781 31.4946C232.262 31.2222 231.801 30.9058 231.396 30.5454C231.001 30.1851 230.685 29.7192 230.447 29.1479C230.21 28.5679 230.091 27.9087 230.091 27.1704C230.091 25.6147 230.693 24.3359 231.897 23.334C233.102 22.332 234.631 21.8311 236.485 21.8311C237.54 21.8311 238.489 21.9893 239.333 22.3057C240.186 22.6221 240.875 23.0571 241.403 23.6108C241.939 24.1558 242.348 24.7842 242.629 25.4961C242.91 26.1992 243.051 26.9551 243.051 27.7637H239.808C239.781 26.9023 239.456 26.1992 238.832 25.6543C238.208 25.1006 237.391 24.8237 236.38 24.8237C235.422 24.8237 234.648 25.0391 234.06 25.4697C233.479 25.8916 233.189 26.4497 233.189 27.144C233.189 27.5659 233.308 27.9307 233.545 28.2383C233.783 28.5371 234.104 28.7788 234.508 28.9634C234.912 29.1479 235.374 29.3149 235.892 29.4644C236.419 29.6138 236.969 29.7588 237.54 29.8994C238.12 30.04 238.7 30.1982 239.28 30.374C239.86 30.541 240.41 30.7695 240.928 31.0596C241.456 31.3408 241.921 31.6748 242.326 32.0615C242.73 32.4395 243.051 32.9316 243.288 33.5381C243.525 34.1445 243.644 34.8389 243.644 35.6211C243.644 36.6934 243.35 37.6602 242.761 38.5215C242.181 39.3828 241.372 40.0552 240.335 40.5386C239.307 41.022 238.151 41.2637 236.868 41.2637Z" fill="#E9B100"/>
<path d="M29.4592 40.1954L22.1148 25.7366C21.8861 25.2797 21.2339 25.2797 21.0051 25.7366L13.5422 40.1954C13.3304 40.61 13.6269 41.1092 14.1013 41.1092H21.7845H28.9086C29.3745 41.1092 29.6795 40.6185 29.4677 40.2039L29.4592 40.1954Z" fill="#E9B100"/>
<path d="M21.0219 0.372259L0.081596 40.0009C-0.164063 40.4662 0.174777 41.0331 0.69998 41.0331L8.42554 41.0923C8.68815 41.0923 8.9338 40.9485 9.0524 40.72L20.9965 18.3337C21.2591 17.8346 21.9792 17.8346 22.2418 18.3337L34.1266 40.6354C34.2452 40.8638 34.4909 41.0077 34.745 41.0077H42.2927C42.8179 41.0077 43.1652 40.4493 42.9195 39.9755L22.2757 0.380719C22.013 -0.126906 21.293 -0.126906 21.0304 0.380719L21.0219 0.372259Z" fill="#046FE1"/>
</svg>
