<svg width="281" height="44" viewBox="0 0 281 44" fill="none" xmlns="http://www.w3.org/2000/svg">
<path d="M69.5283 32L68.0649 28.2163H60.0757L58.5859 32H55.2373L62.7783 13.0947H65.4282L72.9561 32H69.5283ZM61.2358 25.1973H66.8784L64.0703 17.9595L61.2358 25.1973ZM82.6724 32.2637C81.3452 32.2637 80.0928 32.0132 78.915 31.5122C77.7373 31.0112 76.7266 30.3301 75.8828 29.4688C75.0479 28.6074 74.3843 27.5747 73.8921 26.3706C73.4087 25.1665 73.167 23.8833 73.167 22.521C73.167 21.1675 73.4087 19.8931 73.8921 18.6978C74.3843 17.4937 75.0479 16.4653 75.8828 15.6128C76.7266 14.7515 77.7373 14.0747 78.915 13.5825C80.0928 13.0815 81.3452 12.8311 82.6724 12.8311C84.105 12.8311 85.4541 13.1167 86.7197 13.688C87.9941 14.2593 89.0488 15.0591 89.8838 16.0874C90.7275 17.1069 91.2461 18.2539 91.4395 19.5283H87.959C87.6514 18.4561 87.0098 17.5859 86.0342 16.918C85.0586 16.2412 83.938 15.9028 82.6724 15.9028C80.9058 15.9028 79.4248 16.5356 78.2295 17.8013C77.0342 19.0669 76.4365 20.6401 76.4365 22.521C76.4365 24.4106 77.0342 25.9971 78.2295 27.2803C79.4248 28.5547 80.9058 29.1919 82.6724 29.1919C83.9556 29.1919 85.0894 28.8359 86.0737 28.124C87.0669 27.4033 87.7041 26.4717 87.9854 25.3291H91.5054C91.1274 27.377 90.1167 29.0469 88.4731 30.3389C86.8384 31.6221 84.9048 32.2637 82.6724 32.2637ZM94.3267 13.0947H105.48V16.127H97.4907V20.583H104.61V23.6021H97.4907V28.981H105.48V32H94.3267V13.0947ZM114.919 32.2637C112.889 32.2637 111.21 31.666 109.883 30.4707C108.556 29.2666 107.893 27.7417 107.893 25.896H111.03C111.03 26.9067 111.391 27.7285 112.111 28.3613C112.841 28.9854 113.777 29.2974 114.919 29.2974C115.992 29.2974 116.866 29.0513 117.543 28.5591C118.22 28.0581 118.558 27.4121 118.558 26.6211C118.558 26.1729 118.439 25.7817 118.202 25.4478C117.965 25.1138 117.644 24.8457 117.24 24.6436C116.844 24.4326 116.383 24.248 115.855 24.0898C115.337 23.9316 114.788 23.7778 114.208 23.6284C113.636 23.479 113.061 23.3208 112.48 23.1538C111.909 22.9868 111.36 22.7671 110.833 22.4946C110.314 22.2222 109.853 21.9058 109.448 21.5454C109.053 21.1851 108.736 20.7192 108.499 20.1479C108.262 19.5679 108.143 18.9087 108.143 18.1704C108.143 16.6147 108.745 15.3359 109.949 14.334C111.153 13.332 112.683 12.8311 114.537 12.8311C115.592 12.8311 116.541 12.9893 117.385 13.3057C118.237 13.6221 118.927 14.0571 119.455 14.6108C119.991 15.1558 120.399 15.7842 120.681 16.4961C120.962 17.1992 121.103 17.9551 121.103 18.7637H117.859C117.833 17.9023 117.508 17.1992 116.884 16.6543C116.26 16.1006 115.442 15.8237 114.432 15.8237C113.474 15.8237 112.7 16.0391 112.111 16.4697C111.531 16.8916 111.241 17.4497 111.241 18.144C111.241 18.5659 111.36 18.9307 111.597 19.2383C111.834 19.5371 112.155 19.7788 112.56 19.9634C112.964 20.1479 113.425 20.3149 113.944 20.4644C114.471 20.6138 115.021 20.7588 115.592 20.8994C116.172 21.04 116.752 21.1982 117.332 21.374C117.912 21.541 118.461 21.7695 118.98 22.0596C119.507 22.3408 119.973 22.6748 120.377 23.0615C120.782 23.4395 121.103 23.9316 121.34 24.5381C121.577 25.1445 121.696 25.8389 121.696 26.6211C121.696 27.6934 121.401 28.6602 120.812 29.5215C120.232 30.3828 119.424 31.0552 118.387 31.5386C117.358 32.022 116.203 32.2637 114.919 32.2637ZM128.564 14.0967C130.032 13.2529 131.663 12.8311 133.456 12.8311C135.249 12.8311 136.875 13.2529 138.333 14.0967C139.801 14.9404 140.953 16.105 141.788 17.5903C142.623 19.0669 143.04 20.7104 143.04 22.521C143.04 24.3403 142.623 25.9971 141.788 27.4912C140.953 28.9766 139.801 30.1455 138.333 30.998C136.875 31.8418 135.249 32.2637 133.456 32.2637C131.663 32.2637 130.032 31.8418 128.564 30.998C127.097 30.1455 125.941 28.9766 125.097 27.4912C124.262 25.9971 123.845 24.3403 123.845 22.521C123.845 20.7104 124.262 19.0669 125.097 17.5903C125.941 16.105 127.097 14.9404 128.564 14.0967ZM133.456 15.9028C131.654 15.9028 130.146 16.5356 128.934 17.8013C127.721 19.0669 127.114 20.6401 127.114 22.521C127.114 24.4106 127.721 25.9971 128.934 27.2803C130.146 28.5547 131.654 29.1919 133.456 29.1919C135.249 29.1919 136.751 28.5547 137.964 27.2803C139.186 25.9971 139.797 24.4106 139.797 22.521C139.797 20.6401 139.186 19.0669 137.964 17.8013C136.751 16.5356 135.249 15.9028 133.456 15.9028ZM145.848 13.0947H157.001V16.127H149.012V21.0049H156.131V24.0371H149.012V32H145.848V13.0947ZM173.296 13.0947V16.127H167.496V32H164.345V16.127H158.531V13.0947H173.296Z" fill="white"/>
<path d="M181.628 13.0947H184.792V28.981H193.836V32H181.628V13.0947ZM209.169 32L207.706 28.2163H199.716L198.227 32H194.878L202.419 13.0947H205.069L212.597 32H209.169ZM200.876 25.1973H206.519L203.711 17.9595L200.876 25.1973ZM214.561 32V13.0947H221.417C222.99 13.0947 224.326 13.5737 225.424 14.5317C226.532 15.4897 227.085 16.6411 227.085 17.9858C227.085 18.9175 226.809 19.7656 226.255 20.5303C225.71 21.2949 225.033 21.7871 224.225 22.0068C225.314 22.1826 226.215 22.71 226.927 23.5889C227.648 24.4678 228.008 25.5005 228.008 26.687C228.008 28.1724 227.446 29.4292 226.321 30.4575C225.205 31.4858 223.851 32 222.26 32H214.561ZM217.725 20.9258H221.337C222.058 20.9258 222.665 20.6885 223.157 20.2139C223.658 19.7393 223.908 19.1592 223.908 18.4736C223.908 17.8232 223.653 17.2695 223.144 16.8125C222.643 16.3555 222.041 16.127 221.337 16.127H217.725V20.9258ZM217.725 28.981H222.036C222.818 28.981 223.473 28.7173 224 28.1899C224.528 27.6626 224.792 27.0166 224.792 26.252C224.792 25.4785 224.523 24.8281 223.987 24.3008C223.46 23.7646 222.818 23.4966 222.062 23.4966H217.725V28.981ZM236.868 32.2637C234.837 32.2637 233.159 31.666 231.832 30.4707C230.504 29.2666 229.841 27.7417 229.841 25.896H232.979C232.979 26.9067 233.339 27.7285 234.06 28.3613C234.789 28.9854 235.725 29.2974 236.868 29.2974C237.94 29.2974 238.814 29.0513 239.491 28.5591C240.168 28.0581 240.506 27.4121 240.506 26.6211C240.506 26.1729 240.388 25.7817 240.15 25.4478C239.913 25.1138 239.592 24.8457 239.188 24.6436C238.792 24.4326 238.331 24.248 237.804 24.0898C237.285 23.9316 236.736 23.7778 236.156 23.6284C235.584 23.479 235.009 23.3208 234.429 23.1538C233.857 22.9868 233.308 22.7671 232.781 22.4946C232.262 22.2222 231.801 21.9058 231.396 21.5454C231.001 21.1851 230.685 20.7192 230.447 20.1479C230.21 19.5679 230.091 18.9087 230.091 18.1704C230.091 16.6147 230.693 15.3359 231.897 14.334C233.102 13.332 234.631 12.8311 236.485 12.8311C237.54 12.8311 238.489 12.9893 239.333 13.3057C240.186 13.6221 240.875 14.0571 241.403 14.6108C241.939 15.1558 242.348 15.7842 242.629 16.4961C242.91 17.1992 243.051 17.9551 243.051 18.7637H239.808C239.781 17.9023 239.456 17.1992 238.832 16.6543C238.208 16.1006 237.391 15.8237 236.38 15.8237C235.422 15.8237 234.648 16.0391 234.06 16.4697C233.479 16.8916 233.189 17.4497 233.189 18.144C233.189 18.5659 233.308 18.9307 233.545 19.2383C233.783 19.5371 234.104 19.7788 234.508 19.9634C234.912 20.1479 235.374 20.3149 235.892 20.4644C236.419 20.6138 236.969 20.7588 237.54 20.8994C238.12 21.04 238.7 21.1982 239.28 21.374C239.86 21.541 240.41 21.7695 240.928 22.0596C241.456 22.3408 241.921 22.6748 242.326 23.0615C242.73 23.4395 243.051 23.9316 243.288 24.5381C243.525 25.1445 243.644 25.8389 243.644 26.6211C243.644 27.6934 243.35 28.6602 242.761 29.5215C242.181 30.3828 241.372 31.0552 240.335 31.5386C239.307 32.022 238.151 32.2637 236.868 32.2637Z" fill="#E9B100"/>
<path d="M29.4592 40.1955L22.1148 25.7366C21.8861 25.2797 21.2339 25.2797 21.0051 25.7366L13.5422 40.1955C13.3304 40.61 13.6269 41.1092 14.1013 41.1092H21.7845H28.9086C29.3745 41.1092 29.6795 40.6185 29.4677 40.2039L29.4592 40.1955Z" fill="#E9B100"/>
<path d="M21.0219 0.372259L0.081596 40.0009C-0.164063 40.4662 0.174777 41.0331 0.69998 41.0331L8.42554 41.0923C8.68815 41.0923 8.9338 40.9485 9.0524 40.72L20.9965 18.3337C21.2591 17.8346 21.9792 17.8346 22.2418 18.3337L34.1266 40.6354C34.2452 40.8638 34.4909 41.0077 34.745 41.0077H42.2927C42.8179 41.0077 43.1652 40.4493 42.9195 39.9755L22.2757 0.380719C22.013 -0.126906 21.293 -0.126906 21.0304 0.380719L21.0219 0.372259Z" fill="#456384"/>
</svg>
