<svg width="573" height="136" viewBox="0 0 573 136" fill="none" xmlns="http://www.w3.org/2000/svg">
<path d="M1.68 29V1.8H12.16C18.12 1.8 21.84 4.72 21.84 9.36C21.84 11.76 20.64 13.6 18.52 14.64C21.64 15.68 23.36 18 23.36 21.12C23.36 26.12 19.76 29 13.52 29H1.68ZM12.04 6.08H7.08V13.12H11.92C14.8 13.12 16.32 11.72 16.32 9.64C16.32 7.44 14.76 6.08 12.04 6.08ZM13.08 17.12H7.08V24.72H13.4C16.2 24.72 17.84 23.2 17.84 20.92C17.84 18.64 16.12 17.12 13.08 17.12ZM40.3831 20V7.56H45.5031V29H40.3831V26.12C38.9831 28.48 36.7831 29.6 34.1431 29.6C29.9031 29.6 27.0631 27.04 27.0631 21.88V7.56H32.1831V20.84C32.1831 23.76 33.3831 25.36 35.9031 25.36C38.6631 25.36 40.3831 22.88 40.3831 20ZM54.5072 13.32C54.5072 18.24 68.0272 14.08 68.0272 22.68C68.0272 26.8 64.2272 29.6 58.8672 29.6C53.5872 29.6 49.7872 27.16 49.0272 22H54.1472C54.5072 24.32 56.3472 25.64 59.0272 25.64C61.5472 25.64 62.8672 24.56 62.8672 23C62.8672 18.2 49.6272 22.32 49.6272 13.64C49.6272 10.16 52.3472 6.96 57.9472 6.96C62.8672 6.96 66.5872 9.28 67.2272 14.6H62.1072C61.7072 12 60.1872 10.96 57.7472 10.96C55.7072 10.96 54.5072 11.96 54.5072 13.32ZM71.5163 5.16V0.199999H76.6363V5.16H71.5163ZM71.5163 29V7.56H76.6363V29H71.5163ZM81.3209 29V7.56H86.4409V10.44C87.8409 8.12 90.0809 6.96 92.8009 6.96C97.0809 6.96 100.001 9.52 100.001 14.72V29H94.8809V15.76C94.8809 12.84 93.6409 11.2 91.0409 11.2C88.2009 11.2 86.4409 13.68 86.4409 16.56V29H81.3209ZM124.279 22C123.119 26.96 119.279 29.6 114.159 29.6C107.679 29.6 103.719 25.32 103.719 18.32C103.719 11.04 107.719 6.96 113.959 6.96C120.239 6.96 124.119 11.2 124.119 18.12V19.32H108.999C109.239 23.24 111.039 25.4 114.159 25.4C116.559 25.4 118.199 24.28 118.879 22H124.279ZM113.959 11.16C111.239 11.16 109.599 12.88 109.119 16.12H118.759C118.279 12.92 116.639 11.16 113.959 11.16ZM132.242 13.32C132.242 18.24 145.762 14.08 145.762 22.68C145.762 26.8 141.962 29.6 136.602 29.6C131.322 29.6 127.522 27.16 126.762 22H131.882C132.242 24.32 134.082 25.64 136.762 25.64C139.282 25.64 140.602 24.56 140.602 23C140.602 18.2 127.362 22.32 127.362 13.64C127.362 10.16 130.082 6.96 135.682 6.96C140.602 6.96 144.322 9.28 144.962 14.6H139.842C139.442 12 137.922 10.96 135.482 10.96C133.442 10.96 132.242 11.96 132.242 13.32ZM153.531 13.32C153.531 18.24 167.051 14.08 167.051 22.68C167.051 26.8 163.251 29.6 157.891 29.6C152.611 29.6 148.811 27.16 148.051 22H153.171C153.531 24.32 155.371 25.64 158.051 25.64C160.571 25.64 161.891 24.56 161.891 23C161.891 18.2 148.651 22.32 148.651 13.64C148.651 10.16 151.371 6.96 156.971 6.96C161.891 6.96 165.611 9.28 166.251 14.6H161.131C160.731 12 159.211 10.96 156.771 10.96C154.731 10.96 153.531 11.96 153.531 13.32ZM170.46 20.28V15.92H181.42V20.28H170.46ZM186.087 29V0.199999H191.207V29H186.087ZM215.451 22C214.291 26.96 210.451 29.6 205.331 29.6C198.851 29.6 194.891 25.32 194.891 18.32C194.891 11.04 198.891 6.96 205.131 6.96C211.411 6.96 215.291 11.2 215.291 18.12V19.32H200.171C200.411 23.24 202.211 25.4 205.331 25.4C207.731 25.4 209.371 24.28 210.051 22H215.451ZM205.131 11.16C202.411 11.16 200.771 12.88 200.291 16.12H209.931C209.451 12.92 207.811 11.16 205.131 11.16ZM227.173 29.6C221.573 29.6 218.133 25.32 218.133 18.32C218.133 11.04 221.653 6.96 227.173 6.96C229.533 6.96 231.493 7.96 232.813 9.88V0.199999H237.933V29H232.813V26.56C231.453 28.52 229.533 29.6 227.173 29.6ZM228.093 25.36C231.173 25.36 232.813 22.88 232.813 18.32C232.813 13.76 231.093 11.2 228.093 11.2C225.053 11.2 223.413 13.72 223.413 18.32C223.413 22.84 225.093 25.36 228.093 25.36ZM257.004 29V6.24H248.244V1.8H271.164V6.24H262.404V29H257.004ZM290.881 22C289.721 26.96 285.881 29.6 280.761 29.6C274.281 29.6 270.321 25.32 270.321 18.32C270.321 11.04 274.321 6.96 280.561 6.96C286.841 6.96 290.721 11.2 290.721 18.12V19.32H275.601C275.841 23.24 277.641 25.4 280.761 25.4C283.161 25.4 284.801 24.28 285.481 22H290.881ZM280.561 11.16C277.841 11.16 276.201 12.88 275.721 16.12H285.361C284.881 12.92 283.241 11.16 280.561 11.16ZM313.123 15.16H308.003C307.523 12.36 305.843 11.2 303.683 11.2C300.523 11.2 298.843 13.72 298.843 18.32C298.843 22.84 300.603 25.36 303.843 25.36C306.043 25.36 307.603 24.16 308.123 21.72H313.283C312.323 27.08 308.563 29.6 303.723 29.6C297.403 29.6 293.563 25.28 293.563 18.32C293.563 11.04 297.523 6.96 303.683 6.96C308.563 6.96 312.403 9.68 313.123 15.16ZM316.829 29V0.199999H321.949V10.44C323.349 8.12 325.589 6.96 328.309 6.96C332.589 6.96 335.509 9.52 335.509 14.72V29H330.389V15.76C330.389 12.84 329.149 11.2 326.549 11.2C323.709 11.2 321.949 13.68 321.949 16.56V29H316.829ZM340.227 29V7.56H345.347V10.44C346.747 8.12 348.987 6.96 351.707 6.96C355.987 6.96 358.907 9.52 358.907 14.72V29H353.787V15.76C353.787 12.84 352.547 11.2 349.947 11.2C347.107 11.2 345.347 13.68 345.347 16.56V29H340.227ZM372.906 29.6C366.546 29.6 362.626 25.32 362.626 18.32C362.626 11.04 366.666 6.96 372.906 6.96C379.226 6.96 383.146 11.28 383.146 18.32C383.146 25.52 379.106 29.6 372.906 29.6ZM372.906 25.36C376.146 25.36 377.866 22.88 377.866 18.32C377.866 13.76 376.106 11.2 372.906 11.2C369.626 11.2 367.906 13.72 367.906 18.32C367.906 22.84 369.666 25.36 372.906 25.36ZM386.868 29V0.199999H391.988V29H386.868ZM405.953 29.6C399.592 29.6 395.673 25.32 395.673 18.32C395.673 11.04 399.713 6.96 405.953 6.96C412.273 6.96 416.193 11.28 416.193 18.32C416.193 25.52 412.153 29.6 405.953 29.6ZM405.953 25.36C409.193 25.36 410.913 22.88 410.913 18.32C410.913 13.76 409.153 11.2 405.953 11.2C402.673 11.2 400.953 13.72 400.953 18.32C400.953 22.84 402.713 25.36 405.953 25.36ZM427.715 29.08C422.275 29.08 418.915 24.88 418.915 18.04C418.915 10.92 422.355 6.96 427.715 6.96C430.275 6.96 432.275 7.92 433.595 9.72V7.56H438.715V29.68C438.715 35.48 434.715 38.44 429.395 38.44C424.115 38.44 420.275 36 419.515 30.92H424.675C424.995 33.2 426.835 34.4 429.315 34.4C431.875 34.4 433.595 33.16 433.595 29.76V26.16C432.195 28.08 430.195 29.08 427.715 29.08ZM428.875 24.84C431.955 24.84 433.595 22.44 433.595 18.04C433.595 13.68 431.875 11.2 428.875 11.2C425.835 11.2 424.195 13.6 424.195 18.04C424.195 22.4 425.835 24.84 428.875 24.84ZM445.59 38.4C444.55 38.4 443.47 38.12 442.95 37.92V34H444.15C446.47 34 447.55 33.52 449.19 29.44L449.71 28.12L441.27 7.56H446.75L451.51 20L452.39 23.12L453.27 20L457.83 7.56H463.07L453.63 31.12C451.43 36.68 449.51 38.4 445.59 38.4ZM478.273 14.6H473.113C473.793 9.84 477.273 6.96 482.673 6.96C488.633 6.96 491.673 10.48 491.673 15.44V23.76C491.673 26.4 491.913 27.88 492.313 29H486.993C486.713 28.28 486.593 27.24 486.553 26.08C484.793 28.56 482.153 29.6 479.593 29.6C475.393 29.6 472.393 27.52 472.393 23.4C472.393 20.48 474.033 18.28 477.313 17.2C480.153 16.24 482.913 16 486.513 15.96V15.44C486.513 12.68 485.193 11.2 482.353 11.2C479.913 11.2 478.593 12.56 478.273 14.6ZM477.553 23.12C477.553 24.76 478.833 25.8 480.913 25.8C484.073 25.8 486.513 23.24 486.513 20.04V19.12C479.233 19.24 477.553 20.96 477.553 23.12ZM496.555 29V7.56H501.675V10.44C503.075 8.12 505.315 6.96 508.035 6.96C512.315 6.96 515.235 9.52 515.235 14.72V29H510.115V15.76C510.115 12.84 508.875 11.2 506.275 11.2C503.435 11.2 501.675 13.68 501.675 16.56V29H496.555ZM527.994 29.6C522.394 29.6 518.954 25.32 518.954 18.32C518.954 11.04 522.474 6.96 527.994 6.96C530.354 6.96 532.314 7.96 533.634 9.88V0.199999H538.754V29H533.634V26.56C532.274 28.52 530.354 29.6 527.994 29.6ZM528.914 25.36C531.994 25.36 533.634 22.88 533.634 18.32C533.634 13.76 531.914 11.2 528.914 11.2C525.874 11.2 524.234 13.72 524.234 18.32C524.234 22.84 525.914 25.36 528.914 25.36ZM1.68 78V50.8H7.08V78H1.68ZM12.1022 78V56.56H17.2222V59.44C18.6222 57.12 20.8622 55.96 23.5822 55.96C27.8622 55.96 30.7822 58.52 30.7822 63.72V78H25.6622V64.76C25.6622 61.84 24.4222 60.2 21.8222 60.2C18.9822 60.2 17.2222 62.68 17.2222 65.56V78H12.1022ZM35.5006 78V56.56H40.6206V59.44C42.0206 57.12 44.2606 55.96 46.9806 55.96C51.2606 55.96 54.1806 58.52 54.1806 63.72V78H49.0606V64.76C49.0606 61.84 47.8206 60.2 45.2206 60.2C42.3806 60.2 40.6206 62.68 40.6206 65.56V78H35.5006ZM68.1791 78.6C61.8191 78.6 57.8991 74.32 57.8991 67.32C57.8991 60.04 61.9391 55.96 68.1791 55.96C74.4991 55.96 78.4191 60.28 78.4191 67.32C78.4191 74.52 74.3791 78.6 68.1791 78.6ZM68.1791 74.36C71.4191 74.36 73.1391 71.88 73.1391 67.32C73.1391 62.76 71.3791 60.2 68.1791 60.2C64.8991 60.2 63.1791 62.72 63.1791 67.32C63.1791 71.84 64.9391 74.36 68.1791 74.36ZM87.0744 78L79.3544 56.56H84.8744L89.8344 71.68L90.3944 74L90.9144 71.68L95.8744 56.56H101.114L93.3944 78H87.0744ZM108.312 63.6H103.152C103.832 58.84 107.312 55.96 112.712 55.96C118.672 55.96 121.712 59.48 121.712 64.44V72.76C121.712 75.4 121.952 76.88 122.352 78H117.032C116.752 77.28 116.632 76.24 116.592 75.08C114.832 77.56 112.192 78.6 109.632 78.6C105.432 78.6 102.432 76.52 102.432 72.4C102.432 69.48 104.072 67.28 107.352 66.2C110.192 65.24 112.952 65 116.552 64.96V64.44C116.552 61.68 115.232 60.2 112.392 60.2C109.952 60.2 108.632 61.56 108.312 63.6ZM107.592 72.12C107.592 73.76 108.872 74.8 110.952 74.8C114.112 74.8 116.552 72.24 116.552 69.04V68.12C109.272 68.24 107.592 69.96 107.592 72.12ZM127.274 71.32V60.52H124.514V56.56H127.274V51.64H132.394V56.56H136.914V60.52H132.394V70.88C132.394 73.12 133.034 74.32 135.874 74.32H136.834V78.08C136.274 78.36 135.114 78.6 133.714 78.6C129.354 78.6 127.274 76.12 127.274 71.32ZM139.915 54.16V49.2H145.035V54.16H139.915ZM139.915 78V56.56H145.035V78H139.915ZM158.999 78.6C152.639 78.6 148.719 74.32 148.719 67.32C148.719 60.04 152.759 55.96 158.999 55.96C165.319 55.96 169.239 60.28 169.239 67.32C169.239 74.52 165.199 78.6 158.999 78.6ZM158.999 74.36C162.239 74.36 163.959 71.88 163.959 67.32C163.959 62.76 162.199 60.2 158.999 60.2C155.719 60.2 153.999 62.72 153.999 67.32C153.999 71.84 155.759 74.36 158.999 74.36ZM172.962 78V56.56H178.082V59.44C179.482 57.12 181.722 55.96 184.442 55.96C188.722 55.96 191.642 58.52 191.642 63.72V78H186.522V64.76C186.522 61.84 185.282 60.2 182.682 60.2C179.842 60.2 178.082 62.68 178.082 65.56V78H172.962ZM209.015 63.6H203.855C204.535 58.84 208.015 55.96 213.415 55.96C219.375 55.96 222.415 59.48 222.415 64.44V72.76C222.415 75.4 222.655 76.88 223.055 78H217.735C217.455 77.28 217.335 76.24 217.295 75.08C215.535 77.56 212.895 78.6 210.335 78.6C206.135 78.6 203.135 76.52 203.135 72.4C203.135 69.48 204.775 67.28 208.055 66.2C210.895 65.24 213.655 65 217.255 64.96V64.44C217.255 61.68 215.935 60.2 213.095 60.2C210.655 60.2 209.335 61.56 209.015 63.6ZM208.295 72.12C208.295 73.76 209.575 74.8 211.655 74.8C214.815 74.8 217.255 72.24 217.255 69.04V68.12C209.975 68.24 208.295 69.96 208.295 72.12ZM227.978 71.32V60.52H225.218V56.56H227.978V51.64H233.098V56.56H237.618V60.52H233.098V70.88C233.098 73.12 233.738 74.32 236.578 74.32H237.538V78.08C236.978 78.36 235.818 78.6 234.418 78.6C230.058 78.6 227.978 76.12 227.978 71.32Z" fill="white"/>
<path d="M253.193 57.64C253.193 64.16 269.473 58.88 269.473 70C269.473 75.48 264.993 78.6 258.833 78.6C252.633 78.6 248.233 75.72 247.193 69.8H252.833C253.513 72.68 255.593 74.28 258.873 74.28C262.233 74.28 263.953 72.88 263.953 70.68C263.953 63.76 247.713 68.96 247.713 58.12C247.713 53.8 251.273 50.2 257.713 50.2C263.193 50.2 267.833 52.84 268.713 58.96H262.993C262.353 55.92 260.473 54.52 257.553 54.52C254.833 54.52 253.193 55.76 253.193 57.64ZM291.639 64.16H286.519C286.039 61.36 284.359 60.2 282.199 60.2C279.039 60.2 277.359 62.72 277.359 67.32C277.359 71.84 279.119 74.36 282.359 74.36C284.559 74.36 286.119 73.16 286.639 70.72H291.799C290.839 76.08 287.079 78.6 282.239 78.6C275.919 78.6 272.079 74.28 272.079 67.32C272.079 60.04 276.039 55.96 282.199 55.96C287.079 55.96 290.919 58.68 291.639 64.16ZM300.304 63.6H295.144C295.824 58.84 299.304 55.96 304.704 55.96C310.664 55.96 313.704 59.48 313.704 64.44V72.76C313.704 75.4 313.944 76.88 314.344 78H309.024C308.744 77.28 308.624 76.24 308.584 75.08C306.824 77.56 304.184 78.6 301.624 78.6C297.424 78.6 294.424 76.52 294.424 72.4C294.424 69.48 296.064 67.28 299.344 66.2C302.184 65.24 304.944 65 308.544 64.96V64.44C308.544 61.68 307.224 60.2 304.384 60.2C301.944 60.2 300.624 61.56 300.304 63.6ZM299.584 72.12C299.584 73.76 300.864 74.8 302.944 74.8C306.104 74.8 308.544 72.24 308.544 69.04V68.12C301.264 68.24 299.584 69.96 299.584 72.12ZM318.587 78V49.2H323.707V78H318.587ZM347.951 71C346.791 75.96 342.951 78.6 337.831 78.6C331.351 78.6 327.391 74.32 327.391 67.32C327.391 60.04 331.391 55.96 337.631 55.96C343.911 55.96 347.791 60.2 347.791 67.12V68.32H332.671C332.911 72.24 334.711 74.4 337.831 74.4C340.231 74.4 341.871 73.28 342.551 71H347.951ZM337.631 60.16C334.911 60.16 333.271 61.88 332.791 65.12H342.431C341.951 61.92 340.311 60.16 337.631 60.16ZM366.028 78V55.24H357.268V50.8H380.188V55.24H371.428V78H366.028ZM383.626 78V49.2H388.746V59.44C390.146 57.12 392.386 55.96 395.106 55.96C399.386 55.96 402.306 58.52 402.306 63.72V78H397.186V64.76C397.186 61.84 395.946 60.2 393.346 60.2C390.506 60.2 388.746 62.68 388.746 65.56V78H383.626ZM411.984 63.6H406.824C407.504 58.84 410.984 55.96 416.384 55.96C422.344 55.96 425.384 59.48 425.384 64.44V72.76C425.384 75.4 425.624 76.88 426.024 78H420.704C420.424 77.28 420.304 76.24 420.264 75.08C418.504 77.56 415.864 78.6 413.304 78.6C409.104 78.6 406.104 76.52 406.104 72.4C406.104 69.48 407.744 67.28 411.024 66.2C413.864 65.24 416.624 65 420.224 64.96V64.44C420.224 61.68 418.904 60.2 416.064 60.2C413.624 60.2 412.304 61.56 411.984 63.6ZM411.264 72.12C411.264 73.76 412.544 74.8 414.624 74.8C417.784 74.8 420.224 72.24 420.224 69.04V68.12C412.944 68.24 411.264 69.96 411.264 72.12ZM430.946 71.32V60.52H428.186V56.56H430.946V51.64H436.066V56.56H440.586V60.52H436.066V70.88C436.066 73.12 436.706 74.32 439.546 74.32H440.506V78.08C439.946 78.36 438.786 78.6 437.386 78.6C433.026 78.6 430.946 76.12 430.946 71.32ZM451.602 78V50.8H458.762L465.642 68.36L466.642 71.76L467.682 68.36L474.522 50.8H481.482V78H476.122L476.322 56.88L474.322 63.16L468.482 78H464.602L458.722 63.08L456.762 56.96L457.002 78H451.602ZM495.796 78.6C489.436 78.6 485.516 74.32 485.516 67.32C485.516 60.04 489.556 55.96 495.796 55.96C502.116 55.96 506.036 60.28 506.036 67.32C506.036 74.52 501.996 78.6 495.796 78.6ZM495.796 74.36C499.036 74.36 500.756 71.88 500.756 67.32C500.756 62.76 498.996 60.2 495.796 60.2C492.516 60.2 490.796 62.72 490.796 67.32C490.796 71.84 492.556 74.36 495.796 74.36ZM514.692 78L506.972 56.56H512.492L517.452 71.68L518.012 74L518.532 71.68L523.492 56.56H528.732L521.012 78H514.692ZM550.529 71C549.369 75.96 545.529 78.6 540.409 78.6C533.929 78.6 529.969 74.32 529.969 67.32C529.969 60.04 533.969 55.96 540.209 55.96C546.489 55.96 550.369 60.2 550.369 67.12V68.32H535.249C535.489 72.24 537.289 74.4 540.409 74.4C542.809 74.4 544.449 73.28 545.129 71H550.529ZM540.209 60.16C537.489 60.16 535.849 61.88 535.369 65.12H545.009C544.529 61.92 542.889 60.16 540.209 60.16ZM558.492 62.32C558.492 67.24 572.012 63.08 572.012 71.68C572.012 75.8 568.212 78.6 562.852 78.6C557.572 78.6 553.772 76.16 553.012 71H558.132C558.492 73.32 560.332 74.64 563.012 74.64C565.532 74.64 566.852 73.56 566.852 72C566.852 67.2 553.612 71.32 553.612 62.64C553.612 59.16 556.332 55.96 561.932 55.96C566.852 55.96 570.572 58.28 571.212 63.6H566.092C565.692 61 564.172 59.96 561.732 59.96C559.692 59.96 558.492 60.96 558.492 62.32ZM25.72 127L20.72 109.68L20.08 107.08L19.44 109.68L14.48 127H8.36L0.08 99.8H5.84L11 118.96L11.64 121.72L12.28 118.96L17.76 99.8H22.76L28.16 118.96L28.84 121.8L29.44 118.96L34.6 99.8H40.04L31.8 127H25.72ZM43.5084 103.16V98.2H48.6284V103.16H43.5084ZM43.5084 127V105.56H48.6284V127H43.5084ZM53.9931 120.32V109.52H51.2331V105.56H53.9931V100.64H59.1131V105.56H63.6331V109.52H59.1131V119.88C59.1131 122.12 59.7531 123.32 62.5931 123.32H63.5531V127.08C62.9931 127.36 61.8331 127.6 60.4331 127.6C56.0731 127.6 53.9931 125.12 53.9931 120.32ZM66.6334 127V98.2H71.7534V108.44C73.1534 106.12 75.3934 104.96 78.1134 104.96C82.3934 104.96 85.3134 107.52 85.3134 112.72V127H80.1934V113.76C80.1934 110.84 78.9534 109.2 76.3534 109.2C73.5134 109.2 71.7534 111.68 71.7534 114.56V127H66.6334ZM104.466 127V117.32L94.9459 99.8H100.986L106.146 109.8L107.306 112.72L108.466 109.8L113.626 99.8H119.346L109.826 117.32V127H104.466ZM128.648 127.6C122.288 127.6 118.368 123.32 118.368 116.32C118.368 109.04 122.408 104.96 128.648 104.96C134.968 104.96 138.888 109.28 138.888 116.32C138.888 123.52 134.848 127.6 128.648 127.6ZM128.648 123.36C131.888 123.36 133.608 120.88 133.608 116.32C133.608 111.76 131.848 109.2 128.648 109.2C125.368 109.2 123.648 111.72 123.648 116.32C123.648 120.84 125.408 123.36 128.648 123.36ZM155.93 118V105.56H161.05V127H155.93V124.12C154.53 126.48 152.33 127.6 149.69 127.6C145.45 127.6 142.61 125.04 142.61 119.88V105.56H147.73V118.84C147.73 121.76 148.93 123.36 151.45 123.36C154.21 123.36 155.93 120.88 155.93 118ZM165.774 127V105.56H170.894V108.68C172.294 106.12 174.454 104.96 176.774 104.96C177.654 104.96 178.454 105.2 178.854 105.56V110C178.174 109.8 177.414 109.72 176.494 109.72C172.614 109.72 170.894 112.04 170.894 115.6V127H165.774ZM189.571 127V99.8H208.691V104.08H194.971V110.88H207.171V115.12H194.971V122.72H208.691V127H189.571ZM212.688 127V105.56H217.808V108.44C219.208 106.12 221.448 104.96 224.168 104.96C228.448 104.96 231.368 107.52 231.368 112.72V127H226.248V113.76C226.248 110.84 225.008 109.2 222.408 109.2C219.568 109.2 217.808 111.68 217.808 114.56V127H212.688ZM236.767 120.32V109.52H234.007V105.56H236.767V100.64H241.887V105.56H246.407V109.52H241.887V119.88C241.887 122.12 242.527 123.32 245.367 123.32H246.327V127.08C245.767 127.36 244.607 127.6 243.207 127.6C238.847 127.6 236.767 125.12 236.767 120.32ZM268.967 120C267.807 124.96 263.967 127.6 258.847 127.6C252.367 127.6 248.407 123.32 248.407 116.32C248.407 109.04 252.407 104.96 258.647 104.96C264.927 104.96 268.807 109.2 268.807 116.12V117.32H253.687C253.927 121.24 255.727 123.4 258.847 123.4C261.247 123.4 262.887 122.28 263.567 120H268.967ZM258.647 109.16C255.927 109.16 254.287 110.88 253.807 114.12H263.447C262.967 110.92 261.327 109.16 258.647 109.16ZM272.649 127V105.56H277.769V108.68C279.169 106.12 281.329 104.96 283.649 104.96C284.529 104.96 285.329 105.2 285.729 105.56V110C285.049 109.8 284.289 109.72 283.369 109.72C279.489 109.72 277.769 112.04 277.769 115.6V127H272.649ZM293.55 135.8H288.43V105.56H293.55V108C294.91 106.04 296.83 104.96 299.19 104.96C304.79 104.96 308.23 109.24 308.23 116.24C308.23 123.52 304.71 127.6 299.19 127.6C296.83 127.6 294.87 126.6 293.55 124.68V135.8ZM298.27 109.2C295.19 109.2 293.55 111.68 293.55 116.24C293.55 120.8 295.27 123.36 298.27 123.36C301.31 123.36 302.95 120.84 302.95 116.24C302.95 111.72 301.27 109.2 298.27 109.2ZM311.946 127V105.56H317.066V108.68C318.466 106.12 320.626 104.96 322.946 104.96C323.826 104.96 324.626 105.2 325.026 105.56V110C324.346 109.8 323.586 109.72 322.666 109.72C318.786 109.72 317.066 112.04 317.066 115.6V127H311.946ZM327.727 103.16V98.2H332.847V103.16H327.727ZM327.727 127V105.56H332.847V127H327.727ZM341.812 111.32C341.812 116.24 355.332 112.08 355.332 120.68C355.332 124.8 351.532 127.6 346.172 127.6C340.892 127.6 337.092 125.16 336.332 120H341.452C341.812 122.32 343.652 123.64 346.332 123.64C348.852 123.64 350.172 122.56 350.172 121C350.172 116.2 336.932 120.32 336.932 111.64C336.932 108.16 339.652 104.96 345.252 104.96C350.172 104.96 353.892 107.28 354.532 112.6H349.412C349.012 110 347.492 108.96 345.052 108.96C343.012 108.96 341.812 109.96 341.812 111.32ZM378.381 120C377.221 124.96 373.381 127.6 368.261 127.6C361.781 127.6 357.821 123.32 357.821 116.32C357.821 109.04 361.821 104.96 368.061 104.96C374.341 104.96 378.221 109.2 378.221 116.12V117.32H363.101C363.341 121.24 365.141 123.4 368.261 123.4C370.661 123.4 372.301 122.28 372.981 120H378.381ZM368.061 109.16C365.341 109.16 363.701 110.88 363.221 114.12H372.861C372.381 110.92 370.741 109.16 368.061 109.16Z" fill="url(#paint0_linear_554_9216)"/>
<defs>
<linearGradient id="paint0_linear_554_9216" x1="194.308" y1="33.0532" x2="354.89" y2="152.438" gradientUnits="userSpaceOnUse">
<stop stop-color="#FCD30B"/>
<stop offset="1" stop-color="#549CE9"/>
</linearGradient>
</defs>
</svg>
