<svg width="78" height="78" viewBox="0 0 78 78" fill="none" xmlns="http://www.w3.org/2000/svg">
<path d="M40.1807 7.91238C56.0183 8.73665 68.7977 21.2098 69.8937 37.0441C69.9765 37.157 71.5208 37.6463 71.63 37.6463H77.2796L77.7993 39.2835C77.2381 41.0187 71.5358 39.9798 69.9765 40.3224C68.9973 53.6273 59.6868 65.4757 46.6626 68.7766C44.5422 69.3148 41.9923 69.3148 40.1807 70.2031V76.9779C40.1807 78.0731 37.5442 78.0731 37.5442 76.9779V69.6385C23.7593 69.2809 11.9479 59.1676 8.79921 45.8589C8.35478 43.977 8.40751 41.7827 7.6015 40.2809H0.822013C-0.274004 40.2809 -0.274004 37.6463 0.822013 37.6463H7.6015L8.10996 37.0253C8.56569 24.2322 18.1135 12.5983 30.3919 9.23347C32.7459 8.58987 35.1262 8.39038 37.4915 7.85969C37.9397 7.13704 37.194 2.47748 37.6196 1.02842C38.0452 -0.42064 40.1807 -0.11201 40.1807 0.576763V7.91615V7.91238ZM37.9736 15.7636L37.484 11.1718L36.6365 10.5696C22.4109 11.9509 11.2662 23.3477 10.4263 37.6463L15.4808 37.9813L15.6465 39.8519L10.4225 40.4767C11.5976 54.7866 22.6294 66.0968 36.9981 67.2824C38.3728 67.0415 36.5348 62.8712 38.403 62.0018C41.0583 60.771 39.8342 67.4179 40.3765 67.384C54.7566 66.1683 66.1612 54.8619 67.3062 40.4729L62.2479 39.946C60.2706 36.2424 67.276 38.2222 67.3062 37.4506C66.0595 22.8885 54.9374 11.7402 40.3765 10.5395L39.8493 15.5943L37.9774 15.7599L37.9736 15.7636Z" fill="url(#paint0_linear_113_163)"/>
<path d="M32.9961 20.1362C33.3269 21.1246 33.0679 22.2709 33.1484 23.3022H37.6904V20.1362H41.0215C41.3522 21.1246 41.0933 22.2709 41.1738 23.3022H45.7158V20.1362H49.1963V23.3022C53.0733 22.8498 55.984 25.7773 55.5527 29.6333H58.5781V33.1001H55.5527V37.5464L55.7793 37.7729H58.5781V41.0903H55.5527V45.7632H58.5781V49.0806H55.5527C56.0589 52.9739 53.0561 55.876 49.1963 55.564V58.5786H45.7158V55.564H41.1738V58.5786H37.6934V55.564H33.1514V58.5786H29.6719V55.564C25.7342 55.8619 22.8053 53.0399 23.3145 49.0806H20.1367V45.7632H23.3145V41.0903H20.1367V37.7729H23.0879L23.3145 37.5464V33.1001H20.1367V29.6333H23.3086C22.7623 25.7801 25.8463 22.8353 29.666 23.3022V20.1362H32.9961ZM27.9629 26.7974C27.3387 26.9378 26.6885 27.8663 26.6396 28.4966C26.7662 35.9652 26.4015 43.5026 26.8271 50.9312L27.7412 51.98L50.8643 52.0229C51.8334 51.6848 52.1441 50.8743 52.2275 49.9146L52.2305 49.9116C51.8451 43.1247 52.7223 35.8192 52.2305 29.0952C52.1614 28.1699 51.9372 27.2297 50.9883 26.8657L27.9629 26.7974ZM34.3301 29.6792C36.7692 29.4156 41.9729 29.4017 44.4092 29.6538C47.2104 29.9461 48.9622 31.9426 49.1924 34.687C49.3678 36.7812 49.46 43.8059 48.9395 45.5854C48.4217 47.3502 46.7417 48.8799 44.8809 49.0806C42.4705 49.3413 36.3929 49.3413 33.9824 49.0806C31.7648 48.8399 29.8866 46.8001 29.6709 44.6313C29.4408 42.3134 29.3859 36.0534 29.708 33.8188C30.0447 31.4928 32.0609 29.9228 34.3301 29.6792ZM34.166 33.1313C33.5851 33.3377 33.2203 33.7597 33.1484 34.3784C32.7833 37.4954 33.4331 41.2945 33.1455 44.4888C33.301 45.431 34.0287 45.6946 34.8857 45.769C37.1553 45.9696 41.7169 45.981 43.9775 45.769C44.9985 45.6745 45.6228 45.2448 45.7207 44.188C46.0055 41.1282 45.4934 37.6383 45.7178 34.5298C45.6171 33.6875 45.1278 33.1974 44.2793 33.0972L34.166 33.1313Z" fill="url(#paint1_linear_113_163)"/>
<defs>
<linearGradient id="paint0_linear_113_163" x1="38.8997" y1="4.4713" x2="54.6876" y2="52.006" gradientUnits="userSpaceOnUse">
<stop stop-color="#FCD30B"/>
<stop offset="1" stop-color="#4997EA"/>
</linearGradient>
<linearGradient id="paint1_linear_113_163" x1="39.3575" y1="22.3456" x2="47.1588" y2="45.8334" gradientUnits="userSpaceOnUse">
<stop stop-color="#FCD30B"/>
<stop offset="1" stop-color="#4997EA"/>
</linearGradient>
</defs>
</svg>
