<svg width="65" height="61" viewBox="0 0 65 61" fill="none" xmlns="http://www.w3.org/2000/svg">
<path d="M0.0718752 26.8753C1.21752 15.6179 10.4027 4.79997 21.1825 1.45805C46.2459 -6.31092 68.4619 18.374 58.734 42.28C59.2499 42.6995 62.2915 40.1431 63.3769 40.0765C64.7771 39.9966 65.4471 41.3148 64.6565 42.4864C64.3282 42.9724 55.7527 47.7523 55.1966 47.7856C54.7477 47.8122 54.4328 47.7323 54.0845 47.4527C53.314 46.8269 51.7128 36.9676 52.2755 36.0356C55.8197 33.872 54.607 39.3509 56.1479 40.8088C61.0186 27.7873 56.0676 13.0416 43.7201 6.3977C22.308 -5.11262 -1.91122 14.3131 3.94427 37.5201C7.09311 49.9891 18.6701 58.0776 31.4329 58.244C32.6724 59.0362 32.0091 60.0015 31.4329 60.9935H27.0045C24.9946 60.4209 22.911 60.1813 20.9078 59.5355C11.3005 56.4399 3.5021 47.9187 0.996427 38.2458C0.654745 36.921 0.674844 35.4032 0.0785749 34.2049C0.252766 31.8415 -0.155913 29.1853 0.0785749 26.8686L0.0718752 26.8753Z" fill="url(#paint0_linear_113_161)"/>
<path d="M48.4916 25.6902C49.9722 26.9484 53.5565 25.0644 53.9518 29.2451C54.461 34.5842 53.1344 34.298 48.4849 35.3964L46.7296 40.0631C47.4598 41.3147 49.5233 43.152 48.8735 44.7431C48.6658 45.2491 45.2355 48.7241 44.8135 48.8373C43.0783 49.31 41.3095 46.8002 40.0768 46.687C39.7351 46.6537 35.722 48.1383 35.4876 48.338C34.362 49.3033 35.7622 53.1578 32.7005 53.6372C27.5217 54.4493 26.2688 53.2643 25.8334 48.2248C24.2187 48.1649 22.2155 46.4274 20.7282 46.8401C19.127 47.2795 17.968 49.8492 15.7303 48.5444C15.536 48.4312 12.7087 45.6152 12.5948 45.4288C11.0807 42.8325 14.2296 41.4345 14.3837 39.8501C14.4038 39.6437 13.0705 36.2152 12.9097 35.9423C12.0522 34.4977 9.31202 35.0569 8.06589 34.2447C6.81975 33.4325 6.82645 29.1453 7.49641 27.8471C8.60186 25.7168 11.4827 26.6688 12.6082 25.597C12.9164 25.3041 14.4105 21.3763 14.3033 21.0035C13.8946 19.5256 11.8579 18.6602 12.2331 16.4433C12.3604 15.6911 15.7504 12.3025 16.5007 12.196C18.2962 11.9364 19.5759 14.06 21.2776 14.3862L25.5185 12.7552C26.7579 7.77564 26.711 6.7704 32.3521 7.43612C35.367 7.78895 34.4022 10.3653 35.3 12.5755L39.4403 14.353C41.2693 14.6326 42.8505 11.1442 45.2757 12.5622C45.8586 12.9017 48.994 16.2569 49.0476 16.8561L46.6224 21.2565L48.4782 25.7035L48.4916 25.6902ZM31.7826 10.3853H29.2368C28.9219 15.7709 28.0308 14.8523 24.0579 16.4234C23.2406 16.7429 22.2758 17.7548 21.5121 17.8879C19.7367 18.1875 17.7737 14.9787 16.4873 15.8442C13.9482 17.5484 17.9881 19.6055 17.7938 21.5361C17.7402 22.0553 16.4806 23.8595 16.1323 24.6783C15.6298 25.8566 15.5829 27.8604 14.4507 28.5062C13.6467 28.9655 10.5515 29.0587 10.3974 29.6845C9.82789 32.9199 12.3336 31.7349 14.1961 32.4672C15.6231 33.0331 15.5829 35.1101 16.139 36.4083C17.6866 40.0365 18.792 39.8634 15.6298 43.658C16.5878 47.5525 18.6312 44.0841 20.3597 43.5448C22.45 42.8924 25.3577 45.7217 27.7361 45.7883C29.3038 46.667 28.9956 50.668 29.4378 50.7413L31.7759 50.688C32.1846 49.5629 32.2181 46.6271 33.0757 45.9281C33.5782 45.5154 36.0369 45.056 36.9816 44.6765C37.9932 44.2705 39.2193 42.8724 40.3113 43.172C42.4552 43.7645 43.6812 47.3794 45.7715 43.9443L43.3127 39.6237C44.5656 38.2257 45.4901 33.0131 46.8435 32.4739C47.5 32.2076 50.8833 31.9147 51.0173 31.4287C51.5935 28.1933 48.9271 29.2984 46.9306 28.5395C45.3829 27.9536 45.7447 26.4624 45.1685 25.1576C44.5924 23.8528 43.0582 21.8623 43.3998 20.6374C43.8755 18.9398 47.4062 17.0225 43.8755 15.5513C42.5825 16.2436 41.2961 17.828 39.7552 17.7415C38.757 17.6882 37.953 16.7762 36.9816 16.4234C32.9149 14.9521 32.1377 15.5979 31.8027 10.3853H31.7826Z" fill="url(#paint1_linear_113_161)"/>
<path d="M41.8541 30.5432C41.8541 36.7543 36.7891 41.7938 30.5384 41.7938C24.2876 41.7938 19.2227 36.7543 19.2227 30.5432C19.2227 24.332 24.2876 19.2925 30.5384 19.2925C36.7891 19.2925 41.8541 24.332 41.8541 30.5432ZM38.8325 30.5365C38.8325 25.983 35.1209 22.2949 30.5451 22.2949C25.9692 22.2949 22.2576 25.983 22.2576 30.5365C22.2576 35.09 25.9692 38.7781 30.5451 38.7781C35.1209 38.7781 38.8325 35.09 38.8325 30.5365Z" fill="url(#paint2_linear_113_161)"/>
<defs>
<linearGradient id="paint0_linear_113_161" x1="32.4988" y1="0.000244141" x2="32.4988" y2="60.9935" gradientUnits="userSpaceOnUse">
<stop stop-color="#FCD30B"/>
<stop offset="1" stop-color="#4997EA"/>
</linearGradient>
<linearGradient id="paint1_linear_113_161" x1="30.5505" y1="7.25244" x2="30.5505" y2="53.8711" gradientUnits="userSpaceOnUse">
<stop stop-color="#FCD30B"/>
<stop offset="1" stop-color="#4997EA"/>
</linearGradient>
<linearGradient id="paint2_linear_113_161" x1="30.5384" y1="19.2925" x2="30.5384" y2="41.7938" gradientUnits="userSpaceOnUse">
<stop stop-color="#FCD30B"/>
<stop offset="1" stop-color="#4997EA"/>
</linearGradient>
</defs>
</svg>
