<svg width="53" height="53" viewBox="0 0 53 53" fill="none" xmlns="http://www.w3.org/2000/svg">
<path d="M46.9999 19.1521V15.6352H43.9301C44.3678 11.723 41.4147 8.75249 37.4812 9.21172V6H33.9503V9.21172H29.3427C29.261 8.16537 29.5236 7.00275 29.188 6H25.8089V9.21172H21.2013C21.1196 8.16537 21.3822 7.00275 21.0467 6H17.6675V9.21172C13.7924 8.73796 10.6642 11.7259 11.2186 15.6352H8V19.1521H11.2245V23.663L10.9939 23.8926H8V27.2584H11.2245V31.999H8V35.3647H11.2245C10.708 39.3816 13.6785 42.2445 17.6734 41.9422V44.9999H21.2042V41.9422H25.8118V44.9999H29.3427V41.9422H33.9503V44.9999H37.4812V41.9422C41.3972 42.259 44.4437 39.3147 43.9301 35.3647H46.9999V31.999H43.9301V27.2584H46.9999V23.8926H44.1606L43.9301 23.663V19.1521H46.9999ZM40.5568 36.2105C40.4722 37.1842 40.157 38.0068 39.1736 38.3497L15.7154 38.3061L14.7874 37.2423C14.3555 29.7057 14.7261 22.0586 14.5977 14.4813C14.6473 13.8418 15.3068 12.9001 15.94 12.7577L39.2991 12.8274C40.2621 13.1966 40.4897 14.1499 40.5597 15.0887C41.0587 21.9104 40.1687 29.322 40.5597 36.2076L40.5568 36.2105Z" fill="url(#paint0_linear_113_162)"/>
<path d="M32.6199 15.6558C30.1483 15.4 24.8695 15.4146 22.395 15.682C20.0927 15.929 18.0471 17.5218 17.7057 19.8819C17.3789 22.149 17.4343 28.4998 17.6677 30.8512C17.8866 33.0514 19.7921 35.1209 22.0419 35.365C24.4873 35.6295 30.6531 35.6295 33.0985 35.365C34.9864 35.1616 36.6906 33.6095 37.2158 31.8191C37.744 30.0141 37.6506 22.8873 37.4726 20.7626C37.2392 17.9781 35.4621 15.9523 32.6199 15.6558ZM33.9505 30.4007C33.8513 31.4732 33.2181 31.9092 32.1822 32.0051C29.8886 32.2202 25.2605 32.2085 22.9582 32.0051C22.0886 31.9295 21.3503 31.6621 21.1928 30.7059C21.4846 27.4651 20.8251 23.611 21.1957 20.4487C21.2686 19.8209 21.6392 19.3936 22.2287 19.1844L32.4886 19.1495C33.3494 19.2512 33.8455 19.7482 33.9476 20.6027C33.72 23.7563 34.2394 27.2965 33.9505 30.4007Z" fill="url(#paint1_linear_113_162)"/>
<path d="M0.788148 53.0049C0.213963 52.6766 0.0809937 52.7413 0.0235752 52.041C-0.0746406 50.8166 0.310667 47.3962 0.499544 46.0589C0.615892 45.235 1.42277 44.479 2.06798 45.2275C2.68296 45.9414 1.73404 48.7201 2.07251 49.7111C3.09093 48.955 8.36891 43.0633 9.04735 43.0075C9.7258 42.9518 10.309 43.7847 9.8361 44.3781L3.35989 50.8346C4.35716 51.181 6.99993 50.2201 7.73428 50.8391C8.46863 51.4581 7.72219 52.2759 6.89567 52.3934C5.06281 52.654 3.03352 52.6238 1.17799 52.8648L0.939249 53.0049L0.788148 53.0049Z" fill="url(#paint2_linear_113_162)"/>
<path d="M49.6562 51.0148L43.2252 44.4713C42.4737 43.2978 43.8024 42.4747 44.731 43.4141L50.9454 49.7985C51.3211 48.7735 50.3182 45.9874 50.95 45.2439C51.5817 44.5003 52.4013 45.2515 52.5225 46.0869C52.7452 47.6428 52.9346 49.9653 52.9967 51.5426C53.0558 53.0466 52.7725 53.045 51.3999 52.99C49.9228 52.9318 47.4034 52.7498 45.9809 52.5004C45.1189 52.3489 44.5492 51.3942 45.3552 50.8802C46.1066 50.3998 48.6548 51.2045 49.6577 51.0148L49.6562 51.0148Z" fill="url(#paint3_linear_113_162)"/>
<path d="M52.3055 0.00610352C52.8223 0.301596 52.9419 0.243311 52.9936 0.873604C53.082 1.9756 52.7352 5.05387 52.5653 6.25753C52.4605 6.99897 51.7343 7.67942 51.1537 7.00575C50.6002 6.36326 51.4542 3.86242 51.1496 2.97052C50.233 3.65096 45.4828 8.95356 44.8722 9.00371C44.2616 9.05387 43.7367 8.30429 44.1624 7.77024L49.9909 1.95934C49.0934 1.64758 46.7149 2.51237 46.054 1.95527C45.3931 1.39817 46.0649 0.662151 46.8087 0.556424C48.4583 0.321928 50.2847 0.349037 51.9547 0.132162L52.1695 0.00610352L52.3055 0.00610352Z" fill="url(#paint4_linear_113_162)"/>
<path d="M3.35163 1.99373L9.78265 8.53727C10.5341 9.71073 9.20545 10.5338 8.27678 9.59445L2.06239 3.21003C1.68668 4.23508 2.68959 7.0211 2.05785 7.76465C1.42611 8.5082 0.606512 7.757 0.485315 6.92165C0.262615 5.36571 0.0732442 3.04326 0.0111306 1.4659C-0.047953 -0.038031 0.235345 -0.0365011 1.6079 0.0185766C3.08499 0.0767143 5.60438 0.258777 7.02693 0.508157C7.88895 0.65962 8.45857 1.6143 7.65261 2.12836C6.90119 2.60876 4.35302 1.80401 3.35011 1.99373H3.35163Z" fill="url(#paint5_linear_113_162)"/>
<defs>
<linearGradient id="paint0_linear_113_162" x1="27.4999" y1="6" x2="27.4999" y2="44.9999" gradientUnits="userSpaceOnUse">
<stop stop-color="#FCD30B"/>
<stop offset="1" stop-color="#4997EA"/>
</linearGradient>
<linearGradient id="paint1_linear_113_162" x1="27.5446" y1="15.4724" x2="27.5446" y2="35.5634" gradientUnits="userSpaceOnUse">
<stop stop-color="#FCD30B"/>
<stop offset="1" stop-color="#4997EA"/>
</linearGradient>
<linearGradient id="paint2_linear_113_162" x1="5.00781" y1="53.0049" x2="5.00781" y2="43.0049" gradientUnits="userSpaceOnUse">
<stop stop-color="#FCD30B"/>
<stop offset="1" stop-color="#4997EA"/>
</linearGradient>
<linearGradient id="paint3_linear_113_162" x1="48.0039" y1="53.0063" x2="48.0039" y2="43.0063" gradientUnits="userSpaceOnUse">
<stop stop-color="#FCD30B"/>
<stop offset="1" stop-color="#4997EA"/>
</linearGradient>
<linearGradient id="paint4_linear_113_162" x1="48.5078" y1="0.00610352" x2="48.5078" y2="9.0061" gradientUnits="userSpaceOnUse">
<stop stop-color="#FCD30B"/>
<stop offset="1" stop-color="#4997EA"/>
</linearGradient>
<linearGradient id="paint5_linear_113_162" x1="5.00391" y1="0.00219727" x2="5.00391" y2="10.0022" gradientUnits="userSpaceOnUse">
<stop stop-color="#FCD30B"/>
<stop offset="1" stop-color="#4997EA"/>
</linearGradient>
</defs>
</svg>
