<svg width="63" height="67" viewBox="0 0 63 67" fill="none" xmlns="http://www.w3.org/2000/svg">
<path d="M37.9156 7.5674L51.7042 14.4703C60.4417 7.94315 68.2442 20.9223 58.4427 25.6137L58.4965 41.6418C66.7825 44.4437 62.4729 56.7251 54.4555 54.0734C53.542 53.7728 52.2093 52.5382 51.4463 52.6563L37.9586 59.6988C38.6571 69.4144 24.3311 69.4359 25.0512 59.6988L11.7677 52.7207C10.736 52.4631 9.65049 53.7191 8.56503 54.0734C0.504638 56.7358 -3.71901 44.4652 4.57782 41.5129L4.52409 25.4849C-5.32034 20.9223 2.72931 7.93241 11.3163 14.481L25.1049 7.57814C24.3204 4.55074 26.6418 1.09392 29.6295 0.256557C34.2938 -1.05317 38.8076 2.8438 37.9156 7.57814V7.5674ZM33.9929 6.52607C33.9929 5.15193 32.8752 4.04617 31.4995 4.04617C30.1239 4.04617 29.0062 5.16266 29.0062 6.52607C29.0062 7.88947 30.1239 9.00596 31.4995 9.00596C32.8752 9.00596 33.9929 7.88947 33.9929 6.52607ZM49.8772 20.3211C49.9524 19.4945 50.1889 18.378 49.3828 17.8412L36.1745 11.3141C33.4125 13.5041 29.78 13.7618 27.0502 11.3463H26.6418C24.9652 12.5165 13.7022 17.283 13.2293 18.2277C13.0574 18.5713 12.9714 20.0527 13.1433 20.3211L26.8352 27.2026C29.8445 24.669 33.2513 24.9374 36.325 27.1811L49.8772 20.3319V20.3211ZM9.04865 19.2154C9.04865 17.852 7.94169 16.7462 6.5768 16.7462C5.21191 16.7462 4.10495 17.852 4.10495 19.2154C4.10495 20.5788 5.21191 21.6845 6.5768 21.6845C7.94169 21.6845 9.04865 20.5788 9.04865 19.2154ZM58.9263 19.2154C58.9263 17.852 57.8194 16.7462 56.4545 16.7462C55.0896 16.7462 53.9826 17.852 53.9826 19.2154C53.9826 20.5788 55.0896 21.6845 56.4545 21.6845C57.8194 21.6845 58.9263 20.5788 58.9263 19.2154ZM25.1049 30.7667L11.3163 23.8638C10.4888 24.6153 8.65101 24.9911 8.55428 26.0753V41.5022C10.7789 42.4898 12.4878 43.9821 12.9821 46.462C13.1433 47.2779 12.9176 48.5017 13.369 49.0063L26.8567 55.7911L29.4038 54.2989V38.1205C26.5236 36.8967 24.3741 33.9552 25.1157 30.7667H25.1049ZM54.4125 41.6418L54.4663 26.0861L54.1761 25.3024L51.6935 23.8746L37.9048 30.7775C38.6464 33.9766 36.497 36.9181 33.6275 38.1313L33.6812 54.4384L36.3787 55.7696L49.8772 48.7057C49.6408 45.485 51.3281 42.6938 54.4125 41.6418ZM33.9821 31.9047C33.9821 30.5413 32.8752 29.4463 31.521 29.4463C30.1669 29.4463 29.0599 30.552 29.0599 31.9047C29.0599 33.2574 30.1669 34.3631 31.521 34.3631C32.8752 34.3631 33.9821 33.2574 33.9821 31.9047ZM9.0379 47.8146C9.0379 46.4512 7.93094 45.3455 6.56605 45.3455C5.20116 45.3455 4.0942 46.4512 4.0942 47.8146C4.0942 49.178 5.20116 50.2838 6.56605 50.2838C7.93094 50.2838 9.0379 49.178 9.0379 47.8146ZM58.9263 47.8146C58.9263 46.4512 57.8194 45.3455 56.4545 45.3455C55.0896 45.3455 53.9826 46.4512 53.9826 47.8146C53.9826 49.178 55.0896 50.2838 56.4545 50.2838C57.8194 50.2838 58.9263 49.178 58.9263 47.8146ZM33.9821 60.5147C33.9821 59.1513 32.8752 58.0563 31.521 58.0563C30.1669 58.0563 29.0599 59.162 29.0599 60.5147C29.0599 61.8674 30.1669 62.9731 31.521 62.9731C32.8752 62.9731 33.9821 61.8674 33.9821 60.5147Z" fill="url(#paint0_linear_55_45201)"/>
<defs>
<linearGradient id="paint0_linear_55_45201" x1="31.4971" y1="3.85027" x2="45.7695" y2="44.2568" gradientUnits="userSpaceOnUse">
<stop stop-color="#FCD30B"/>
<stop offset="1" stop-color="#4997EA"/>
</linearGradient>
</defs>
</svg>
