<svg width="97" height="97" viewBox="0 0 97 97" fill="none" xmlns="http://www.w3.org/2000/svg">
<path d="M47.09 76.4179C48.0861 75.6518 48.9171 75.6518 49.9132 76.4179C51.2279 77.432 55.3903 81.5944 56.4044 82.9092C56.9998 83.6873 57.2241 84.4714 56.6349 85.3379C54.7542 88.0911 51.9178 83.0329 50.379 82.1308V95.5078C50.379 96.2152 49.1589 97.0235 48.4278 97C47.6614 96.9764 46.6241 96.0738 46.6241 95.3486V82.1308C45.4274 82.8442 43.5112 85.7271 42.3439 86.0693C40.5752 86.5881 39.343 84.5422 40.5987 82.9092C41.6129 81.5943 45.7753 77.432 47.09 76.4179ZM18.2452 67.2803C21.3108 67.5161 24.931 66.9257 27.9318 67.2676C28.8633 67.3737 29.6185 67.9226 29.7364 68.9072C30.1078 71.9728 29.506 75.8636 29.6652 79.0117C29.2643 80.2497 27.7674 80.8453 26.7062 79.9199C26.5648 79.7962 26.1403 79.1897 26.1398 79.083V73.6885L25.6681 73.9238L16.4943 83.0508C14.6078 84.1704 12.7808 81.8888 14.1661 80.2558L23.3214 71.1064C21.6766 70.5229 19.7604 71.1 18.0743 70.876C16.2 70.6222 16.1823 67.599 18.2452 67.2803ZM69.0724 67.2744C72.1263 66.9207 75.894 67.4744 79.0187 67.3388C80.8106 67.7695 81.0167 70.8701 78.4581 70.8701H73.9249L73.7657 71.1826L82.9864 80.4209C84.1597 82.1778 82.172 84.1595 80.421 82.9863L71.1827 73.7656L70.8702 73.9248V78.458C70.7641 80.8102 68.1822 81.0345 67.339 79.0185C67.4392 75.8939 66.9798 72.2972 67.2687 69.2256C67.3689 68.129 67.9464 67.4041 69.0724 67.2744ZM48.9611 27C54.4623 31.6909 61.3869 34.771 68.6642 35.0996H68.671L68.8439 35.2158C70.2223 49.4048 62.4059 63.7806 49.0695 69C39.3622 65.3399 32.1878 56.3381 29.9308 46.2539C29.264 43.2576 28.7577 38.5986 29.1232 35.583C29.136 35.422 29.1165 35.2418 29.2638 35.1386C36.4963 34.7069 43.5623 31.8327 48.9611 27ZM49.0118 35.9629C42.3886 35.963 37.0157 41.3633 37.0157 48.0195C37.0159 54.6756 42.3887 60.075 49.0118 60.0752C55.6351 60.0752 61.0088 54.6757 61.0089 48.0195C61.0089 41.3632 55.6352 35.9629 49.0118 35.9629ZM11.2794 42.9492C10.0178 41.1098 12.111 39.0697 14.0978 40.5967C15.4126 41.6108 19.575 45.7673 20.589 47.0879C21.2491 47.9486 21.4143 48.851 20.7423 49.7529L20.7482 49.747C19.8285 50.9851 15.3481 55.4349 14.0978 56.3965C13.2666 57.039 12.3352 57.2633 11.5099 56.4795C9.28733 54.3807 13.9384 51.9874 14.8761 50.372H1.49914C0.797563 50.372 -0.0342827 49.1451 0.00109077 48.4199C0.0307927 47.6947 0.945079 46.622 1.65246 46.622H14.882C14.0153 45.3309 12.1107 44.1637 11.2794 42.9492ZM82.9132 40.5967C84.4224 39.4353 86.1553 40.1957 86.1378 42.0879C85.3655 43.9921 83.426 45.1069 82.1349 46.622H95.3527C96.0836 46.622 96.9802 47.6594 97.004 48.4258C97.0276 49.1568 96.2252 50.3779 95.5118 50.3779H82.1349C82.878 51.5924 85.9313 53.6319 86.1378 54.9111C86.4326 56.7152 84.3871 57.5343 82.9132 56.4023C81.5983 55.388 77.4361 51.2268 76.422 49.9121C75.6556 48.9158 75.6557 48.0841 76.422 47.0879C77.436 45.7732 81.5985 41.6107 82.9132 40.5967ZM54.63 43.0205C55.6176 42.8456 56.2608 43.8339 55.8976 44.7099L47.4034 52.9336C47.1995 53.0149 46.9951 53.0145 46.7784 52.9707C45.9755 52.8017 42.923 49.1657 42.0499 48.4648C41.9543 48.0518 41.9864 47.6264 42.2413 47.2822C43.5412 45.4927 45.8921 49.8972 47.1476 50.1172C48.454 49.2848 53.6609 43.1826 54.6232 43.0136L54.63 43.0205ZM80.4269 14.0136C82.219 12.9053 84.171 14.8095 82.9982 16.584C80.4631 19.6909 76.3057 22.562 73.9298 25.6631C73.806 25.8221 73.6238 25.8638 73.6945 26.1347H79.089C79.1953 26.1349 79.8021 26.5597 79.9259 26.7012C80.8514 27.7565 80.2557 29.2533 79.0177 29.6601C75.8696 29.501 71.9787 30.1028 68.9132 29.7314C67.9345 29.6135 67.3806 28.8641 67.2745 27.9267L67.2804 27.9326C66.9386 24.9024 67.5041 21.2122 67.3155 18.1113C67.7105 16.8968 68.8365 16.2597 70.0275 16.8965C70.2338 17.0026 70.882 17.6398 70.882 17.7637V23.081L71.1945 23.2402L80.4269 14.0136ZM14.0314 16.5664C12.9114 14.7624 14.839 12.8998 16.6017 13.9961L25.6818 23.0635L26.1525 23.2988V17.9043C26.1535 17.8029 26.5775 17.191 26.7189 17.0674C27.7624 16.1772 29.2956 16.7257 29.6788 17.9756C29.5197 21.1296 30.1205 25.0145 29.7491 28.0801C29.6371 28.9997 29.0242 29.6135 28.1046 29.7256C25.033 30.097 21.1474 29.4951 17.9991 29.6543C16.7614 29.3063 16.2366 27.7034 17.0909 26.6953C17.2088 26.5538 17.8227 26.1289 17.9288 26.1289H23.3234L23.087 25.6572L23.0987 25.6455L14.0314 16.5664ZM48.4327 -2.18113e-05C49.2698 -0.0235695 50.3836 0.848672 50.3839 1.65037V14.874C51.6749 14.0074 52.8424 12.1038 54.0568 11.2724C55.8962 10.0108 57.9362 12.104 56.4093 14.0908C55.2653 15.5767 51.4927 19.2727 49.9952 20.5049C48.9753 21.342 48.1796 21.4181 47.0948 20.581C45.7803 19.5671 41.6182 15.4119 40.6036 14.0908C40.0141 13.3244 39.7777 12.5101 40.3732 11.6611C42.2715 8.96107 45.0903 13.9484 46.629 14.8681V1.65037C46.6293 0.919375 47.6664 0.0235571 48.4327 -2.18113e-05Z" fill="url(#paint0_linear_55_45206)"/>
<defs>
<linearGradient id="paint0_linear_55_45206" x1="48.5029" y1="5.57432" x2="68.1863" y2="64.8411" gradientUnits="userSpaceOnUse">
<stop stop-color="#FCD30B"/>
<stop offset="1" stop-color="#4997EA"/>
</linearGradient>
</defs>
</svg>
