<svg width="86" height="54" viewBox="0 0 86 54" fill="none" xmlns="http://www.w3.org/2000/svg">
<path d="M70.0585 4.87406C68.4704 2.05029 71.5684 -0.469911 73.9687 1.5059C75.2813 2.58786 84.147 13.2932 84.9462 14.7735C85.4596 15.728 85.4305 17.0522 84.6786 17.877L70.6259 29.3223C68.7385 29.6897 66.6829 27.6764 67.5097 25.8506C68.2926 24.1238 73.7823 20.3903 75.5282 18.7989C75.8518 18.5002 76.2775 18.094 75.6083 17.9307C75.2406 17.8384 72.4405 17.9278 71.7978 17.9532C55.0574 18.6283 39.1551 28.6643 31.1747 43.5391C30.2662 45.2322 27.9421 51.8346 27.2695 52.5157C26.685 53.1037 24.9659 53.4091 24.2323 53.0762C21.3321 51.759 24.0624 46.4816 24.9941 44.4405C32.9447 27.0137 50.009 14.6671 68.9941 12.9561C71.5368 12.7259 74.1951 13.0929 76.6738 12.5996C74.8176 10.3033 71.4503 7.35156 70.0556 4.87211L70.0585 4.87406Z" fill="url(#paint0_linear_113_160)"/>
<path d="M15.2342 5.07178C16.8222 2.24801 13.7243 -0.271356 11.324 1.7046C10.0105 2.78781 1.14617 13.4905 0.346508 14.9712C-0.166946 15.9258 -0.137791 17.2509 0.614086 18.0757L14.6668 29.52C16.5543 29.8875 18.6102 27.8742 17.783 26.0483C17.0001 24.3215 11.5104 20.588 9.76448 18.9966C9.44099 18.6979 9.01539 18.2917 9.6844 18.1284C10.0521 18.0361 12.8522 18.1255 13.4949 18.1509C30.2353 18.826 46.1376 28.862 54.118 43.7368C55.0265 45.4295 57.3506 52.0323 58.0233 52.7134C58.6075 53.3016 60.3267 53.6069 61.0604 53.2739C63.9606 51.9567 61.2313 46.6793 60.2996 44.6382C52.349 27.2113 35.2838 14.8648 16.2987 13.1538C13.7559 12.9236 11.0976 13.2916 8.61897 12.7983C10.4751 10.502 13.8424 7.54928 15.2371 5.06983L15.2342 5.07178Z" fill="url(#paint1_linear_113_160)"/>
<defs>
<linearGradient id="paint0_linear_113_160" x1="59.5856" y1="20.7807" x2="60.335" y2="24.8196" gradientUnits="userSpaceOnUse">
<stop stop-color="#FCD30B"/>
<stop offset="1" stop-color="#4997EA"/>
</linearGradient>
<linearGradient id="paint1_linear_113_160" x1="25.7072" y1="20.979" x2="24.9579" y2="25.0178" gradientUnits="userSpaceOnUse">
<stop stop-color="#FCD30B"/>
<stop offset="1" stop-color="#4997EA"/>
</linearGradient>
</defs>
</svg>
