<svg width="83" height="84" viewBox="0 0 83 84" fill="none" xmlns="http://www.w3.org/2000/svg">
<path d="M25.793 4.82949C28.6451 -1.61016 37.2289 -1.61016 40.0811 4.82949C41.9869 5.15835 45.8601 4.3001 47.4639 4.86465C48.3035 5.16261 48.0951 6.46589 48.6016 6.82168C49.7703 7.64431 59.8504 6.5286 62.4492 7.11562C63.3913 7.32971 65.8559 9.56087 65.8564 10.3393V29.5824L71.4092 20.3236C75.9761 14.182 85.5099 19.3278 82.3779 26.8793C78.5707 36.0538 70.1481 45.8553 66.0654 55.2299C64.8393 62.9148 66.9975 72.8016 65.8291 80.2152C65.4958 82.3451 63.7818 82.8567 62.3203 83.9994H3.54492C1.99456 82.8388 0.0623036 82.1183 0 79.8061L0.208984 10.0951C0.928676 8.74759 2.23017 7.29729 3.79395 7.04824C7.81888 6.40785 13.2521 7.44849 17.4414 7.04824L18.4141 4.86953L25.793 4.82949ZM4.20703 9.67715C4.08241 9.67746 3.132 10.7399 2.8877 11.0111L2.63867 78.0443C2.57648 80.7527 4.05624 81.1621 6.39746 81.3578C23.3857 82.7676 42.2757 80.2549 59.4639 81.3578C60.5925 81.5176 63.2041 80.5926 63.2041 79.352H63.1992V60.5492C62.7548 60.8035 60.9936 63.2409 60.9912 63.4262V78.0268L60.3301 78.6898H5.53125L4.86914 78.0268V12.9945C4.86921 12.9144 5.89562 11.8871 5.97559 11.8871H17.6855V9.67715H4.20703ZM17.6855 14.9867C17.3316 14.6536 9.30365 15.2356 7.96582 14.9867V76.0346H57.8955V65.4193L52.1514 68.7904C51.7028 69.075 51.2139 68.5192 51.0449 68.5189H30.2764C29.3967 68.5189 29.4012 65.8637 30.2764 65.8637H50.3828V62.3236H30.2764C29.3967 62.3236 29.4012 59.6684 30.2764 59.6684H50.3828C50.2718 58.4189 50.3608 57.4584 50.7295 56.2533C51.4048 54.043 57.8994 44.7257 57.8994 43.9652V14.9867H48.1797C47.9753 14.9867 48.9389 16.89 45.3271 17.2191C39.4896 17.7484 25.8155 17.8735 20.1113 17.2064H20.1074C17.0998 16.8551 18.0321 15.3158 17.6855 14.9867ZM23.3027 59.7396C24.9195 59.2685 25.6571 60.4159 24.9775 61.8744C24.7732 62.3146 18.2795 68.3211 17.8115 68.4516C15.8079 69.0119 10.3661 62.7461 14.3555 63.1908C15.6347 63.3334 16.0393 65.2858 17.3809 64.9301C18.8914 64.2983 22.2854 60.0332 23.3027 59.7396ZM53.0439 64.9789C53.6481 64.2629 57.7479 62.8931 57.0156 61.8881L53.0439 60.1137V64.9789ZM80.25 24.7221C81.2984 22.3519 77.4607 19.7859 75.457 20.3725C74.7507 20.577 73.9103 21.7554 73.4482 22.3646L53.4971 56.7953L59.4502 60.5443L80.25 24.7221ZM51.9365 48.6078C53.2201 48.6082 53.2201 51.7031 51.9365 51.7035H30.7227C29.6968 51.7027 29.1417 49.1461 30.7227 48.6078H51.9365ZM23.7285 42.4799C25.3096 42.04 25.5494 44.0226 24.9766 45.0678C22.9331 45.9616 19.1037 51.1956 17.3799 51.6586C16.1538 51.9877 13.7769 48.7553 12.875 47.8568C13.7857 43.2897 16.3799 48.3097 17.4062 48.1322C19.0144 47.0471 22.062 42.947 23.7324 42.4799H23.7285ZM51.9375 42.4135C53.559 42.8671 53.475 45.1037 51.0273 45.4818C47.38 46.0466 35.8869 45.918 32.0264 45.5355C30.1962 45.3532 29.3739 44.9926 29.667 42.9027C30.0267 42.8983 30.5689 42.4138 30.7246 42.4135H51.9375ZM61.6582 9.67715C58.6018 8.83219 51.6894 10.3085 48.1797 9.67715V11.8871H59.8896C59.9696 11.8871 60.996 12.9144 60.9961 12.9945V37.9926C61.6447 37.6101 62.6529 35.8715 62.8662 35.2221C63.5548 33.1141 63.6086 14.9293 63.2266 12.0873C63.1244 11.3002 62.3778 9.87751 61.6582 9.67715ZM23.7549 25.6644C25.2163 25.4333 25.5409 26.6074 24.9814 27.808C24.666 28.4884 18.322 34.2433 17.5576 34.5727C16.1983 35.1552 12.3823 31.34 12.8613 29.8588H12.8662C14.3944 27.4039 16.4158 31.2728 17.0244 31.2728C19.0813 30.5168 21.9201 25.9535 23.7549 25.6644ZM52.376 31.7973C53.2512 31.7973 53.2556 34.4525 52.376 34.4525H30.2793C29.5552 34.4525 29.2131 32.2286 30.2793 31.7973H52.376ZM53.0156 26.3227L52.5977 28.2572H30.2832C29.4036 28.2572 29.408 25.6029 30.2832 25.6029H52.3799L53.0156 26.3227ZM38.2324 7.46621C35.9844 1.18266 29.8759 1.1826 27.6279 7.46621H20.334V14.1019H45.5225V7.46621H38.2324Z" fill="url(#paint0_linear_616_7875)"/>
<defs>
<linearGradient id="paint0_linear_616_7875" x1="41.4988" y1="4.8274" x2="58.7092" y2="56.0268" gradientUnits="userSpaceOnUse">
<stop stop-color="#FCD30B"/>
<stop offset="1" stop-color="#4997EA"/>
</linearGradient>
</defs>
</svg>
