<svg width="71" height="71" viewBox="0 0 71 71" fill="none" xmlns="http://www.w3.org/2000/svg">
<g clip-path="url(#clip0_616_7969)">
<path d="M36.6274 6.69241C45.1485 1.50365 56.1945 -0.965474 66.1079 0.352564C67.8993 0.593896 69.7003 0.528944 70.2759 2.50588V2.4971C71.269 5.91301 71.0925 12.6329 70.647 16.2344C69.2546 27.4752 63.4808 37.4813 55.3774 45.1856L55.0991 62.6739C54.635 63.3419 53.8742 63.5649 53.1968 63.9268C50.208 65.5047 39.0601 70.1176 35.978 70.7862C35.4026 70.9068 34.8547 71.1021 34.2514 70.9072C33.9082 70.7959 33.1937 69.8036 33.1929 69.5801V55.5635L25.7485 56.0088C23.7343 64.8919 14.7489 63.9732 7.53661 63.0635V52.2032C7.53725 52.0442 8.43664 50.1341 8.6411 49.753C9.92205 47.3489 12.4195 45.9188 14.9907 45.2412L15.436 37.7969H1.4204C1.20692 37.7969 0.203803 37.0828 0.0922713 36.7393C-0.102643 36.1453 0.0834146 35.5882 0.213365 35.0127C0.881685 31.9403 5.49474 20.7922 7.07274 17.794C7.42547 17.1164 7.65735 16.364 8.32567 15.8906L25.814 15.6123C29.2019 12.3729 32.5898 9.15213 36.6274 6.69241ZM51.7485 48.0723C48.8897 49.4275 46.2441 51.2098 43.3296 52.4815C41.1669 53.4282 38.8648 53.9576 36.7485 54.9785V66.2285L51.7485 60.7061V48.0723ZM15.937 48.917C14.526 48.5837 11.0834 51.6457 11.0825 52.6114V59.917H18.3882L18.3784 59.9073C19.1395 59.9073 22.3883 56.5749 22.1098 55.3496C22.0793 54.8089 16.4752 49.0469 15.937 48.917ZM66.6557 4.34377C45.5016 0.556631 24.3567 14.9999 19.5669 35.8291C19.0564 38.0753 17.9328 44.6008 18.7866 46.4854C19.0557 47.0793 24.5301 52.2934 25.1079 52.4073C50.3185 53.2705 71.2319 29.2017 66.6557 4.34377ZM44.3315 15.5938C50.4483 15.594 55.4048 20.5511 55.4048 26.668C55.4048 32.7849 50.4483 37.741 44.3315 37.7412C38.2145 37.7412 33.2573 32.785 33.2573 26.668C33.2573 20.551 38.2145 15.5938 44.3315 15.5938ZM10.2934 19.251L4.77098 34.251H16.021C17.0419 32.1347 17.5713 29.8326 18.5181 27.6699C19.7897 24.7555 21.5721 22.1098 22.9272 19.251H10.2934ZM44.3501 19.1953C40.2382 19.1953 36.906 22.5278 36.9057 26.6397C36.9057 30.7517 40.238 34.085 44.3501 34.085C48.4619 34.0848 51.7944 30.7516 51.7944 26.6397C51.7942 22.528 48.4618 19.1956 44.3501 19.1953Z" fill="url(#paint0_linear_616_7969)"/>
</g>
<defs>
<linearGradient id="paint0_linear_616_7969" x1="35.5057" y1="4.08248" x2="49.9098" y2="47.456" gradientUnits="userSpaceOnUse">
<stop stop-color="#FCD30B"/>
<stop offset="1" stop-color="#4997EA"/>
</linearGradient>
<clipPath id="clip0_616_7969">
<rect width="71" height="71" fill="white"/>
</clipPath>
</defs>
</svg>
