<svg width="83" height="83" viewBox="0 0 83 83" fill="none" xmlns="http://www.w3.org/2000/svg">
<path d="M43.3005 0.0260711C51.6811 2.90258 51.3341 13.4266 42.8407 15.8512L43.127 33.7881L46.3283 34.8309L58.7691 21.9344C53.0952 13.0095 66.4209 4.89267 71.9733 13.4353C76.4846 20.3702 68.0346 28.9997 61.1202 24.2895L48.2456 36.7515L49.3994 40.1581L67.2018 40.245C69.6222 31.7719 80.1371 31.32 83 39.7844V43.2432C80.1544 51.5772 69.5702 51.2818 67.2018 42.7826L49.2953 43.0694L48.2543 46.2761L60.5562 58.599C68.9889 53.6977 77.7946 64.4303 70.4985 71.1305C63.5753 77.4832 53.9107 68.4973 58.6389 60.5283L46.3196 48.188L42.9361 49.3525L42.8494 67.1851C50.7528 68.8536 51.872 80.3249 43.9772 82.6018C33.1848 85.7042 29.4629 69.7401 40.3161 67.1851V49.5784L36.6203 48.3879L24.3877 61.0932C29.5844 69.349 18.1933 77.7786 11.7908 70.2702C5.83062 63.2744 14.8185 53.9323 22.6005 58.599L35.0413 45.7026L33.5318 42.7826H15.955C13.1008 53.6282 -2.54132 50.0217 0.356327 38.898C0.902889 36.8036 3.93935 34.1965 6.08222 33.8315C11.1054 32.9712 14.4628 35.6131 15.955 40.2363L33.7573 40.1494L34.9112 36.7428L22.8174 24.6024C22.0627 24.0201 21.0476 25.1238 20.0326 25.315C10.368 27.1834 5.73519 15.0169 13.9423 10.5675C21.0997 6.69157 28.8383 15.156 24.3877 21.9171L36.8285 34.8135L40.2293 33.6577L40.3161 15.8251C31.8227 13.4005 31.4843 2.87651 39.8563 0H43.3092L43.3005 0.0260711ZM46.5105 7.94298C46.5105 5.2229 44.3155 3.02424 41.6001 3.02424C38.8846 3.02424 36.6897 5.2229 36.6897 7.94298C36.6897 10.6631 38.8846 12.8617 41.6001 12.8617C44.3155 12.8617 46.5105 10.6631 46.5105 7.94298ZM22.722 17.7196C22.722 15.0082 20.5271 12.8096 17.8203 12.8096C15.1135 12.8096 12.9186 15.0082 12.9186 17.7196C12.9186 20.431 15.1135 22.6297 17.8203 22.6297C20.5271 22.6297 22.722 20.431 22.722 17.7196ZM70.1775 17.7457C70.1775 15.0343 67.9826 12.827 65.2671 12.827C62.5516 12.827 60.3567 15.0256 60.3567 17.7457C60.3567 20.4658 62.5516 22.6644 65.2671 22.6644C67.9826 22.6644 70.1775 20.4658 70.1775 17.7457ZM12.9706 41.5225C12.9706 38.8024 10.767 36.5951 8.05158 36.5951C5.33612 36.5951 3.13252 38.8024 3.13252 41.5225C3.13252 44.2426 5.33612 46.4499 8.05158 46.4499C10.767 46.4499 12.9706 44.2426 12.9706 41.5225ZM46.4758 41.5312C46.4758 38.8285 44.2895 36.6385 41.5914 36.6385C38.8933 36.6385 36.7071 38.8285 36.7071 41.5312C36.7071 44.2339 38.8933 46.4239 41.5914 46.4239C44.2895 46.4239 46.4758 44.2339 46.4758 41.5312ZM79.8161 41.5225C79.8161 38.8111 77.6211 36.6124 74.9143 36.6124C72.2076 36.6124 70.0126 38.8111 70.0126 41.5225C70.0126 44.2339 72.2076 46.4325 74.9143 46.4325C77.6211 46.4325 79.8161 44.2339 79.8161 41.5225ZM22.7133 65.2819C22.7133 62.5705 20.5184 60.3806 17.8203 60.3806C15.1222 60.3806 12.9273 62.5792 12.9273 65.2819C12.9273 67.9846 15.1222 70.1833 17.8203 70.1833C20.5184 70.1833 22.7133 67.9846 22.7133 65.2819ZM70.1775 65.2993C70.1775 62.5879 67.9826 60.3806 65.2671 60.3806C62.5516 60.3806 60.3567 62.5792 60.3567 65.2993C60.3567 68.0194 62.5516 70.218 65.2671 70.218C67.9826 70.218 70.1775 68.0194 70.1775 65.2993ZM46.4584 75.1194C46.4584 72.3993 44.2548 70.1833 41.5307 70.1833C38.8065 70.1833 36.6029 72.3906 36.6029 75.1194C36.6029 77.8482 38.8065 80.0555 41.5307 80.0555C44.2548 80.0555 46.4584 77.8482 46.4584 75.1194Z" fill="url(#paint0_linear_616_7967)"/>
<defs>
<linearGradient id="paint0_linear_616_7967" x1="41.5001" y1="4.7702" x2="58.3434" y2="55.4824" gradientUnits="userSpaceOnUse">
<stop stop-color="#FCD30B"/>
<stop offset="1" stop-color="#4997EA"/>
</linearGradient>
</defs>
</svg>
