<svg width="84" height="99" viewBox="0 0 84 99" fill="none" xmlns="http://www.w3.org/2000/svg">
<path d="M83.1377 98.46H79.2842V90.3701H54.4395V98.46H50.585V86.5166H83.1377V98.46ZM52.4248 72.2529C54.3479 74.8378 56.1779 77.6949 59.0664 79.2832V83.8145H55.2119V81.1211L55.2275 81.1133C55.2275 81.0743 54.8693 81.0588 54.6436 80.833C53.9584 80.1557 49.9026 75.3521 49.8555 74.8145L52.4248 72.2529ZM71.9648 52.4062C72.2216 52.2195 73.9723 54.1022 74.2773 54.4229C76.1614 56.3848 78.0307 58.3937 79.8604 60.4023V83.8145H76.0059V61.75L69.6611 55.1709L71.9648 52.4062ZM80.6172 40.1592L67.1475 53.6836L66.1816 53.0918L64.2666 51.1768L75.2217 40.0117L40.4414 5.2168L31.7061 13.7812L34.6025 16.2803C39.7488 22.1974 38.4021 31.4549 31.5742 35.418C25.5402 38.9214 18.0648 36.889 14.4678 31.0264L5.79492 39.6924L19 53.0762C16.7423 53.9558 14.6707 54.0106 12.6621 55.5986C4.97013 61.7027 11.7827 73.9025 20.9775 70.6641C25.1036 69.2158 26.5601 65.4558 27.2842 61.4619L40.668 74.752L51.5527 63.8594C51.7703 63.6887 51.8719 63.8287 52.043 63.9531L52.0273 63.9609C52.6734 64.4204 53.5841 66.0708 54.4248 66.5771L40.6602 80.1553L29.0977 68.6016L27.7588 70.3301C14.7798 84.3984 -4.49725 63.4552 11.5488 51.7998C11.7123 51.6752 11.9304 51.6124 11.8604 51.3555L0.5 39.7861L15.8154 24.2842C16.2199 24.222 16.0414 24.3543 16.1191 24.5488C17.1234 27.0635 17.0694 28.971 19.2881 31.0186C26.0229 37.2315 36.642 30.2324 33.3408 21.3955C31.9315 17.6196 28.3578 16.2877 24.7764 15.3223L39.9902 0H40.7607L80.6172 40.1592ZM71.3682 62.3574L68.7832 65.1211L57.5166 54.2285V54.2129H57.1279C56.0224 55.6142 54.6364 56.6814 55.8896 58.5498L63.0684 65.8291C63.2552 66.4753 62.445 68.2353 62.3516 69.084C62.0869 71.5287 63.2551 73.5069 64.4463 75.5156L61.1758 77.4463C60.2493 75.679 58.9728 73.7556 58.7158 71.7158C58.5134 70.0886 58.825 68.4768 58.7627 66.8574C56.8785 64.4672 52.3859 61.6486 51.8252 58.5811C50.9766 53.9097 54.473 52.0559 56.8555 48.7471L71.3682 62.3574Z" fill="url(#paint0_linear_616_7956)"/>
<defs>
<linearGradient id="paint0_linear_616_7956" x1="41.8189" y1="5.65871" x2="64.6724" y2="63.4094" gradientUnits="userSpaceOnUse">
<stop stop-color="#FCD30B"/>
<stop offset="1" stop-color="#4997EA"/>
</linearGradient>
</defs>
</svg>
