<svg width="85" height="85" viewBox="0 0 85 85" fill="none" xmlns="http://www.w3.org/2000/svg">
<g clip-path="url(#clip0_616_7885)">
<path d="M41.0509 23.588L41.0156 14.6346C35.028 13.232 33.2114 5.4342 38.2555 1.72935C43.8816 -2.39892 51.5094 3.22893 49.3137 9.88003C48.4847 12.4029 46.5006 13.973 43.9962 14.6346L43.9609 23.588C47.9645 23.7556 51.7299 25.4404 54.8075 27.928L61.3772 21.5239C56.8357 15.455 57.8146 7.20724 63.8816 2.60263C71.3419 -3.06933 82.4001 1.06776 84.5782 10.03C87.5765 22.3795 73.5112 31.2888 63.4936 23.6409L57.0914 30.0539C59.3842 33.3088 61.2802 36.9872 61.4389 41.0714L70.3983 41.0449C72.5941 31.1212 87.3824 35.3465 84.2696 44.8468C82.0033 51.7802 71.871 51.0216 70.266 43.9647L61.4301 43.9824C61.2184 48.0312 59.49 51.6567 57.0914 54.8323L63.4936 61.4216C74.1726 53.1828 88.8375 63.8827 84.0138 76.6468C82.7705 79.9283 79.7281 82.9186 76.4301 84.1183C63.7052 88.7229 53.2202 74.1681 61.3948 63.5299L54.9662 57.1346C51.5888 59.3663 48.132 61.3158 43.9609 61.4746L43.9874 70.428C50.8569 71.7335 51.7123 81.7631 45.169 84.1712C35.4777 87.7438 30.9186 72.7567 41.0244 70.428L41.0509 61.4658C37.0562 61.2982 33.2996 59.5428 30.2043 57.1258L23.6347 63.5299C29.5077 71.1778 25.7158 82.4688 16.2537 84.6211C5.42478 87.0822 -3.40238 76.1352 1.31543 66.0351C4.91332 58.3254 14.684 56.4289 21.483 61.1923L27.9556 55.0352C25.6364 51.7537 23.6964 48.1106 23.5817 43.9912L14.6311 44.0265C12.259 53.5621 -1.87681 50.016 0.636419 40.5951C2.61173 33.1677 12.8939 33.8469 14.7546 41.089H23.5817C23.6611 37.0754 25.4336 33.2824 27.9292 30.2391L21.5183 23.6497C15.1779 28.4661 6.09497 26.9665 1.93272 20.1125C-3.59638 11.018 3.48474 -0.555317 13.9962 0.0180542C24.5077 0.591425 30.2749 13.1791 23.617 21.5239L30.2043 27.928C33.3172 25.5022 37.0562 23.7468 41.0509 23.588ZM23.3966 13.2497C23.3966 7.63065 18.8463 3.07897 13.229 3.07897C7.61173 3.07897 3.07028 7.63065 3.07028 13.2497C3.07028 18.8687 7.62055 23.4204 13.2378 23.4204C18.8551 23.4204 23.4054 18.8687 23.4054 13.2497H23.3966ZM81.9239 13.2497C81.9239 7.63065 77.3736 3.07897 71.7563 3.07897C66.1391 3.07897 61.5888 7.63065 61.5888 13.2497C61.5888 18.8687 66.1391 23.4204 71.7563 23.4204C77.3736 23.4204 81.9239 18.8687 81.9239 13.2497ZM46.6858 7.55126C46.6858 5.24014 44.8163 3.37007 42.5059 3.37007C40.1955 3.37007 38.326 5.24014 38.326 7.55126C38.326 9.86239 40.1955 11.7325 42.5059 11.7325C44.8163 11.7325 46.6858 9.86239 46.6858 7.55126ZM58.5377 42.5181C58.5377 33.6617 51.3595 26.4725 42.4971 26.4725C33.6347 26.4725 26.4565 33.6529 26.4565 42.5181C26.4565 51.3833 33.6347 58.5636 42.4971 58.5636C51.3595 58.5636 58.5377 51.3833 58.5377 42.5181ZM11.7211 42.5269C11.7211 40.2246 9.85159 38.3545 7.55 38.3545C5.24841 38.3545 3.37892 40.2246 3.37892 42.5269C3.37892 44.8292 5.24841 46.6992 7.55 46.6992C9.85159 46.6992 11.7211 44.8292 11.7211 42.5269ZM81.6329 42.5181C81.6329 40.2158 79.7634 38.3457 77.4618 38.3457C75.1602 38.3457 73.2907 40.2158 73.2907 42.5181C73.2907 44.8204 75.1602 46.6904 77.4618 46.6904C79.7634 46.6904 81.6329 44.8204 81.6329 42.5181ZM23.4054 71.7952C23.4054 66.1762 18.8551 61.6245 13.2378 61.6245C7.62055 61.6245 3.07028 66.1762 3.07028 71.7952C3.07028 77.4143 7.62055 81.966 13.2378 81.966C18.8551 81.966 23.4054 77.4143 23.4054 71.7952ZM81.9415 71.7952C81.9415 66.1762 77.3913 61.6245 71.774 61.6245C66.1567 61.6245 61.6064 66.1762 61.6064 71.7952C61.6064 77.4143 66.1567 81.966 71.774 81.966C77.3913 81.966 81.9415 77.4143 81.9415 71.7952ZM46.6682 77.4848C46.6682 75.1825 44.7987 73.3125 42.4971 73.3125C40.1955 73.3125 38.326 75.1825 38.326 77.4848C38.326 79.7871 40.1955 81.6572 42.4971 81.6572C44.7987 81.6572 46.6682 79.7871 46.6682 77.4848Z" fill="url(#paint0_linear_616_7885)"/>
<path d="M50.274 37.1898V49.9363C50.274 51.0036 47.3639 51.0036 47.3639 49.9363V37.1898H43.8454C42.7607 37.1898 42.2757 34.7375 43.6514 34.3229C46.7378 34.4729 50.3004 33.9701 53.3339 34.2612C55.9089 34.5082 54.7184 37.1898 54.0482 37.1898H50.2828H50.274Z" fill="url(#paint1_linear_616_7885)"/>
<path d="M45.148 45.9315C45.148 48.6572 42.9434 50.8625 40.2185 50.8625C37.4936 50.8625 35.2891 48.6572 35.2891 45.9315C35.2891 43.2058 37.4936 41.0005 40.2185 41.0005C42.9434 41.0005 45.148 43.2058 45.148 45.9315ZM42.1145 45.9403C42.1145 44.8906 41.2679 44.0438 40.2185 44.0438C39.1691 44.0438 38.3226 44.8906 38.3226 45.9403C38.3226 46.99 39.1691 47.8368 40.2185 47.8368C41.2679 47.8368 42.1145 46.99 42.1145 45.9403Z" fill="url(#paint2_linear_616_7885)"/>
<path d="M32.743 34.5699C33.0076 34.8345 33.0252 35.4608 33.0517 35.8402C33.4309 40.3301 32.8577 45.5257 32.9106 50.0509C32.1875 51.2153 30.5032 51.0389 30.1328 49.6893L30.3533 34.8698C30.7501 34.1465 32.2316 34.0671 32.7342 34.5787L32.743 34.5699Z" fill="url(#paint3_linear_616_7885)"/>
</g>
<defs>
<linearGradient id="paint0_linear_616_7885" x1="42.4965" y1="4.88246" x2="59.7466" y2="56.8129" gradientUnits="userSpaceOnUse">
<stop stop-color="#FCD30B"/>
<stop offset="1" stop-color="#4997EA"/>
</linearGradient>
<linearGradient id="paint1_linear_616_7885" x1="48.8615" y1="35.1209" x2="53.0957" y2="44.4358" gradientUnits="userSpaceOnUse">
<stop stop-color="#FCD30B"/>
<stop offset="1" stop-color="#4997EA"/>
</linearGradient>
<linearGradient id="paint2_linear_616_7885" x1="40.2185" y1="41.5673" x2="42.2203" y2="47.5925" gradientUnits="userSpaceOnUse">
<stop stop-color="#FCD30B"/>
<stop offset="1" stop-color="#4997EA"/>
</linearGradient>
<linearGradient id="paint3_linear_616_7885" x1="31.6575" y1="35.2032" x2="36.4233" y2="37.8434" gradientUnits="userSpaceOnUse">
<stop stop-color="#FCD30B"/>
<stop offset="1" stop-color="#4997EA"/>
</linearGradient>
<clipPath id="clip0_616_7885">
<rect width="85" height="85" fill="white"/>
</clipPath>
</defs>
</svg>
