<svg width="69" height="73" viewBox="0 0 69 73" fill="none" xmlns="http://www.w3.org/2000/svg">
<path d="M4.34863 51.918C5.54863 44.668 16.9484 44.668 18.1484 51.918C18.2884 52.7783 18.1084 55.8275 18.2783 56.0176C18.3583 56.1076 19.648 56.3078 20.458 56.9678C21.148 57.5278 22.0182 58.7677 22.1982 59.6377C22.4882 61.0777 22.4882 67.228 22.1982 68.668C21.8282 70.4578 20.3377 71.3281 18.9678 72.248H3.51855C1.85857 71.1881 0.657863 70.4178 0.297852 68.2979C-0.182144 65.4079 -0.371852 58.9378 2.03809 56.9678C2.84778 56.308 4.13689 56.1076 4.21777 56.0176C4.38776 55.8276 4.20868 52.7782 4.34863 51.918ZM50.5674 56.0176C48.8075 43.2177 66.3968 43.2178 64.627 56.0176L64.6367 56.0273C66.7467 56.1573 67.5767 57.8679 68.6367 59.3779V68.9375C67.7267 70.4975 66.8871 71.3381 65.3271 72.248H49.877C48.507 71.3281 47.0065 70.4579 46.6465 68.668C46.3465 67.208 46.3469 61.4773 46.5869 59.9473C46.8672 58.1474 48.7175 56.0976 50.5674 56.0176ZM3.89844 60.2881V67.6475C3.89844 67.7175 4.74836 68.5674 4.81836 68.5674H17.6885C19.1481 68.5663 18.6882 61.0672 18.2383 59.7373H4.44824L3.89844 60.2881ZM50.2373 60.2881V67.6475C50.2373 67.7175 51.0872 68.5674 51.1572 68.5674H64.0273C65.4869 68.566 65.0271 61.0672 64.5771 59.7373H50.7871L50.2373 60.2881ZM41.9561 60.1182C44.1661 60.6482 44.1061 63.3783 41.9561 63.7783C40.2343 64.0982 28.6165 64.0983 26.8965 63.7783C24.9065 63.4083 24.6367 60.9775 26.5967 60.1875L41.9561 60.1182ZM34.4287 24.0879C42.6087 24.0879 49.249 30.7282 49.249 38.9082C49.2489 47.0881 42.6086 53.7275 34.4287 53.7275C26.249 53.7273 19.6095 47.0879 19.6094 38.9082C19.6094 30.7283 26.2389 24.0881 34.4287 24.0879ZM34.4189 27.8477C28.3192 27.8478 23.3694 32.7977 23.3691 38.8975C23.3691 44.9974 28.319 49.9481 34.4189 49.9482C40.5189 49.9482 45.4688 44.9975 45.4688 38.8975C45.4685 32.7977 40.5188 27.8477 34.4189 27.8477ZM10.7881 28.5176C11.628 28.2977 12.5882 28.8482 12.9082 29.5781C13.2181 30.2916 13.3079 41.0583 13.0879 42.248C12.6677 44.4677 9.72767 44.5078 9.39746 41.9082C9.15747 40.0283 9.10777 31.8483 9.42773 30.1279C9.53773 29.5179 10.2181 28.6676 10.7881 28.5176ZM57.1279 28.5176C57.9679 28.2977 58.9281 28.8482 59.248 29.5781C59.5579 30.2915 59.6477 41.0583 59.4277 42.248C59.0076 44.4677 56.0675 44.5078 55.7373 41.9082C55.4973 40.0283 55.4476 31.8483 55.7676 30.1279C55.8776 29.5179 56.5579 28.6676 57.1279 28.5176ZM37.998 34.0371C38.748 33.8372 39.5879 34.1878 40.1279 34.7178C40.4378 35.2378 40.4083 36.098 40.2383 36.668C40.1149 37.0911 34.4575 42.8074 34.0576 42.9873C31.4176 44.1967 26.6484 38.4274 29.2783 37.1074C31.368 36.0578 32.178 38.897 33.0879 38.7373C34.3179 38.0573 36.968 34.3171 37.998 34.0371ZM6.21777 9.66797C4.48777 -3.25203 21.9883 -3.19203 20.2783 9.66797C22.2382 9.8281 23.3984 11.4277 24.2783 13.0176V22.2178C23.5383 24.0077 22.3681 25.4376 20.3281 25.8076C17.8481 26.2676 9.46762 26.1875 6.80762 25.8975C3.47798 25.5373 2.42823 23.687 2.19824 20.5771C1.90824 16.7172 1.29832 10.4082 6.21777 9.66797ZM50.5654 9.66797C48.8354 -3.25203 66.336 -3.19203 64.626 9.66797C66.5858 9.82809 67.746 11.4277 68.626 13.0176V22.2178C67.886 24.0077 66.7157 25.4376 64.6758 25.8076C62.1958 26.2676 53.8153 26.1875 51.1553 25.8975C47.8258 25.5373 46.7759 23.6878 46.5459 20.5781C46.2559 16.7182 45.6458 10.4082 50.5654 9.66797ZM5.8877 13.9375V21.2979C5.89015 21.3699 6.73466 22.2143 6.80762 22.2178H19.6777C19.7476 22.2178 20.595 21.3702 20.5977 21.2979V13.9375L20.0479 13.3877H6.43848L5.8877 13.9375ZM50.2354 13.9375V21.2979C50.236 21.3682 51.0822 22.2142 51.1553 22.2178H64.0254C64.0954 22.2178 64.9446 21.3684 64.9453 21.2979V13.9375L64.3955 13.3877H50.7861L50.2354 13.9375ZM42.6973 13.3877C43.4174 13.3891 44.8059 16.7279 40.877 17.0879C38.387 17.3179 29.0868 17.4573 26.9668 16.9873H26.957C25.1471 16.5773 24.7167 14.5677 26.1465 13.3877H42.6973Z" fill="url(#paint0_linear_616_7945)"/>
<defs>
<linearGradient id="paint0_linear_616_7945" x1="34.2875" y1="28.901" x2="38.8821" y2="37.5035" gradientUnits="userSpaceOnUse">
<stop stop-color="#FCD30B"/>
<stop offset="1" stop-color="#4997EA"/>
</linearGradient>
</defs>
</svg>
