<svg width="60" height="59" viewBox="0 0 60 59" fill="none" xmlns="http://www.w3.org/2000/svg">
<path d="M11.6904 0.531913C19.3402 -0.35434 28.5326 1.10327 36.3457 0.531913C39.0364 0.840927 41.4734 2.77635 42.2549 5.3825C42.5785 6.45823 42.8236 10.0384 43.2842 10.6071L43.2871 10.6042C43.494 10.8578 45.5635 11.6157 46.2226 12.1755C48.5782 14.1841 48.5903 17.6826 49.0771 20.5163C52.2489 21.3704 53.6803 23.2915 54.4179 26.3727C54.6803 27.4629 55.1821 32.2694 55.4795 32.7253C55.5582 32.8448 57.395 33.7317 57.8935 34.2389C60.2866 36.6675 60.0971 42.7483 59.7998 46.0251C59.4908 49.4272 57.0741 51.8329 53.7099 52.2936C54.0916 60.1298 43.2791 60.1065 43.6289 52.2614H27.8008C28.4683 60.1385 17.3087 60.1327 17.8799 52.3024C12.6442 51.2995 11.7113 47.0837 11.9736 42.3581C6.69397 41.4806 5.52182 36.9558 5.99119 32.2009C3.53653 32.3494 0.787623 29.9148 0.303691 27.5622C-0.0489683 25.8504 -0.0492848 19.339 0.245097 17.5807C0.796096 14.2952 3.87459 13.7728 4.3906 12.7116C4.90652 11.6504 5.15728 7.8644 5.55076 6.31316C6.39034 3.00441 8.10489 0.946026 11.6904 0.531913ZM19.2099 36.2595C18.2305 36.1662 16.5047 36.9762 16.2275 37.9294C16.006 38.6932 16.0549 45.9791 16.2969 46.7546C16.9033 48.6901 18.9531 47.9582 20.3232 48.2555C23.2179 48.8852 21.1952 53.5724 22.4512 53.987L23.4599 53.8884C24.5153 53.1391 22.16 48.547 26.1885 48.1823C32.5177 47.608 39.7777 48.5879 46.206 48.2585C48.2958 48.7428 47.841 52.3721 47.8672 54.0134C48.4327 54.0017 49.3515 54.206 49.5732 53.5358C49.8327 52.0754 49.1267 50.113 50.1875 48.9177C51.4032 47.5475 53.6747 48.7572 55.0566 47.5329H55.0537C55.3948 46.9761 55.6517 46.3929 55.7246 45.7311C55.8908 44.2414 55.9256 39.8911 55.7012 38.4684C55.5378 37.4309 54.7038 36.6294 53.7012 36.3962L19.2099 36.2595ZM48.8047 38.7136C50.4678 38.7136 51.8164 40.0621 51.8164 41.7253C51.8163 43.3884 50.4678 44.7369 48.8047 44.737C47.1415 44.737 45.793 43.3884 45.7929 41.7253C45.7929 40.062 47.1414 38.7136 48.8047 38.7136ZM23.0039 38.697C24.667 38.697 26.0156 40.0455 26.0156 41.7087C26.0155 43.3718 24.667 44.7203 23.0039 44.7204C21.3407 44.7204 19.9923 43.3718 19.9922 41.7087C19.9922 40.0454 21.3407 38.697 23.0039 38.697ZM12.2422 26.3815C11.9274 26.3815 10.881 27.0637 10.6357 27.3903C9.732 28.5943 9.75251 36.0804 10.6416 37.2907C11.2071 38.0603 11.7815 38.4748 12.2334 37.4372C13.3295 34.9126 13.7958 33.965 16.3144 32.4899L17.332 26.3815H12.2422ZM48.1767 24.4723C40.6727 24.6648 32.4537 23.7875 25.0254 24.3356C20.1425 24.6973 21.5389 28.5335 20.5303 32.2009H51.3545C50.5149 29.8425 51.1995 25.1927 48.1767 24.4723ZM6.1367 16.4958C6.04825 16.4984 4.82816 17.2195 4.69139 17.3766C4.26868 17.8722 4.28585 18.3562 4.23338 18.9538C4.09928 20.435 4.00609 25.2161 4.25389 26.5221C4.36201 27.0965 5.25396 28.047 5.84275 28.1345C6.59764 28.245 6.31218 26.2977 6.8076 25.8893C7.00876 24.4667 9.96836 23.268 10.289 22.8278C10.8368 22.0774 10.8539 17.6559 11.5156 16.4958H6.1367ZM42.1269 14.528C34.6287 15.0294 25.6787 13.621 18.3496 14.4606C14.306 14.9242 15.5744 19.4435 14.4228 22.3122H19.5127C19.7721 22.3122 21.9882 20.277 24.166 20.277H44.958C44.5295 18.1284 44.8207 15.0149 42.1269 14.528ZM36.3105 4.63934C28.7133 5.14652 19.6703 3.72951 12.2422 4.57195C8.51345 4.99468 9.37607 9.61604 8.60643 12.4235H13.4053C13.6364 12.4226 16.0289 10.3887 17.4746 10.3884H39.1416C38.4128 8.39718 38.9635 5.17284 36.3105 4.63934Z" fill="url(#paint0_linear_2006_6477)"/>
<defs>
<linearGradient id="paint0_linear_2006_6477" x1="48.8045" y1="39.06" x2="50.0268" y2="42.7401" gradientUnits="userSpaceOnUse">
<stop stop-color="#FCD30B"/>
<stop offset="1" stop-color="#4997EA"/>
</linearGradient>
</defs>
</svg>
