<svg width="83" height="83" viewBox="0 0 83 83" fill="none" xmlns="http://www.w3.org/2000/svg">
<g clip-path="url(#clip0_2006_6462)">
<path d="M41.1536 30.745C57.0851 33.7287 56.2692 59.1786 39.8723 60.5947L39.3596 60.6308C34.0093 60.9285 27.1815 58.9865 23.6174 64.0449L23.469 64.2617C20.4385 68.8339 22.5378 74.6564 27.5852 76.5702C43.2942 77.7961 59.3158 76.7319 75.136 77.1152C78.477 77.6353 78.0381 82.6434 74.6438 82.622L74.4797 82.6171C60.2846 81.6704 44.5995 83.7247 30.4817 82.7206L29.1204 82.6132C16.8435 81.556 12.0129 66.0461 21.4651 58.2558L21.926 57.8915C27.6033 53.5694 32.6641 55.6698 38.8713 55.1054L39.4758 55.0419C49.3314 53.8713 49.7417 38.0483 40.178 36.1904L7.75904 36.08C4.84096 35.4964 4.62524 32.1365 7.05689 30.7275L41.1536 30.745ZM7.70533 32.7275C7.43084 33.0087 7.37084 33.3133 7.39087 33.5038C7.40453 33.6336 7.45352 33.7405 7.5354 33.8281C7.60225 33.8994 7.73733 34.0049 7.99732 34.08L40.1848 34.1904L40.3733 34.1913L40.5588 34.2275C46.6107 35.4031 49.2679 40.9714 49.1086 45.9384C48.9538 50.764 46.1125 55.9544 40.2854 56.9452L39.7122 57.0282C37.9433 57.2383 36.2855 57.2299 34.761 57.1835C33.1901 57.1357 31.8616 57.0542 30.5071 57.082C28.0983 57.1313 25.9179 57.5307 23.6018 59.1435L23.137 59.4823C14.5517 66.0163 18.6145 79.7015 29.2922 80.621L30.6272 80.7255C37.3292 81.2021 44.4228 80.9781 51.6575 80.7177C59.3178 80.442 67.1428 80.1249 74.5842 80.6191H74.5852C74.9469 80.638 75.1022 80.5313 75.1809 80.457C75.2896 80.3542 75.3938 80.1673 75.4211 79.9169C75.4485 79.6655 75.3862 79.4617 75.3059 79.3427C75.2563 79.2691 75.1647 79.1673 74.929 79.1113C67.1142 78.9267 59.2638 79.0945 51.3352 79.1591C43.3781 79.2239 35.3737 79.1844 27.429 78.5644L27.1438 78.5419L26.8752 78.4404C20.6036 76.0622 17.9382 68.6304 21.9827 62.8925L22.2063 62.5868C24.556 59.4948 27.9053 58.6986 30.9885 58.539C32.5654 58.4573 34.1875 58.5372 35.6477 58.5986C37.1545 58.6619 38.4929 58.7063 39.7004 58.6025L40.0227 58.5712C46.7403 57.8292 50.4063 52.2863 50.6379 46.1816C50.8717 40.0167 47.5689 34.0724 40.9563 32.7441L7.70533 32.7275ZM71.4602 45.87C77.1574 45.6525 82.4628 50.2827 82.9563 55.9218C83.394 60.9291 80.7426 66.1375 77.5813 69.874C72.6313 75.7268 71.1022 75.7201 66.1555 69.874C61.8026 64.7285 58.3676 56.5503 62.8733 50.4345C64.7423 47.8966 68.2748 45.9945 71.4602 45.87ZM76.6614 54.2685C75.3066 51.9652 72.9719 51.2467 70.3909 51.7197C68.6019 52.0477 66.6984 54.2505 66.4133 56.0185C65.8297 59.6306 68.8867 65.4533 71.9924 67.4355C75.0911 64.7419 78.9987 58.2432 76.6614 54.2685ZM71.885 54.2265C73.4179 54.2265 74.6612 55.4616 74.6614 56.9853C74.6614 58.5091 73.418 59.745 71.885 59.745C70.3522 59.7449 69.1096 58.509 69.1096 56.9853C69.1098 55.4617 70.3523 54.2267 71.885 54.2265ZM9.15064 0.127859C18.3079 -1.10479 23.6503 6.70335 21.5208 15.1777C20.6796 18.5243 14.7049 28.2859 11.0852 28.4931C7.94123 28.6724 2.17069 19.9772 1.10767 17.2353C-1.65742 10.087 0.656916 1.27434 9.15064 0.127859ZM14.594 6.92083C13.2704 5.76743 11.9361 5.39746 10.1887 5.62884L10.1926 5.63274C5.50979 6.25433 4.80153 10.8466 6.10767 14.6728C6.51412 15.8642 10.0122 21.8665 11.0891 21.6835C14.4554 18.3649 19.1933 10.937 14.594 6.92083ZM10.9622 8.24602C12.5182 8.24602 13.7795 9.50006 13.7795 11.0468C13.7795 12.5935 12.5181 13.8476 10.9622 13.8476C9.40622 13.8476 8.14486 12.5935 8.14478 11.0468C8.14478 9.50006 9.40616 8.24602 10.9622 8.24602Z" fill="url(#paint0_linear_2006_6462)"/>
</g>
<defs>
<linearGradient id="paint0_linear_2006_6462" x1="67.54" y1="55.6215" x2="69.3393" y2="60.8575" gradientUnits="userSpaceOnUse">
<stop stop-color="#FCD30B"/>
<stop offset="1" stop-color="#4997EA"/>
</linearGradient>
<clipPath id="clip0_2006_6462">
<rect width="83" height="83" fill="white"/>
</clipPath>
</defs>
</svg>
