<svg width="80" height="68" viewBox="0 0 80 68" fill="none" xmlns="http://www.w3.org/2000/svg">
<path d="M39.9912 44.2009C46.5471 44.2009 51.8623 49.5295 51.8623 56.1013C51.8623 62.6731 46.547 68.0017 39.9912 68.0017C33.4356 68.0015 28.1211 62.673 28.1211 56.1013C28.1211 49.5296 33.4355 44.2011 39.9912 44.2009ZM39.9961 46.9118C34.9306 46.9121 30.8225 51.0291 30.8223 56.1081C30.8223 61.1874 34.9304 65.3052 39.9961 65.3054C45.062 65.3054 49.1699 61.1875 49.1699 56.1081C49.1697 51.029 45.0618 46.9118 39.9961 46.9118ZM17.1836 30.197C29.1885 18.9077 50.1856 18.7403 62.4082 29.7829L62.9834 30.3171L62.9863 30.3152C64.3358 31.6052 65.463 32.1705 64.0889 33.8972L63.623 34.4587C61.2179 37.2507 57.7312 39.8047 55.3809 42.6423L55.2305 42.7185C53.6625 43.4042 51.7313 40.9044 50.3643 40.0154C44.2222 36.0239 35.7823 35.8853 29.6328 39.9704C28.4422 40.7616 26.5027 43.1069 25.1064 42.862L24.9736 42.8298C23.6905 41.2757 15.4573 34.1064 15.2627 32.8533C15.1277 31.9826 16.5703 30.7743 17.1836 30.197ZM55.8125 28.4011C44.3485 21.7652 28.1703 23.1906 18.6689 32.6609L25.6582 39.6326C33.1179 33.1792 43.5425 32.5209 51.8838 37.7556C52.3961 38.0788 54.2189 39.7162 54.5957 39.6521V39.6501L61.3652 32.8738C61.4957 32.1338 56.666 28.8954 55.8125 28.4011ZM0 17.032C19.7069 -4.71619 56.1536 -5.65143 77.4688 14.3181L77.4707 14.3152C78.4016 15.1884 80.6742 16.8979 79.8076 18.1511L70.7256 27.2595C70.1913 27.7922 69.4819 27.743 68.8564 27.3806C68.1743 26.9834 66.5043 25.0833 65.6719 24.4197C50.3634 12.211 29.6687 12.2012 14.3701 24.4197C13.5303 25.0882 11.1759 27.5975 10.4346 27.6394C10.0775 27.6616 9.72509 27.6223 9.43945 27.3806L0 17.7693V17.032ZM74.5107 15.3142C54.8064 -2.22029 21.9707 -1.46524 3.44336 17.4011L10.4346 24.4128C26.1814 8.63702 53.8485 8.76741 69.6396 24.4001V24.3982L76.6182 17.3962C76.6135 17.1653 74.8578 15.6224 74.5107 15.3142Z" fill="url(#paint0_linear_2006_6483)"/>
<defs>
<linearGradient id="paint0_linear_2006_6483" x1="40.0005" y1="0.000976562" x2="55.4998" y2="33.9999" gradientUnits="userSpaceOnUse">
<stop stop-color="#FCD30B"/>
<stop offset="1" stop-color="#2269FF"/>
</linearGradient>
</defs>
</svg>
