<svg width="99" height="70" viewBox="0 0 99 70" fill="none" xmlns="http://www.w3.org/2000/svg">
<g clip-path="url(#clip0_2006_6438)">
<path d="M3.18738 0L96.0313 0.0711939C97.9558 0.744797 98.8251 2.57393 99 4.51807L98.7868 66.6648C98.2729 68.4885 97.0045 69.9398 95.0035 70L2.96322 69.8467C1.06064 69.1457 0.0710736 67.3823 0 65.3943V4.52355C0.0710736 2.44797 1.15905 0.624315 3.18738 0ZM96.9279 1.6977H2.07207V68.2147H96.9279V1.6977Z" fill="url(#paint0_linear_2006_6438)"/>
<path d="M89.8048 42.0869V61.6762H93.3639V63.7518H51.5781V61.6707H55.1318V53.0617H61.0582V61.6707H64.6119V45.6411H70.5384V61.2271C71.342 61.9391 73.5508 61.95 74.3927 61.2271V56.3312H80.3192V61.6762H83.8729V42.0869H89.7993H89.8048Z" fill="url(#paint1_linear_2006_6438)"/>
<path d="M41.2004 10.9201C41.3097 11.3746 41.1293 11.3966 40.8833 11.6375C40.5279 11.9935 37.4171 14.4634 37.1875 14.4853C32.2615 12.218 26.9474 11.8785 22.0324 14.4196C18.2874 16.3527 15.0726 20.4491 14.0831 24.5674C13.5254 26.8894 14.3018 31.1446 10.934 30.942C6.64769 30.6901 9.21181 22.563 10.2396 20.126C14.3728 10.3286 25.34 5.37246 35.5528 8.40641C37.5264 8.99239 39.3087 10.137 41.1949 10.9201H41.2004Z" fill="url(#paint2_linear_2006_6438)"/>
<path d="M31.618 31.2921C28.4088 34.2166 23.6523 30.153 26.2601 26.6645L48.0141 8.54297L31.618 31.2976V31.2921Z" fill="url(#paint3_linear_2006_6438)"/>
<path d="M14.9753 44.458H41.945C42.5081 44.458 43.443 46.7362 41.0374 47.1141C33.1264 46.5993 24.2422 47.8589 16.4459 47.1469C15.5931 47.0703 14.937 46.9827 14.3793 46.2433C13.9802 45.4876 14.3793 44.918 14.9807 44.4635L14.9753 44.458Z" fill="url(#paint4_linear_2006_6438)"/>
<path d="M42.3164 52.5467C42.7429 52.9684 42.7101 53.8501 42.4148 54.3539C42.1087 54.8249 41.2831 54.8194 40.7747 54.8633C32.8199 55.5369 23.9248 54.3375 15.8661 54.8523C13.7011 54.8413 13.7722 52.4372 15.8552 52.1634C23.9138 52.7165 32.8199 51.4843 40.7747 52.1634C41.2394 52.2017 41.9829 52.2127 42.3164 52.5412V52.5467Z" fill="url(#paint5_linear_2006_6438)"/>
<path d="M45.7921 15.6686C48.0883 18.1823 49.5973 21.961 50.0565 25.3455C50.2971 27.1308 50.8547 30.4057 48.4437 30.7836C44.2011 31.4462 45.311 27.0651 44.6112 24.2666C44.223 22.7058 43.4248 21.3312 42.7305 19.9073L45.7976 15.6631L45.7921 15.6686Z" fill="url(#paint6_linear_2006_6438)"/>
<path d="M42.6974 60.1914H14.2188V62.5682H42.6974V60.1914Z" fill="url(#paint7_linear_2006_6438)"/>
<path d="M93.3795 9.11816H63.709V10.9144H93.3795V9.11816Z" fill="url(#paint8_linear_2006_6438)"/>
<path d="M93.3795 15.6631H63.709V17.4594H93.3795V15.6631Z" fill="url(#paint9_linear_2006_6438)"/>
<path d="M93.3795 28.4121H63.709V30.2084H93.3795V28.4121Z" fill="url(#paint10_linear_2006_6438)"/>
<path d="M93.3564 22.1963H63.7188V23.6804H93.3564V22.1963Z" fill="url(#paint11_linear_2006_6438)"/>
<path d="M9.77588 63.806C11.1105 63.806 12.1924 62.7223 12.1924 61.3854C12.1924 60.0486 11.1105 58.9648 9.77588 58.9648C8.44128 58.9648 7.35938 60.0486 7.35938 61.3854C7.35938 62.7223 8.44128 63.806 9.77588 63.806Z" fill="url(#paint12_linear_2006_6438)"/>
<path d="M9.76455 48.0998C11.0961 48.0998 12.1756 47.0185 12.1756 45.6846C12.1756 44.3508 11.0961 43.2695 9.76455 43.2695C8.43297 43.2695 7.35352 44.3508 7.35352 45.6846C7.35352 47.0185 8.43297 48.0998 9.76455 48.0998Z" fill="url(#paint13_linear_2006_6438)"/>
<path d="M9.72744 55.9474C11.059 55.9474 12.1385 54.8661 12.1385 53.5323C12.1385 52.1985 11.059 51.1172 9.72744 51.1172C8.39586 51.1172 7.31641 52.1985 7.31641 53.5323C7.31641 54.8661 8.39586 55.9474 9.72744 55.9474Z" fill="url(#paint14_linear_2006_6438)"/>
</g>
<defs>
<linearGradient id="paint0_linear_2006_6438" x1="49.5001" y1="4.02306" x2="60.0693" y2="49.0284" gradientUnits="userSpaceOnUse">
<stop stop-color="#FCD30B"/>
<stop offset="1" stop-color="#4997EA"/>
</linearGradient>
<linearGradient id="paint1_linear_2006_6438" x1="72.4711" y1="43.332" x2="74.9291" y2="57.606" gradientUnits="userSpaceOnUse">
<stop stop-color="#FCD30B"/>
<stop offset="1" stop-color="#4997EA"/>
</linearGradient>
<linearGradient id="paint2_linear_2006_6438" x1="24.8851" y1="8.86607" x2="28.4652" y2="23.9083" gradientUnits="userSpaceOnUse">
<stop stop-color="#FCD30B"/>
<stop offset="1" stop-color="#4997EA"/>
</linearGradient>
<linearGradient id="paint3_linear_2006_6438" x1="36.761" y1="9.90804" x2="41.7909" y2="24.258" gradientUnits="userSpaceOnUse">
<stop stop-color="#FCD30B"/>
<stop offset="1" stop-color="#4997EA"/>
</linearGradient>
<linearGradient id="paint4_linear_2006_6438" x1="28.4116" y1="44.6254" x2="28.4789" y2="46.5992" gradientUnits="userSpaceOnUse">
<stop stop-color="#FCD30B"/>
<stop offset="1" stop-color="#4997EA"/>
</linearGradient>
<linearGradient id="paint5_linear_2006_6438" x1="28.4522" y1="52.1325" x2="28.5295" y2="54.2472" gradientUnits="userSpaceOnUse">
<stop stop-color="#FCD30B"/>
<stop offset="1" stop-color="#4997EA"/>
</linearGradient>
<linearGradient id="paint6_linear_2006_6438" x1="46.5092" y1="16.536" x2="51.2667" y2="23.6637" gradientUnits="userSpaceOnUse">
<stop stop-color="#FCD30B"/>
<stop offset="1" stop-color="#4997EA"/>
</linearGradient>
<linearGradient id="paint7_linear_2006_6438" x1="28.4581" y1="60.328" x2="28.5028" y2="61.9392" gradientUnits="userSpaceOnUse">
<stop stop-color="#FCD30B"/>
<stop offset="1" stop-color="#4997EA"/>
</linearGradient>
<linearGradient id="paint8_linear_2006_6438" x1="78.5443" y1="9.2214" x2="78.5687" y2="10.4395" gradientUnits="userSpaceOnUse">
<stop stop-color="#FCD30B"/>
<stop offset="1" stop-color="#4997EA"/>
</linearGradient>
<linearGradient id="paint9_linear_2006_6438" x1="78.5443" y1="15.7663" x2="78.5687" y2="16.9844" gradientUnits="userSpaceOnUse">
<stop stop-color="#FCD30B"/>
<stop offset="1" stop-color="#4997EA"/>
</linearGradient>
<linearGradient id="paint10_linear_2006_6438" x1="78.5443" y1="28.5153" x2="78.5687" y2="29.7334" gradientUnits="userSpaceOnUse">
<stop stop-color="#FCD30B"/>
<stop offset="1" stop-color="#4997EA"/>
</linearGradient>
<linearGradient id="paint11_linear_2006_6438" x1="78.5376" y1="22.2816" x2="78.5544" y2="23.2881" gradientUnits="userSpaceOnUse">
<stop stop-color="#FCD30B"/>
<stop offset="1" stop-color="#4997EA"/>
</linearGradient>
<linearGradient id="paint12_linear_2006_6438" x1="9.77588" y1="59.2431" x2="10.7596" y2="62.2" gradientUnits="userSpaceOnUse">
<stop stop-color="#FCD30B"/>
<stop offset="1" stop-color="#4997EA"/>
</linearGradient>
<linearGradient id="paint13_linear_2006_6438" x1="9.76455" y1="43.5471" x2="10.7461" y2="46.4974" gradientUnits="userSpaceOnUse">
<stop stop-color="#FCD30B"/>
<stop offset="1" stop-color="#4997EA"/>
</linearGradient>
<linearGradient id="paint14_linear_2006_6438" x1="9.72745" y1="51.3948" x2="10.709" y2="54.345" gradientUnits="userSpaceOnUse">
<stop stop-color="#FCD30B"/>
<stop offset="1" stop-color="#4997EA"/>
</linearGradient>
<clipPath id="clip0_2006_6438">
<rect width="99" height="70" fill="white"/>
</clipPath>
</defs>
</svg>
