<svg width="93" height="93" viewBox="0 0 93 93" fill="none" xmlns="http://www.w3.org/2000/svg">
<g clip-path="url(#clip0_2006_6469)">
<path d="M73.8457 45.5801C76.2781 45.8459 78.657 48.4909 78.6573 50.9365V57.749H82.379C83.1166 57.749 84.6852 58.6997 85.2901 59.1982C86.7456 60.4012 90.8603 64.4021 91.917 65.8311C92.4818 66.5953 92.6348 67.4459 93.0069 68.2832V85.1709C92.123 87.8493 90.0293 89.0323 87.2247 88.833C86.4005 91.0462 84.3464 92.4421 82.1133 92.9805H80.6582C78.3919 92.4421 76.3843 91.0728 75.5469 88.833L51.7276 88.7939C50.7373 90.9936 48.8628 92.4354 46.5235 92.9805C46.0583 92.9406 45.5194 93.0403 45.0674 92.9805H45.0616C43.0079 92.7013 40.6215 90.8069 39.9502 88.833C36.9395 88.8795 32.3201 89.2323 31.5225 85.3643C31.0706 83.1843 31.4499 79.3091 31.8155 77.1025L31.8018 50.2129C32.2405 47.8934 34.1151 46.0187 36.4346 45.5801H73.8457ZM45.7325 83.1377C43.7851 83.1377 42.2032 84.7197 42.2032 86.667C42.2033 88.6142 43.7852 90.1963 45.7325 90.1963C47.6797 90.1962 49.2616 88.6142 49.2618 86.667C49.2618 84.7197 47.6797 83.1378 45.7325 83.1377ZM81.2832 83.1777C79.3493 83.1777 77.7805 84.7458 77.7803 86.6797C77.7803 88.6137 79.3492 90.1826 81.2832 90.1826C83.2171 90.1824 84.7852 88.6136 84.7852 86.6797C84.785 84.746 83.2169 83.178 81.2832 83.1777ZM81.834 60.4746C80.8704 60.3418 79.6541 60.5743 78.6573 60.4746V78.5449C78.6573 79.1032 77.8798 80.0869 77.295 80.0869H34.3409V84.1748C34.3408 84.7662 34.2281 85.6362 35.0118 85.8623C36.0949 86.1746 38.2083 85.7163 39.418 85.8955C40.7142 78.5717 50.5305 78.399 52.0459 85.7295L52.2588 85.8828L74.7432 85.916C75.893 80.2734 83.1565 78.0272 86.6192 83.1182C86.9978 83.6762 87.6094 85.7334 87.7295 85.8223C88.1416 86.1147 89.7495 85.9156 90.0088 85.3574L90.0625 68.2305C90.016 67.9448 89.8099 67.7719 89.6504 67.5527C88.9393 66.5957 84.0279 61.6446 83.1104 61.0195C82.8246 60.8201 82.153 60.5211 81.834 60.4746ZM36.9795 48.2988C36.0292 48.2324 34.5268 49.5143 34.5264 50.3916V77.1758H75.3877V59.6504C75.8064 56.9787 75.999 53.4759 75.7598 50.751C75.6069 48.9964 74.8094 48.4451 73.128 48.2988H36.9795ZM46.5186 0.810547C62.9079 4.15366 75.7279 18.0444 77.3829 34.7793C77.5424 36.3743 77.9015 41.3653 77.1241 42.5088C76.5724 43.3196 75.0441 43.2529 74.7383 42.3291C74.3397 41.086 74.7581 37.4573 74.6651 35.8623C73.289 12.3019 47.9141 -3.27602 25.9952 5.17773C-3.66662 16.6224 -5.12924 58.3133 24.0538 71.5859C24.9776 72.0046 27.9422 72.9086 28.4473 73.3672C29.371 74.2045 28.7864 75.726 27.5372 75.7529C25.9023 75.7795 20.7913 73.1816 19.2159 72.251C9.84475 66.7014 3.04525 57.1833 0.832077 46.5029L0.02153 40.6816C0.0680532 39.5385 -0.0449318 38.3679 0.02153 37.2314C1.10508 17.8248 16.8035 0.857782 36.629 0.186523L37.0674 0H40.7032L46.5186 0.810547ZM27.5967 6.44043C27.6565 4.99156 29.4178 4.59243 30.335 5.70898C31.4648 7.08466 32.1292 9.2976 31.9698 11.0654L31.9834 11.0791C32.9603 10.7734 33.7909 10.1814 34.8409 10.0352C37.9844 9.60317 41.7797 11.2717 41.9727 14.7939C42.0259 15.7643 41.5011 17.2731 41.6407 17.8447C41.8135 18.5558 43.3682 19.6459 43.8135 20.583C44.9433 22.9689 44.013 24.8366 41.461 25.375C40.8495 25.5079 38.6432 25.4747 38.5567 26.0596C38.796 26.7374 39.6865 26.9502 40.2315 27.4287C42.4245 29.336 43.3215 31.4228 40.7832 33.6025C35.925 37.7829 30.5014 29.2699 24.4004 32.4727C20.9113 34.307 21.9207 39.8634 21.1631 43.2197C20.1131 47.8653 16.1989 51.4743 11.6397 48.0186C7.32647 44.7421 8.95424 39.6048 7.35942 35.4111C7.01383 34.5006 5.55145 32.7855 6.83403 31.9746C9.12024 30.5324 10.4031 35.5101 10.669 36.999C11.1675 39.7971 10.9749 46.796 15.3614 46.4902C19.1163 46.2309 18.5842 39.6839 18.8965 37.1318C19.7739 30.0073 25.1979 27.6016 31.751 29.7217C33.6119 30.3266 37.2601 32.8981 39.0479 31.6758C40.6164 30.5991 37.7789 29.3025 37.1475 28.6777C35.0409 26.6042 35.4261 23.6939 38.4698 22.9229C39.0944 22.7634 41.5461 22.7232 41.587 22.2383C40.4837 20.7097 38.7358 19.6193 38.6827 17.5059C38.6428 15.9109 40.1049 14.0898 37.9122 13.0264C36.4633 12.3219 34.7682 12.8274 33.419 13.5186C32.2891 14.0968 29.9099 16.6284 28.8731 14.8008C28.4012 13.9634 28.9922 12.9531 29.0586 12.0625C29.1118 11.3712 29.1591 9.98857 29.0528 9.35059C28.8864 8.35396 27.5505 7.55663 27.5967 6.44043ZM32.4678 39.8047C33.1324 37.0199 41.1738 39.7573 38.7813 42.3027C37.4856 43.6782 35.7918 41.035 35.253 41.585C35.6783 43.2662 33.2595 44.0907 32.6211 42.6758C32.5281 42.4632 32.4016 40.0728 32.4678 39.8047ZM60.4532 30.9258C65.3978 30.361 67.9701 34.6671 70.4092 38.123C71.1204 39.1266 72.7752 40.1372 71.6719 41.4199C70.3826 42.9285 69.1659 41.0676 68.4082 40.1172C66.5806 37.8176 64.0816 32.8859 60.4395 33.6436C59.2432 33.8896 57.9209 35.8638 59.1504 36.668C60.267 37.3988 61.9551 36.8277 63.2178 38.416C64.0684 39.4863 64.7461 42.2706 62.9053 42.6494C60.8389 43.0745 61.4628 40.5169 60.9649 40.124C58.6055 39.6787 56.572 39.0997 56.1866 36.3682C55.768 33.4108 57.5356 31.2581 60.4532 30.9258ZM54.5059 16.6152C54.4328 15.1395 54.5662 10.6272 56.9122 11.1123C58.7133 11.4778 57.5568 13.2994 57.4239 14.2764C57.3176 15.0614 57.3778 19.1611 57.9493 19.5332C60.2819 19.5398 62.1364 19.1408 64.0372 20.8887C64.5356 21.3472 64.9939 22.2978 65.6319 22.5703C66.323 22.8627 67.1673 22.2181 67.8916 22.9355C68.7623 23.8062 68.1641 25.2422 66.9346 25.415C64.336 25.7806 63.7109 24.7103 62.1358 23.1484C60.6739 21.6934 59.7368 22.7563 57.8829 22.5039C55.118 22.1184 54.6189 18.8949 54.5059 16.6152Z" fill="url(#paint0_linear_2006_6469)"/>
</g>
<defs>
<linearGradient id="paint0_linear_2006_6469" x1="58" y1="75" x2="13.5" y2="10.5" gradientUnits="userSpaceOnUse">
<stop stop-color="#1E63AD"/>
<stop offset="1" stop-color="#FCD30B"/>
</linearGradient>
<clipPath id="clip0_2006_6469">
<rect width="93" height="93" fill="white"/>
</clipPath>
</defs>
</svg>
