<svg width="260" height="31" viewBox="0 0 260 31" fill="none" xmlns="http://www.w3.org/2000/svg">
<path d="M21.64 30L19.56 24.36H7.96L5.88 30H0.48L10.72 2.8H17.08L27.32 30H21.64ZM12.96 10.88L9.52 20.2H18L14.56 10.88L13.76 8.08L12.96 10.88ZM35.2925 30H30.1725V1.2H35.2925V10.96C36.6525 9.04 38.5725 7.96 40.9325 7.96C46.4925 7.96 49.9325 12.24 49.9325 19.24C49.9325 26.52 46.4125 30.6 40.9325 30.6C38.5725 30.6 36.6125 29.6 35.2925 27.72V30ZM40.0125 12.2C36.9325 12.2 35.2925 14.68 35.2925 19.24C35.2925 23.8 36.9725 26.36 40.0125 26.36C43.0525 26.36 44.6925 23.84 44.6925 19.24C44.6925 14.72 43.0125 12.2 40.0125 12.2ZM62.9291 30.6C56.5691 30.6 52.6491 26.32 52.6491 19.32C52.6491 12.04 56.6891 7.96 62.9291 7.96C69.2491 7.96 73.1691 12.28 73.1691 19.32C73.1691 26.52 69.1291 30.6 62.9291 30.6ZM62.9291 26.36C66.1691 26.36 67.8891 23.88 67.8891 19.32C67.8891 14.76 66.1291 12.2 62.9291 12.2C59.6491 12.2 57.9291 14.72 57.9291 19.32C57.9291 23.84 59.6891 26.36 62.9291 26.36ZM90.2113 21V8.56H95.3313V30H90.2113V27.12C88.8113 29.48 86.6113 30.6 83.9713 30.6C79.7313 30.6 76.8913 28.04 76.8913 22.88V8.56H82.0113V21.84C82.0113 24.76 83.2113 26.36 85.7313 26.36C88.4913 26.36 90.2113 23.88 90.2113 21ZM100.735 23.32V12.52H97.9753V8.56H100.735V3.64H105.855V8.56H110.375V12.52H105.855V22.88C105.855 25.12 106.495 26.32 109.335 26.32H110.295V30.08C109.735 30.36 108.575 30.6 107.175 30.6C102.815 30.6 100.735 28.12 100.735 23.32ZM139.14 30L137.06 24.36H125.46L123.38 30H117.98L128.22 2.8H134.58L144.82 30H139.14ZM130.46 10.88L127.02 20.2H135.5L132.06 10.88L131.26 8.08L130.46 10.88ZM165.647 16.16H160.527C160.047 13.36 158.367 12.2 156.207 12.2C153.047 12.2 151.367 14.72 151.367 19.32C151.367 23.84 153.127 26.36 156.367 26.36C158.567 26.36 160.127 25.16 160.647 22.72H165.807C164.847 28.08 161.087 30.6 156.247 30.6C149.927 30.6 146.087 26.28 146.087 19.32C146.087 12.04 150.047 7.96 156.207 7.96C161.087 7.96 164.927 10.68 165.647 16.16ZM188.912 23C187.752 27.96 183.912 30.6 178.792 30.6C172.312 30.6 168.352 26.32 168.352 19.32C168.352 12.04 172.352 7.96 178.592 7.96C184.872 7.96 188.752 12.2 188.752 19.12V20.32H173.632C173.872 24.24 175.672 26.4 178.792 26.4C181.192 26.4 182.832 25.28 183.512 23H188.912ZM178.592 12.16C175.872 12.16 174.232 13.88 173.752 17.12H183.392C182.912 13.92 181.272 12.16 178.592 12.16ZM196.874 14.32C196.874 19.24 210.394 15.08 210.394 23.68C210.394 27.8 206.594 30.6 201.234 30.6C195.954 30.6 192.154 28.16 191.394 23H196.514C196.874 25.32 198.714 26.64 201.394 26.64C203.914 26.64 205.234 25.56 205.234 24C205.234 19.2 191.994 23.32 191.994 14.64C191.994 11.16 194.714 7.96 200.314 7.96C205.234 7.96 208.954 10.28 209.594 15.6H204.474C204.074 13 202.554 11.96 200.114 11.96C198.074 11.96 196.874 12.96 196.874 14.32ZM223.163 30.6C216.803 30.6 212.883 26.32 212.883 19.32C212.883 12.04 216.923 7.96 223.163 7.96C229.483 7.96 233.403 12.28 233.403 19.32C233.403 26.52 229.363 30.6 223.163 30.6ZM223.163 26.36C226.403 26.36 228.123 23.88 228.123 19.32C228.123 14.76 226.363 12.2 223.163 12.2C219.883 12.2 218.163 14.72 218.163 19.32C218.163 23.84 219.923 26.36 223.163 26.36ZM234.966 12.52V8.56H237.726V7.88C237.726 3.04 239.886 0.599999 243.966 0.599999C245.286 0.599999 246.246 0.879998 246.766 1.12V4.44H246.366C243.526 4.44 242.846 5.6 242.846 7.88V8.56H246.766V12.52H242.846V30H237.726V12.52H234.966ZM249.876 23.32V12.52H247.116V8.56H249.876V3.64H254.996V8.56H259.516V12.52H254.996V22.88C254.996 25.12 255.636 26.32 258.476 26.32H259.436V30.08C258.876 30.36 257.716 30.6 256.316 30.6C251.956 30.6 249.876 28.12 249.876 23.32Z" fill="url(#paint0_linear_665_575)"/>
<defs>
<linearGradient id="paint0_linear_665_575" x1="-21.044" y1="12.8936" x2="251.034" y2="54.442" gradientUnits="userSpaceOnUse">
<stop stop-color="#FCD30B"/>
<stop offset="1" stop-color="#549CE9"/>
</linearGradient>
</defs>
</svg>
